<?xml version="1.0" encoding="utf-8"?>
<!-- Generator: Adobe Illustrator 16.0.0, SVG Export Plug-In . SVG Version: 6.00 Build 0)  -->
<!DOCTYPE svg PUBLIC "-//W3C//DTD SVG 1.1//EN" "http://www.w3.org/Graphics/SVG/1.1/DTD/svg11.dtd">
<svg version="1.1" xmlns="http://www.w3.org/2000/svg" xmlns:xlink="http://www.w3.org/1999/xlink" x="0px" y="0px" width="500px"
	 height="500px" viewBox="0 0 500 500" enable-background="new 0 0 500 500" xml:space="preserve">
<g id="Background_Simple">
	<g>
		<path fill="#92E3A9" d="M435.088,401.397c0,0,68.068-97.918,52.679-205.637C472.376,88.041,375.914,100.9,311.161,86.445
			c-64.753-14.455-98.093-45.358-174.593-19.679c-76.5,25.679-106.083,65.847-114.901,125.713
			c-8.818,59.867-4.415,116.358,5.532,169.399s28.967,91.305,84.898,93.19c55.931,1.887,75.222-15.173,106.786-0.836
			C250.445,468.57,374.941,481.372,435.088,401.397z"/>
		<path opacity="0.7" fill="#FFFFFF" d="M435.088,401.397c0,0,68.068-97.918,52.679-205.637
			C472.376,88.041,375.914,100.9,311.161,86.445c-64.753-14.455-98.093-45.358-174.593-19.679
			c-76.5,25.679-106.083,65.847-114.901,125.713c-8.818,59.867-4.415,116.358,5.532,169.399s28.967,91.305,84.898,93.19
			c55.931,1.887,75.222-15.173,106.786-0.836C250.445,468.57,374.941,481.372,435.088,401.397z"/>
	</g>
</g>
<g id="Floor">
	<ellipse fill="#263238" cx="239.344" cy="466.012" rx="203.026" ry="10.508"/>
</g>
<g id="Plant_00000157308528400826232330000017599365664317706624_">
	<g>
		<path fill="#263238" d="M65.437,409.163c1.78,0.777,6.134,0.679,6.137,0.679c0.045-0.001-0.936-2.85-1.018-3.022
			c-0.955-1.999-3.977-5.299-6.435-4.967c-1.771,0.239-2.755,2.012-2.356,3.68C62.173,407.235,63.92,408.5,65.437,409.163z"/>
		<path fill="#263238" d="M66.939,421.774c1.847,0.27,5.732-0.857,6.042-0.948c0.614,2.175,1.419,4.357,2.356,6.521
			c0.535,1.238,1.112,2.468,1.706,3.693c-0.354-0.52-0.675-0.98-0.727-1.041c-1.45-1.675-5.235-4.06-7.518-3.09
			c-1.646,0.698-2.127,2.668-1.301,4.17c0.843,1.535,2.863,2.294,4.5,2.532c1.662,0.243,4.994-0.652,5.872-0.9
			c0.233,0.468,0.46,0.938,0.695,1.404c1.125,2.241,2.257,4.472,3.302,6.694c0.368,0.782,0.702,1.567,1.039,2.351
			c-0.315-0.461-0.585-0.846-0.632-0.9c-1.449-1.675-5.234-4.061-7.517-3.091c-1.646,0.699-2.127,2.668-1.301,4.171
			c0.844,1.534,2.863,2.293,4.5,2.532c1.585,0.231,4.668-0.567,5.714-0.857c0.321,0.813,0.644,1.627,0.918,2.43
			c0.175,0.552,0.382,1.071,0.526,1.636c0.155,0.556,0.309,1.105,0.461,1.65c0.254,1.06,0.523,2.151,0.745,3.192
			c0.16,0.722,0.299,1.413,0.441,2.109c-0.357-0.784-1.089-2.303-1.165-2.424c-1.178-1.875-4.559-4.806-6.963-4.193
			c-1.731,0.441-2.506,2.315-1.917,3.926c0.601,1.645,2.482,2.7,4.064,3.185c1.742,0.532,5.599,0.046,6.08-0.019
			c0.231,1.152,0.445,2.275,0.63,3.339c0.139,0.786,0.265,1.543,0.381,2.269h1.544c-0.146-0.809-0.305-1.654-0.481-2.539
			c-0.23-1.171-0.499-2.418-0.788-3.695c0.29-0.115,1.935-0.78,3.392-1.595c1.27,1.375,4.523,2.983,4.944,3.188
			c-0.443,1.089-0.884,2.144-1.316,3.132c-0.228,0.523-0.449,1.019-0.669,1.509h1.633c0.13-0.31,0.258-0.614,0.39-0.937
			c0.455-1.104,0.918-2.293,1.382-3.518c0.466,0.098,4.284,0.873,6.063,0.472c1.614-0.364,3.568-1.277,4.291-2.873
			c0.707-1.562,0.074-3.488-1.621-4.058c-2.351-0.789-5.94,1.881-7.255,3.664c-0.078,0.104-0.792,1.34-1.229,2.126
			c0.187-0.501,0.374-0.986,0.56-1.505c0.376-1.022,0.72-2.055,1.094-3.163c0.162-0.542,0.326-1.089,0.491-1.642
			c0.175-0.545,0.292-1.143,0.442-1.719c0.32-1.343,0.578-2.719,0.808-4.111c0.896,0.326,4.097,1.44,5.755,1.323
			c1.65-0.116,3.72-0.722,4.676-2.189c0.936-1.437,0.602-3.437-0.987-4.256c-2.205-1.138-6.157,0.959-7.727,2.521
			c-0.098,0.097-1.098,1.345-1.634,2.041c0.131-0.838,0.267-1.674,0.373-2.525c0.305-2.46,0.538-4.959,0.781-7.451
			c0.074-0.763,0.157-1.522,0.237-2.283c0.318,0.119,4.093,1.524,5.95,1.395c1.65-0.116,3.721-0.723,4.676-2.19
			c0.936-1.436,0.602-3.437-0.986-4.255c-2.205-1.138-6.157,0.959-7.727,2.521c-0.118,0.117-1.556,1.915-1.898,2.391
			c0.177-1.677,0.369-3.345,0.625-4.981c0.35-2.259,0.819-4.456,1.43-6.551c0.148,0.057,4.082,1.541,5.983,1.407
			c1.65-0.116,3.721-0.723,4.676-2.189c0.936-1.437,0.602-3.437-0.986-4.256c-2.205-1.138-6.157,0.959-7.727,2.521
			c-0.123,0.122-1.668,2.058-1.924,2.428c0.037-0.124,0.062-0.257,0.1-0.381c0.681-2.229,1.62-4.301,2.595-6.199
			c0.564-1.104,1.166-2.127,1.772-3.11c0.705,0.353,3.941,1.924,5.666,1.993c1.653,0.065,3.778-0.31,4.888-1.663
			c1.088-1.325,0.976-3.35-0.513-4.339c-2.067-1.372-6.225,0.277-7.957,1.658c-0.094,0.074-0.967,0.944-1.594,1.586
			c0.28-0.439,0.562-0.897,0.839-1.313c1.038-1.563,2.084-2.93,3.021-4.133c0.538-0.68,1.038-1.284,1.512-1.845
			c0.871-0.015,4.381-0.122,5.916-0.842c1.497-0.703,3.21-2.016,3.572-3.729c0.354-1.678-0.678-3.423-2.455-3.614
			c-2.466-0.266-5.397,3.114-6.298,5.138c-0.078,0.176-0.981,3.05-0.936,3.05c0,0,0.042,0,0.053-0.001
			c-0.467,0.53-0.961,1.104-1.489,1.741c-0.965,1.186-2.044,2.533-3.119,4.08c-1.079,1.542-2.208,3.248-3.235,5.152
			c-1.032,1.908-2.02,3.967-2.763,6.221c-0.008,0.025-0.014,0.053-0.022,0.078c0.013-0.727-0.019-2.76-0.04-2.915
			c-0.285-2.196-2.125-6.274-4.565-6.725c-1.757-0.325-3.246,1.052-3.386,2.761c-0.143,1.745,1.123,3.492,2.357,4.595
			c1.392,1.242,5.254,2.446,5.562,2.541c-0.688,2.152-1.22,4.418-1.632,6.739c-0.237,1.327-0.434,2.671-0.615,4.021
			c-0.009-0.628-0.022-1.19-0.032-1.269c-0.285-2.197-2.126-6.273-4.565-6.725c-1.757-0.325-3.246,1.052-3.386,2.761
			c-0.143,1.745,1.123,3.492,2.356,4.594c1.252,1.118,4.524,2.211,5.394,2.488c-0.063,0.519-0.133,1.036-0.195,1.556
			c-0.297,2.489-0.583,4.975-0.939,7.403c-0.125,0.856-0.279,1.695-0.43,2.534c-0.009-0.558-0.021-1.028-0.03-1.1
			c-0.285-2.196-2.125-6.273-4.564-6.725c-1.758-0.324-3.247,1.052-3.387,2.762c-0.143,1.744,1.123,3.491,2.357,4.594
			c1.194,1.067,4.207,2.103,5.238,2.438c-0.181,0.854-0.361,1.712-0.575,2.532c-0.159,0.557-0.273,1.104-0.463,1.654
			c-0.177,0.549-0.353,1.093-0.526,1.631c-0.373,1.024-0.751,2.084-1.139,3.073c-0.265,0.691-0.531,1.345-0.796,2.003
			c0.134-0.851,0.362-2.522,0.365-2.663c0.034-1.472-0.489-3.864-1.529-5.546c0.006-0.217-0.006-0.434-0.041-0.648
			c-0.272-1.693-1.863-2.951-3.59-2.49c-2.397,0.638-3.917,4.846-4.031,7.058c-0.007,0.13,0.079,1.554,0.147,2.451
			c-0.121-0.521-0.232-1.028-0.363-1.563c-0.251-1.061-0.534-2.11-0.833-3.243c-0.164-0.541-0.329-1.087-0.497-1.64
			c-0.153-0.551-0.386-1.113-0.579-1.677c-0.474-1.296-1.018-2.587-1.594-3.875c0.928-0.223,4.211-1.059,5.53-2.071
			c1.313-1.007,2.705-2.655,2.692-4.405c-0.012-1.715-1.394-3.199-3.17-3.006c-2.466,0.268-4.606,4.196-5.054,6.366
			c-0.028,0.135-0.174,1.728-0.237,2.604c-0.353-0.771-0.701-1.544-1.083-2.313c-1.102-2.22-2.287-4.433-3.459-6.646
			c-0.359-0.677-0.709-1.356-1.063-2.035c0.332-0.076,4.256-0.986,5.732-2.119c1.313-1.007,2.705-2.655,2.692-4.406
			c-0.013-1.714-1.394-3.198-3.17-3.005c-2.466,0.268-4.606,4.196-5.054,6.365c-0.034,0.164-0.24,2.455-0.265,3.041
			c-0.776-1.495-1.537-2.992-2.227-4.499c-0.954-2.077-1.775-4.168-2.421-6.253c0.154-0.034,4.254-0.967,5.767-2.127
			c1.313-1.007,2.705-2.655,2.692-4.406c-0.012-1.715-1.394-3.198-3.17-3.005c-2.466,0.268-4.606,4.196-5.054,6.365
			c-0.035,0.171-0.256,2.637-0.265,3.086c-0.038-0.123-0.092-0.247-0.128-0.372c-0.661-2.234-1.021-4.481-1.255-6.602
			c-0.139-1.232-0.202-2.417-0.237-3.572c0.781-0.095,4.348-0.569,5.824-1.464c1.416-0.856,2.98-2.342,3.16-4.083
			c0.176-1.706-1.034-3.333-2.821-3.336c-2.481-0.005-5.04,3.665-5.723,5.772c-0.037,0.114-0.286,1.321-0.455,2.202
			c-0.008-0.521-0.026-1.059-0.024-1.559c0.004-1.875,0.122-3.594,0.24-5.113c0.074-0.864,0.158-1.645,0.244-2.373
			c0.717-0.493,3.586-2.519,4.469-3.966c0.861-1.413,1.565-3.451,0.923-5.08c-0.63-1.595-2.454-2.48-4.041-1.66
			c-2.204,1.139-2.783,5.575-2.419,7.76c0.032,0.188,0.864,3.085,0.902,3.06c0,0,0.035-0.023,0.043-0.029
			c-0.097,0.699-0.192,1.45-0.281,2.273c-0.151,1.521-0.307,3.24-0.351,5.123c-0.049,1.882-0.05,3.928,0.145,6.083
			c0.192,2.16,0.504,4.423,1.127,6.712c0.007,0.026,0.018,0.053,0.025,0.078c-0.39-0.613-1.539-2.291-1.642-2.41
			c-1.449-1.675-5.234-4.06-7.518-3.09c-1.645,0.698-2.127,2.668-1.301,4.17C63.283,420.777,65.302,421.536,66.939,421.774z"/>
		<path fill="#263238" d="M109.477,410.12c0.039,0.024,0.792-2.894,0.819-3.083c0.305-2.193-0.395-6.612-2.628-7.691
			c-1.609-0.778-3.408,0.157-3.994,1.769c-0.599,1.646,0.16,3.665,1.06,5.054C105.788,407.799,109.474,410.118,109.477,410.12z"/>
	</g>
</g>
<g id="Gear">
	<g>
		<path fill="#92E3A9" stroke="#263238" stroke-miterlimit="10" d="M342.188,321.871c0-5.072-0.345-10.063-1.001-14.956
			l27.37-10.825l-11.181-34.409l-28.494,7.326c-4.773-8.85-10.706-16.98-17.597-24.189l15.784-24.853l-29.271-21.266l-18.741,22.67
			c-8.894-4.29-18.445-7.433-28.46-9.239l-1.837-29.364h-36.18l-1.837,29.364c-10.016,1.807-19.566,4.949-28.46,9.239l-15.708-22.67
			h-3.033l-29.27,21.266l15.783,24.853c-6.891,7.208-12.824,15.339-17.597,24.189l-25.46-7.326h-3.033l-11.18,34.409l27.37,10.825
			c-0.656,4.893-1.001,9.884-1.001,14.956c0,5.071,0.345,10.063,1.001,14.955l-27.37,10.826l11.18,34.409l28.494-7.326
			c4.773,8.849,10.706,16.98,17.597,24.188l-15.783,24.853l29.27,21.266h3.033l15.708-22.669c8.894,4.289,18.444,7.432,28.46,9.238
			l1.837,29.365h36.18l1.837-29.365c10.015-1.807,19.566-4.949,28.46-9.238l18.741,22.669l2.313,0.138l26.958-21.403l-15.784-24.853
			c6.892-7.208,12.824-15.34,17.597-24.188l28.494,7.326l11.181-34.409l-27.37-10.826
			C341.843,331.934,342.188,326.942,342.188,321.871z M230.67,380.669c-32.473,0-58.798-26.324-58.798-58.798
			s26.325-58.799,58.798-58.799c32.474,0,58.799,26.325,58.799,58.799S263.144,380.669,230.67,380.669z"/>
		<path fill="#92E3A9" stroke="#263238" stroke-miterlimit="10" d="M345.222,321.871c0-5.072-0.345-10.063-1.001-14.956
			l27.37-10.825l-11.18-34.409l-28.494,7.326c-4.773-8.85-10.706-16.98-17.597-24.189l15.784-24.853l-29.271-21.266l-18.741,22.67
			c-8.894-4.29-18.445-7.433-28.46-9.239l-1.837-29.364h-36.18l-1.838,29.364c-10.015,1.807-19.566,4.949-28.459,9.239
			l-18.742-22.67l-29.27,21.266l15.783,24.853c-6.891,7.208-12.824,15.339-17.597,24.189l-28.494-7.326L95.816,296.09l27.37,10.825
			c-0.656,4.893-1.001,9.884-1.001,14.956c0,5.071,0.346,10.063,1.001,14.955l-27.37,10.826l11.181,34.409l28.494-7.326
			c4.773,8.849,10.706,16.98,17.597,24.188l-15.783,24.853l29.27,21.266l18.742-22.669c8.894,4.289,18.444,7.432,28.459,9.238
			l1.838,29.365h36.18l1.837-29.365c10.015-1.807,19.566-4.949,28.46-9.238l18.741,22.669l29.271-21.266l-15.784-24.853
			c6.891-7.208,12.824-15.34,17.597-24.188l28.494,7.326l11.18-34.409l-27.37-10.826
			C344.876,331.934,345.222,326.942,345.222,321.871z M233.703,380.669c-32.474,0-58.798-26.324-58.798-58.798
			s26.325-58.799,58.798-58.799s58.798,26.325,58.798,58.799S266.177,380.669,233.703,380.669z"/>
	</g>
</g>
<g id="Speech_Bubble">
	<g>
		<path fill="#263238" stroke="#263238" stroke-miterlimit="10" d="M234.956,77.735L214.343,65.61V46.321
			c0-5.535-4.487-10.021-10.021-10.021h-63.291c-5.535,0-10.021,4.487-10.021,10.021v30.682c0,5.535,4.487,10.021,10.021,10.021
			h63.291c5.535,0,10.021-4.487,10.021-10.021v-0.74L234.956,77.735z"/>
		<g>
			<circle fill="#92E3A9" stroke="#263238" stroke-miterlimit="10" cx="159.167" cy="61.025" r="3.207"/>
			<circle fill="#92E3A9" stroke="#263238" stroke-miterlimit="10" cx="173.515" cy="61.025" r="3.207"/>
			<circle fill="#92E3A9" stroke="#263238" stroke-miterlimit="10" cx="187.862" cy="61.025" r="3.207"/>
		</g>
	</g>
</g>
<g id="Character">
	<g>
		<path fill="#92E3A9" stroke="#263238" stroke-miterlimit="10" d="M235.235,135.301l141.392-40.05
			c5.743,6.6,15.033,9.583,23.937,6.852c9.148-2.806,15.253-10.835,16.055-19.813l-27.156,8.33l-5.05-16.461l27.157-8.33
			c-5.698-6.983-15.254-10.209-24.402-7.403c-8.904,2.731-14.923,10.411-15.979,19.096l-141.391,40.051
			c-5.744-6.6-15.033-9.583-23.938-6.853c-9.148,2.806-15.252,10.835-16.055,19.813l27.157-8.33l5.049,16.461l-27.157,8.33
			c5.698,6.983,15.254,10.209,24.403,7.403C228.161,151.666,234.18,143.986,235.235,135.301z"/>
		<path fill="#92E3A9" stroke="#263238" stroke-miterlimit="10" d="M233.774,135.699l141.391-40.05
			c5.744,6.6,15.034,9.583,23.938,6.852c9.148-2.806,15.252-10.835,16.055-19.813L388,91.019l-5.049-16.461l27.157-8.33
			c-5.698-6.983-15.255-10.209-24.403-7.403c-8.903,2.731-14.922,10.411-15.978,19.096l-141.392,40.051
			c-5.744-6.6-15.033-9.583-23.937-6.853c-9.148,2.806-15.252,10.835-16.055,19.813l27.157-8.33l5.049,16.461l-27.157,8.33
			c5.698,6.983,15.254,10.209,24.402,7.403C226.7,152.064,232.719,144.384,233.774,135.699z"/>
		<path fill="#FFFFFF" stroke="#263238" stroke-miterlimit="10" d="M370.41,97.217l-14.706,4.107
			c2.313,10.001,5.178,22.163,5.178,22.163s-33.235-5.853-35.534-5.853s-25.292-0.418-25.292-0.418l-32.625,1.579
			c0,0-24.021,0.302-24.23,1.975c-0.209,1.672,19.23,89.255,19.23,89.255s-0.627,8.152,0.209,9.197
			c0.836,1.045,2.09,1.045,2.926,1.254c0.836,0.209,70.442-0.836,72.324-1.463c1.881-0.627,3.345-2.299,3.136-5.644
			c-0.209-3.344-1.881-7.316-1.881-7.316l-10.242-57.064c0,0,60.2-5.435,62.081-6.898c1.881-1.463,1.672-5.017,1.254-5.644
			C391.986,136.071,378.756,112.399,370.41,97.217z"/>
		<path fill="#FFFFFF" stroke="#263238" stroke-miterlimit="10" d="M270.285,102.913l1.606,15.704l17.845,21.057l8.03-22.485
			l-5.71-18.559c0,0-5.175,4.997-10.172,5.71S270.285,102.913,270.285,102.913z"/>
		<polygon fill="#263238" points="282.025,109.337 273.956,117.04 270.989,111.335 270.285,102.913 		"/>
		<polygon fill="#FFFFFF" stroke="#263238" stroke-miterlimit="10" points="271.177,109.873 267.43,118.795 282.937,140.522 
			285.81,128.432 		"/>
		<polygon fill="#FFFFFF" stroke="#263238" stroke-miterlimit="10" points="295.446,109.694 289.558,126.647 298.124,138.068 
			302.406,114.691 		"/>
		<path fill="#FFFFFF" stroke="#263238" stroke-miterlimit="10" d="M260.34,120.979c0,0-18.395-3.136-19.857-2.508
			c-1.463,0.627-36.998,59.991-36.162,60.618c0.836,0.627,68.771,10.242,68.771,10.242l2.926-10.452l-37.625-13.377l17.767-27.592"
			/>
		<g>
			<path fill="#FFFFFF" stroke="#263238" stroke-miterlimit="10" d="M276.017,178.879c0,0,6.271,2.299,7.734,3.763
				c1.463,1.463,11.706,15.468,12.333,15.886c0.627,0.418-0.418,9.197-1.463,9.824c-1.045,0.627-8.361,2.717-9.825,2.717
				c-1.463,0-2.926-3.762-2.926-3.762l1.881-2.299c0,0-4.181-3.972-5.853-7.734c-1.672-3.762-3.345-8.152-3.345-8.152l-1.463,0.209
				L276.017,178.879z"/>
			<line fill="none" stroke="#263238" stroke-miterlimit="10" x1="283.751" y1="205.008" x2="286.886" y2="207.935"/>
		</g>
		<path fill="none" stroke="#263238" stroke-miterlimit="10" d="M238.392,165.502c0,0-13.378-6.689-15.468-6.062
			s-7.525,8.57-7.525,8.57"/>
		<line fill="none" stroke="#263238" stroke-miterlimit="10" x1="227.731" y1="158.395" x2="233.793" y2="161.112"/>
		<line fill="none" stroke="#263238" stroke-miterlimit="10" x1="301.217" y1="190.982" x2="302.772" y2="197.901"/>
		<line fill="none" stroke="#263238" stroke-miterlimit="10" x1="290.649" y1="143.972" x2="300.045" y2="185.77"/>
		<line fill="none" stroke="#263238" stroke-miterlimit="10" x1="321.983" y1="199.878" x2="326.816" y2="202.676"/>
		<line fill="none" stroke="#263238" stroke-miterlimit="10" x1="283.097" y1="177.365" x2="317.751" y2="197.428"/>
		<line fill="none" stroke="#263238" stroke-miterlimit="10" x1="307.488" y1="197.154" x2="320.373" y2="203.597"/>
		<line fill="none" stroke="#263238" stroke-miterlimit="10" x1="328.901" y1="148.989" x2="328.065" y2="129.758"/>
		<path fill="#92E3A9" stroke="#263238" stroke-miterlimit="10" d="M264.188,220.405l8.464,41.756l66.504,176.939
			c0,0,7.032-4.167,9.115-4.427c2.083-0.261,8.594,1.302,8.594,1.302l-22.396-91.669L316.5,261.753l52.345,70.054l27.604-14.845
			l-54.428-82.554l-4.132-15.395L264.188,220.405z"/>
		<polygon fill="#263238" stroke="#263238" stroke-miterlimit="10" points="337.889,219.013 264.188,220.405 265.326,226.021 
			339.464,224.88 		"/>
		<polygon fill="#FFFFFF" stroke="#263238" stroke-miterlimit="10" points="300.942,220.585 301.875,225.595 314.341,225.362 
			313.292,219.886 		"/>
		<polyline fill="#92E3A9" stroke="#263238" stroke-miterlimit="10" points="278.344,227.537 277.277,220.674 280.937,220.37 
			282.767,227.689 		"/>
		<polyline fill="#92E3A9" stroke="#263238" stroke-miterlimit="10" points="327.142,226.774 326.075,219.607 330.04,219.455 
			331.412,226.469 		"/>
		<line fill="none" stroke="#263238" stroke-miterlimit="10" x1="317.792" y1="249.07" x2="316.315" y2="252.851"/>
		<polyline fill="none" stroke="#263238" stroke-miterlimit="10" points="310.521,228.299 310.521,235.313 320.127,243.091 
			318.463,247.351 		"/>
		<line fill="none" stroke="#263238" stroke-miterlimit="10" x1="299.083" y1="236.686" x2="325.922" y2="231.807"/>
		<line fill="none" stroke="#263238" stroke-miterlimit="10" x1="324.745" y1="233.877" x2="307.623" y2="237.449"/>
		<line fill="none" stroke="#263238" stroke-miterlimit="10" x1="332.479" y1="232.264" x2="327.619" y2="233.278"/>
		<path fill="none" stroke="#263238" stroke-miterlimit="10" d="M274.691,249.507c-0.729,2.799-1.411,4.634-1.411,4.634"/>
		<path fill="none" stroke="#263238" stroke-miterlimit="10" d="M274.521,226.639c0,0,2.274,4.963,1.861,12.613
			c-0.103,1.899-0.345,3.773-0.652,5.517"/>
		<line fill="none" stroke="#263238" stroke-miterlimit="10" x1="331.688" y1="251.263" x2="336.436" y2="247.985"/>
		<line fill="none" stroke="#263238" stroke-miterlimit="10" x1="316.5" y1="261.753" x2="329.261" y2="252.94"/>
		<line fill="none" stroke="#263238" stroke-miterlimit="10" x1="321.869" y1="259.517" x2="341.898" y2="249.502"/>
		<line fill="none" stroke="#263238" stroke-miterlimit="10" x1="294.983" y1="254.996" x2="298.804" y2="256.482"/>
		<line fill="none" stroke="#263238" stroke-miterlimit="10" x1="282.416" y1="250.109" x2="291.897" y2="253.796"/>
		<path fill="#92E3A9" stroke="#263238" stroke-miterlimit="10" d="M363.143,317.786l-44.005,90.438l13.05,14.567
			c0,0,63.732-95.294,64.338-98.025c0.607-2.731,1.821-5.159-1.214-10.015s-5.159-6.373-5.159-6.373"/>
		<g>
			<path fill="#FFFFFF" stroke="#263238" stroke-miterlimit="10" d="M356.865,435.976l10.102,15.44c0,0,11.848,9.514,12.566,10.053
				c0.718,0.538,0,2.153-0.719,3.77c-0.718,1.615-8.257,3.23-14.72,2.333c-6.462-0.897-19.208-7.18-21.541-8.796
				c-2.334-1.615-3.411-3.41-3.052-5.924c0.359-2.513-0.346-13.751-0.346-13.751s7.293-4.296,9.115-4.427
				C350.093,434.542,356.865,435.976,356.865,435.976z"/>
			<path fill="#FFFFFF" stroke="#263238" stroke-miterlimit="10" d="M364.095,467.571c6.463,0.897,14.002-0.718,14.72-2.333
				c0.526-1.184,1.046-2.361,1.008-3.122c-3.297,2.208-9.746,4.69-15.188,3.48c-5.382-1.195-20.34-9.233-25.195-11.89
				c-0.021,2.075,1.056,3.643,3.115,5.068C344.887,460.392,357.633,466.674,364.095,467.571z"/>
		</g>
		<g>
			<path fill="#FFFFFF" stroke="#263238" stroke-miterlimit="10" d="M319.137,408.224c0,0-14.999,6.213-14.64,8.188
				c0.359,1.975,10.053,22.08,10.591,23.516c0.539,1.437,7.719,19.567,9.334,20.644c1.616,1.077,12.746,4.129,14.899,2.693
				c2.154-1.437,1.616-2.872-0.179-5.386c-1.795-2.513-3.77-5.924-4.309-7.539c-0.539-1.616-3.411-23.157-3.411-23.157l0.763-4.391
				L319.137,408.224z"/>
			<path fill="#FFFFFF" stroke="#263238" stroke-miterlimit="10" d="M340.655,460.643c-1.146,0.518-3.723,1.106-6.18,0.646
				c-2.872-0.539-6.642-2.154-8.257-4.309c-1.441-1.922-16.884-35.132-20.198-42.273c-0.994,0.689-1.598,1.29-1.523,1.704
				c0.359,1.975,10.053,22.08,10.591,23.516c0.539,1.437,7.719,19.567,9.334,20.644c1.616,1.077,12.746,4.129,14.899,2.693
				C340.537,462.454,340.895,461.645,340.655,460.643z"/>
		</g>
		<path fill="none" stroke="#263238" stroke-miterlimit="10" d="M360.882,123.487c0,0,3.31,7.746,7.981,10.471"/>
		<path fill="none" stroke="#263238" stroke-miterlimit="10" d="M363.023,131.233c0,0,3.114,3.504,7.397,5.062"/>
		<line fill="none" stroke="#263238" stroke-miterlimit="10" x1="332.266" y1="126.561" x2="330.32" y2="144.665"/>
		<line fill="none" stroke="#263238" stroke-miterlimit="10" x1="260.486" y1="141.616" x2="250.855" y2="149.072"/>
		<g>
			<path fill="#FFFFFF" stroke="#263238" stroke-miterlimit="10" d="M259.048,83.764c0,0-3.245-2.466-4.414,2.207
				s3.246,8.697,4.543,8.957c1.298,0.26,3.375-0.649,3.375-0.649s2.726,6.23,5.192,8.308c2.467,2.077,10.125,7.27,14.279,6.75
				c4.154-0.52,9.996-6.88,11.294-10.255c1.298-3.375,1.688-8.438,1.688-8.438s5.841-1.039,5.841-7.01
				c0-5.971-3.245-6.23-4.803-5.452c-1.558,0.779-1.558,0.779-1.558,0.779l-1.558-9.996l-29.337-10.385l-5.063,18.563
				L259.048,83.764z"/>
			<path fill="#263238" stroke="#263238" stroke-miterlimit="10" d="M261.904,55.985c0,0-5.841,2.855-6.231,9.866
				c-0.389,7.01,4.673,21.938,4.673,21.938s1.947,0,1.558-1.428c-0.39-1.428-1.428-7.529-1.558-8.308s2.985-4.414,3.894-7.27
				s1.558-7.529,1.558-7.529s5.711,6.621,11.164,7.14c5.452,0.52,11.423,2.337,11.423,2.337l4.543,5.841c0,0,0,4.673,0.52,5.063
				c0.519,0.39,1.038-0.129,1.168-1.038s-0.13-5.063-0.13-5.063s2.726-3.505,2.207-7.659c-0.52-4.154-2.337-13.371-9.736-17.265
				C279.559,48.715,266.708,49.494,261.904,55.985z"/>
			
				<ellipse transform="matrix(0.9773 -0.2118 0.2118 0.9773 -11.3683 59.1856)" fill="#263238" cx="270.602" cy="82.661" rx="1.298" ry="2.142"/>
			
				<ellipse transform="matrix(0.9983 -0.0589 0.0589 0.9983 -4.2783 16.8737)" fill="#263238" cx="284.261" cy="81.053" rx="1.298" ry="2.142"/>
			<path fill="none" stroke="#263238" stroke-miterlimit="10" d="M281.246,77.144l-2.985,4.024c0,0,3.894,11.164,3.505,12.073
				c-0.39,0.909-5.582,1.168-5.582,1.168"/>
			<path fill="none" stroke="#263238" stroke-miterlimit="10" d="M272.289,97.654c0,0,4.024,2.207,8.698,0.909
				c4.673-1.298,5.582-4.284,5.582-4.284"/>
			<path fill="none" stroke="#263238" stroke-miterlimit="10" d="M276.313,99.212c0,0,3.115,2.986,4.803,2.466
				c1.688-0.519,2.467-4.154,2.467-4.154S281.376,99.082,276.313,99.212z"/>
			<path fill="none" stroke="#263238" stroke-miterlimit="10" d="M264.63,77.793c0,0,3.505-3.505,8.308-1.558"/>
			<path fill="none" stroke="#263238" stroke-miterlimit="10" d="M282.415,75.067c0,0,3.894-2.986,7.27,0.779"/>
		</g>
		<g>
			<path fill="#FFFFFF" stroke="#263238" stroke-miterlimit="10" d="M326.786,96.748c0,0-1.308,3.105-2.778,5.067
				c-1.471,1.961-2.452,2.288-1.144,3.105c1.307,0.817,5.066-2.125,5.066-2.125S328.094,98.219,326.786,96.748z"/>
			<path fill="#FFFFFF" stroke="#263238" stroke-miterlimit="10" d="M357.956,81.473c0,0-8.779-4.599-11.497-3.554
				c-2.717,1.045-8.779,4.181-11.706,7.107c-2.926,2.927-8.361,8.152-8.361,9.197c0,1.045,0,8.988,1.463,9.824
				c1.463,0.836,6.689-0.209,6.689-0.209s9.406,0.209,10.033-1.045c0.627-1.254,4.181-4.39,3.345-5.226
				c-0.836-0.836-1.672-0.836-1.672-0.836l4.808-9.197l1.254-3.762L357.956,81.473z"/>
			<line fill="none" stroke="#263238" stroke-miterlimit="10" x1="338.517" y1="95.478" x2="341.822" y2="103.449"/>
			<line fill="none" stroke="#263238" stroke-miterlimit="10" x1="328.911" y1="95.113" x2="332.997" y2="103.775"/>
			<line fill="none" stroke="#263238" stroke-miterlimit="10" x1="333.324" y1="95.767" x2="337.736" y2="103.612"/>
			<line fill="none" stroke="#263238" stroke-miterlimit="10" x1="346.25" y1="96.731" x2="345.254" y2="99.036"/>
		</g>
		<g>
			<g>
				<g>
					<path fill="#263238" d="M292.325,107.875c-0.229,0-0.46-0.079-0.649-0.24c-0.42-0.358-0.47-0.99-0.111-1.41
						c1.33-1.557,2.248-2.935,2.657-3.986c1.285-3.303,2.454-11.419,2.466-11.5c0.078-0.547,0.582-0.927,1.131-0.848
						c0.546,0.078,0.926,0.584,0.848,1.131c-0.049,0.342-1.213,8.425-2.581,11.942c-0.496,1.275-1.506,2.809-3,4.56
						C292.888,107.756,292.607,107.875,292.325,107.875z"/>
				</g>
				<g>
					<path fill="#92E3A9" stroke="#263238" stroke-miterlimit="10" d="M289.64,111.758c-0.561,0-1.118-0.234-1.514-0.691
						c-0.723-0.835-0.631-2.099,0.204-2.821c0.001,0,0.81-0.72,2.474-2.669c0.717-0.84,1.98-0.94,2.819-0.223
						c0.84,0.717,0.94,1.979,0.223,2.819c-1.87,2.191-2.799,3.011-2.899,3.098C290.569,111.598,290.104,111.758,289.64,111.758z"/>
				</g>
			</g>
			<g>
				<path fill="#263238" d="M253.929,82.975l-1.693-7.151c-1.932-9.68,2.365-19.684,10.686-24.928
					c6.291-3.964,13.907-4.782,20.896-2.246l0.901,0.327c10.17,3.692,16.605,13.797,15.649,24.574l-0.579,4.824l-1.985-0.238
					l0.575-4.793c0.873-9.844-5.024-19.103-14.343-22.486l-0.901-0.327c-6.404-2.324-13.382-1.575-19.147,2.058
					c-7.625,4.805-11.562,13.972-9.798,22.81l1.686,7.116L253.929,82.975z"/>
				<g>
					<path fill="#92E3A9" stroke="#263238" stroke-miterlimit="10" d="M260.613,96.013l-1.888,0.519
						c-1.255,0.346-2.554-0.393-2.899-1.648l-2.544-9.248c-0.346-1.256,0.392-2.554,1.648-2.899l1.888-0.519
						c1.256-0.346,2.554,0.392,2.899,1.648l2.544,9.248C262.606,94.369,261.869,95.667,260.613,96.013z"/>
					
						<rect x="256.763" y="82.221" transform="matrix(0.9642 -0.2651 0.2651 0.9642 -14.4713 71.5457)" fill="#263238" stroke="#263238" stroke-miterlimit="10" width="2.017" height="14.307"/>
				</g>
			</g>
			<path fill="#92E3A9" stroke="#263238" stroke-miterlimit="10" d="M298.903,91.27l-1.954-0.128
				c-1.299-0.085-2.284-1.208-2.198-2.508l0.629-9.57c0.085-1.3,1.208-2.284,2.507-2.198l1.954,0.128
				c1.299,0.086,2.284,1.208,2.198,2.508l-0.629,9.571C301.325,90.371,300.202,91.355,298.903,91.27z"/>
			
				<rect x="297.387" y="76.914" transform="matrix(0.9978 0.0656 -0.0656 0.9978 6.1596 -19.3992)" fill="#263238" stroke="#263238" stroke-miterlimit="10" width="2.017" height="14.307"/>
		</g>
		<g>
			<g>
				<rect x="307.46" y="154.757" fill="#92E3A9" stroke="#263238" stroke-miterlimit="10" width="15.208" height="25.107"/>
				<rect x="312.466" y="157.92" fill="#FFFFFF" width="5.518" height="8.473"/>
			</g>
			<rect x="313.648" y="149.841" fill="#263238" width="3.547" height="6.503"/>
		</g>
	</g>
</g>
</svg>
