<?xml version="1.0" encoding="utf-8"?>
<!-- Generator: Adobe Illustrator 27.5.0, SVG Export Plug-In . SVG Version: 6.00 Build 0)  -->
<svg version="1.1" xmlns="http://www.w3.org/2000/svg" xmlns:xlink="http://www.w3.org/1999/xlink" x="0px" y="0px"
	 viewBox="0 0 500 500" style="enable-background:new 0 0 500 500;" xml:space="preserve">
<g id="Background_Simple">
	<g>
		<path style="fill:#92E3A9;" d="M328.978,34.582c0,0-77.397-27.521-153.371,16.294C99.634,94.692,61.299,181.67,28.38,251.343
			C-4.539,321.016,14.409,391.885,72.405,424.2c57.996,32.314,97.432-15.321,178.791-17.641
			c81.36-2.319,103.241,9.312,170.752-36.649c67.512-45.961,79.716-154.505,26.46-234.82
			C395.151,54.775,328.978,34.582,328.978,34.582z"/>
		<path style="opacity:0.7;fill:#FFFFFF;" d="M328.978,34.582c0,0-77.397-27.521-153.371,16.294
			C99.634,94.692,61.299,181.67,28.38,251.343C-4.539,321.016,14.409,391.885,72.405,424.2
			c57.996,32.314,97.432-15.321,178.791-17.641c81.36-2.319,103.241,9.312,170.752-36.649
			c67.512-45.961,79.716-154.505,26.46-234.82C395.151,54.775,328.978,34.582,328.978,34.582z"/>
	</g>
</g>
<g id="Bookshelf_2">
	<g>
		<g>
			
				<line style="fill:none;stroke:#263238;stroke-linecap:round;stroke-linejoin:round;stroke-miterlimit:10;" x1="162" y1="26.002" x2="162" y2="461.002"/>
			
				<line style="fill:none;stroke:#263238;stroke-linecap:round;stroke-linejoin:round;stroke-miterlimit:10;" x1="212" y1="26.002" x2="212" y2="461.002"/>
			
				<line style="fill:none;stroke:#263238;stroke-linecap:round;stroke-linejoin:round;stroke-miterlimit:10;" x1="243" y1="26.002" x2="243" y2="461.002"/>
		</g>
		
			<rect x="287" y="99.002" style="fill:none;stroke:#263238;stroke-linecap:round;stroke-linejoin:round;stroke-miterlimit:10;" width="176" height="363"/>
		
			<rect x="462.712" y="99.002" style="fill:#263238;stroke:#263238;stroke-linecap:round;stroke-linejoin:round;stroke-miterlimit:10;" width="8.336" height="363"/>
		<g>
			
				<rect x="287.19" y="132.724" style="fill:none;stroke:#263238;stroke-linecap:round;stroke-linejoin:round;stroke-miterlimit:10;" width="175.66" height="4.836"/>
			
				<line style="fill:none;stroke:#263238;stroke-linecap:round;stroke-linejoin:round;stroke-miterlimit:10;" x1="287.531" y1="143.203" x2="462" y2="143.203"/>
			<g>
				
					<rect x="291" y="101.634" style="fill:none;stroke:#263238;stroke-linecap:round;stroke-linejoin:round;stroke-miterlimit:10;" width="22" height="31"/>
				
					<rect x="313" y="101.634" style="fill:none;stroke:#263238;stroke-linecap:round;stroke-linejoin:round;stroke-miterlimit:10;" width="2.333" height="31"/>
			</g>
			<g>
				
					<rect x="318" y="101.634" style="fill:none;stroke:#263238;stroke-linecap:round;stroke-linejoin:round;stroke-miterlimit:10;" width="22" height="31"/>
				
					<rect x="340" y="101.634" style="fill:none;stroke:#263238;stroke-linecap:round;stroke-linejoin:round;stroke-miterlimit:10;" width="2.333" height="31"/>
			</g>
			<g>
				
					<rect x="347.044" y="107.157" style="fill:none;stroke:#263238;stroke-linecap:round;stroke-linejoin:round;stroke-miterlimit:10;" width="18.081" height="25.477"/>
				
					<rect x="365.125" y="107.157" style="fill:none;stroke:#263238;stroke-linecap:round;stroke-linejoin:round;stroke-miterlimit:10;" width="1.918" height="25.477"/>
			</g>
			<g>
				
					<rect x="372" y="101.634" style="fill:none;stroke:#263238;stroke-linecap:round;stroke-linejoin:round;stroke-miterlimit:10;" width="22" height="31"/>
				
					<rect x="394" y="101.634" style="fill:none;stroke:#263238;stroke-linecap:round;stroke-linejoin:round;stroke-miterlimit:10;" width="2.333" height="31"/>
			</g>
			<g>
				
					<rect x="403.335" y="107.157" style="fill:none;stroke:#263238;stroke-linecap:round;stroke-linejoin:round;stroke-miterlimit:10;" width="18.081" height="25.477"/>
				
					<rect x="421.416" y="107.157" style="fill:none;stroke:#263238;stroke-linecap:round;stroke-linejoin:round;stroke-miterlimit:10;" width="1.918" height="25.477"/>
			</g>
			<g>
				
					<rect x="430.335" y="107.157" style="fill:none;stroke:#263238;stroke-linecap:round;stroke-linejoin:round;stroke-miterlimit:10;" width="18.081" height="25.477"/>
				
					<rect x="448.416" y="107.157" style="fill:none;stroke:#263238;stroke-linecap:round;stroke-linejoin:round;stroke-miterlimit:10;" width="1.918" height="25.477"/>
			</g>
		</g>
		<g>
			
				<rect x="287.19" y="184.724" style="fill:none;stroke:#263238;stroke-linecap:round;stroke-linejoin:round;stroke-miterlimit:10;" width="175.66" height="4.836"/>
			
				<line style="fill:none;stroke:#263238;stroke-linecap:round;stroke-linejoin:round;stroke-miterlimit:10;" x1="287.531" y1="195.203" x2="462" y2="195.203"/>
			<g>
				
					<rect x="289.01" y="151.099" style="fill:none;stroke:#263238;stroke-linecap:round;stroke-linejoin:round;stroke-miterlimit:10;" width="23.799" height="33.535"/>
				
					<rect x="312.809" y="151.099" style="fill:none;stroke:#263238;stroke-linecap:round;stroke-linejoin:round;stroke-miterlimit:10;" width="2.524" height="33.535"/>
			</g>
			<g>
				
					<rect x="318" y="153.634" style="fill:none;stroke:#263238;stroke-linecap:round;stroke-linejoin:round;stroke-miterlimit:10;" width="22" height="31"/>
				
					<rect x="340" y="153.634" style="fill:none;stroke:#263238;stroke-linecap:round;stroke-linejoin:round;stroke-miterlimit:10;" width="2.333" height="31"/>
			</g>
			<g>
				
					<rect x="345" y="153.634" style="fill:none;stroke:#263238;stroke-linecap:round;stroke-linejoin:round;stroke-miterlimit:10;" width="22" height="31"/>
				
					<rect x="367" y="153.634" style="fill:none;stroke:#263238;stroke-linecap:round;stroke-linejoin:round;stroke-miterlimit:10;" width="2.333" height="31"/>
			</g>
			<g>
				
					<rect x="372" y="154.086" style="fill:none;stroke:#263238;stroke-linecap:round;stroke-linejoin:round;stroke-miterlimit:10;" width="21.679" height="30.548"/>
				
					<rect x="393.679" y="154.086" style="fill:none;stroke:#263238;stroke-linecap:round;stroke-linejoin:round;stroke-miterlimit:10;" width="2.299" height="30.548"/>
			</g>
			<g>
				
					<rect x="401.599" y="156.945" style="fill:none;stroke:#263238;stroke-linecap:round;stroke-linejoin:round;stroke-miterlimit:10;" width="19.65" height="27.689"/>
				
					<rect x="421.249" y="156.945" style="fill:none;stroke:#263238;stroke-linecap:round;stroke-linejoin:round;stroke-miterlimit:10;" width="2.084" height="27.689"/>
			</g>
			<g>
				
					<rect x="426" y="147.371" style="fill:none;stroke:#263238;stroke-linecap:round;stroke-linejoin:round;stroke-miterlimit:10;" width="26.445" height="37.263"/>
				
					<rect x="452.445" y="147.371" style="fill:none;stroke:#263238;stroke-linecap:round;stroke-linejoin:round;stroke-miterlimit:10;" width="2.805" height="37.263"/>
			</g>
		</g>
		<g>
			
				<rect x="287.19" y="236.724" style="fill:none;stroke:#263238;stroke-linecap:round;stroke-linejoin:round;stroke-miterlimit:10;" width="175.66" height="4.836"/>
			
				<line style="fill:none;stroke:#263238;stroke-linecap:round;stroke-linejoin:round;stroke-miterlimit:10;" x1="287.531" y1="247.203" x2="462" y2="247.203"/>
			<g>
				
					<rect x="291" y="205.634" style="fill:none;stroke:#263238;stroke-linecap:round;stroke-linejoin:round;stroke-miterlimit:10;" width="22" height="31"/>
				
					<rect x="313" y="205.634" style="fill:none;stroke:#263238;stroke-linecap:round;stroke-linejoin:round;stroke-miterlimit:10;" width="2.333" height="31"/>
			</g>
			<g>
				
					<rect x="318" y="205.634" style="fill:none;stroke:#263238;stroke-linecap:round;stroke-linejoin:round;stroke-miterlimit:10;" width="22" height="31"/>
				
					<rect x="340" y="205.634" style="fill:none;stroke:#263238;stroke-linecap:round;stroke-linejoin:round;stroke-miterlimit:10;" width="2.333" height="31"/>
			</g>
			<g>
				
					<rect x="345" y="205.634" style="fill:none;stroke:#263238;stroke-linecap:round;stroke-linejoin:round;stroke-miterlimit:10;" width="22" height="31"/>
				
					<rect x="367" y="205.634" style="fill:none;stroke:#263238;stroke-linecap:round;stroke-linejoin:round;stroke-miterlimit:10;" width="2.333" height="31"/>
			</g>
			<g>
				
					<rect x="374.515" y="208.837" style="fill:none;stroke:#263238;stroke-linecap:round;stroke-linejoin:round;stroke-miterlimit:10;" width="19.726" height="27.796"/>
				
					<rect x="394.241" y="208.837" style="fill:none;stroke:#263238;stroke-linecap:round;stroke-linejoin:round;stroke-miterlimit:10;" width="2.092" height="27.796"/>
			</g>
			<g>
				
					<rect x="399" y="205.634" style="fill:none;stroke:#263238;stroke-linecap:round;stroke-linejoin:round;stroke-miterlimit:10;" width="22" height="31"/>
				
					<rect x="421" y="205.634" style="fill:none;stroke:#263238;stroke-linecap:round;stroke-linejoin:round;stroke-miterlimit:10;" width="2.333" height="31"/>
			</g>
			<g>
				
					<rect x="426" y="205.634" style="fill:none;stroke:#263238;stroke-linecap:round;stroke-linejoin:round;stroke-miterlimit:10;" width="22" height="31"/>
				
					<rect x="448" y="205.634" style="fill:none;stroke:#263238;stroke-linecap:round;stroke-linejoin:round;stroke-miterlimit:10;" width="2.333" height="31"/>
			</g>
		</g>
		<g>
			
				<rect x="287.19" y="288.724" style="fill:none;stroke:#263238;stroke-linecap:round;stroke-linejoin:round;stroke-miterlimit:10;" width="175.66" height="4.836"/>
			
				<line style="fill:none;stroke:#263238;stroke-linecap:round;stroke-linejoin:round;stroke-miterlimit:10;" x1="287.531" y1="299.203" x2="462" y2="299.203"/>
			<g>
				
					<rect x="291" y="257.634" style="fill:none;stroke:#263238;stroke-linecap:round;stroke-linejoin:round;stroke-miterlimit:10;" width="22" height="31"/>
				
					<rect x="313" y="257.634" style="fill:none;stroke:#263238;stroke-linecap:round;stroke-linejoin:round;stroke-miterlimit:10;" width="2.333" height="31"/>
			</g>
			<g>
				
					<rect x="318" y="257.634" style="fill:none;stroke:#263238;stroke-linecap:round;stroke-linejoin:round;stroke-miterlimit:10;" width="22" height="31"/>
				
					<rect x="340" y="257.634" style="fill:none;stroke:#263238;stroke-linecap:round;stroke-linejoin:round;stroke-miterlimit:10;" width="2.333" height="31"/>
			</g>
			<g>
				
					<rect x="345" y="257.634" style="fill:none;stroke:#263238;stroke-linecap:round;stroke-linejoin:round;stroke-miterlimit:10;" width="22" height="31"/>
				
					<rect x="367" y="257.634" style="fill:none;stroke:#263238;stroke-linecap:round;stroke-linejoin:round;stroke-miterlimit:10;" width="2.333" height="31"/>
			</g>
			<g>
				
					<rect x="372" y="257.634" style="fill:none;stroke:#263238;stroke-linecap:round;stroke-linejoin:round;stroke-miterlimit:10;" width="22" height="31"/>
				
					<rect x="394" y="257.634" style="fill:none;stroke:#263238;stroke-linecap:round;stroke-linejoin:round;stroke-miterlimit:10;" width="2.333" height="31"/>
			</g>
			<g>
				
					<rect x="399" y="257.634" style="fill:none;stroke:#263238;stroke-linecap:round;stroke-linejoin:round;stroke-miterlimit:10;" width="22" height="31"/>
				
					<rect x="421" y="257.634" style="fill:none;stroke:#263238;stroke-linecap:round;stroke-linejoin:round;stroke-miterlimit:10;" width="2.333" height="31"/>
			</g>
			<g>
				
					<rect x="426" y="257.634" style="fill:none;stroke:#263238;stroke-linecap:round;stroke-linejoin:round;stroke-miterlimit:10;" width="22" height="31"/>
				
					<rect x="448" y="257.634" style="fill:none;stroke:#263238;stroke-linecap:round;stroke-linejoin:round;stroke-miterlimit:10;" width="2.333" height="31"/>
			</g>
		</g>
		<g>
			
				<rect x="287.19" y="340.724" style="fill:none;stroke:#263238;stroke-linecap:round;stroke-linejoin:round;stroke-miterlimit:10;" width="175.66" height="4.836"/>
			
				<line style="fill:none;stroke:#263238;stroke-linecap:round;stroke-linejoin:round;stroke-miterlimit:10;" x1="287.531" y1="351.203" x2="462" y2="351.203"/>
			<g>
				
					<rect x="291" y="309.634" style="fill:none;stroke:#263238;stroke-linecap:round;stroke-linejoin:round;stroke-miterlimit:10;" width="22" height="31"/>
				
					<rect x="313" y="309.634" style="fill:none;stroke:#263238;stroke-linecap:round;stroke-linejoin:round;stroke-miterlimit:10;" width="2.333" height="31"/>
			</g>
			<g>
				
					<rect x="318" y="309.634" style="fill:none;stroke:#263238;stroke-linecap:round;stroke-linejoin:round;stroke-miterlimit:10;" width="22" height="31"/>
				
					<rect x="340" y="309.634" style="fill:none;stroke:#263238;stroke-linecap:round;stroke-linejoin:round;stroke-miterlimit:10;" width="2.333" height="31"/>
			</g>
			<g>
				
					<rect x="345" y="309.634" style="fill:none;stroke:#263238;stroke-linecap:round;stroke-linejoin:round;stroke-miterlimit:10;" width="22" height="31"/>
				
					<rect x="367" y="309.634" style="fill:none;stroke:#263238;stroke-linecap:round;stroke-linejoin:round;stroke-miterlimit:10;" width="2.333" height="31"/>
			</g>
			<g>
				
					<rect x="372" y="309.634" style="fill:none;stroke:#263238;stroke-linecap:round;stroke-linejoin:round;stroke-miterlimit:10;" width="22" height="31"/>
				
					<rect x="394" y="309.634" style="fill:none;stroke:#263238;stroke-linecap:round;stroke-linejoin:round;stroke-miterlimit:10;" width="2.333" height="31"/>
			</g>
			<g>
				
					<rect x="399" y="309.634" style="fill:none;stroke:#263238;stroke-linecap:round;stroke-linejoin:round;stroke-miterlimit:10;" width="22" height="31"/>
				
					<rect x="421" y="309.634" style="fill:none;stroke:#263238;stroke-linecap:round;stroke-linejoin:round;stroke-miterlimit:10;" width="2.333" height="31"/>
			</g>
			<g>
				
					<rect x="426" y="309.634" style="fill:none;stroke:#263238;stroke-linecap:round;stroke-linejoin:round;stroke-miterlimit:10;" width="22" height="31"/>
				
					<rect x="448" y="309.634" style="fill:none;stroke:#263238;stroke-linecap:round;stroke-linejoin:round;stroke-miterlimit:10;" width="2.333" height="31"/>
			</g>
		</g>
		<g>
			
				<rect x="287.19" y="392.724" style="fill:none;stroke:#263238;stroke-linecap:round;stroke-linejoin:round;stroke-miterlimit:10;" width="175.66" height="4.836"/>
			
				<line style="fill:none;stroke:#263238;stroke-linecap:round;stroke-linejoin:round;stroke-miterlimit:10;" x1="287.531" y1="403.203" x2="462" y2="403.203"/>
			<g>
				
					<rect x="291" y="361.634" style="fill:none;stroke:#263238;stroke-linecap:round;stroke-linejoin:round;stroke-miterlimit:10;" width="22" height="31"/>
				
					<rect x="313" y="361.634" style="fill:none;stroke:#263238;stroke-linecap:round;stroke-linejoin:round;stroke-miterlimit:10;" width="2.333" height="31"/>
			</g>
			<g>
				
					<rect x="318" y="361.634" style="fill:none;stroke:#263238;stroke-linecap:round;stroke-linejoin:round;stroke-miterlimit:10;" width="22" height="31"/>
				
					<rect x="340" y="361.634" style="fill:none;stroke:#263238;stroke-linecap:round;stroke-linejoin:round;stroke-miterlimit:10;" width="2.333" height="31"/>
			</g>
			<g>
				
					<rect x="345" y="361.634" style="fill:none;stroke:#263238;stroke-linecap:round;stroke-linejoin:round;stroke-miterlimit:10;" width="22" height="31"/>
				
					<rect x="367" y="361.634" style="fill:none;stroke:#263238;stroke-linecap:round;stroke-linejoin:round;stroke-miterlimit:10;" width="2.333" height="31"/>
			</g>
			<g>
				
					<rect x="372" y="361.634" style="fill:none;stroke:#263238;stroke-linecap:round;stroke-linejoin:round;stroke-miterlimit:10;" width="22" height="31"/>
				
					<rect x="394" y="361.634" style="fill:none;stroke:#263238;stroke-linecap:round;stroke-linejoin:round;stroke-miterlimit:10;" width="2.333" height="31"/>
			</g>
			<g>
				
					<rect x="399" y="361.634" style="fill:none;stroke:#263238;stroke-linecap:round;stroke-linejoin:round;stroke-miterlimit:10;" width="22" height="31"/>
				
					<rect x="421" y="361.634" style="fill:none;stroke:#263238;stroke-linecap:round;stroke-linejoin:round;stroke-miterlimit:10;" width="2.333" height="31"/>
			</g>
			<g>
				
					<rect x="426" y="361.634" style="fill:none;stroke:#263238;stroke-linecap:round;stroke-linejoin:round;stroke-miterlimit:10;" width="22" height="31"/>
				
					<rect x="448" y="361.634" style="fill:none;stroke:#263238;stroke-linecap:round;stroke-linejoin:round;stroke-miterlimit:10;" width="2.333" height="31"/>
			</g>
		</g>
		<g>
			
				<rect x="287.19" y="444.724" style="fill:none;stroke:#263238;stroke-linecap:round;stroke-linejoin:round;stroke-miterlimit:10;" width="175.66" height="4.836"/>
			
				<line style="fill:none;stroke:#263238;stroke-linecap:round;stroke-linejoin:round;stroke-miterlimit:10;" x1="287.531" y1="455.203" x2="462" y2="455.203"/>
			<g>
				
					<rect x="291" y="413.634" style="fill:none;stroke:#263238;stroke-linecap:round;stroke-linejoin:round;stroke-miterlimit:10;" width="22" height="31"/>
				
					<rect x="313" y="413.634" style="fill:none;stroke:#263238;stroke-linecap:round;stroke-linejoin:round;stroke-miterlimit:10;" width="2.333" height="31"/>
			</g>
			<g>
				
					<rect x="318" y="413.634" style="fill:none;stroke:#263238;stroke-linecap:round;stroke-linejoin:round;stroke-miterlimit:10;" width="22" height="31"/>
				
					<rect x="340" y="413.634" style="fill:none;stroke:#263238;stroke-linecap:round;stroke-linejoin:round;stroke-miterlimit:10;" width="2.333" height="31"/>
			</g>
			<g>
				
					<rect x="345" y="413.634" style="fill:none;stroke:#263238;stroke-linecap:round;stroke-linejoin:round;stroke-miterlimit:10;" width="22" height="31"/>
				
					<rect x="367" y="413.634" style="fill:none;stroke:#263238;stroke-linecap:round;stroke-linejoin:round;stroke-miterlimit:10;" width="2.333" height="31"/>
			</g>
			<g>
				
					<rect x="372" y="413.634" style="fill:none;stroke:#263238;stroke-linecap:round;stroke-linejoin:round;stroke-miterlimit:10;" width="22" height="31"/>
				
					<rect x="394" y="413.634" style="fill:none;stroke:#263238;stroke-linecap:round;stroke-linejoin:round;stroke-miterlimit:10;" width="2.333" height="31"/>
			</g>
			<g>
				
					<rect x="399" y="413.634" style="fill:none;stroke:#263238;stroke-linecap:round;stroke-linejoin:round;stroke-miterlimit:10;" width="22" height="31"/>
				
					<rect x="421" y="413.634" style="fill:none;stroke:#263238;stroke-linecap:round;stroke-linejoin:round;stroke-miterlimit:10;" width="2.333" height="31"/>
			</g>
			<g>
				
					<rect x="426" y="413.634" style="fill:none;stroke:#263238;stroke-linecap:round;stroke-linejoin:round;stroke-miterlimit:10;" width="22" height="31"/>
				
					<rect x="448" y="413.634" style="fill:none;stroke:#263238;stroke-linecap:round;stroke-linejoin:round;stroke-miterlimit:10;" width="2.333" height="31"/>
			</g>
		</g>
	</g>
</g>
<g id="Character_2">
	<g>
		<g>
			
				<rect x="179.882" y="205" style="fill:#263238;stroke:#263238;stroke-linecap:round;stroke-linejoin:round;stroke-miterlimit:10;" width="14.236" height="63.333"/>
			
				<rect x="144.667" y="179.667" style="fill:#263238;stroke:#263238;stroke-linecap:round;stroke-linejoin:round;stroke-miterlimit:10;" width="84.667" height="63.333"/>
			
				<rect x="151.117" y="184.492" style="fill:#E5E5E5;stroke:#263238;stroke-linecap:round;stroke-linejoin:round;stroke-miterlimit:10;" width="71.765" height="53.682"/>
		</g>
		<g>
			<g>
				<g>
					<path style="fill:#263238;stroke:#263238;stroke-linecap:round;stroke-linejoin:round;stroke-miterlimit:10;" d="
						M278.276,449.13l-1.144,12.872h-47.198c0,0-1.144-5.149,1.43-7.151c2.574-2.002,12.014-3.719,14.016-4.291
						c2.002-0.572,6.007-3.719,6.007-3.719L278.276,449.13z"/>
					<path style="fill:#919191;stroke:#263238;stroke-linecap:round;stroke-linejoin:round;stroke-miterlimit:10;" d="
						M277.384,459.058l-0.252,2.944h-47.198c0,0-0.293-1.329-0.247-2.899C243.219,459.048,268.789,458.961,277.384,459.058z"/>
				</g>
				<path style="fill:#263238;stroke:#263238;stroke-linecap:round;stroke-linejoin:round;stroke-miterlimit:10;" d="
					M277.99,314.688c0,0-1.43,33.753-1.43,42.621s7.151,25.458,7.437,35.184c0.286,9.726-4.863,50.916-4.863,50.916l-21.453-0.286
					c0,0-1.716-17.163-2.288-33.467c-0.572-16.305-7.151-55.779-8.581-68.937c-1.43-13.158-4.577-27.174-4.577-27.174
					L277.99,314.688z"/>
				<polygon style="fill:#919191;stroke:#263238;stroke-linecap:round;stroke-linejoin:round;stroke-miterlimit:10;" points="
					281.708,440.549 279.992,449.988 257.68,448.844 257.68,438.26 				"/>
			</g>
			<g>
				<g>
					<path style="fill:#919191;stroke:#263238;stroke-linecap:round;stroke-linejoin:round;stroke-miterlimit:10;" d="
						M283.996,292.091c0,0-2.574,12.872-3.718,18.593c-1.144,5.721-6.865,20.881-7.151,27.46
						c-0.286,6.579-2.574,31.465-2.574,45.195c0,13.73-0.572,17.163-3.432,28.891c-2.861,11.728-5.721,30.607-5.721,30.607
						s-5.149,0.286-12.872-0.858c-7.723-1.144-13.158-4.577-13.158-4.577l-0.286-5.435c0,0-1.43-7.723-2.002-10.012
						c-0.572-2.288,3.433-12.586,3.433-13.73c0-1.144-3.146-4.863-4.291-10.584c-1.144-5.721-5.149-39.474-5.149-44.337
						s-1.716-38.616-1.716-38.616s-3.433-21.74-3.433-24.314s46.626-2.86,54.349-3.432
						C283.996,286.37,286.571,287.8,283.996,292.091z"/>
					<path style="fill:none;stroke:#263238;stroke-linecap:round;stroke-linejoin:round;stroke-miterlimit:10;" d="M243.95,298.384
						c0,0,6.293,10.298,13.73,13.444"/>
					
						<line style="fill:none;stroke:#263238;stroke-linecap:round;stroke-linejoin:round;stroke-miterlimit:10;" x1="254.696" y1="336.442" x2="254.248" y2="338.716"/>
					
						<line style="fill:none;stroke:#263238;stroke-linecap:round;stroke-linejoin:round;stroke-miterlimit:10;" x1="261.971" y1="299.528" x2="255.495" y2="332.385"/>
					<path style="fill:none;stroke:#263238;stroke-linecap:round;stroke-linejoin:round;stroke-miterlimit:10;" d="M267.978,340.146
						c0,0-8.009,1.144-13.158,1.144c-5.149,0-17.449,0-17.449,0l-0.286,6.293c0,0,6.579,1.43,14.588,1.144
						c8.009-0.286,16.305-2.002,16.305-2.002V340.146z"/>
					<path style="fill:none;stroke:#263238;stroke-linecap:round;stroke-linejoin:round;stroke-miterlimit:10;" d="M267.978,346.726
						c0,0-0.572,11.156-0.286,19.451c0.286,8.295-3.146,9.726-6.865,9.726c-3.719,0-20.309,2.002-22.598,0.286
						c-2.288-1.716-3.147-6.293-2.288-10.012c0.858-3.719,1.144-18.593,1.144-18.593"/>
				</g>
				<g>
					<path style="fill:#263238;stroke:#263238;stroke-linecap:round;stroke-linejoin:round;stroke-miterlimit:10;" d="
						M259.683,451.991l-0.858,10.012h-47.198c0,0-1.144-5.149,1.43-7.151c2.574-2.002,12.014-3.719,14.016-4.291
						c2.002-0.572,6.007-3.719,6.007-3.719L259.683,451.991z"/>
					<path style="fill:#FFFFFF;stroke:#263238;stroke-linecap:round;stroke-linejoin:round;stroke-miterlimit:10;" d="
						M259.077,459.058l-0.252,2.944h-47.198c0,0-0.293-1.329-0.246-2.899C224.912,459.048,250.482,458.961,259.077,459.058z"/>
				</g>
				<path style="fill:#FFFFFF;stroke:#263238;stroke-linecap:round;stroke-linejoin:round;stroke-miterlimit:10;" d="
					M264.546,439.118c0,0-0.572,13.158-2.861,13.73c-2.288,0.572-31.465-4.291-31.751-6.579c-0.286-2.288,2.574-6.579,2.86-8.009
					c0.286-1.43,0.286-3.719,1.43-5.435C235.369,431.109,257.108,436.258,264.546,439.118z"/>
			</g>
			<g>
				<path style="fill:#E5E5E5;stroke:#263238;stroke-linecap:round;stroke-linejoin:round;stroke-miterlimit:10;" d="
					M146.515,261.398c0,0-4.616,1.178-5.893,2.259c-1.277,1.08-3.045,3.928-2.455,5.107c0.589,1.178,1.571,0.688,1.964,0.098
					c0.393-0.589,2.161-3.143,4.125-4.42c1.964-1.277,5.402-2.75,5.402-2.75S147.988,260.809,146.515,261.398z"/>
				<path style="fill:#FFFFFF;stroke:#263238;stroke-linecap:round;stroke-linejoin:round;stroke-miterlimit:10;" d="
					M230.25,191.856l-19.898,45.766c0,0-6.633,2.653-19.898,7.628c-13.266,4.975-27.195,11.276-30.511,12.271
					c-3.316,0.995-11.276,2.653-15.256,4.975c-3.98,2.321-7.405,7.116-4.752,7.447c0.93,0.116,0.982,1.08,3.339,0.786
					c0,0,1.277-0.196,2.554-1.277c1.277-1.08,3.789-2.319,5.823-2.977c2.034-0.657,5.864-0.952,8.811-0.461
					c1.274,0.212,2.731,0.13,4.015-0.031c3.142-2.218,4.42-3.488,4.42-3.488s23.215-1.99,32.501-3.648
					c9.286-1.658,23.215-6.301,23.215-6.301l14.924-60.359L230.25,191.856z"/>
				<path style="fill:none;stroke:#263238;stroke-linecap:round;stroke-linejoin:round;stroke-miterlimit:10;" d="M151.319,262.496
					c0,0-9.618,3.316-10.281,7.296"/>
				<path style="fill:#FFFFFF;stroke:#263238;stroke-linecap:round;stroke-linejoin:round;stroke-miterlimit:10;" d="
					M168.896,262.496c0,0-2.322,2.321-4.643,3.648c-2.322,1.327-5.306,0.663-7.628,1.99c-2.322,1.327-2.985,2.322-5.638,1.99
					c-2.653-0.332-2.653-2.653,0.663-3.648c3.316-0.995,4.311-1.658,4.311-1.658l1.99-2.321"/>
			</g>
			<g>
				<polygon style="fill:#92E3A9;stroke:#263238;stroke-linecap:round;stroke-linejoin:round;stroke-miterlimit:10;" points="
					183.453,208.618 116.878,209.935 107.663,268.514 189.377,269.172 				"/>
				<polyline style="fill:none;stroke:#263238;stroke-linecap:round;stroke-linejoin:round;stroke-miterlimit:10;" points="
					175.555,268.514 178.188,208.618 144,249 116.878,209.935 				"/>
			</g>
			<path style="fill:#263238;stroke:#263238;stroke-linecap:round;stroke-linejoin:round;stroke-miterlimit:10;" d="
				M267.406,156.791c0,0,5.435,2.002,13.444,9.439c8.009,7.437,14.302,26.888,15.16,37.186c0.858,10.298-5.435,41.763-5.435,49.486
				c0,7.723-2.288,40.905-3.432,41.763c-1.144,0.858-37.186,3.719-53.205,2.861c-16.019-0.858-16.877-7.151-18.593-13.158
				c-1.716-6.007-2.86-21.74-0.286-39.76c2.574-18.021,5.721-41.477,12.872-53.491c7.151-12.014,12.014-18.307,18.021-23.742
				C251.959,161.94,263.115,156.219,267.406,156.791z"/>
			<polygon style="fill:#92E3A9;" points="256.721,220.963 243.089,220.093 243.089,197.179 256.721,198.049 			"/>
			
				<rect x="248.89" y="193.988" style="fill:#FFFFFF;stroke:#263238;stroke-linecap:round;stroke-linejoin:round;stroke-miterlimit:10;" width="2.61" height="6.961"/>
			<polygon style="fill:#FFFFFF;" points="253.821,216.124 245.99,215.361 245.99,203.469 253.821,204.232 			"/>
			<g>
				<path style="fill:#263238;stroke:#263238;stroke-linecap:round;stroke-linejoin:round;stroke-miterlimit:10;" d="
					M256.831,192.348l20.732,46.102l-37.788,17.819c0,0-21.551,0.119-23.238-0.171c-1.687-0.29-16.475,8.978-17.224,9.804
					c-0.75,0.826,0.077,1.576,0.077,1.576s-1.866,1.763-0.562,2.768c1.303,1.005,1.303,1.005,1.303,1.005s-0.145,0.843,1.763,1.866
					c1.908,1.022,2.768,0.562,2.768,0.562s2.07-0.426,3.663-1.107c1.593-0.681,6.423-4.54,7.266-4.395
					c0.843,0.145,10.247,1.5,14.004,1.363c3.757-0.136,6.644-3.808,6.644-3.808s32.455-0.417,43.554-3.372
					c11.099-2.956,24.882-10.92,27.387-13.876c2.504-2.956-6.336-41.459-9.488-49.9c-3.152-8.442-8.1-17.54-9.514-18.911"/>
				<path style="fill:#FFFFFF;stroke:#263238;stroke-linecap:round;stroke-linejoin:round;stroke-miterlimit:10;" d="
					M204.662,273.679c0,0-0.86,0.46-2.768-0.562c-1.908-1.022-1.763-1.866-1.763-1.866s0,0-1.303-1.005
					c-1.303-1.005,0.562-2.768,0.562-2.768s-0.826-0.75-0.077-1.576c0.75-0.826,15.538-10.094,17.224-9.804
					c1.687,0.29,23.238,0.171,23.238,0.171l37.788-17.819l-8.726-19.404l31.007-13.375c3.811,14.048,9.392,40.389,7.337,42.814
					c-2.504,2.956-16.287,10.92-27.387,13.876c-11.1,2.956-43.554,3.372-43.554,3.372s-2.888,3.671-6.644,3.807
					c-3.757,0.136-13.161-1.219-14.004-1.363c-0.843-0.145-5.673,3.714-7.266,4.395
					C206.732,273.254,204.662,273.679,204.662,273.679z"/>
				
					<line style="fill:none;stroke:#263238;stroke-linecap:round;stroke-linejoin:round;stroke-miterlimit:10;" x1="199.389" y1="267.478" x2="211.174" y2="261.047"/>
				
					<line style="fill:none;stroke:#263238;stroke-linecap:round;stroke-linejoin:round;stroke-miterlimit:10;" x1="200.488" y1="270.887" x2="211.549" y2="263.504"/>
				<path style="fill:none;stroke:#263238;stroke-linecap:round;stroke-linejoin:round;stroke-miterlimit:10;" d="M203.302,273.635
					c0,0-0.46-1.036,0.576-1.496c1.036-0.46,9.117-6.281,9.117-6.281"/>
			</g>
			<g>
				<g>
					<g>
						<path style="fill:#FFFFFF;stroke:#263238;stroke-linecap:round;stroke-linejoin:round;stroke-miterlimit:10;" d="
							M237.19,164.171l4.811,3.679c0,0-8.774,16.981-4.811,17.83c3.962,0.849,17.547-17.264,22.642-23.208
							c5.094-5.943,7.574-5.682,7.574-5.682s-6.159-7.054-8.423-12.432c-2.264-5.377-3.396-8.774-3.396-8.774L237.19,164.171z"/>
						<path style="fill:#FFFFFF;stroke:#263238;stroke-linecap:round;stroke-linejoin:round;stroke-miterlimit:10;" d="
							M220.938,120.146c0,0-0.48,22.33,0.149,26.276c0.63,3.946,6.084,14.876,8.148,17.243c2.064,2.368,10.546,2.699,13.624,0.859
							c3.078-1.84,10.919-11.859,12.314-15.79c1.395-3.932,1.528-7.325,1.528-7.325s4.918,1.238,7.695-4.6
							c2.777-5.838,0.016-10.455-3.653-10.206l-3.13,1.511c0,0,4.291-11.138,1.583-15.426c-2.708-4.288-26.643-2.152-31.575-1.365
							C222.69,112.111,220.938,120.146,220.938,120.146z"/>
						<path style="fill:none;stroke:#263238;stroke-linecap:round;stroke-linejoin:round;stroke-miterlimit:10;" d="
							M238.719,132.996c0,0,3.346-2.509,6.691-0.558"/>
						<path style="fill:none;stroke:#263238;stroke-linecap:round;stroke-linejoin:round;stroke-miterlimit:10;" d="
							M222.548,131.323c0,0,4.182-1.115,5.019,1.952"/>
						<path style="fill:#263238;" d="M226.238,132.656c0,0.806-0.653,1.459-1.459,1.459c-0.806,0-1.459-0.653-1.459-1.459
							c0-0.806,0.653-1.459,1.459-1.459C225.585,131.197,226.238,131.85,226.238,132.656z"/>
						<path style="fill:#263238;" d="M242.875,133.505c0,0.806-0.653,1.459-1.459,1.459c-0.806,0-1.459-0.653-1.459-1.459
							c0-0.806,0.653-1.459,1.459-1.459C242.222,132.046,242.875,132.699,242.875,133.505z"/>
						<path style="fill:#263238;stroke:#263238;stroke-linecap:round;stroke-linejoin:round;stroke-miterlimit:10;" d="
							M241.223,121.369l5.615,1.486c0.821,0.217,1.279,1.091,0.991,1.89l-0.138,0.382c-0.268,0.743-1.081,1.134-1.829,0.879
							l-5.478-1.868c-0.77-0.263-1.172-1.108-0.891-1.871l0,0C239.754,121.567,240.502,121.178,241.223,121.369z"/>
						<path style="fill:#263238;stroke:#263238;stroke-linecap:round;stroke-linejoin:round;stroke-miterlimit:10;" d="
							M228.802,121.988l0.04,0.088c0.276,0.61-0.013,1.326-0.634,1.575l-3.898,1.559c-0.699,0.28-1.477-0.162-1.596-0.905l0,0
							c-0.085-0.532,0.203-1.054,0.699-1.266l3.858-1.646C227.858,121.141,228.538,121.406,228.802,121.988z"/>
						<path style="fill:none;stroke:#263238;stroke-linecap:round;stroke-linejoin:round;stroke-miterlimit:10;" d="
							M242.774,143.158c0,0-2.405,5.215-9.286,4.776"/>
						<path style="fill:#FFFFFF;stroke:#263238;stroke-linecap:round;stroke-linejoin:round;stroke-miterlimit:10;" d="
							M229.82,127.699c0,0-0.913,13.549-0.956,14.654c-0.043,1.105,2.861,4.157,5.124,1.818c2.263-2.339,2.384-4.336,2.384-4.336"/>
					</g>
					<path style="fill:none;stroke:#263238;stroke-linecap:round;stroke-linejoin:round;stroke-miterlimit:10;" d="M229.664,127.316
						c-1.392-1.761-3.542-2.894-5.961-2.894c-4.198,0-7.601,3.403-7.601,7.601c0,4.198,3.403,7.601,7.601,7.601
						c2.419,0,4.065-0.803,5.457-2.564L229.664,127.316z"/>
					
						<circle style="fill:none;stroke:#263238;stroke-linecap:round;stroke-linejoin:round;stroke-miterlimit:10;" cx="242.036" cy="132.023" r="7.601"/>
					
						<line style="fill:none;stroke:#263238;stroke-linecap:round;stroke-linejoin:round;stroke-miterlimit:10;" x1="249.667" y1="130.5" x2="261.5" y2="126.833"/>
					
						<line style="fill:none;stroke:#263238;stroke-linecap:round;stroke-linejoin:round;stroke-miterlimit:10;" x1="216.167" y1="131.167" x2="220.667" y2="130.333"/>
					<path style="fill:none;stroke:#263238;stroke-linecap:round;stroke-linejoin:round;stroke-miterlimit:10;" d="M229.664,129.002
						c0,0,2.35-1.511,4.868,0.336"/>
				</g>
				<path style="fill:#263238;stroke:#263238;stroke-linecap:round;stroke-linejoin:round;stroke-miterlimit:10;" d="
					M258.465,99.655c0,0,9.913,7.184,7.781,14.942c-2.133,7.758-8.2,22.551-8.2,22.551l-1.644,0.262l-0.564-5.642
					c0,0-5.576-1.133-5.324-5.893c0.251-4.761,2.08-8.087,2.08-8.087s-4.907,5.167-11.64,5.23
					c-6.733,0.064-10.952-7.355-12.834-4.357c-1.882,2.998-5.236,5.219-12.718,2.705c-7.482-2.514-19.523-18.799-12.749-24.938
					c6.775-6.14,20.186,1.834,24.289,2.191c4.103,0.356,6.012-6.692,15.309-5.479C251.549,94.353,258.465,99.655,258.465,99.655z"/>
			</g>
		</g>
	</g>
	<g>
		
			<rect x="74.278" y="265.758" style="fill:#FFFFFF;stroke:#263238;stroke-linecap:round;stroke-linejoin:round;stroke-miterlimit:10;" width="214.118" height="196.554"/>
		
			<rect x="74.278" y="265.758" style="fill:#263238;stroke:#263238;stroke-linecap:round;stroke-linejoin:round;stroke-miterlimit:10;" width="214.118" height="13.226"/>
		
			<rect x="220.648" y="265.758" style="fill:none;stroke:#263238;stroke-linecap:round;stroke-linejoin:round;stroke-miterlimit:10;" width="67.748" height="196.554"/>
		
			<rect x="65.077" y="265.758" style="fill:#FFFFFF;stroke:#263238;stroke-linecap:round;stroke-linejoin:round;stroke-miterlimit:10;" width="232.519" height="7.528"/>
		
			<rect x="212.284" y="265.758" style="fill:#FFFFFF;stroke:#263238;stroke-linecap:round;stroke-linejoin:round;stroke-miterlimit:10;" width="85.313" height="7.528"/>
	</g>
</g>
<g id="Bookshelf_1">
	<g>
		<g>
			<path style="fill:#92E3A9;stroke:#263238;stroke-linecap:round;stroke-linejoin:round;stroke-miterlimit:10;" d="
				M336.765,180.019c0,0-0.196-5.097-2.353-8.627c-2.157-3.529-9.999-6.078-14.117-4.313c-4.117,1.764-6.078,2.941-6.078,2.941
				s6.078,1.764,11.568,5.49C331.275,179.235,336.765,180.019,336.765,180.019z"/>
			<path style="fill:#92E3A9;stroke:#263238;stroke-linecap:round;stroke-linejoin:round;stroke-miterlimit:10;" d="
				M344.999,182.568c0,0-4.705-4.509-5.49-10.783c-0.784-6.274,5.882-16.077,5.882-16.077s3.333,6.078,5.294,13.136
				C352.645,175.902,344.999,182.568,344.999,182.568z"/>
			<path style="fill:#92E3A9;stroke:#263238;stroke-linecap:round;stroke-linejoin:round;stroke-miterlimit:10;" d="
				M354.018,180.607c0,0-1.176-5.882,0.98-9.999c2.157-4.117,7.842-3.725,13.528-1.961c5.686,1.765,7.45,1.765,7.45,1.765
				s-6.666,4.509-12.352,6.862C357.939,179.627,354.018,180.607,354.018,180.607z"/>
			<g>
				<path style="fill:#263238;" d="M345.051,201.735c-0.28,0-0.507-0.227-0.507-0.507v-28.036c0-0.28,0.227-0.507,0.507-0.507
					s0.507,0.227,0.507,0.507v28.036C345.558,201.508,345.332,201.735,345.051,201.735z"/>
			</g>
			<g>
				<path style="fill:#263238;" d="M347.405,201.735c-0.024,0-0.047-0.001-0.07-0.005c-0.277-0.038-0.471-0.294-0.433-0.571
					c0.097-0.702,2.465-17.313,10.511-26.536c0.183-0.211,0.505-0.233,0.716-0.049c0.211,0.184,0.233,0.505,0.049,0.715
					c-7.844,8.993-10.247,25.839-10.271,26.008C347.871,201.551,347.654,201.735,347.405,201.735z"/>
			</g>
			<g>
				<path style="fill:#263238;" d="M342.699,201.343c-0.002,0-0.004,0-0.006,0c-0.28-0.003-0.504-0.233-0.501-0.513
					c0.002-0.161,0.075-16.119-9.417-23.713c-0.219-0.175-0.253-0.494-0.079-0.713c0.176-0.218,0.494-0.253,0.713-0.079
					c9.883,7.906,9.806,23.843,9.798,24.518C343.203,201.12,342.976,201.343,342.699,201.343z"/>
			</g>
			<g>
				<path style="fill:#263238;" d="M350.541,201.147c-0.044,0-0.088-0.005-0.132-0.017c-0.27-0.073-0.431-0.351-0.357-0.621
					c0.056-0.212,1.433-5.238,4.588-9.577c0.164-0.227,0.482-0.276,0.708-0.112c0.227,0.164,0.276,0.482,0.112,0.708
					c-3.047,4.189-4.416,9.194-4.43,9.244C350.97,200.998,350.765,201.147,350.541,201.147z"/>
				<path style="fill:#92E3A9;stroke:#263238;stroke-linecap:round;stroke-linejoin:round;stroke-miterlimit:10;" d="
					M353.626,193.351c0,0-0.196-5.49,2.157-6.274c2.353-0.784,4.51,1.176,6.274,2.353c1.765,1.176,3.725,2.353,3.725,5.882
					s-1.372,9.999-1.372,9.999s-1.961-6.078-5.294-8.823C355.782,193.743,353.626,193.351,353.626,193.351z"/>
			</g>
			<g>
				<path style="fill:#263238;" d="M339.169,201.343c-0.215,0-0.414-0.137-0.483-0.352c-0.015-0.048-1.57-4.793-5.124-7.599
					c-0.22-0.174-0.258-0.492-0.084-0.712c0.174-0.218,0.493-0.257,0.712-0.084c3.803,3.002,5.396,7.88,5.463,8.086
					c0.085,0.266-0.062,0.551-0.329,0.637C339.272,201.335,339.22,201.343,339.169,201.343z"/>
				<path style="fill:#92E3A9;stroke:#263238;stroke-linecap:round;stroke-linejoin:round;stroke-miterlimit:10;" d="
					M336.765,195.116c0,0,0.784-3.529-1.176-6.078c-1.961-2.549-6.666-1.961-9.019,0.784c-2.353,2.745-5.686,10.979-5.686,10.979
					s4.705-3.725,10.195-3.725C336.568,197.077,336.765,195.116,336.765,195.116z"/>
			</g>
			<polygon style="fill:#FFFFFF;stroke:#263238;stroke-linecap:round;stroke-linejoin:round;stroke-miterlimit:10;" points="
				352.388,231.397 336.74,231.397 328.916,205.518 360.212,205.518 			"/>
			
				<rect x="328.828" y="201.227" style="fill:#FFFFFF;stroke:#263238;stroke-linecap:round;stroke-linejoin:round;stroke-miterlimit:10;" width="31.471" height="4.291"/>
		</g>
		<g>
			<g>
				
					<rect x="382.507" y="231.183" style="fill:#263238;stroke:#263238;stroke-linecap:round;stroke-linejoin:round;stroke-miterlimit:10;" width="38.141" height="77.059"/>
				
					<rect x="273.216" y="231.183" style="fill:#FFFFFF;stroke:#263238;stroke-linecap:round;stroke-linejoin:round;stroke-miterlimit:10;" width="113.735" height="77.059"/>
				
					<rect x="279.095" y="236.468" style="fill:#E5E5E5;stroke:#263238;stroke-linecap:round;stroke-linejoin:round;stroke-miterlimit:10;" width="102.121" height="65.961"/>
				
					<rect x="329.374" y="236.468" style="fill:#E5E5E5;stroke:#263238;stroke-linecap:round;stroke-linejoin:round;stroke-miterlimit:10;" width="51.842" height="65.961"/>
				
					<rect x="279.095" y="267.262" style="fill:#FFFFFF;stroke:#263238;stroke-linecap:round;stroke-linejoin:round;stroke-miterlimit:10;" width="102.121" height="4.371"/>
				
					<rect x="408.869" y="308.173" style="fill:#263238;stroke:#263238;stroke-linecap:round;stroke-linejoin:round;stroke-miterlimit:10;" width="38.142" height="77.059"/>
				<g>
					<polygon style="fill:#263238;stroke:#263238;stroke-linecap:round;stroke-linejoin:round;stroke-miterlimit:10;" points="
						236.254,341.764 248.635,384.883 224.728,384.883 					"/>
					<polygon style="fill:#FFFFFF;stroke:#263238;stroke-linecap:round;stroke-linejoin:round;stroke-miterlimit:10;" points="
						237.198,337.215 235.618,335.788 194.649,384.883 228.376,384.883 					"/>
					<polygon style="fill:#92E3A9;stroke:#263238;stroke-linecap:round;stroke-linejoin:round;stroke-miterlimit:10;" points="
						235.618,335.788 201.891,335.788 192.965,384.883 226.691,384.883 					"/>
					
						<line style="fill:none;stroke:#263238;stroke-linecap:round;stroke-linejoin:round;stroke-miterlimit:10;" x1="206.045" y1="345.383" x2="227.615" y2="345.383"/>
					
						<line style="fill:none;stroke:#263238;stroke-linecap:round;stroke-linejoin:round;stroke-miterlimit:10;" x1="204.653" y1="350.95" x2="226.224" y2="350.95"/>
					
						<line style="fill:none;stroke:#263238;stroke-linecap:round;stroke-linejoin:round;stroke-miterlimit:10;" x1="203.261" y1="356.516" x2="224.832" y2="356.516"/>
				</g>
				
					<rect x="241.96" y="308.173" style="fill:#FFFFFF;stroke:#263238;stroke-linecap:round;stroke-linejoin:round;stroke-miterlimit:10;" width="171.354" height="77.059"/>
				
					<rect x="247.838" y="313.458" style="fill:#E5E5E5;stroke:#263238;stroke-linecap:round;stroke-linejoin:round;stroke-miterlimit:10;" width="159.74" height="65.961"/>
				
					<rect x="286.15" y="313.458" style="fill:#FFFFFF;stroke:#263238;stroke-linecap:round;stroke-linejoin:round;stroke-miterlimit:10;" width="121.428" height="65.961"/>
				
					<rect x="291.884" y="313.458" style="fill:#E5E5E5;stroke:#263238;stroke-linecap:round;stroke-linejoin:round;stroke-miterlimit:10;" width="115.695" height="65.961"/>
				
					<rect x="332.707" y="313.458" style="fill:#E5E5E5;stroke:#263238;stroke-linecap:round;stroke-linejoin:round;stroke-miterlimit:10;" width="74.871" height="65.961"/>
				
					<rect x="362.013" y="313.458" style="fill:#FFFFFF;stroke:#263238;stroke-linecap:round;stroke-linejoin:round;stroke-miterlimit:10;" width="45.565" height="65.961"/>
				
					<rect x="367.747" y="313.458" style="fill:#E5E5E5;stroke:#263238;stroke-linecap:round;stroke-linejoin:round;stroke-miterlimit:10;" width="39.831" height="65.961"/>
				
					<rect x="437.548" y="384.944" style="fill:#263238;stroke:#263238;stroke-linecap:round;stroke-linejoin:round;stroke-miterlimit:10;" width="38.142" height="77.059"/>
				
					<rect x="185.69" y="384.944" style="fill:#FFFFFF;stroke:#263238;stroke-linecap:round;stroke-linejoin:round;stroke-miterlimit:10;" width="256.303" height="77.059"/>
				
					<rect x="191.568" y="390.228" style="fill:#E5E5E5;stroke:#263238;stroke-linecap:round;stroke-linejoin:round;stroke-miterlimit:10;" width="244.689" height="65.961"/>
				
					<rect x="260.24" y="390.228" style="fill:#E5E5E5;stroke:#263238;stroke-linecap:round;stroke-linejoin:round;stroke-miterlimit:10;" width="176.016" height="65.961"/>
				
					<rect x="280.676" y="390.228" style="fill:#FFFFFF;stroke:#263238;stroke-linecap:round;stroke-linejoin:round;stroke-miterlimit:10;" width="155.581" height="65.961"/>
				
					<rect x="286.411" y="390.228" style="fill:#E5E5E5;stroke:#263238;stroke-linecap:round;stroke-linejoin:round;stroke-miterlimit:10;" width="149.845" height="65.961"/>
				
					<rect x="324.399" y="390.228" style="fill:#E5E5E5;stroke:#263238;stroke-linecap:round;stroke-linejoin:round;stroke-miterlimit:10;" width="111.858" height="65.961"/>
				
					<rect x="358.825" y="390.228" style="fill:#FFFFFF;stroke:#263238;stroke-linecap:round;stroke-linejoin:round;stroke-miterlimit:10;" width="77.432" height="65.961"/>
				
					<rect x="365.277" y="390.228" style="fill:#E5E5E5;stroke:#263238;stroke-linecap:round;stroke-linejoin:round;stroke-miterlimit:10;" width="70.979" height="65.961"/>
				
					<rect x="402.865" y="390.228" style="fill:#E5E5E5;stroke:#263238;stroke-linecap:round;stroke-linejoin:round;stroke-miterlimit:10;" width="33.391" height="65.961"/>
			</g>
			<g>
				<polygon style="fill:#787878;stroke:#263238;stroke-linecap:round;stroke-linejoin:round;stroke-miterlimit:10;" points="
					433.195,264.706 445.576,307.825 421.668,307.825 				"/>
				<polygon style="fill:#FFFFFF;stroke:#263238;stroke-linecap:round;stroke-linejoin:round;stroke-miterlimit:10;" points="
					434.139,260.156 432.559,258.729 391.59,307.825 425.316,307.825 				"/>
				<polygon style="fill:#92E3A9;stroke:#263238;stroke-linecap:round;stroke-linejoin:round;stroke-miterlimit:10;" points="
					432.559,258.729 398.832,258.729 389.905,307.825 423.632,307.825 				"/>
				
					<line style="fill:none;stroke:#263238;stroke-linecap:round;stroke-linejoin:round;stroke-miterlimit:10;" x1="403.312" y1="266.407" x2="424.882" y2="266.407"/>
				
					<line style="fill:none;stroke:#263238;stroke-linecap:round;stroke-linejoin:round;stroke-miterlimit:10;" x1="401.92" y1="271.974" x2="423.491" y2="271.974"/>
				
					<line style="fill:none;stroke:#263238;stroke-linecap:round;stroke-linejoin:round;stroke-miterlimit:10;" x1="400.528" y1="277.54" x2="422.099" y2="277.54"/>
			</g>
			<g>
				<polygon style="fill:#263238;stroke:#263238;stroke-linecap:round;stroke-linejoin:round;stroke-miterlimit:10;" points="
					341.434,335.681 353.815,378.8 329.908,378.8 				"/>
				<polygon style="fill:#FFFFFF;stroke:#263238;stroke-linecap:round;stroke-linejoin:round;stroke-miterlimit:10;" points="
					342.378,331.131 340.798,329.704 299.829,378.8 333.556,378.8 				"/>
				<polygon style="fill:#92E3A9;stroke:#263238;stroke-linecap:round;stroke-linejoin:round;stroke-miterlimit:10;" points="
					340.798,329.704 307.071,329.704 298.145,378.8 331.871,378.8 				"/>
				<g>
					<path style="fill:#FFFFFF;" d="M311.158,357.586l0.105-0.087l0.451,0.566l5.271-4.382l-1.066-1.337l-5.127,4.262l-0.554-1.481
						l-0.987,1.264l-3.153-3.957l-1.609,1.337l3.439,4.315l-2.003,2.566l-3.408,2.833l1.066,1.337l1.742-1.448l-1.485,7.318h6.476
						l1.527-7.521l1.358,1.704l1.608-1.337l-2.683-3.366L311.158,357.586z M312.868,362.525l0.435-0.362l0.524,0.658l-0.435,0.362
						L312.868,362.525z M313.146,363.387l-0.435,0.362l-0.524-0.658l0.436-0.362L313.146,363.387z M312.705,362.32l-0.524-0.658
						l0.435-0.362l0.524,0.658L312.705,362.32z M306.003,360.929h0.724l-0.438,0.364h-0.226l-0.198-0.249L306.003,360.929z
						 M307.107,360.953l0.271,0.34h-0.68L307.107,360.953z M305.729,361.388l-0.091,0.447l-0.522,0.434l-0.289-0.362l0.791-0.657
						L305.729,361.388z M305.555,362.243l-0.093,0.46l-0.183-0.23L305.555,362.243z M304.87,362.473l-0.791,0.658l-0.289-0.362
						l0.791-0.658L304.87,362.473z M305.033,362.677l0.288,0.362l-0.791,0.658l-0.289-0.362L305.033,362.677z M307.641,361.111
						l-0.145-0.182h0.363L307.641,361.111z M310.93,360.929l-0.281,0.234l-0.186-0.234H310.93z M311.248,361.005l0.23,0.288h-0.577
						L311.248,361.005z M312.216,361.293h-0.33l-0.29-0.364h0.724l0.133,0.167L312.216,361.293z M311.508,357.294l0.804-0.668
						l0.288,0.362l-0.804,0.668L311.508,357.294z M314.632,354.698l0.791-0.658l0.289,0.362l-0.791,0.658L314.632,354.698z
						 M314.674,355.264l-0.791,0.658l-0.289-0.362l0.791-0.658L314.674,355.264z M314.469,354.493l-0.289-0.362l0.791-0.657
						l0.289,0.362L314.469,354.493z M314.223,354.698l-0.791,0.658l-0.288-0.362l0.791-0.658L314.223,354.698z M313.186,355.56
						l-0.791,0.658l-0.289-0.362l0.791-0.658L313.186,355.56z M313.349,355.764l0.288,0.362l-0.791,0.658l-0.288-0.362
						L313.349,355.764z M315.957,354.198l-0.289-0.362l0.618-0.514l0.289,0.362L315.957,354.198z M316.124,353.117l-0.618,0.514
						l-0.289-0.362l0.618-0.514L316.124,353.117z M311.861,356.06l0.288,0.362l-0.803,0.668l-0.288-0.362L311.861,356.06z
						 M311.1,357.294l-0.039,0.033l-0.058-0.154L311.1,357.294z M308.69,357.11l-0.478-0.6l0.435-0.362l0.401,0.503L308.69,357.11z
						 M306.676,354.582l-0.524-0.658l0.436-0.362l0.524,0.658L306.676,354.582z M307.274,354.425l0.524,0.658l-0.435,0.362
						l-0.524-0.657L307.274,354.425z M306.43,354.787l-0.435,0.362l-0.524-0.658l0.436-0.362L306.43,354.787z M306.593,354.991
						l0.524,0.658l-0.436,0.362l-0.524-0.657L306.593,354.991z M307.28,355.853l0.524,0.658l-0.436,0.362l-0.524-0.658
						L307.28,355.853z M307.525,355.649l0.436-0.362l0.524,0.658l-0.436,0.362L307.525,355.649z M306.424,353.358l-0.436,0.362
						l-0.41-0.514l0.436-0.362L306.424,353.358z M305.333,353.411l0.41,0.514l-0.436,0.362l-0.41-0.514L305.333,353.411z
						 M308.064,357.745l-0.533-0.668l0.435-0.362l0.521,0.654l-0.051,0.065L308.064,357.745z M303.544,362.973l0.289,0.362
						l-0.619,0.514l-0.289-0.362L303.544,362.973z M303.378,364.053l0.618-0.514l0.289,0.362l-0.618,0.514L303.378,364.053z
						 M307.83,361.293l0.438-0.364h1.786l0.29,0.364H307.83z M312.072,362.04l0.387,0.485l-0.436,0.362l-0.098-0.123L312.072,362.04
						z M312.874,363.953l0.435-0.362l0.41,0.514l-0.435,0.362L312.874,363.953z M313.965,363.901l-0.41-0.514l0.435-0.362
						l0.41,0.514L313.965,363.901z"/>
					<path style="fill:#FFFFFF;" d="M327.832,352.915l0.142-0.118l0.612,0.768l7.149-5.943l-1.446-1.813l-6.954,5.78l-0.752-2.008
						l-1.338,1.715l-4.277-5.367l-2.182,1.814l4.665,5.852l-2.716,3.481l-4.623,3.843l1.446,1.813l2.363-1.964l-2.014,9.926h8.783
						l2.07-10.201l1.842,2.31l2.181-1.813l-3.639-4.566L327.832,352.915z M330.152,359.614l0.591-0.491l0.711,0.892l-0.59,0.491
						L330.152,359.614z M330.53,360.783l-0.591,0.491l-0.711-0.892l0.591-0.491L330.53,360.783z M329.931,359.337l-0.711-0.892
						l0.591-0.491l0.711,0.892L329.931,359.337z M320.841,357.45h0.982l-0.594,0.494h-0.307l-0.269-0.337L320.841,357.45z
						 M322.338,357.482l0.368,0.461h-0.923L322.338,357.482z M320.469,358.072l-0.123,0.606l-0.708,0.589l-0.391-0.491l1.073-0.892
						L320.469,358.072z M320.234,359.232l-0.127,0.623l-0.249-0.312L320.234,359.232z M319.305,359.544l-1.073,0.892l-0.392-0.491
						l1.073-0.892L319.305,359.544z M319.526,359.821l0.391,0.491l-1.073,0.892l-0.391-0.491L319.526,359.821z M323.063,357.696
						l-0.196-0.246h0.493L323.063,357.696z M327.524,357.45l-0.381,0.317l-0.253-0.317H327.524z M327.955,357.553l0.311,0.391
						h-0.782L327.955,357.553z M329.268,357.944h-0.448l-0.394-0.494h0.982l0.181,0.227L329.268,357.944z M328.308,352.52
						l1.09-0.906l0.391,0.491l-1.09,0.906L328.308,352.52z M332.545,348.998l1.073-0.892l0.392,0.491l-1.073,0.892L332.545,348.998z
						 M332.603,349.766l-1.073,0.892l-0.391-0.491l1.073-0.892L332.603,349.766z M332.324,348.721l-0.391-0.491l1.073-0.892
						l0.391,0.491L332.324,348.721z M331.99,348.998l-1.073,0.892l-0.391-0.491l1.073-0.892L331.99,348.998z M330.584,350.167
						l-1.073,0.892l-0.391-0.491l1.073-0.892L330.584,350.167z M330.805,350.444l0.391,0.491l-1.073,0.892l-0.391-0.491
						L330.805,350.444z M334.343,348.32l-0.392-0.491l0.839-0.697l0.392,0.491L334.343,348.32z M334.569,346.854l-0.839,0.697
						l-0.392-0.491l0.839-0.697L334.569,346.854z M328.786,350.845l0.391,0.491l-1.09,0.906l-0.391-0.491L328.786,350.845z
						 M327.754,352.52l-0.053,0.044l-0.078-0.209L327.754,352.52z M324.486,352.27l-0.648-0.813l0.59-0.491l0.543,0.682
						L324.486,352.27z M321.754,348.841l-0.711-0.892l0.591-0.491l0.711,0.892L321.754,348.841z M322.565,348.628l0.711,0.892
						l-0.591,0.491l-0.711-0.892L322.565,348.628z M321.42,349.119l-0.591,0.491l-0.711-0.892l0.591-0.491L321.42,349.119z
						 M321.641,349.396l0.711,0.892l-0.591,0.491l-0.711-0.892L321.641,349.396z M322.573,350.565l0.711,0.892l-0.59,0.491
						l-0.711-0.892L322.573,350.565z M322.906,350.288l0.591-0.491l0.711,0.892l-0.591,0.491L322.906,350.288z M321.413,347.181
						l-0.591,0.491l-0.556-0.697l0.591-0.491L321.413,347.181z M319.932,347.252l0.556,0.697l-0.591,0.491l-0.556-0.697
						L319.932,347.252z M323.637,353.131l-0.722-0.906l0.59-0.491l0.707,0.888l-0.069,0.089L323.637,353.131z M317.507,360.222
						l0.392,0.491l-0.839,0.698l-0.392-0.491L317.507,360.222z M317.28,361.687l0.839-0.697l0.391,0.491l-0.839,0.697
						L317.28,361.687z M323.32,357.944l0.594-0.494h2.423l0.394,0.494H323.32z M329.073,358.956l0.525,0.658l-0.591,0.491
						l-0.133-0.167L329.073,358.956z M330.16,361.551l0.591-0.491l0.556,0.697l-0.59,0.491L330.16,361.551z M331.64,361.481
						l-0.556-0.697l0.591-0.491l0.556,0.697L331.64,361.481z"/>
					<path style="fill:#FFFFFF;" d="M337.435,341.901c-0.055-0.738-1.069-1.337-2.387-1.443c0.04-0.208,0.077-0.416,0.077-0.633
						c0-2.226-2.16-4.03-4.824-4.03c-2.381,0-4.347,1.444-4.741,3.339c-0.166-0.024-0.336-0.042-0.511-0.042
						c-1.448,0-2.633,0.87-2.83,1.997c-0.318-0.386-0.978-0.653-1.75-0.653c-0.792,0-1.47,0.281-1.777,0.683
						c-0.369-0.12-0.858-0.194-1.398-0.194c-1.147,0-2.076,0.328-2.076,0.733c0,0.086,0.05,0.168,0.127,0.244H337.435z"/>
					<path style="fill:#FFFFFF;" d="M317.666,345.199c-0.024-0.325-0.47-0.588-1.05-0.635c0.017-0.091,0.034-0.183,0.034-0.279
						c0-0.979-0.95-1.773-2.122-1.773c-1.048,0-1.913,0.635-2.086,1.469c-0.073-0.011-0.148-0.018-0.225-0.018
						c-0.637,0-1.159,0.383-1.245,0.879c-0.14-0.17-0.431-0.288-0.77-0.288c-0.348,0-0.647,0.124-0.782,0.301
						c-0.163-0.053-0.377-0.086-0.615-0.086c-0.505,0-0.913,0.144-0.913,0.322c0,0.038,0.022,0.074,0.056,0.108H317.666z"/>
				</g>
			</g>
			<g>
				<polygon style="fill:#263238;stroke:#263238;stroke-linecap:round;stroke-linejoin:round;stroke-miterlimit:10;" points="
					338.9,412.74 351.28,455.858 327.373,455.858 				"/>
				<polygon style="fill:#FFFFFF;stroke:#263238;stroke-linecap:round;stroke-linejoin:round;stroke-miterlimit:10;" points="
					339.844,408.19 338.263,406.763 297.294,455.858 331.021,455.858 				"/>
				<polygon style="fill:#FFFFFF;stroke:#263238;stroke-linecap:round;stroke-linejoin:round;stroke-miterlimit:10;" points="
					338.263,406.763 304.536,406.763 295.61,455.858 329.336,455.858 				"/>
				<polygon style="fill:#92E3A9;" points="329.895,419.349 307.051,419.349 301.005,452.603 323.849,452.603 				"/>
				<polygon style="fill:#92E3A9;" points="308.698,411.979 307.764,417.116 330.609,417.116 331.542,411.979 				"/>
			</g>
			<g>
				<polygon style="fill:#263238;stroke:#263238;stroke-linecap:round;stroke-linejoin:round;stroke-miterlimit:10;" points="
					265.39,412.74 277.77,455.858 253.863,455.858 				"/>
				<polygon style="fill:#FFFFFF;stroke:#263238;stroke-linecap:round;stroke-linejoin:round;stroke-miterlimit:10;" points="
					266.334,408.19 264.753,406.763 223.785,455.858 257.511,455.858 				"/>
				<polygon style="fill:#FFFFFF;stroke:#263238;stroke-linecap:round;stroke-linejoin:round;stroke-miterlimit:10;" points="
					264.753,406.763 231.027,406.763 222.1,455.858 255.827,455.858 				"/>
				<path style="fill:#92E3A9;" d="M252.314,424.38c0,0-1.001,4.402-5.403,6.803c-4.402,2.401-11.206-1-16.609,3.802
					c-5.403,4.802-5.603,15.008,5.803,16.208c11.406,1.201,13.807-7.404,13.807-7.404s5.203,1,5.003-0.6
					c-0.2-1.601-3.602-2.802-3.602-2.802s2.469-3.902,2.601-8.204c0.132-4.302,0-7.204,0-7.204s2.801,0.6,3.802,0
					c1-0.6,3.001-6.203,3.001-6.203s-3.402,2.401-5.003,2.401c-1.601,0-5.803-3.402-5.803-3.402S249.112,424.38,252.314,424.38z"/>
				<polygon style="fill:#92E3A9;" points="232.992,411.642 232.058,416.777 254.902,416.777 255.836,411.642 				"/>
				<polygon style="fill:#92E3A9;" points="231.64,419.077 230.706,424.213 244.425,424.213 245.359,419.077 				"/>
			</g>
			<g>
				<polygon style="fill:#263238;stroke:#263238;stroke-linecap:round;stroke-linejoin:round;stroke-miterlimit:10;" points="
					414.944,412.74 427.325,455.858 403.417,455.858 				"/>
				<polygon style="fill:#FFFFFF;stroke:#263238;stroke-linecap:round;stroke-linejoin:round;stroke-miterlimit:10;" points="
					415.888,408.19 414.308,406.763 373.339,455.858 407.065,455.858 				"/>
				<polygon style="fill:#92E3A9;stroke:#263238;stroke-linecap:round;stroke-linejoin:round;stroke-miterlimit:10;" points="
					414.308,406.763 380.581,406.763 371.655,455.858 405.381,455.858 				"/>
				<path style="fill:#FFFFFF;" d="M389.502,421.126c0,2.144-1.921,3.882-4.291,3.882c-2.37,0-4.291-1.738-4.291-3.882
					c0-2.144,1.921-3.882,4.291-3.882C387.581,417.244,389.502,418.982,389.502,421.126z"/>
				<path style="fill:#FFFFFF;" d="M398.696,428.277c0,2.144-1.921,3.882-4.291,3.882s-4.291-1.738-4.291-3.882
					c0-2.144,1.921-3.882,4.291-3.882S398.696,426.133,398.696,428.277z"/>
				<path style="fill:#FFFFFF;" d="M405.03,422.386c0,1.787-1.601,3.235-3.576,3.235s-3.576-1.448-3.576-3.235
					c0-1.787,1.601-3.235,3.576-3.235S405.03,420.599,405.03,422.386z"/>
				<ellipse style="fill:#FFFFFF;" cx="385.926" cy="440.279" rx="8.071" ry="7.302"/>
			</g>
			<g>
				<g>
					
						<rect x="249.77" y="327.987" style="fill:#92E3A9;stroke:#263238;stroke-linecap:round;stroke-linejoin:round;stroke-miterlimit:10;" width="4.626" height="51.503"/>
					
						<rect x="253.162" y="327.987" style="fill:#92E3A9;stroke:#263238;stroke-linecap:round;stroke-linejoin:round;stroke-miterlimit:10;" width="25.289" height="51.503"/>
				</g>
				<g>
					
						<rect x="255.013" y="327.987" style="fill:#FFFFFF;stroke:#263238;stroke-linecap:round;stroke-linejoin:round;stroke-miterlimit:10;" width="4.626" height="51.503"/>
					
						<rect x="258.405" y="327.987" style="fill:#FFFFFF;stroke:#263238;stroke-linecap:round;stroke-linejoin:round;stroke-miterlimit:10;" width="25.289" height="51.503"/>
				</g>
				<g>
					
						<rect x="260.256" y="327.987" style="fill:#FFFFFF;stroke:#263238;stroke-linecap:round;stroke-linejoin:round;stroke-miterlimit:10;" width="4.626" height="51.503"/>
					
						<rect x="263.648" y="327.987" style="fill:#FFFFFF;stroke:#263238;stroke-linecap:round;stroke-linejoin:round;stroke-miterlimit:10;" width="22.205" height="51.503"/>
				</g>
				<g>
					
						<rect x="265.498" y="327.987" style="fill:#92E3A9;stroke:#263238;stroke-linecap:round;stroke-linejoin:round;stroke-miterlimit:10;" width="4.626" height="51.503"/>
					
						<rect x="268.891" y="327.987" style="fill:#92E3A9;stroke:#263238;stroke-linecap:round;stroke-linejoin:round;stroke-miterlimit:10;" width="17.27" height="51.503"/>
				</g>
			</g>
			<g>
				<g>
					
						<rect x="368.504" y="327.987" style="fill:#FFFFFF;stroke:#263238;stroke-linecap:round;stroke-linejoin:round;stroke-miterlimit:10;" width="4.626" height="51.503"/>
					
						<rect x="371.897" y="327.987" style="fill:#FFFFFF;stroke:#263238;stroke-linecap:round;stroke-linejoin:round;stroke-miterlimit:10;" width="25.289" height="51.503"/>
				</g>
				<g>
					
						<rect x="373.747" y="327.987" style="fill:#92E3A9;stroke:#263238;stroke-linecap:round;stroke-linejoin:round;stroke-miterlimit:10;" width="4.626" height="51.503"/>
					
						<rect x="377.139" y="327.987" style="fill:#92E3A9;stroke:#263238;stroke-linecap:round;stroke-linejoin:round;stroke-miterlimit:10;" width="25.289" height="51.503"/>
				</g>
				<g>
					
						<rect x="378.99" y="327.987" style="fill:#92E3A9;stroke:#263238;stroke-linecap:round;stroke-linejoin:round;stroke-miterlimit:10;" width="4.626" height="51.503"/>
					
						<rect x="382.382" y="327.987" style="fill:#92E3A9;stroke:#263238;stroke-linecap:round;stroke-linejoin:round;stroke-miterlimit:10;" width="22.205" height="51.503"/>
				</g>
				<g>
					
						<rect x="384.233" y="327.987" style="fill:#FFFFFF;stroke:#263238;stroke-linecap:round;stroke-linejoin:round;stroke-miterlimit:10;" width="4.626" height="51.503"/>
					
						<rect x="387.625" y="327.987" style="fill:#FFFFFF;stroke:#263238;stroke-linecap:round;stroke-linejoin:round;stroke-miterlimit:10;" width="20.046" height="51.503"/>
				</g>
			</g>
			<g>
				
					<rect x="286.322" y="276.529" style="fill:#FFFFFF;stroke:#263238;stroke-linecap:round;stroke-linejoin:round;stroke-miterlimit:10;" width="16.649" height="25.73"/>
				
					<rect x="282.773" y="276.529" style="fill:#FFFFFF;stroke:#263238;stroke-linecap:round;stroke-linejoin:round;stroke-miterlimit:10;" width="16.649" height="25.73"/>
			</g>
			<g>
				
					<rect x="309.43" y="292.043" style="fill:#FFFFFF;stroke:#263238;stroke-linecap:round;stroke-linejoin:round;stroke-miterlimit:10;" width="34.812" height="10.217"/>
				
					<rect x="308.186" y="288.138" style="fill:#263238;stroke:#263238;stroke-linecap:round;stroke-linejoin:round;stroke-miterlimit:10;" width="36.056" height="7.189"/>
				
					<rect x="344.378" y="292.043" style="fill:#FFFFFF;stroke:#263238;stroke-linecap:round;stroke-linejoin:round;stroke-miterlimit:10;" width="21.194" height="10.217"/>
				
					<rect x="344.378" y="288.138" style="fill:#263238;stroke:#263238;stroke-linecap:round;stroke-linejoin:round;stroke-miterlimit:10;" width="22.981" height="7.189"/>
			</g>
			<g>
				<g>
					
						<rect x="285.335" y="263.341" style="fill:#263238;stroke:#263238;stroke-linecap:round;stroke-linejoin:round;stroke-miterlimit:10;" width="59.958" height="3.927"/>
					
						<rect x="321.882" y="263.341" style="fill:#FFFFFF;stroke:#263238;stroke-linecap:round;stroke-linejoin:round;stroke-miterlimit:10;" width="25.904" height="3.927"/>
				</g>
				<g>
					
						<rect x="285.335" y="259.327" style="fill:#FFFFFF;stroke:#263238;stroke-linecap:round;stroke-linejoin:round;stroke-miterlimit:10;" width="59.958" height="3.927"/>
					
						<rect x="321.882" y="259.327" style="fill:#FFFFFF;stroke:#263238;stroke-linecap:round;stroke-linejoin:round;stroke-miterlimit:10;" width="25.904" height="3.927"/>
				</g>
				<g>
					
						<rect x="285.335" y="255.312" style="fill:#92E3A9;stroke:#263238;stroke-linecap:round;stroke-linejoin:round;stroke-miterlimit:10;" width="59.958" height="3.927"/>
					
						<rect x="321.882" y="255.312" style="fill:#FFFFFF;stroke:#263238;stroke-linecap:round;stroke-linejoin:round;stroke-miterlimit:10;" width="25.904" height="3.927"/>
				</g>
				<g>
					
						<rect x="285.335" y="251.297" style="fill:#FFFFFF;stroke:#263238;stroke-linecap:round;stroke-linejoin:round;stroke-miterlimit:10;" width="59.958" height="3.928"/>
					
						<rect x="321.882" y="251.297" style="fill:#FFFFFF;stroke:#263238;stroke-linecap:round;stroke-linejoin:round;stroke-miterlimit:10;" width="25.904" height="3.928"/>
				</g>
				<g>
					
						<rect x="285.335" y="247.283" style="fill:#92E3A9;stroke:#263238;stroke-linecap:round;stroke-linejoin:round;stroke-miterlimit:10;" width="59.958" height="3.927"/>
					
						<rect x="321.882" y="247.283" style="fill:#FFFFFF;stroke:#263238;stroke-linecap:round;stroke-linejoin:round;stroke-miterlimit:10;" width="25.904" height="3.927"/>
				</g>
			</g>
		</g>
	</g>
</g>
<g id="Characters_1">
	<g>
		<path style="fill:#263238;stroke:#263238;stroke-linecap:round;stroke-linejoin:round;stroke-miterlimit:10;" d="M56.761,349.278
			c0,0,2.924,14.888,2.924,20.471s-3.722,15.686-3.722,27.649s3.456,43.601,3.456,43.601l12.761,0.532c0,0,3.722-38.815,7.71-47.854
			c3.988-9.039,5.583-27.915,5.583-33.232c0-5.317,1.861-11.432,1.861-11.432L56.761,349.278z"/>
		<path style="fill:#92E3A9;stroke:#263238;stroke-linecap:round;stroke-linejoin:round;stroke-miterlimit:10;" d="M53.571,431.163
			H74.84l-0.266,16.483c0,0,12.229,7.71,15.154,8.773c2.924,1.063,4.52,3.456,4.254,4.254c-0.266,0.798-1.595,1.329-1.595,1.329
			H55.698c0,0-1.329-3.456-0.798-6.647c0.532-3.19,1.861-6.381,1.861-6.381L53.571,431.163z"/>
		<path style="fill:#263238;stroke:#263238;stroke-linecap:round;stroke-linejoin:round;stroke-miterlimit:10;" d="M63.61,349.278
			c0,0,2.924,14.888,2.924,20.471s-3.722,15.686-3.722,27.649s3.456,43.601,3.456,43.601l12.761,0.532c0,0,3.722-38.815,7.71-47.854
			c3.988-9.039,5.583-27.915,5.583-33.232c0-5.317,1.861-11.432,1.861-11.432L63.61,349.278z"/>
		<g>
			<path style="fill:#ABABAB;" d="M94.521,227.515c0,0,8.242,54.501,11.166,64.604c2.924,10.103,14.356,54.235,14.356,54.235
				s-13.825,6.646-32.701,7.976c-18.876,1.329-43.335-0.266-50.513-3.456c-7.178-3.19-12.229-5.317-12.229-5.317l7.71-39.347
				c0,0,16.749-47.057,16.749-57.691c0-10.634-1.063-21.535,5.051-29.51c6.115-7.976,13.293-11.698,18.344-10.103
				C77.506,210.5,94.521,227.515,94.521,227.515z"/>
			<path style="fill:#FFFFFF;" d="M111.013,311.819c-0.085-0.323-0.17-0.644-0.255-0.964c-1.773,0.445-3.529,0.86-5.265,1.238
				l2.392-4.924l2.771,3.298c-0.203-0.766-0.404-1.524-0.602-2.271l-1.573-1.872c0.334-0.078,0.674-0.169,1.009-0.25
				c-0.087-0.325-0.173-0.647-0.258-0.967c-34.682,8.37-62.242,3.591-76.401-0.373c-0.333,0.947-0.521,1.475-0.521,1.475
				l-0.129,0.659l2.202,4.403c-1.035-0.275-1.995-0.547-2.905-0.814l-0.192,0.982c8.417,2.464,22.159,5.421,39.733,5.421
				C82.795,316.86,96.287,315.517,111.013,311.819z M107.021,306.658l-2.456,5.056l-4.144-3.701
				C102.59,307.613,104.79,307.162,107.021,306.658z M103.876,312.44c-2.996,0.622-5.931,1.144-8.807,1.581l4.68-5.265
				L103.876,312.44z M98.811,308.306l-4.804,5.405l-3.19-4.205C93.426,309.182,96.095,308.78,98.811,308.306z M93.195,314.296
				c-3.302,0.463-6.52,0.813-9.645,1.062l6.403-5.336L93.195,314.296z M88.722,309.746l-6.217,5.18l-5.308-4.304
				C80.896,310.478,84.745,310.19,88.722,309.746z M32.736,305.742c2.332,0.649,5.012,1.317,8.021,1.947l-5.346,3.402
				L32.736,305.742z M36.24,311.75l4.758-3.028l3.533,4.804C41.479,312.972,38.708,312.363,36.24,311.75z M41.607,307.862
				c3.018,0.611,6.346,1.177,9.962,1.644l-5.848,3.951L41.607,307.862z M46.822,313.919l5.347-3.613l4.922,4.922
				C53.413,314.891,49.983,314.439,46.822,313.919z M52.959,309.681c2.991,0.357,6.171,0.641,9.521,0.826l-4.502,4.192
				L52.959,309.681z M58.725,315.37l4.45-4.143l5.412,4.616C65.138,315.789,61.848,315.622,58.725,315.37z M63.959,310.58
				c2.281,0.104,4.63,0.166,7.06,0.166c1.143,0,2.306-0.016,3.482-0.042l-5.245,4.394L63.959,310.58z M75.887,310.846l5.74,4.655
				c-4.075,0.275-7.985,0.381-11.719,0.354L75.887,310.846z"/>
			<path style="fill:#FFFFFF;" d="M117.157,335.25c-0.15-0.576-0.304-1.167-0.462-1.772l-2.818-3.43
				c0.593-0.16,1.194-0.336,1.791-0.504c-0.084-0.32-0.168-0.642-0.253-0.966c-0.805,0.226-1.613,0.458-2.412,0.67
				c-0.05-0.004-0.1-0.019-0.15-0.008c-0.065,0.015-0.115,0.056-0.168,0.093c-40.919,10.777-72.443,3.08-84.711-1l-0.193,0.987
				c1.148,0.38,2.452,0.788,3.915,1.21l-4.72,3.581c-0.044-0.015-0.081-0.029-0.125-0.044l-0.202,1.031
				c0.132,0.116,0.305,0.168,0.471,0.116c7.557,2.563,23.045,6.728,43.898,6.728C84.416,341.943,100.025,340.221,117.157,335.25z
				 M113.222,330.826l2.997,3.648c-1.383,0.396-2.759,0.775-4.121,1.129L113.222,330.826z M112.28,330.467l-1.004,4.267
				l-2.795-3.327C109.737,331.111,111.004,330.797,112.28,330.467z M110.945,335.894c-1.837,0.463-3.654,0.89-5.452,1.281
				l2.392-4.923L110.945,335.894z M107.021,331.741l-2.456,5.056l-4.144-3.701C102.59,332.696,104.79,332.245,107.021,331.741z
				 M103.876,337.522c-2.996,0.622-5.931,1.144-8.807,1.581l4.68-5.265L103.876,337.522z M98.811,333.389l-4.804,5.405l-3.19-4.205
				C93.426,334.264,96.095,333.863,98.811,333.389z M93.195,339.378c-3.302,0.463-6.52,0.813-9.645,1.062l6.403-5.336
				L93.195,339.378z M88.722,334.829l-6.217,5.18l-5.308-4.304C80.896,335.56,84.745,335.272,88.722,334.829z M28.121,334.498
				l3.867-2.933l2.395,4.789C31.943,335.706,29.846,335.069,28.121,334.498z M32.736,330.825c2.332,0.649,5.012,1.317,8.021,1.947
				l-5.346,3.402L32.736,330.825z M36.24,336.832l4.758-3.029l3.533,4.804C41.479,338.054,38.708,337.446,36.24,336.832z
				 M41.607,332.944c3.018,0.611,6.346,1.177,9.962,1.644l-5.848,3.951L41.607,332.944z M46.822,339.002l5.347-3.613l4.922,4.922
				C53.413,339.973,49.983,339.521,46.822,339.002z M52.959,334.764c2.991,0.357,6.171,0.641,9.521,0.826l-4.502,4.192
				L52.959,334.764z M58.725,340.452l4.45-4.143l5.412,4.616C65.138,340.872,61.848,340.704,58.725,340.452z M63.959,335.663
				c2.281,0.104,4.63,0.166,7.06,0.166c1.143,0,2.306-0.016,3.482-0.042l-5.245,4.394L63.959,335.663z M75.887,335.929l5.74,4.655
				c-4.075,0.275-7.985,0.381-11.719,0.354L75.887,335.929z"/>
			<g>
				<path style="fill:#FFFFFF;" d="M119.329,343.598c-0.078-0.3-0.162-0.622-0.251-0.965c-38.606,13.493-82.128,3.357-93.931,0.133
					l-0.193,0.983c7.46,2.032,27.124,6.702,50.259,6.702C89.295,350.451,104.66,348.71,119.329,343.598z"/>
				<path style="fill:#FFFFFF;" d="M25.69,339.995l-0.192,0.983c7.837,2.101,27.119,6.556,49.716,6.556
					c13.859,0,28.96-1.691,43.418-6.618c-0.081-0.31-0.164-0.632-0.251-0.964C80.522,352.887,38.158,343.345,25.69,339.995z"/>
				<path style="fill:#FFFFFF;" d="M114.009,323.202c-0.084-0.321-0.169-0.643-0.253-0.965
					c-33.875,11.307-72.986,3.887-84.815,1.171l-0.192,0.981c7.119,1.632,23.915,4.926,43.544,4.926
					C85.613,329.315,100.236,327.788,114.009,323.202z"/>
				<path style="fill:#FFFFFF;" d="M113.47,321.151c-0.084-0.319-0.168-0.638-0.252-0.958c-33.365,10.924-71.623,3.857-83.861,1.084
					l-0.192,0.981c7.344,1.662,23.873,4.83,43.126,4.83C85.439,327.088,99.855,325.599,113.47,321.151z"/>
			</g>
			<path style="fill:none;stroke:#263238;stroke-linecap:round;stroke-linejoin:round;stroke-miterlimit:10;" d="M94.521,227.515
				c0,0,8.242,54.501,11.166,64.604c2.924,10.103,14.356,54.235,14.356,54.235s-13.825,6.646-32.701,7.976
				c-18.876,1.329-43.335-0.266-50.513-3.456c-7.178-3.19-12.229-5.317-12.229-5.317l7.71-39.347c0,0,16.749-47.057,16.749-57.691
				c0-10.634-1.063-21.535,5.051-29.51c6.115-7.976,13.293-11.698,18.344-10.103C77.506,210.5,94.521,227.515,94.521,227.515z"/>
		</g>
		<path style="fill:#92E3A9;stroke:#263238;stroke-linecap:round;stroke-linejoin:round;stroke-miterlimit:10;" d="M60.42,431.163
			h21.269l-0.266,16.483c0,0,12.229,7.71,15.154,8.773c2.924,1.063,4.52,3.456,4.254,4.254c-0.266,0.798-1.595,1.329-1.595,1.329
			H62.547c0,0-1.329-3.456-0.798-6.647c0.532-3.19,1.861-6.381,1.861-6.381L60.42,431.163z"/>
		<path style="fill:#FFFFFF;stroke:#263238;stroke-linecap:round;stroke-linejoin:round;stroke-miterlimit:10;" d="M64.479,204.119
			c0,0-14.622,10.368-18.078,21.8c-3.456,11.432-4.52,32.701-5.317,37.486c-0.798,4.786-13.293,48.918-13.293,48.918
			s10.368,7.178,28.713,9.039c18.344,1.861,38.55-2.659,39.347-2.659s-6.646-91.721-6.381-92.519
			c0.266-0.798-14.888-18.344-17.547-20.737C69.265,203.056,64.479,204.119,64.479,204.119z"/>
		<path style="fill:#263238;stroke:#263238;stroke-linecap:round;stroke-linejoin:round;stroke-miterlimit:10;" d="M97.287,186.481
			c0,0,0.366,9.889,2.198,13.185c1.831,3.296,1.465,6.593-3.296,5.494c-4.761-1.099-10.988-10.988-11.72-16.848
			C83.735,182.452,94.357,179.522,97.287,186.481z"/>
		<g>
			<path style="fill:#92E3A9;stroke:#263238;stroke-linecap:round;stroke-linejoin:round;stroke-miterlimit:10;" d="M89.037,217.164
				l8.575,72.083l15.581-1.832l-18.309-70.571C94.883,216.844,91.204,212.137,89.037,217.164z"/>
			<g>
				<path style="fill:#FFFFFF;stroke:#263238;stroke-linecap:round;stroke-linejoin:round;stroke-miterlimit:10;" d="M97.47,155.737
					c0,0,2.063,3.858,2.937,6.492c0.875,2.634,0.719,7.507,0.96,8.313c0.241,0.806,4.189,5.505,4.213,6.463
					s-3.546,2.815-3.546,2.815s-0.949,6.514-1.62,9.259c-0.671,2.745-0.56,4.292-4.176,4.231c-3.616-0.06-8.518-1.491-14.643-4.662
					c-6.125-3.171-10.661-7.782-11.846-14.097c-1.185-6.315,15.263-18.513,17.657-20.193S97.47,155.737,97.47,155.737z"/>
				<path style="fill:#263238;" d="M99.053,170.676c-0.061,1.247-0.526,2.237-1.039,2.212c-0.513-0.025-0.88-1.056-0.82-2.302
					c0.061-1.247,0.526-2.237,1.039-2.212C98.747,168.398,99.114,169.429,99.053,170.676z"/>
				<path style="fill:none;stroke:#263238;stroke-linecap:round;stroke-linejoin:round;stroke-miterlimit:10;" d="M94.741,167.646
					c0,0,1.791-4.577,4.577-2.985"/>
				<path style="fill:none;stroke:#263238;stroke-linecap:round;stroke-linejoin:round;stroke-miterlimit:10;" d="M101.109,182.172
					c0,0-3.383,1.393-5.174-1.393"/>
			</g>
			<path style="fill:#92E3A9;stroke:#263238;stroke-linecap:round;stroke-linejoin:round;stroke-miterlimit:10;" d="M67.26,192.739
				c0,0,31.248,8.077,30.748,11.737c-0.5,3.659-1.264,14.333-5.356,14.874s-35.187-11.339-37.516-12.102s1.891-11.427,4.229-14.12
				C61.703,190.434,67.26,192.739,67.26,192.739z"/>
			<path style="fill:#263238;stroke:#263238;stroke-linecap:round;stroke-linejoin:round;stroke-miterlimit:10;" d="M83.679,164.614
				c0,0,3.478,23.016,7.585,32.25c4.107,9.234,8.334,11.801,6.775,13.597c-1.559,1.796-10.563-3.974-10.563-3.974
				s7.681,10.92,2.582,13.893c-5.1,2.972-18.11-3.442-20.804-5.78c-2.693-2.338-2.693-2.338-2.693-2.338s-0.857,6.972-9.743,11.223
				c-8.887,4.251-21.118-3.061-13.137-12.98c7.981-9.918,11.303-21.362,9.89-28.258S75.294,156.861,83.679,164.614z"/>
		</g>
		<g>
			<path style="fill:#FFFFFF;stroke:#263238;stroke-linecap:round;stroke-linejoin:round;stroke-miterlimit:10;" d="M58.617,240.272
				c2.037,4.493,6.432,8.579,9.793,12.121c5.364,5.651,11.737,10.004,17.339,15.357c1.048,1.001,12.064,10.567,13.38,9.975
				c0.004-0.002,11.03-4.964,18.748-12.131c7.72-7.169,27.02-29.225,27.02-29.225c4.807-1.251,12.467-7.706,12.467-7.706l7.12-0.943
				c0.346-0.046,0.636-0.284,0.748-0.615c0.212-0.625-0.285-1.262-0.942-1.21l-6.606,0.529l8.989-4.692
				c0.436-0.228,0.603-0.768,0.372-1.202c-0.193-0.361-0.607-0.543-1.003-0.44l-9.637,2.496l8.19-4.49
				c0.538-0.323,0.668-1.046,0.276-1.536c-0.312-0.39-0.858-0.502-1.299-0.266l-9.406,4.693l4.669-3.951l1.553-1.955
				c0.555-0.699-0.338-1.618-1.053-1.083l-1.851,1.387c-3.396,2.567-11.518,8.752-12.275,9.761c-0.96,1.28-5.826,6.813-5.826,6.813
				s-8.271,6.617-19.3,14.337c-9.365,6.555-14.845,9.383-16.29,10.09c-3.359-4.231-13.469-17.215-17.442-25.162
				c-4.798-9.596-14.075-12.795-14.075-12.795"/>
			<path style="fill:#FFFFFF;stroke:#263238;stroke-linecap:round;stroke-linejoin:round;stroke-miterlimit:10;" d="
				M166.042,220.089l-9.637,2.496l8.19-4.49c0.538-0.323,0.668-1.046,0.276-1.536c-0.312-0.39-0.858-0.502-1.299-0.266l-9.406,4.693
				l4.669-3.951l1.553-1.955c0.555-0.699-0.338-1.618-1.053-1.083l-1.851,1.387c-3.396,2.567-11.518,8.752-12.275,9.761
				c-0.96,1.28-5.826,6.813-5.826,6.813s-8.271,6.617-19.3,14.337c-4.253,2.977-7.696,5.179-10.332,6.769l6.728,13.776
				c0.476-0.407,0.944-0.822,1.399-1.245c7.72-7.169,27.02-29.225,27.02-29.225c4.807-1.251,12.467-7.706,12.467-7.706l7.12-0.943
				c0.346-0.046,0.636-0.284,0.748-0.615c0.212-0.625-0.285-1.262-0.942-1.21l-6.606,0.529l8.989-4.692
				c0.436-0.228,0.603-0.768,0.372-1.202C166.853,220.169,166.438,219.987,166.042,220.089z"/>
		</g>
		<g>
			<g>
				<path style="fill:#92E3A9;stroke:#263238;stroke-linecap:round;stroke-linejoin:round;stroke-miterlimit:10;" d="
					M53.571,182.246c0,0-6.751,1.066-10.402-2.89c-3.65-3.957,2.068-8.911,7.923-19.101c5.855-10.19,9.643-19.812,21.02-22.216
					c11.377-2.404,25.014,6.916,28.054,9.398c3.041,2.482,3.117,4.753,1.643,5.362c0,0-36.071,14.344-47.874,31.022"/>
				
					<line style="fill:none;stroke:#263238;stroke-linecap:round;stroke-linejoin:round;stroke-miterlimit:10;" x1="71.23" y1="167.053" x2="53.233" y2="174.931"/>
			</g>
			<path style="fill:#92E3A9;stroke:#263238;stroke-linecap:round;stroke-linejoin:round;stroke-miterlimit:10;" d="M53.562,185.702
				c0,0,15.394-13.56,30.134-19.657c14.74-6.097,20.263-6.655,20.289-8.68c0.026-2.025-2.176-4.566-2.176-4.566
				s-23.889,9.018-33.336,16.09C59.027,175.961,48.031,181.372,53.562,185.702z"/>
		</g>
	</g>
</g>
<g id="Floor">
	
		<line style="fill:none;stroke:#263238;stroke-linecap:round;stroke-linejoin:round;stroke-miterlimit:10;" x1="22" y1="462.002" x2="488" y2="462.002"/>
</g>
</svg>
