<?xml version="1.0" encoding="utf-8"?>
<!-- Generator: Adobe Illustrator 27.5.0, SVG Export Plug-In . SVG Version: 6.00 Build 0)  -->
<svg version="1.1" xmlns="http://www.w3.org/2000/svg" xmlns:xlink="http://www.w3.org/1999/xlink" x="0px" y="0px"
	 viewBox="0 0 500 500" style="enable-background:new 0 0 500 500;" xml:space="preserve">
<g id="Background_Simple">
	<g>
		<path style="opacity:0.7;fill:#FFFFFF;" d="M67.931,167.086c0,0-27.877,71.988,11.297,144.503
			c39.174,72.516,119.879,110.802,184.469,143.548c64.59,32.746,131.661,16.799,163.534-36.838
			c31.873-53.637-11.845-91.928-11.897-168.418c-0.051-76.49,11.447-96.742-29.963-161.364
			c-41.41-64.623-143.059-78.925-219.9-30.996C88.631,105.45,67.931,167.086,67.931,167.086z"/>
	</g>
	<g>
		<path style="fill:#92E3A9;" d="M127.018,444.085c23.6,24.915,81.54,15.791,106.636,0
			c81.459-51.255,224.245-136.568,230.708-260.168c2.747-52.536-43.576-80.121-62.933-88.214
			c-46.482-19.435-97.477-25.269-147.808-27.52c-52.572-2.351-108.963-0.52-156.311,25.129
			c-17.934,9.715-34.853,22.175-46.435,39.184c-11.765,17.278-18.535,37.854-20.33,58.623c-2.896,33.501,6.117,67.092,19.746,97.832
			c13.628,30.741,31.804,59.203,48.487,88.399C109.662,396.399,107.136,423.095,127.018,444.085z"/>
		<path style="opacity:0.7;fill:#FFFFFF;" d="M127.018,444.085c23.6,24.915,81.54,15.791,106.636,0
			c81.459-51.255,224.245-136.568,230.708-260.168c2.747-52.536-43.576-80.121-62.933-88.214
			c-46.482-19.435-97.477-25.269-147.808-27.52c-52.572-2.351-108.963-0.52-156.311,25.129
			c-17.934,9.715-34.853,22.175-46.435,39.184c-11.765,17.278-18.535,37.854-20.33,58.623c-2.896,33.501,6.117,67.092,19.746,97.832
			c13.628,30.741,31.804,59.203,48.487,88.399C109.662,396.399,107.136,423.095,127.018,444.085z"/>
	</g>
</g>
<g id="Building">
	<g>
		<path style="fill:none;stroke:#263238;stroke-linecap:round;stroke-linejoin:round;stroke-miterlimit:10;" d="M332.715,384.36
			C333,298,333,202,332.715,116.219"/>
		<path style="fill:none;stroke:#263238;stroke-linecap:round;stroke-linejoin:round;stroke-miterlimit:10;" d="M348.774,89.516
			C349,185,349,269,348.774,364.453"/>
		<path id="XMLID_7_" style="fill:none;stroke:#263238;stroke-linecap:round;stroke-linejoin:round;stroke-miterlimit:10;" d="
			M332.715,95.735V60.731c0,0,2.868-1.431,8.029-1.431c5.651,0,8.03,1.431,8.03,1.431v9.738"/>
		<polyline style="fill:none;stroke:#263238;stroke-linecap:round;stroke-linejoin:round;stroke-miterlimit:10;" points="
			433.429,59.3 436.726,60.637 415.561,78.637 348.774,89.516 345.605,88.575 		"/>
		
			<polygon id="XMLID_6_" style="fill:none;stroke:#263238;stroke-linecap:round;stroke-linejoin:round;stroke-miterlimit:10;" points="
			345.605,71.168 410.22,56.926 433.429,59.3 413.487,77.153 345.605,88.575 		"/>
		
			<polyline id="XMLID_5_" style="fill:none;stroke:#263238;stroke-linecap:round;stroke-linejoin:round;stroke-miterlimit:10;" points="
			280.599,84.327 277.891,85.955 294.308,105.538 332.715,116.219 336.81,115.191 		"/>
		<polygon style="fill:none;stroke:#263238;stroke-linecap:round;stroke-linejoin:round;stroke-miterlimit:10;" points="
			336.81,97.314 296.95,81.953 280.599,84.327 297.478,104.472 336.81,115.191 		"/>
		
			<line style="fill:none;stroke:#263238;stroke-linecap:round;stroke-linejoin:round;stroke-miterlimit:10;" x1="208.263" y1="108.492" x2="208.263" y2="449.442"/>
		<path style="fill:none;stroke:#263238;stroke-linecap:round;stroke-linejoin:round;stroke-miterlimit:10;" d="M37.154,108.492"/>
		<g>
			<path style="fill:none;stroke:#263238;stroke-linecap:round;stroke-linejoin:round;stroke-miterlimit:10;" d="M114.628,82.569
				C146,90,177,101,208.263,108.492"/>
			<path style="fill:none;stroke:#263238;stroke-linecap:round;stroke-linejoin:round;stroke-miterlimit:10;" d="M78.209,101.762
				C121,112,165,123,208.263,133.96"/>
			<path style="fill:none;stroke:#263238;stroke-linecap:round;stroke-linejoin:round;stroke-miterlimit:10;" d="M50.216,124.928
				C102,137,155,148,208.263,159.427"/>
			<path style="fill:none;stroke:#263238;stroke-linecap:round;stroke-linejoin:round;stroke-miterlimit:10;" d="M34.219,152.001
				C92,163,150,174,208.263,184.895"/>
			
				<line style="fill:none;stroke:#263238;stroke-linecap:round;stroke-linejoin:round;stroke-miterlimit:10;" x1="22.004" y1="180.614" x2="208.263" y2="210.362"/>
			
				<line style="fill:none;stroke:#263238;stroke-linecap:round;stroke-linejoin:round;stroke-miterlimit:10;" x1="22.004" y1="211.536" x2="208.263" y2="235.829"/>
			<path style="fill:none;stroke:#263238;stroke-linecap:round;stroke-linejoin:round;stroke-miterlimit:10;" d="M26.342,242.897
				C87,248,147,256,208.263,261.297"/>
			<path style="fill:none;stroke:#263238;stroke-linecap:round;stroke-linejoin:round;stroke-miterlimit:10;" d="M34.941,274.309
				C82,278,129,280,177,285c10,0,21,0,31.263,1.764"/>
			<path style="fill:none;stroke:#263238;stroke-linecap:round;stroke-linejoin:round;stroke-miterlimit:10;" d="M46.594,305.349
				C101,308,154,311,208.263,312.232"/>
			<path style="fill:none;stroke:#263238;stroke-linecap:round;stroke-linejoin:round;stroke-miterlimit:10;" d="M61.154,335.744
				C110,336,159,337,208.263,337.699"/>
			<path style="fill:none;stroke:#263238;stroke-linecap:round;stroke-linejoin:round;stroke-miterlimit:10;" d="M78.127,365.248
				C121,365,165,364,208.263,363.166"/>
			<path style="fill:none;stroke:#263238;stroke-linecap:round;stroke-linejoin:round;stroke-miterlimit:10;" d="M92.973,393.854
				C131,392,170,390,208.263,388.634"/>
		</g>
		
			<line style="fill:none;stroke:#263238;stroke-linecap:round;stroke-linejoin:round;stroke-miterlimit:10;" x1="196.493" y1="121.213" x2="196.493" y2="417.834"/>
		
			<line style="fill:none;stroke:#263238;stroke-linecap:round;stroke-linejoin:round;stroke-miterlimit:10;" x1="140.507" y1="95.531" x2="140.507" y2="279.815"/>
		
			<line style="fill:none;stroke:#263238;stroke-linecap:round;stroke-linejoin:round;stroke-miterlimit:10;" x1="76.808" y1="120.398" x2="76.808" y2="324.06"/>
		<polyline style="fill:none;stroke:#263238;stroke-linecap:round;stroke-linejoin:round;stroke-miterlimit:10;" points="
			460.62,127.76 362.791,139.055 362.791,368.392 		"/>
		<polyline style="fill:none;stroke:#263238;stroke-linecap:round;stroke-linejoin:round;stroke-miterlimit:10;" points="
			467.571,157.208 375.791,164.821 375.791,348.049 		"/>
		
			<line style="fill:none;stroke:#263238;stroke-linecap:round;stroke-linejoin:round;stroke-miterlimit:10;" x1="467.571" y1="201.9" x2="378.443" y2="208.255"/>
		
			<line style="fill:none;stroke:#263238;stroke-linecap:round;stroke-linejoin:round;stroke-miterlimit:10;" x1="454.385" y1="240.752" x2="381.066" y2="245.524"/>
		
			<line style="fill:none;stroke:#263238;stroke-linecap:round;stroke-linejoin:round;stroke-miterlimit:10;" x1="411.705" y1="168.71" x2="411.705" y2="309.37"/>
		<path style="fill:none;stroke:#263238;stroke-linecap:round;stroke-linejoin:round;stroke-miterlimit:10;" d="M115.74,427.461
			c2.73,5.759,6.303,11.37,11.279,16.624c23.6,24.915,82.548,15.791,107.644,0c8.246-5.189,16.121-10.733,25.419-16.624"/>
	</g>
</g>
<g id="Map">
	<g>
		<path style="fill:#FFFFFF;stroke:#263238;stroke-linecap:round;stroke-linejoin:round;stroke-miterlimit:10;" d="M350.904,258.156
			l-9.183,35.815l16.011,93.174l-0.125,0.027l-0.384,0.08c-6.81,1.491-80.171,17.448-83.758,17.153
			c-3.766-0.312-62.708-9.384-62.708-9.384l-52.162,6.1l-41.83-18.447l-38.662,6.819L67.098,253.024c0,0,8.175-66.748,4.409-84.713
			c0,0,64.376,9.238,70.32,9.88c5.944,0.643,75.144-21.232,75.144-21.232l58.412,19.349l48.925-6.185l72.406,33.896
			C396.714,204.018,349.726,250.855,350.904,258.156z"/>
		<path style="fill:#92E3A9;stroke:#263238;stroke-linecap:round;stroke-linejoin:round;stroke-miterlimit:10;" d="M79.041,174.156
			l62.785,8.842l74.204-18.258l59.348,16.611l46.572-5.044l64.493,27.712c0,0-36.719,45.504-38.131,48.408
			c-1.412,2.904-13.181,41.548-13.181,41.548l15.535,88.695l-75.288,16.573l-63.331-10.136l-50.191,4.424l-42.669-18.313
			l-35.439,7.452L72.246,255.063C72.246,255.063,82.808,203.138,79.041,174.156z"/>
		<g>
			<path style="fill:#FFFFFF;stroke:#263238;stroke-linecap:round;stroke-linejoin:round;stroke-miterlimit:10;" d="
				M297.829,221.814l10.13-2.463l49.398,21.107c2.428-3.088,5.158-6.542,7.952-10.058l-53.504-22.633l-11.281,3.159l7.068-33.066
				l-9.353,1.017l-8.577,35.083l-27.72,7.756l-53.343,4.65l-21.312,10.585l1.035-31.21l26.06-12.28l30.362,5.855l5.167-25.096
				l-9.219-2.579l-2.918,18.233l-23.392-4.998l-25.748,11.62l0.839-25.221l-12.441,3.061v67.712l-31.611,15.699v-75.628
				l-3.597,0.883l-7.889-1.115l1.357,25.882h-21.41l-34.235-26.819c0.223,3.864,0.25,7.97,0.152,12.209l30.415,25.453h25.641
				l1.017,19.304l-0.946,7.943l-63.053,16.127l0.33,3.641l62.241-15.69l-1.473,12.477l-59.733,14.744l1.107,12.263l31.611-8.371
				l2.945,37.725l-29.13,30.853l1.142,12.628l10.281-10.879l2.276,29.041l2.936-0.616l-1.999-31.826l21.294-22.526l10.317-2.633
				l40.768-13.146l-0.892,5.917l-22.669,70.38l8.711,3.74l11.905-38.403l17.555-3.258l35.288,15.261l16.368,1.053l-2.785,27.827
				l4.364,0.696l1.901-28.309l41.062,2.624l29.675-4.266l3.784,28.238l7.631-1.678l-3.641-27.676l30.21-4.346l-1.517-8.639
				l-64.293,8.532l-25.971-2.285l3.695-34.958l22.588-12.343h7.042l50.648,5.132l-1.785-10.246l-47.435-4.498h-11.058l5.56-33.423
				L297.829,221.814z M129.848,310.91l-17.198,5.096l-2.276-35.868l26.497-7.015l39.518-20.402l-6.533,43.24L129.848,310.91z
				 M185.627,338.237l-17.831,3.543l7.381-23.82l11.192-70.389l22.535-11.629l8.746,35.476l-3.266,29.577l-9.826,44.838
				L185.627,338.237z M267.324,305.742l-15.52,7.345l-5.712,41.259l-25.953-2.276l-8.952-3.588l10.023-44.534l3.766-30.826h17.912
				l29.889-5.033L267.324,305.742z M274.267,260.931l-29.996,6.167H220.13l-7.265-31.745l47.078-4.337l26.578-6.452L274.267,260.931
				z"/>
		</g>
		<g>
			<polygon style="opacity:0.5;fill:#FFFFFF;" points="286.521,289.502 289.233,268.089 323.833,275.69 321.009,293.974 			"/>
			<polygon style="opacity:0.5;fill:#FFFFFF;" points="307.96,267.098 315.007,247.445 341.067,257.272 335.089,277.595 			"/>
			<polygon style="opacity:0.5;fill:#FFFFFF;" points="302.296,224.563 305.177,224.563 316.066,229.485 305.177,262.52 
				294.968,259.462 291.704,258.743 			"/>
			<polygon style="opacity:0.5;fill:#FFFFFF;" points="323.833,233.323 349.254,243.542 345.017,250.858 321.009,243.542 			"/>
			<polygon style="opacity:0.5;fill:#FFFFFF;" points="307.96,204.019 312.888,181.351 321.009,180.058 333.013,184.876 
				324.514,208.255 313.052,204.019 			"/>
			<polygon style="opacity:0.5;fill:#FFFFFF;" points="329.835,210.703 335.131,197.663 370.791,213.904 363.73,224.563 			"/>
			<polygon style="opacity:0.5;fill:#FFFFFF;" points="253.845,180.058 272.777,185.545 267.026,215.669 264.279,215.669 
				247.571,215.669 			"/>
			<polygon style="opacity:0.5;fill:#FFFFFF;" points="277.582,186.365 291.704,183.974 286.521,210.703 272.777,214.257 			"/>
			<polygon style="opacity:0.5;fill:#FFFFFF;" points="243.688,204.019 241.982,217.082 211.188,218.494 192.679,228.027 
				192.679,210.703 215.089,199.115 			"/>
			<polygon style="opacity:0.5;fill:#FFFFFF;" points="194.021,174.156 216.263,168.314 214.543,181.351 192.722,189.875 			"/>
			<polygon style="opacity:0.5;fill:#FFFFFF;" points="219.09,181.351 235.214,184.876 237.775,172.949 221.091,170.122 			"/>
			<polygon style="opacity:0.5;fill:#FFFFFF;" points="149.419,184.876 149.419,204.019 172.721,197.663 172.721,180.058 			"/>
			<polygon style="opacity:0.5;fill:#FFFFFF;" points="151.023,211.113 151.023,248.937 163.89,243.542 161.857,220.259 
				172.721,217.082 172.721,204.019 			"/>
			<polygon style="opacity:0.5;fill:#FFFFFF;" points="111.994,223.084 113.76,247.445 130.701,243.542 133.421,235.942 
				133.421,223.084 			"/>
			<path style="opacity:0.5;fill:#FFFFFF;" d="M84.455,204.019l22.352,17.3v12.004l-25.177,1.942
				C81.631,235.265,84.808,214.258,84.455,204.019z"/>
			<polygon style="opacity:0.5;fill:#FFFFFF;" points="81.631,240.031 104.662,237.913 104.662,249.527 77.577,256.923 			"/>
			<polygon style="opacity:0.5;fill:#FFFFFF;" points="111.994,183.974 111.994,200.488 130.701,201.9 129.928,184.876 			"/>
			<polygon style="opacity:0.5;fill:#FFFFFF;" points="190.293,250.858 206.356,243.365 211.188,270.757 187.079,274.998 			"/>
			<polygon style="opacity:0.5;fill:#FFFFFF;" points="194.021,279.164 192.722,297.934 209.44,296.168 209.44,274.998 			"/>
			<polygon style="opacity:0.5;fill:#FFFFFF;" points="241.982,237.913 239.804,262.52 248.89,262.52 269.108,259.182 
				280.759,229.485 258.56,235.942 			"/>
			<polygon style="opacity:0.5;fill:#FFFFFF;" points="219.09,239.325 219.09,246.003 235.92,245.524 235.92,237.913 			"/>
			<polygon style="opacity:0.5;fill:#FFFFFF;" points="243.688,282.068 241.982,301.817 264.165,297.934 267.026,274.998 			"/>
			<polygon style="opacity:0.5;fill:#FFFFFF;" points="224.269,307.775 239.804,308.879 235.92,348.513 221.018,348.049 
				215.442,346.043 			"/>
			<polygon style="opacity:0.5;fill:#FFFFFF;" points="229.345,279.164 239.804,280.684 237.775,293.974 227.505,293.974 			"/>
			<polygon style="opacity:0.5;fill:#FFFFFF;" points="312.888,316.006 333.013,317.965 337.603,342.204 312.888,342.707 			"/>
			<polygon style="opacity:0.5;fill:#FFFFFF;" points="267.026,324.06 286.521,322.491 289.233,350.893 263.812,350.893 			"/>
			<polygon style="opacity:0.5;fill:#FFFFFF;" points="321.009,367.193 323.833,380.173 337.603,377.926 335.131,364.432 			"/>
			<polygon style="opacity:0.5;fill:#FFFFFF;" points="276.522,372.302 303.885,368.972 305.177,384.082 275.383,391.471 
				258.516,389.492 264.402,370.901 			"/>
			<polygon style="opacity:0.5;fill:#FFFFFF;" points="134.943,328.144 157.187,324.06 155.694,339.418 149.419,354.4 
				133.421,358.661 			"/>
			<polygon style="opacity:0.5;fill:#FFFFFF;" points="115.525,284.363 115.525,296.521 132.662,293.974 141.827,290.442 
				141.361,274.998 135.118,279.164 			"/>
			<polygon style="opacity:0.5;fill:#FFFFFF;" points="79.865,293.974 102.461,288.408 104.662,311.765 83.043,316.006 			"/>
			<polygon style="opacity:0.5;fill:#FFFFFF;" points="81.441,335.477 94.341,324.06 97.695,327.163 84.353,339.973 			"/>
			<polygon style="opacity:0.5;fill:#FFFFFF;" points="84.808,367.193 91.12,365.698 92.264,378.432 86.007,379.336 			"/>
			<polygon style="opacity:0.5;fill:#FFFFFF;" points="101.402,374.912 100.192,352.659 115.525,350.893 115.525,372.875 			"/>
			<circle style="opacity:0.5;fill:#FFFFFF;" cx="198.043" cy="315.427" r="8.633"/>
		</g>
		<g>
			<path style="opacity:0.1;fill-opacity:0.7;" d="M350.904,258.156l-9.183,35.815l16.011,93.174l-0.125,0.027l-0.384,0.08
				l-83.758,17.153l21.767-146.722l29.077-87.56l72.406,33.896C396.714,204.018,349.726,250.855,350.904,258.156z"/>
			<polygon style="opacity:0.1;fill-opacity:0.7;" points="275.383,176.307 253.223,254.863 233.919,288.982 210.759,395.016 
				158.594,401.121 197.006,311.766 206.145,244.965 217.729,157.208 			"/>
			<path style="opacity:0.1;fill-opacity:0.7;" d="M141.361,178.137l-1.589,72.959l-21.901,132.068l-1.107-0.491l-38.662,6.819
				L67.964,263.725l60.509-23.409l10.023-62.544C139.745,177.932,140.718,178.057,141.361,178.137z"/>
		</g>
	</g>
</g>
<g id="Directions">
	<g>
		<path style="fill:#92E3A9;" d="M292.663,217.676c-0.336-0.343-0.83-0.481-1.293-0.36l-30.36,7.836l-51.671,3.894
			c-0.178,0.013-0.351,0.062-0.51,0.144l-67.856,34.802l0.983-22.034V212.27c0-0.74-0.599-1.339-1.339-1.339h-13.599
			c-0.74,0-1.339,0.599-1.339,1.339s0.599,1.339,1.339,1.339h12.261l0.001,28.29l-1.084,24.277
			c-0.021,0.477,0.213,0.929,0.614,1.187c0.401,0.257,0.91,0.281,1.334,0.064l69.666-35.731l51.52-3.883
			c0.079-0.006,0.158-0.019,0.234-0.038l28.217-7.284l-12.156,42.988c-0.014,0.048-0.024,0.097-0.032,0.146l-1.963,11.871
			l-1.139-0.039c-0.257-0.009-0.483,0.272-0.401,0.501l1.685,4.692c0.141,0.392,0.611,0.5,0.834,0.178l3.162-4.568
			c0.194-0.281-0.047-0.624-0.432-0.637l-1.011-0.034l1.893-11.453l12.77-45.159C293.124,218.514,292.997,218.019,292.663,217.676z"
			/>
		<path style="opacity:0.6;fill-opacity:0.7;" d="M292.663,217.676c-0.336-0.343-0.83-0.481-1.293-0.36l-30.36,7.836l-51.671,3.894
			c-0.178,0.013-0.351,0.062-0.51,0.144l-67.856,34.802l0.983-22.034V212.27c0-0.74-0.599-1.339-1.339-1.339h-13.599
			c-0.74,0-1.339,0.599-1.339,1.339s0.599,1.339,1.339,1.339h12.261l0.001,28.29l-1.084,24.277
			c-0.021,0.477,0.213,0.929,0.614,1.187c0.401,0.257,0.91,0.281,1.334,0.064l69.666-35.731l51.52-3.883
			c0.079-0.006,0.158-0.019,0.234-0.038l28.217-7.284l-12.156,42.988c-0.014,0.048-0.024,0.097-0.032,0.146l-1.963,11.871
			l-1.139-0.039c-0.257-0.009-0.483,0.272-0.401,0.501l1.685,4.692c0.141,0.392,0.611,0.5,0.834,0.178l3.162-4.568
			c0.194-0.281-0.047-0.624-0.432-0.637l-1.011-0.034l1.893-11.453l12.77-45.159C293.124,218.514,292.997,218.019,292.663,217.676z"
			/>
		<g>
			<path style="fill:#263238;" d="M133.041,164.139L133.041,164.139c-5.707-5.707-14.96-5.707-20.667,0l0,0
				c-5.707,5.707-5.707,14.96,0,20.667l10.334,10.334l10.334-10.334C138.748,179.099,138.748,169.846,133.041,164.139z
				 M126.962,178.728L126.962,178.728c-2.35,2.35-6.16,2.35-8.51,0c-2.35-2.35-2.35-6.16,0-8.51c2.35-2.35,6.16-2.35,8.51,0h0
				C129.312,172.568,129.312,176.378,126.962,178.728z"/>
			<path style="fill:none;stroke:#FFFFFF;stroke-linecap:round;stroke-linejoin:round;stroke-miterlimit:10;" d="M112.341,180.882
				c1.159,2.326,2.786,4.436,4.812,6.072"/>
			<path style="fill:none;stroke:#FFFFFF;stroke-linecap:round;stroke-linejoin:round;stroke-miterlimit:10;" d="M115.893,163.983
				c-4.978,3.007-6.299,8.786-4.663,14.12"/>
			<path style="fill:none;stroke:#FFFFFF;stroke-linecap:round;stroke-linejoin:round;stroke-miterlimit:10;" d="M122.707,162.062
				c-1.261,0.002-2.519,0.195-3.727,0.557"/>
		</g>
		<g>
			<path style="fill:#263238;" d="M264.838,257.001L264.838,257.001c-5.707-5.707-14.96-5.707-20.667,0l0,0
				c-5.707,5.707-5.707,14.96,0,20.667l10.334,10.334l10.334-10.334C270.545,271.961,270.545,262.708,264.838,257.001z
				 M258.759,271.59L258.759,271.59c-2.35,2.35-6.16,2.35-8.51,0c-2.35-2.35-2.35-6.16,0-8.51c2.35-2.35,6.16-2.35,8.51,0h0
				C261.109,265.43,261.109,269.24,258.759,271.59z"/>
			<path style="fill:none;stroke:#FFFFFF;stroke-linecap:round;stroke-linejoin:round;stroke-miterlimit:10;" d="M244.138,273.744
				c1.159,2.326,2.786,4.436,4.812,6.072"/>
			<path style="fill:none;stroke:#FFFFFF;stroke-linecap:round;stroke-linejoin:round;stroke-miterlimit:10;" d="M247.69,256.845
				c-4.978,3.007-6.299,8.786-4.663,14.12"/>
			<path style="fill:none;stroke:#FFFFFF;stroke-linecap:round;stroke-linejoin:round;stroke-miterlimit:10;" d="M254.504,254.924
				c-1.261,0.002-2.519,0.195-3.727,0.557"/>
		</g>
	</g>
</g>
<g id="Character">
	<g>
		<path style="fill:#BFBFBF;stroke:#263238;stroke-miterlimit:10;" d="M350.902,258.155c-1.177,0.471-11.063,1.648-11.063,1.648
			c0.235-2.354,5.178-6.591,5.178-8.944c0-2.354-2.118-1.883-2.118-1.883c-0.471,3.06-8.238,8.709-9.886,9.415
			c-1.648,0.706-6.12,15.77-8.544,18.132c-18.995,18.94-37.001,29.885-43.709,43.006c-6.708,13.121-18.359,19.911-18.359,19.911
			s-3.884,49.938,10.945,27.754c14.829-22.184,20.125-20.89,27.539-30.776c7.414-9.886,21.89-32.47,33.188-51.388
			c5.767-4.901,10.239-2.631,13.77-6.161c0.744-0.744,0.235-3.766,1.412-5.745c1.177-1.979,3.06-5.553,2.824-7.672
			c-0.235-2.118,1.648-3.295,1.883-4.472C354.197,259.803,352.078,257.684,350.902,258.155z"/>
		<path style="fill:#BFBFBF;stroke:#263238;stroke-miterlimit:10;" d="M123.024,327.577c-3.849-14.225-19.202-28.658-33.868-51.117
			c-1.884-2.812-3.143-18.475-4.609-19.507c-1.466-1.032-7.897-8.165-7.724-11.256c0,0-1.975-0.899-2.462,1.404
			c-0.487,2.303,3.473,7.47,3.216,9.822c0,0-9.428-3.196-10.483-3.9c-1.054-0.704-3.565,0.93-3.578,2.13
			c-0.013,1.2,1.586,2.741,0.917,4.765c-0.669,2.024,0.434,5.911,1.176,8.09c0.742,2.179-0.381,5.03,0.193,5.913
			c2.724,4.185,7.569,2.888,12.197,8.876c7.14,20.846,16.632,45.936,21.841,57.142c5.209,11.206,10.658,11.035,20.577,35.807
			c9.919,24.772,16.449-24.89,16.449-24.89S126.873,341.802,123.024,327.577z"/>
		<path style="fill:#999999;stroke:#263238;stroke-linecap:round;stroke-linejoin:round;stroke-miterlimit:10;" d="M129.244,334.347
			c0,0,2.559-6.075-2.226-8.004c-4.785-1.929-10.787,1.542-10.787,1.542s-8.827,2.218-9.18,11.554c0,0-1.984,31.343,5.363,31.461
			C119.762,371.018,129.244,334.347,129.244,334.347z"/>
		<path style="fill:#999999;stroke:#263238;stroke-linecap:round;stroke-linejoin:round;stroke-miterlimit:10;" d="M267.032,335.439
			c0,0-0.395-4.919,5.607-4.265c6.002,0.654,10.945,9.197,10.592,21.166c0,0,2.747,15.265-4.629,14.853
			C271.227,366.781,267.032,335.439,267.032,335.439z"/>
		<g>
			<defs>
				<path id="XMLID_81_" d="M151.185,362.492c0,0-20.441-23.829-24.167-32.072c0,0-14.083-0.455-15.966,11.892
					c-1.883,12.348,0,24.882,0,24.882s13.875,37.874,19.648,52.213L151.185,362.492z"/>
			</defs>
			<use xlink:href="#XMLID_81_"  style="overflow:visible;fill:#757575;"/>
			<clipPath id="XMLID_00000140000717443481811910000015645508259615525822_">
				<use xlink:href="#XMLID_81_"  style="overflow:visible;"/>
			</clipPath>
			<g style="clip-path:url(#XMLID_00000140000717443481811910000015645508259615525822_);">
				<g style="opacity:0.3;">
					<path style="fill:#92E3A9;" d="M143.967,353.855c-2.936,0.375-6.113,1.339-9.433,3.186c-0.777,0.419-1.553,0.892-2.338,1.419
						c-0.714,0.482-1.392,1.044-2.017,1.687c-2.954,2.972-4.944,7.532-6.247,12.861c-0.634,2.633-1.107,5.453-1.446,8.363
						c-0.562,4.855-0.741,9.951-0.678,14.833c-1.696-4.516-3.374-9.032-4.9-13.11v-0.009c0.285-3.106,0.723-6.185,1.348-9.148
						v-0.009c0.509-2.49,1.16-4.882,1.972-7.131c1.606-4.471,3.838-8.354,6.899-11.138c0.651-0.598,1.348-1.151,2.088-1.642
						c0.776-0.518,1.553-1,2.32-1.437c2.972-1.696,5.863-2.793,8.63-3.445C141.486,350.785,142.771,352.374,143.967,353.855z"/>
				</g>
				<g style="opacity:0.3;">
					<path style="fill:#92E3A9;" d="M136.14,343.976c-2.419,0.687-5.123,1.642-8.086,2.945c-0.91,0.402-1.847,0.839-2.811,1.312
						c-0.687,0.339-1.339,0.732-1.963,1.178c-3.329,2.401-5.64,6.256-7.247,10.674c-0.803,2.24-1.428,4.632-1.91,7.051
						c-0.393,1.981-0.687,3.98-0.91,5.944c-1.33-3.624-2.16-5.881-2.16-5.881s-0.339-2.276-0.589-5.837
						c-0.027-0.357-0.053-0.732-0.071-1.116c0.607-1.919,1.321-3.784,2.16-5.542c1.937-4.052,4.561-7.568,8.086-9.969
						c0.705-0.482,1.455-0.919,2.24-1.303c0.866-0.428,1.713-0.821,2.535-1.187c2.615-1.187,5.051-2.106,7.309-2.838
						C133.793,340.888,134.944,342.423,136.14,343.976z"/>
				</g>
				<g style="opacity:0.3;">
					<path style="fill:#92E3A9;" d="M128.884,333.784c-2.329,0.598-4.516,1.491-6.569,2.588c-1.606,0.848-3.124,1.83-4.561,2.909
						c-2.677,1.99-5.069,4.293-7.149,6.649c0.116-1.196,0.259-2.41,0.446-3.615c0.553-3.597,2.133-6.113,4.096-7.863
						c0.018-0.009,0.027-0.018,0.036-0.036c0.036-0.027,0.08-0.054,0.125-0.08c1.062-0.759,2.169-1.473,3.32-2.133
						c0.419-0.25,0.848-0.482,1.285-0.714c0.027,0.053,0.054,0.107,0.071,0.161c0.821-0.303,1.642-0.535,2.401-0.705
						c2.615-0.589,4.632-0.527,4.632-0.527C127.447,331.356,128.081,332.499,128.884,333.784z"/>
				</g>
				<g style="opacity:0.3;">
					<path style="fill:#92E3A9;" d="M141.156,365.404l-3.989,3.579c-2.436-2.713-4.775-5.703-6.988-8.836
						c-1.053-1.464-2.062-2.972-3.052-4.489c-1.33-2.062-2.615-4.15-3.847-6.247c-0.91-1.562-1.794-3.124-2.642-4.676
						c-1.008-1.839-1.972-3.668-2.883-5.453c-0.866-1.687-1.678-3.338-2.445-4.944c0,0-0.009,0-0.009-0.009
						c1.044-0.901,2.187-1.589,3.329-2.124c0.419-0.25,0.848-0.482,1.285-0.714c0.027,0.053,0.054,0.107,0.071,0.161
						c0.741,1.526,1.517,3.106,2.329,4.721c0.973,1.919,2.008,3.891,3.097,5.872c0.848,1.553,1.731,3.115,2.642,4.677
						c1.116,1.901,2.276,3.793,3.481,5.658c0.973,1.517,1.972,3.008,2.999,4.462C136.649,360.022,138.862,362.851,141.156,365.404z"
						/>
				</g>
				<g style="opacity:0.3;">
					<path style="fill:#92E3A9;" d="M135.988,398.488l-5.141,1.508c-1.526-5.203-4.596-11.736-8.362-18.626
						c-1.33-2.445-2.758-4.935-4.23-7.434v-0.009c-1.348-2.276-2.731-4.543-4.132-6.792c-1.214-1.954-2.436-3.891-3.659-5.774
						c-0.027-0.357-0.053-0.732-0.071-1.116c-0.152-2.561-0.232-5.658-0.125-8.996c0.741,1.116,1.508,2.276,2.285,3.454
						c1.142,1.74,2.312,3.543,3.481,5.382c1.401,2.196,2.811,4.445,4.195,6.711c1.258,2.062,2.499,4.141,3.704,6.212
						C129.295,382.254,133.918,391.428,135.988,398.488z"/>
				</g>
			</g>
			<path style="opacity:0.2;clip-path:url(#XMLID_00000140000717443481811910000015645508259615525822_);fill-opacity:0.7;" d="
				M135.578,405.859l-4.873,13.548c-5.774-14.342-19.652-52.21-19.652-52.21s-1.883-12.539,0-24.882
				c1.169-7.675,7.05-10.406,11.334-11.37c0.25,0.045,0.509,0.107,0.768,0.17c0,0-11.147,7.14-9.924,34.583l10.853,30.032
				c0,0,1.133-10.451,5.48-8.943C131.428,387.43,134.087,396.096,135.578,405.859z"/>
			
				<use xlink:href="#XMLID_81_"  style="overflow:visible;fill:none;stroke:#263238;stroke-linecap:round;stroke-linejoin:round;stroke-miterlimit:10;"/>
		</g>
		<g>
			<path style="fill:#BFBFBF;stroke:#263238;stroke-miterlimit:10;" d="M195.217,341.206c-0.094,0.419-0.508,0.754-1.197,1.002
				c-1.22,0.44-3.303,0.594-5.954,0.442c-12.742-0.701-38.612-8.268-44.785-23.328c-6.588-16.067,10.317-37.055,28.415-37.502
				c10.407-0.253,19.177,12.046,21.283,26.441C193.996,315.219,199.909,320.973,195.217,341.206z"/>
			<path style="fill:none;stroke:#263238;stroke-linecap:round;stroke-linejoin:round;stroke-miterlimit:10;" d="M186.377,317.965
				c0,0-0.974,1.49-0.706,4.302"/>
			<path style="fill:none;stroke:#263238;stroke-linecap:round;stroke-linejoin:round;stroke-miterlimit:10;" d="M186.484,326.337
				c0,0,1.842,2.499,3.18,1.348"/>
			<path style="fill:#263238;" d="M194.021,342.208c-1.22,0.44-3.303,0.594-5.954,0.442c0.262-1.89,0.76-4.08,0.923-5.177
				c0.517-3.468-1.223-4.556-0.482-4.799c0.703-0.23,0.668,2.838,2.139,4.41C192.495,339.06,193.414,341.143,194.021,342.208z"/>
			<path style="fill:#BFBFBF;stroke:#263238;stroke-miterlimit:10;" d="M189.007,339.574c0,0-2.262,8.694-2.024,13.102
				c0.239,4.408,1.828,10.013,1.828,10.013l-27.46,1.595c0,0,4.109-19.777,1.914-26.695c-2.195-6.918,17.552-4.4,17.552-4.4"/>
			<path style="fill:#263238;" d="M185.86,298.761c1.154-3.736,3.199-3.366,3.199-3.366s-1.331-17.948-8.978-19.859
				c-5.183-1.295-6.598,6.508-11.971,0.888c-3.017-3.155-8.48-4.043-12.151-1.343c-2.173,1.598-2.096,3.825-3.545,5.766
				c-1.492,1.999-4.444,1.862-6.646,2.311c-3.403,0.694-6.85,3.224-7.558,6.807c-0.576,2.919,2.995,5.224,2.299,7.625
				c-0.833,2.874-3.495,4.606-5.149,6.956c-2.012,2.858-2.178,6.575-1.407,9.899c1.144,4.932,3.701,6.863,7.663,9.383
				c1.985,1.262,3.176,3.557,4.401,5.486c4.119,6.482,9.126,11.22,16.985,12.56c15.807,2.695,22.886-11.892,22.886-11.892
				s-1.781-14.46-0.487-16.111c1.294-1.651,4.013,3.989,4.013,3.989C192.662,309.121,185.86,298.761,185.86,298.761z"/>
			<path style="fill:#BFBFBF;stroke:#263238;stroke-miterlimit:10;" d="M189.527,320.152c-0.473-1.762-0.138-9.018-2.33-8.343
				c-1.919,0.591-0.995,8.058,0.968,13.046c1.963,4.988,4.441,4.981,4.512,3.56c0.072-1.421-1.591-2.36-2.041-4.451"/>
			<path style="opacity:0.3;fill:none;stroke:#FFFFFF;stroke-linecap:round;stroke-linejoin:round;stroke-miterlimit:10;" d="
				M184.732,289.776c0,0,0.872-8.25-4.701-7.961c-5.574,0.289-5.282,7.961-5.282,7.961s-4.683-1.581-6.283,1.111
				c-1.6,2.692,0.057,8.165,0.057,8.165s-5.011,1.589-3.775,4.943c1.236,3.354-1.978,3.847-1.978,3.847"/>
			<path style="opacity:0.3;fill:none;stroke:#FFFFFF;stroke-linecap:round;stroke-linejoin:round;stroke-miterlimit:10;" d="
				M183.46,296.521c0,0-0.877,7.297-6.087,7.473c0,0-5.366,16.476-23.57,16.121"/>
			<path style="opacity:0.3;fill:none;stroke:#FFFFFF;stroke-linecap:round;stroke-linejoin:round;stroke-miterlimit:10;" d="
				M169.514,280.684c0,0-4.206-3.93-9.253-1.519c-5.046,2.41-1.692,9.243-1.692,9.243s-4.904-0.301-6.512,3.406
				c-1.608,3.707,3.158,6.12,3.158,6.12s-5.433,2.883-3.158,5.178c2.275,2.295,0,6.885,0,6.885"/>
			<path style="opacity:0.3;fill:none;stroke:#FFFFFF;stroke-linecap:round;stroke-linejoin:round;stroke-miterlimit:10;" d="
				M148.507,288.408c0,0-7.621,2.406-6.017,8.114c1.604,5.708,2.898,5.685,2.898,5.685s-5.707,1.968-6.06,6.115
				c-0.353,4.147,4.59,3.939,4.59,3.939s-1.589,4.139,2.472,5.704"/>
		</g>
		<g>
			<defs>
				<path id="XMLID_80_" d="M151.185,359.965c0,0,18.394-12.956,51.864,0.666l25.113-5.859c0,0,16.243,44.103,6.5,89.313
					c0,0-21.797,15.639-58.272,15.552c-39.567-0.094-49.372-15.552-49.372-15.552l5.664-14.429
					c-3.412-16.472-7.826-42.899-4.462-56.573C133.334,352.306,151.185,359.965,151.185,359.965z"/>
			</defs>
			<use xlink:href="#XMLID_80_"  style="overflow:visible;fill:#757575;"/>
			<clipPath id="XMLID_00000106135356644583309430000009160050395698364321_">
				<use xlink:href="#XMLID_80_"  style="overflow:visible;"/>
			</clipPath>
			<g style="clip-path:url(#XMLID_00000106135356644583309430000009160050395698364321_);">
				<g style="opacity:0.3;">
					<path style="fill:#92E3A9;" d="M226.342,448.787c-1.526,0.741-3.258,1.526-5.185,2.32c-0.161-1.91-0.312-3.802-0.455-5.667
						c-0.152-1.919-0.295-3.802-0.42-5.667c-0.419-5.667-0.768-11.085-1.071-16.234c-0.107-1.964-0.214-3.882-0.312-5.765
						c-0.402-7.729-0.687-14.824-0.866-21.303c-0.063-2.097-0.116-4.132-0.161-6.096c-0.143-6.872-0.178-12.95-0.152-18.233
						c0.009-2.079,0.036-4.043,0.063-5.881c0.053-3.481,0.134-6.524,0.232-9.121l5.399-1.258c-0.089,2.258-0.178,4.909-0.232,7.952
						h-0.009c-0.036,1.865-0.071,3.864-0.089,6.024c-0.045,5.034-0.027,10.87,0.089,17.519c0.027,2.017,0.071,4.105,0.125,6.274
						c0.17,6.569,0.437,13.833,0.839,21.785c0.098,1.901,0.196,3.855,0.303,5.837c0.294,5.159,0.643,10.585,1.044,16.279
						c0.134,1.865,0.277,3.766,0.428,5.694C226.047,445.066,226.19,446.913,226.342,448.787z"/>
				</g>
				<g style="opacity:0.3;">
					<path style="fill:#92E3A9;" d="M210.447,358.907c-0.393,2.954-0.821,6.488-1.241,10.54c-0.196,1.847-0.393,3.802-0.58,5.864
						c-0.527,5.881-1.018,12.602-1.374,20.009c-0.089,1.937-0.178,3.927-0.241,5.962c-0.241,6.604-0.357,13.69-0.286,21.16
						c0.018,1.874,0.045,3.775,0.089,5.694c0.107,5.364,0.312,10.906,0.634,16.6c0.107,1.847,0.223,3.704,0.357,5.587
						c0.116,1.714,0.241,3.445,0.393,5.185c-1.687,0.464-3.445,0.901-5.274,1.303c-0.134-1.589-0.259-3.168-0.366-4.739
						c-0.134-1.865-0.259-3.713-0.366-5.542c-0.348-5.757-0.571-11.37-0.696-16.805c-0.053-1.892-0.089-3.757-0.107-5.605
						c-0.089-7.39-0.009-14.413,0.205-21c0.053-1.981,0.125-3.918,0.214-5.81c0.321-7.533,0.794-14.404,1.312-20.473
						c0.178-1.999,0.348-3.909,0.527-5.73c0.419-4.123,0.839-7.782,1.232-10.906L210.447,358.907z"/>
				</g>
				<g style="opacity:0.3;">
					<path style="fill:#92E3A9;" d="M192.526,357.041c-0.535,4.257-1.178,9.969-1.821,16.823c-0.161,1.767-0.321,3.606-0.482,5.516
						c-0.526,6.354-1.026,13.494-1.401,21.214c-0.089,1.812-0.178,3.659-0.25,5.533c-0.268,6.658-0.437,13.699-0.464,21.009
						c-0.018,1.803-0.018,3.623,0,5.462c0.036,5.801,0.161,11.763,0.41,17.814c0.071,1.812,0.152,3.623,0.25,5.453
						c0.053,1.053,0.116,2.106,0.178,3.168c-1.74,0.17-3.516,0.312-5.337,0.411c-0.054-0.83-0.098-1.66-0.143-2.481
						c-0.098-1.812-0.187-3.615-0.259-5.409c-0.268-6.229-0.41-12.361-0.446-18.34c-0.018-1.812-0.027-3.606-0.009-5.391
						c0.018-7.309,0.178-14.351,0.437-21.036c0.071-1.847,0.143-3.659,0.232-5.444c0.366-7.738,0.848-14.913,1.374-21.321
						c0.152-1.883,0.312-3.704,0.473-5.444c0.705-7.782,1.437-14.181,2.017-18.786C188.983,356.131,190.723,356.542,192.526,357.041
						z"/>
				</g>
				<g style="opacity:0.3;">
					<path style="fill:#92E3A9;" d="M173.57,459.604c-1.874-0.036-3.677-0.116-5.417-0.232c-0.036-0.303-0.071-0.616-0.098-0.928
						c-0.187-1.74-0.339-3.534-0.455-5.382c-0.419-6.238-0.553-13.03-0.678-20.277c-0.009-0.294-0.009-0.58-0.018-0.875
						c-0.027-1.49-0.054-3.017-0.08-4.561c-0.125-6.506-0.303-13.449-0.714-20.777c-0.098-1.785-0.205-3.606-0.339-5.435
						c-0.178-2.588-0.393-5.212-0.643-7.88c-0.446-4.739-0.678-9.041-0.723-12.941c-0.018-1.892,0-3.686,0.054-5.382
						c0.286-9.121,1.58-15.654,2.972-20.161c1.785-0.214,3.713-0.339,5.774-0.366c-1.437,3.918-3.079,10.549-3.391,20.821
						c-0.053,1.687-0.071,3.472-0.036,5.364c0.045,3.659,0.259,7.702,0.687,12.155c0.286,3.025,0.527,5.988,0.723,8.898
						c0.125,1.821,0.232,3.615,0.321,5.382c0.393,7.408,0.562,14.413,0.678,20.964c0.027,1.294,0.045,2.57,0.071,3.829
						c0.009,0.518,0.018,1.035,0.027,1.544c0.125,7.033,0.259,13.619,0.678,19.616c0.116,1.839,0.268,3.615,0.464,5.337
						C173.463,458.756,173.516,459.185,173.57,459.604z"/>
				</g>
				<g style="opacity:0.3;">
					<path style="fill:#92E3A9;" d="M155.676,379.13c-0.196,3.543-0.232,7.077-0.063,10.442c0.169,3.329,0.241,6.488,0.241,9.54
						c0,1.883-0.027,3.722-0.071,5.533c-0.161,6.203-0.562,12.084-0.982,18.144c-0.036,0.544-0.071,1.089-0.116,1.642
						c-0.125,1.821-0.241,3.659-0.357,5.524c-0.321,5.007-0.571,10.219-0.625,15.823c-0.018,1.499-0.009,2.954,0.027,4.364
						c0.036,2.044,0.116,3.989,0.232,5.828c0.027,0.553,0.063,1.098,0.107,1.633c-1.946-0.384-3.766-0.812-5.462-1.285
						c-0.045-0.803-0.089-1.624-0.125-2.472c-0.089-1.937-0.134-3.971-0.143-6.104c0-0.66,0-1.339,0.009-2.017
						c0.062-6.265,0.366-12.004,0.714-17.51c0.125-1.892,0.25-3.757,0.375-5.605c0.009-0.063,0.009-0.134,0.018-0.196
						c0.455-6.47,0.884-12.718,1-19.367c0.045-1.856,0.053-3.748,0.027-5.685c-0.018-2.427-0.089-4.926-0.223-7.523
						c-0.196-3.873-0.134-7.916,0.107-11.932c0.107-1.83,0.25-3.65,0.41-5.453c0.446-4.677,1.071-9.21,1.74-13.289
						c1.044-0.562,2.713-1.366,4.98-2.16c0.018,0,0.036-0.009,0.054-0.009c0.009-0.009,0.027-0.018,0.036-0.018h0.009
						c0.259-0.098,0.527-0.187,0.803-0.268c-0.893,4.971-1.785,10.906-2.338,17.019C155.899,375.525,155.765,377.327,155.676,379.13
						z"/>
				</g>
				<g style="opacity:0.3;">
					<path style="fill:#92E3A9;" d="M148.965,359.246c0.758,0.196,1.365,0.402,1.74,0.536c-2.91,1.892-5.962,4.989-7.408,10.04
						c-0.473,1.606-0.768,3.418-0.848,5.453c-0.053,1.205-0.027,2.481,0.089,3.838c0.446,5.221,0.741,10.254,0.866,15.118
						c0.062,2.044,0.098,4.043,0.098,6.024c0.009,6.783-0.295,13.253-0.928,19.456c-0.187,1.901-0.401,3.775-0.66,5.632
						c-0.143,1.071-0.294,2.133-0.464,3.195c-0.634,4.043-1.25,8.844-1.758,13.771c-0.214,2.088-0.411,4.195-0.58,6.274
						c-0.116,1.419-0.214,2.82-0.303,4.195c-2.026-0.937-3.74-1.901-5.167-2.829c0.134-1.731,0.285-3.454,0.446-5.123
						c0.223-2.32,0.464-4.543,0.705-6.578c0.696-6.051,1.357-10.415,1.374-10.54c0.241-1.571,0.464-3.159,0.66-4.766
						c0.241-1.901,0.446-3.82,0.607-5.774c0.571-6.256,0.794-12.798,0.687-19.688c-0.027-2.097-0.089-4.221-0.178-6.39
						c-0.152-3.73-0.402-7.568-0.741-11.522c-0.205-2.419-0.178-4.623,0.036-6.64c0.205-1.99,0.598-3.802,1.133-5.444
						c1.223-3.784,3.195-6.685,5.408-8.898C145.814,358.576,147.635,358.907,148.965,359.246z"/>
					<path style="fill:#92E3A9;" d="M157.595,356.979v0.009c0,0,0,0-0.009,0c-0.009,0-0.018,0.009-0.036,0.009
						c0.009-0.009,0.027-0.018,0.036-0.018H157.595z"/>
				</g>
				<g style="opacity:0.3;">
					<path style="fill:#92E3A9;" d="M231.429,365.609c-2.294,1.303-5.078,2.767-8.344,4.248c-1.66,0.759-3.454,1.526-5.364,2.285
						c-2.784,1.098-5.819,2.169-9.094,3.168c-1.767,0.536-3.606,1.053-5.507,1.526c-4.007,1.017-8.309,1.892-12.896,2.544
						c-1.767,0.25-3.579,0.464-5.426,0.643c-3.918,0.384-8.014,0.598-12.28,0.598c-0.777,0-1.544,0-2.32-0.018
						c-0.143,0-0.286-0.009-0.419-0.009c-1.839-0.045-3.632-0.134-5.373-0.277c-3.061-0.259-5.971-0.66-8.728-1.187
						c-1.839-0.357-3.606-0.768-5.31-1.223c-2.811-0.759-5.453-1.642-7.916-2.633c-1.83-0.732-3.57-1.517-5.212-2.347
						c-2.749-1.383-5.248-2.874-7.497-4.418c0.785-1.847,1.705-3.374,2.713-4.623c1.803,1.241,3.766,2.454,5.917,3.597
						c1.544,0.821,3.186,1.607,4.926,2.338c2.32,0.982,4.811,1.874,7.479,2.633c1.687,0.482,3.445,0.91,5.284,1.276
						c2.642,0.544,5.444,0.955,8.398,1.205c1.731,0.161,3.507,0.259,5.355,0.295c0.152,0.009,0.312,0.018,0.473,0.018
						c0.732,0.018,1.455,0.018,2.178,0.018c4.462,0,8.737-0.25,12.807-0.687c1.856-0.196,3.668-0.437,5.435-0.714
						c4.623-0.714,8.951-1.66,12.941-2.758c1.937-0.518,3.784-1.08,5.56-1.66c3.106-1.017,5.971-2.097,8.577-3.186
						c1.954-0.812,3.739-1.633,5.39-2.427h0.009c2.651-1.285,4.909-2.508,6.747-3.579
						C230.385,361.763,230.893,363.556,231.429,365.609z"/>
				</g>
				<g style="opacity:0.3;">
					<path style="fill:#92E3A9;" d="M235.57,385.618c-3.222,2.41-7.363,5.239-12.271,8.032c-1.669,0.946-3.418,1.901-5.266,2.82
						c-3.4,1.714-7.086,3.356-11.022,4.81c-1.758,0.66-3.561,1.276-5.417,1.838c-4.123,1.267-8.469,2.303-13.021,3.008
						c-1.758,0.277-3.561,0.5-5.382,0.66c-2.472,0.232-4.989,0.348-7.559,0.348c-1.366,0-2.74-0.036-4.123-0.107
						c-1.785-0.089-3.579-0.241-5.4-0.455c-0.348-0.036-0.696-0.08-1.044-0.125c-3.257-0.428-6.345-1.035-9.282-1.803
						c-1.838-0.473-3.615-1.008-5.328-1.598c-2.436-0.839-4.757-1.776-6.952-2.793c-1.883-0.875-3.677-1.803-5.382-2.776
						c-4.159-2.365-7.827-4.989-11.013-7.657c-0.098-2.552-0.116-5.007-0.036-7.318c3.115,2.999,6.729,5.944,10.87,8.586
						c1.723,1.107,3.543,2.16,5.462,3.141c2.231,1.151,4.587,2.195,7.077,3.133c1.722,0.643,3.516,1.232,5.373,1.749
						c3.115,0.884,6.408,1.571,9.898,2.026c0.009,0,0.009,0,0.018,0c1.821,0.241,3.623,0.411,5.417,0.509
						c4.186,0.232,8.273,0.107,12.236-0.303c1.83-0.196,3.632-0.446,5.399-0.75c4.543-0.785,8.889-1.919,12.986-3.284
						c1.865-0.616,3.686-1.285,5.444-1.99c3.811-1.517,7.363-3.204,10.62-4.944c1.865-0.991,3.641-1.999,5.301-2.999
						c4.721-2.838,8.577-5.614,11.379-7.8C234.91,381.504,235.249,383.521,235.57,385.618z"/>
				</g>
				<g style="opacity:0.3;">
					<path style="fill:#92E3A9;" d="M237.774,413.428c0,0.402,0,0.803-0.009,1.214c-3.838,2.088-8.345,4.382-13.325,6.631
						c-1.687,0.768-3.436,1.526-5.23,2.267c-3.936,1.642-8.104,3.213-12.396,4.596c-1.749,0.562-3.525,1.098-5.319,1.589
						c-4.391,1.223-8.88,2.213-13.387,2.874c-1.776,0.259-3.561,0.464-5.346,0.616c-2.124,0.178-4.257,0.277-6.363,0.277
						c-1.374,0-2.749-0.045-4.114-0.125c-1.633-0.098-3.258-0.268-4.873-0.5c-0.161-0.027-0.33-0.045-0.491-0.08
						c-4.346-0.643-8.55-1.615-12.593-2.829c-1.785-0.536-3.543-1.116-5.266-1.74c-2.454-0.884-4.837-1.847-7.149-2.874
						c-1.74-0.768-3.436-1.571-5.087-2.401c-2.106-1.053-4.132-2.142-6.078-3.258c-0.411-2.276-0.812-4.632-1.196-7.033
						c2.472,1.535,5.105,3.052,7.881,4.516c1.66,0.875,3.373,1.722,5.14,2.543c2.213,1.026,4.507,1.999,6.863,2.901
						c1.714,0.651,3.463,1.267,5.248,1.821c3.9,1.241,7.952,2.249,12.138,2.918c0.446,0.08,0.901,0.152,1.356,0.214
						c1.321,0.187,2.66,0.33,4.007,0.428c3.463,0.232,7.006,0.152,10.567-0.17c1.785-0.17,3.57-0.393,5.355-0.687
						c4.462-0.696,8.916-1.74,13.28-3.017c1.803-0.518,3.579-1.08,5.337-1.678c4.23-1.419,8.318-3.008,12.173-4.668
						c1.803-0.767,3.552-1.553,5.239-2.338c5.185-2.41,9.799-4.837,13.566-6.935C237.748,410.125,237.774,411.768,237.774,413.428z"
						/>
				</g>
				<g style="opacity:0.3;">
					<path style="fill:#92E3A9;" d="M236.632,432.393c-0.125,1.008-0.259,2.017-0.411,3.025c-0.161,1.133-0.348,2.267-0.544,3.4
						c-2.695,1.285-6.006,2.802-9.764,4.427c-1.651,0.723-3.4,1.455-5.212,2.195c-3.998,1.633-8.345,3.302-12.896,4.882
						c-1.723,0.598-3.472,1.187-5.248,1.749c-4.516,1.437-9.157,2.74-13.789,3.793c-1.767,0.41-3.543,0.776-5.301,1.098
						c-3.329,0.616-6.631,1.071-9.844,1.339c-0.063,0.009-0.134,0.009-0.196,0.018c-1.321,0.107-2.633,0.152-3.918,0.152
						c-0.491,0-0.973-0.009-1.455-0.027c-5.06-0.143-9.773-1.062-14.092-2.472c-1.901-0.616-3.73-1.33-5.48-2.124
						c-3.427-1.535-6.56-3.347-9.371-5.266c-1.812-1.223-3.49-2.499-5.025-3.757c-2.062-1.696-3.882-3.382-5.426-4.935l2.178-5.533
						c1.116,1.187,2.436,2.508,3.954,3.891c1.455,1.321,3.097,2.695,4.9,4.061c2.552,1.919,5.444,3.802,8.648,5.435
						c1.705,0.884,3.507,1.696,5.391,2.401c4.23,1.598,8.871,2.686,13.869,2.918c1.74,0.08,3.534,0.063,5.364-0.08
						c0.071-0.009,0.152-0.009,0.223-0.018c3.249-0.268,6.613-0.759,10.022-1.41c1.758-0.339,3.534-0.723,5.31-1.142
						c4.578-1.08,9.193-2.419,13.673-3.882c1.776-0.58,3.534-1.178,5.257-1.794c4.543-1.615,8.88-3.32,12.834-4.962
						c1.83-0.75,3.561-1.499,5.203-2.222C230.126,435.525,233.964,433.696,236.632,432.393z"/>
				</g>
			</g>
			<g style="clip-path:url(#XMLID_00000106135356644583309430000009160050395698364321_);">
				<path style="opacity:0.2;fill-opacity:0.7;" d="M203.245,360.585c-7.372,4.195-25.096,13.298-38.278,12.289
					c-10.576-0.812-15.038-7.836-16.002-13.628c1.374,0.357,2.222,0.723,2.222,0.723s18.394-12.959,51.861,0.661L203.245,360.585z"
					/>
				<path style="opacity:0.2;fill-opacity:0.7;" d="M179.46,459.604c-1.008,0.027-2.035,0.036-3.07,0.036
					c-39.563-0.098-49.371-15.556-49.371-15.556l5.667-14.431c-1.972-9.496-4.275-22.303-5.221-34.066
					c3.097,6.39,22.33,43.445,50.799,43.285C198.443,438.747,188.778,450.974,179.46,459.604z"/>
				<path style="opacity:0.2;fill-opacity:0.7;" d="M237.774,413.428c0,7.086-0.446,14.485-1.553,21.99
					c-10.451-12.584-7.158-35.422-7.158-35.422C230.438,408.903,235.061,412.223,237.774,413.428z"/>
			</g>
			
				<use xlink:href="#XMLID_80_"  style="overflow:visible;fill:none;stroke:#263238;stroke-linecap:round;stroke-linejoin:round;stroke-miterlimit:10;"/>
		</g>
		<path style="fill:none;stroke:#263238;stroke-linecap:round;stroke-linejoin:round;stroke-miterlimit:10;" d="M163.662,367.092
			c11.56,0.452,25.593,0.369,35.682-6.065"/>
		<path style="fill:none;stroke:#263238;stroke-linecap:round;stroke-linejoin:round;stroke-miterlimit:10;" d="M157.187,366.664
			c1.037,0.105,2.077,0.186,3.117,0.254"/>
		<path style="fill:none;stroke:#263238;stroke-linecap:round;stroke-linejoin:round;stroke-miterlimit:10;" d="M166.107,438.572
			c0.099,1.845,0.29,3.727,0.789,5.513"/>
		<path style="fill:none;stroke:#263238;stroke-linecap:round;stroke-linejoin:round;stroke-miterlimit:10;" d="M163.071,369.724
			c-1.844,4.56-2.736,9.023-1.844,14.378c4.462,16.957,7.14,33.021,4.847,50.236"/>
		<path style="fill:none;stroke:#263238;stroke-linecap:round;stroke-linejoin:round;stroke-miterlimit:10;" d="M169.374,426.991
			c5.798,1.484,11.873,1.434,17.706,0.164"/>
		<path style="fill:none;stroke:#263238;stroke-linecap:round;stroke-linejoin:round;stroke-miterlimit:10;" d="M133.08,391.072
			c6.285,14.823,17.619,27.455,32.131,34.582"/>
		<path style="fill:none;stroke:#263238;stroke-linecap:round;stroke-linejoin:round;stroke-miterlimit:10;" d="M130.118,382.669
			c0.342,1.205,0.717,2.401,1.121,3.586"/>
		<g>
			<defs>
				<path id="XMLID_79_" d="M228.162,354.772c0,0-3.136,18.952,0.604,42.961c3.74,24.008,9.6,23.77,9.6,23.77
					s33.449-41.345,42.393-58.057c0,0-2.118-24.007-11.533-29.099L228.162,354.772z"/>
			</defs>
			<use xlink:href="#XMLID_79_"  style="overflow:visible;fill:#757575;"/>
			<clipPath id="XMLID_00000010301836476400302930000002577483211290385075_">
				<use xlink:href="#XMLID_79_"  style="overflow:visible;"/>
			</clipPath>
			<g style="clip-path:url(#XMLID_00000010301836476400302930000002577483211290385075_);">
				<g style="opacity:0.3;">
					<path style="fill:#92E3A9;" d="M274.758,373.177c-1.348,2.008-2.802,4.132-4.337,6.31c-0.794-4.748-1.714-9.139-2.713-13.2
						c-0.482-1.981-0.991-3.882-1.517-5.703c-1.133-3.98-2.338-7.586-3.561-10.835c-0.696-1.83-1.392-3.552-2.08-5.159
						c-0.75-1.74-1.49-3.356-2.213-4.828l4.864-2.419c0.616,1.241,1.241,2.57,1.865,3.989c0.714,1.607,1.428,3.32,2.133,5.159
						c1.205,3.079,2.383,6.488,3.516,10.228c0.544,1.812,1.08,3.704,1.589,5.676C273.188,365.752,274.009,369.34,274.758,373.177z"
						/>
				</g>
				<g style="opacity:0.3;">
					<path style="fill:#92E3A9;" d="M262.496,390.402c-1.571,2.106-3.15,4.204-4.712,6.256c-0.696-7.176-1.731-13.851-2.981-19.991
						v-0.009c-0.393-1.99-0.812-3.918-1.258-5.783c-1.089-4.694-2.285-9.023-3.499-12.941c-0.571-1.847-1.151-3.606-1.731-5.275
						c-0.83-2.427-1.66-4.659-2.454-6.685l4.864-2.419c0.741,1.874,1.517,3.918,2.294,6.131c0.589,1.66,1.187,3.418,1.785,5.274
						c1.169,3.704,2.338,7.773,3.418,12.191c0.464,1.865,0.91,3.793,1.339,5.783C260.711,378.327,261.719,384.155,262.496,390.402z"
						/>
				</g>
				<g style="opacity:0.3;">
					<path style="fill:#92E3A9;" d="M249.832,407.011c-1.642,2.115-3.186,4.07-4.569,5.828c-1.223-8.907-2.758-17.707-4.4-25.962
						c-0.384-1.937-0.768-3.847-1.16-5.721c-1.151-5.507-2.329-10.71-3.463-15.458c-0.437-1.865-0.875-3.659-1.303-5.373
						c-0.705-2.874-1.383-5.524-2.017-7.916l4.9-2.436c0.616,2.32,1.276,4.891,1.972,7.693c0.437,1.722,0.884,3.525,1.339,5.408
						v0.009c1.071,4.498,2.204,9.424,3.32,14.663c0.402,1.874,0.803,3.793,1.196,5.739v0.009
						C247.163,390.955,248.609,398.898,249.832,407.011z"/>
				</g>
				<g style="opacity:0.3;">
					<path style="fill:#92E3A9;" d="M274.803,340.682c-2.303,1.83-4.837,3.784-7.604,5.81c-1.455,1.071-2.981,2.16-4.569,3.258
						c-2.454,1.714-5.06,3.454-7.827,5.212c-1.535,0.982-3.124,1.972-4.757,2.972c-2.829,1.714-5.801,3.436-8.916,5.141v0.009
						c-1.598,0.875-3.222,1.749-4.891,2.615c-2.981,1.553-6.069,3.088-9.273,4.587c0.045-2.213,0.134-4.239,0.25-6.042v-0.009
						c2.66-1.285,5.23-2.588,7.72-3.909c1.651-0.884,3.275-1.767,4.855-2.66c2.972-1.66,5.81-3.338,8.523-5.007
						c1.615-0.991,3.186-1.981,4.703-2.972c2.66-1.723,5.167-3.427,7.532-5.096c1.571-1.107,3.079-2.195,4.516-3.258
						c2.392-1.776,4.596-3.481,6.613-5.096c0.634,0.643,1.232,1.392,1.785,2.204C273.946,339.138,274.392,339.888,274.803,340.682z"
						/>
				</g>
				<g style="opacity:0.3;">
					<path style="fill:#92E3A9;" d="M279.667,355.979c-2.32,2.062-4.775,4.212-7.363,6.417c-1.49,1.285-3.025,2.579-4.596,3.891
						c-2.624,2.195-5.346,4.418-8.148,6.649c-1.562,1.24-3.15,2.49-4.757,3.722v0.009c-2.99,2.303-6.051,4.596-9.157,6.818v0.009
						c-1.589,1.142-3.177,2.276-4.784,3.383c-4.132,2.856-8.318,5.587-12.495,8.095c-0.277-1.99-0.5-3.945-0.687-5.846
						c4.025-2.49,8.05-5.176,12.022-7.97c1.589-1.116,3.177-2.249,4.748-3.409c3.088-2.249,6.131-4.561,9.094-6.872
						c1.58-1.241,3.141-2.481,4.676-3.722c2.749-2.204,5.408-4.409,7.97-6.569c1.544-1.312,3.061-2.597,4.525-3.864
						c2.686-2.329,5.221-4.578,7.595-6.711C278.873,352.088,279.319,354.141,279.667,355.979z"/>
				</g>
			</g>
			<path style="opacity:0.2;clip-path:url(#XMLID_00000010301836476400302930000002577483211290385075_);fill-opacity:0.7;" d="
				M280.756,363.449c-8.943,16.707-42.392,58.055-42.392,58.055s-4.98,0.205-8.693-18.626c2.731,10.156,10.13,11.191,10.13,11.191
				l34.083-45.096c-3.632-7.72-0.509-29.942-0.419-30.531C279.31,346.992,280.756,363.449,280.756,363.449z"/>
			
				<use xlink:href="#XMLID_79_"  style="overflow:visible;fill:none;stroke:#263238;stroke-linecap:round;stroke-linejoin:round;stroke-miterlimit:10;"/>
		</g>
		<g>
			<defs>
				<path id="XMLID_82_" d="M203.049,360.632c0,0-13.852-10.158-32.211-12.302c-18.359-2.144-17.889,8.683-17.889,8.683
					s-2.588,0.967-1.765,4.014C152.008,364.074,176.862,367.025,203.049,360.632z"/>
			</defs>
			<use xlink:href="#XMLID_82_"  style="overflow:visible;fill:#757575;"/>
			<clipPath id="XMLID_00000075868691631041739550000009394761011687929997_">
				<use xlink:href="#XMLID_82_"  style="overflow:visible;"/>
			</clipPath>
			<g style="clip-path:url(#XMLID_00000075868691631041739550000009394761011687929997_);">
				<g style="opacity:0.3;">
					<path style="fill:#92E3A9;" d="M169.741,348.215c-0.411,0.982-0.857,2.204-1.294,3.695c-0.446,1.499-0.893,3.275-1.303,5.364
						c-0.393,2.044-0.759,4.373-1.035,7.033c-1.946-0.089-3.739-0.232-5.364-0.41c0.259-2.481,0.58-4.712,0.937-6.711
						c0.366-2.035,0.768-3.829,1.196-5.408c0.366-1.365,0.741-2.57,1.116-3.632C165.645,348.01,167.555,348.01,169.741,348.215z"/>
				</g>
				<g style="opacity:0.3;">
					<path style="fill:#92E3A9;" d="M184.431,351.428c0,0.678-0.018,1.41-0.045,2.204c-0.063,1.58-0.178,3.382-0.384,5.399
						c-0.152,1.499-0.348,3.115-0.607,4.846c-1.883,0.17-3.713,0.295-5.489,0.384c0.357-2.195,0.607-4.203,0.785-6.024
						c0.196-2.044,0.303-3.847,0.357-5.391c0.027-1.142,0.036-2.151,0.018-2.999C180.933,350.312,182.727,350.848,184.431,351.428z"
						/>
				</g>
				<g style="opacity:0.3;">
					<path style="fill:#92E3A9;" d="M203.048,360.629c-1.946,0.473-3.882,0.901-5.81,1.276c-4.65-1.249-9.085-2.187-13.235-2.874
						c-1.83-0.312-3.597-0.571-5.31-0.794c-4.23-0.544-8.104-0.83-11.548-0.964c-1.972-0.08-3.793-0.107-5.462-0.089
						c-4.382,0.018-7.711,0.294-9.755,0.518c0.5-0.491,1.026-0.687,1.026-0.687s-0.116-2.579,1.91-4.971
						c2.169-0.161,4.864-0.277,8.014-0.268c1.723,0.009,3.579,0.045,5.569,0.134c3.213,0.161,6.765,0.446,10.602,0.937
						c1.723,0.214,3.499,0.473,5.337,0.785c3.275,0.535,6.729,1.223,10.326,2.088l0.009,0.009
						C199.942,358.353,203.048,360.629,203.048,360.629z"/>
				</g>
			</g>
			
				<use xlink:href="#XMLID_82_"  style="overflow:visible;fill:none;stroke:#263238;stroke-linecap:round;stroke-linejoin:round;stroke-miterlimit:10;"/>
		</g>
		<path style="fill:none;stroke:#263238;stroke-linecap:round;stroke-linejoin:round;stroke-miterlimit:10;" d="M173.017,355.842
			c1.775,0.258,3.535,0.639,5.248,1.171"/>
		<path style="fill:none;stroke:#263238;stroke-linecap:round;stroke-linejoin:round;stroke-miterlimit:10;" d="M152.95,357.013
			c5.305-1.354,10.952-1.857,16.409-1.539"/>
		<path style="fill:none;stroke:#263238;stroke-linecap:round;stroke-linejoin:round;stroke-miterlimit:10;" d="M121.199,355.759
			c0.029,1.76,0.147,3.519,0.343,5.269"/>
		<path style="fill:none;stroke:#263238;stroke-linecap:round;stroke-linejoin:round;stroke-miterlimit:10;" d="M129.244,334.347
			c-5.568,3.641-7.537,11.53-7.952,17.693"/>
		<path style="fill:none;stroke:#263238;stroke-linecap:round;stroke-linejoin:round;stroke-miterlimit:10;" d="M261.182,380.854
			c-1.427,1.473-3.072,2.785-4.964,3.608"/>
		<path style="fill:none;stroke:#263238;stroke-linecap:round;stroke-linejoin:round;stroke-miterlimit:10;" d="M277.026,345.832
			c-3.348,10.603-6.918,22.205-13.304,32.002"/>
		<path style="fill:none;stroke:#263238;stroke-linecap:round;stroke-linejoin:round;stroke-miterlimit:10;" d="M238.366,421.504
			c0,0-5.154,2.506-11.989-11.648"/>
		<path style="fill:none;stroke:#263238;stroke-linecap:round;stroke-linejoin:round;stroke-miterlimit:10;" d="M229.799,435.06
			c-4.948,8.688-12.082,16.768-21.601,20.448"/>
		<path style="fill:none;stroke:#263238;stroke-linecap:round;stroke-linejoin:round;stroke-miterlimit:10;" d="M233.654,426.991
			c-0.523,1.407-1.137,2.782-1.789,4.134"/>
	</g>
</g>
</svg>
