<?xml version="1.0" encoding="utf-8"?>
<!-- Generator: Adobe Illustrator 27.5.0, SVG Export Plug-In . SVG Version: 6.00 Build 0)  -->
<svg version="1.1" xmlns="http://www.w3.org/2000/svg" xmlns:xlink="http://www.w3.org/1999/xlink" x="0px" y="0px"
	 viewBox="0 0 500 500" style="enable-background:new 0 0 500 500;" xml:space="preserve">
<g id="Background_Simple">
	<g>
		<path style="opacity:0.7;fill:#FFFFFF;" d="M67.931,167.086c0,0-27.877,71.988,11.297,144.503
			c39.174,72.516,119.879,110.802,184.469,143.548c64.59,32.746,131.661,16.799,163.534-36.838
			c31.873-53.637-11.845-91.928-11.897-168.418c-0.051-76.49,11.447-96.742-29.963-161.364
			c-41.41-64.623-143.059-78.925-219.9-30.996C88.631,105.45,67.931,167.086,67.931,167.086z"/>
	</g>
	<g>
		<path style="fill:#92E3A9;" d="M110.014,112.469c13.449-16.078,31.635-28.522,53.312-28.255
			c36.99,0.455,56.985,33.202,78.222,58.468c11.013,13.102,23.487,25.742,39.828,31.895c24.517,9.232,51.814,3.841,75.697-4.728
			c10.698-3.838,23.372-9.236,35.42-6.48c36.631,8.38,32.814,53.086,26.763,81.389c-8.17,38.215-21.446,78.904-48.359,108.268
			c-64.425,70.292-180.379,27.202-238.494-28.888c-4.272-4.123-8.365-8.431-12.213-12.953c-9.953-11.697-18.496-24.6-25.161-38.445
			c-18.747-38.945-21.325-86.292-5.082-126.541C94.668,134.501,101.502,122.645,110.014,112.469z"/>
		<path style="opacity:0.7;fill:#FFFFFF;" d="M110.014,112.469c13.449-16.078,31.635-28.522,53.312-28.255
			c36.99,0.455,56.985,33.202,78.222,58.468c11.013,13.102,23.487,25.742,39.828,31.895c24.517,9.232,51.814,3.841,75.697-4.728
			c10.698-3.838,23.372-9.236,35.42-6.48c36.631,8.38,32.814,53.086,26.763,81.389c-8.17,38.215-21.446,78.904-48.359,108.268
			c-64.425,70.292-180.379,27.202-238.494-28.888c-4.272-4.123-8.365-8.431-12.213-12.953c-9.953-11.697-18.496-24.6-25.161-38.445
			c-18.747-38.945-21.325-86.292-5.082-126.541C94.668,134.501,101.502,122.645,110.014,112.469z"/>
	</g>
</g>
<g id="Floor">
	
		<line style="fill:none;stroke:#263238;stroke-linecap:round;stroke-linejoin:round;stroke-miterlimit:10;" x1="54.045" y1="443.428" x2="445.955" y2="443.428"/>
</g>
<g id="Window">
	<g>
		<polyline style="fill:none;stroke:#263238;stroke-linecap:round;stroke-linejoin:round;stroke-miterlimit:10;" points="
			291.973,240.798 291.973,93.66 301.081,93.66 		"/>
		
			<line style="fill:none;stroke:#263238;stroke-linecap:round;stroke-linejoin:round;stroke-miterlimit:10;" x1="291.973" y1="258.314" x2="291.973" y2="254.406"/>
		<polyline style="fill:none;stroke:#263238;stroke-linecap:round;stroke-linejoin:round;stroke-miterlimit:10;" points="
			324.513,93.66 418.518,93.66 418.518,272.027 291.973,272.027 		"/>
		
			<line style="fill:none;stroke:#263238;stroke-linecap:round;stroke-linejoin:round;stroke-miterlimit:10;" x1="312.987" y1="93.66" x2="321.247" y2="93.66"/>
		
			<rect x="296.732" y="98.409" style="fill:none;stroke:#263238;stroke-linecap:round;stroke-linejoin:round;stroke-miterlimit:10;" width="117.028" height="168.87"/>
		<polyline style="fill:none;stroke:#263238;stroke-linecap:round;stroke-linejoin:round;stroke-miterlimit:10;" points="
			408.317,107.454 408.317,177.577 302.174,177.577 302.174,173.003 		"/>
		<polyline style="fill:none;stroke:#263238;stroke-linecap:round;stroke-linejoin:round;stroke-miterlimit:10;" points="
			302.174,162.281 302.174,103.388 408.317,103.388 		"/>
		
			<line style="fill:none;stroke:#263238;stroke-linecap:round;stroke-linejoin:round;stroke-miterlimit:10;" x1="302.174" y1="169.487" x2="302.174" y2="165.041"/>
		
			<line style="fill:none;stroke:#263238;stroke-linecap:round;stroke-linejoin:round;stroke-miterlimit:10;" x1="390.394" y1="182.844" x2="413.76" y2="182.844"/>
		
			<line style="fill:none;stroke:#263238;stroke-linecap:round;stroke-linejoin:round;stroke-miterlimit:10;" x1="382.084" y1="182.844" x2="385.39" y2="182.844"/>
		
			<line style="fill:none;stroke:#263238;stroke-linecap:round;stroke-linejoin:round;stroke-miterlimit:10;" x1="296.732" y1="182.844" x2="378.136" y2="182.844"/>
		<polyline style="fill:none;stroke:#263238;stroke-linecap:round;stroke-linejoin:round;stroke-miterlimit:10;" points="
			349.364,177.577 349.364,175.163 359.15,175.163 359.15,176.536 355.246,176.536 355.246,177.577 		"/>
		<path style="fill:none;stroke:#263238;stroke-linecap:round;stroke-linejoin:round;stroke-miterlimit:10;" d="M296.934,246.035
			c0,0,1.622,1.228,2.763,8.663c0,0,1.965-11.873,4.347-12.059c2.382-0.186,1.896,7.726,1.896,7.726s0.397-3.898,2.264-3.718
			c1.867,0.18,0,8.051,0,8.051s2.237-6.135,4.36-6.031c2.123,0.104-1.409,11.119-1.409,11.119s5.441-3.939,7.645-2.01
			c2.204,1.929-1.225,6.788-1.225,6.788s7.802-1.691,9.017,2.886"/>
		<path style="fill:none;stroke:#263238;stroke-linecap:round;stroke-linejoin:round;stroke-miterlimit:10;" d="M326.593,263.013
			c0,0,3.402-2.228,6.074-1.189c0,0-1.701-2.593,0-4.179c1.701-1.585,3.887,4.179,3.887,4.179s0.243-9.651,3.645-9.165
			c3.401,0.486,0,9.165,0,9.165s6.074-5.385,7.532-3.509c1.458,1.876-0.972,4.698-0.972,4.698s3.643-1.164,6.316,1.551
			c0,0,4.073-4.154,8.597-4.75c0,0-3.008-8.735-1.55-10.497c1.458-1.761,4.107,7.623,4.107,7.623s1.156-6.104,4.957-6.576
			c0,0-3.163-1.721-2.226-4.33s5.311,0.612,5.311,0.612s-1.796-4.589,1.046-5.849c2.841-1.26,4.029,3.841,4.029,3.841
			s0.792-5.344,4.134-5.05c3.315,0.292,2.258,6.445,2.258,6.445s3.152-4.889,4.84-4.391c3.373,0.995,2.349,8.721,2.349,8.721
			s4.708-3.272,5.92-1.765c1.308,1.625-4.896,5.806-4.896,5.806s4.67,0.519,7.577,3.239"/>
		<path style="fill:none;stroke:#263238;stroke-linecap:round;stroke-linejoin:round;stroke-miterlimit:10;" d="M413.76,247.799
			c0,0-0.538-4.902-5.443-5.16c-4.905-0.258,1.348,10.75,1.348,10.75s-4.042-3.345-5.495-2.316
			c-1.453,1.029,4.147,6.702,4.147,6.702s-2.687-2.485-5.522-1.716c-2.835,0.77,1.618,8.66,1.618,8.66s-5.903-1.545-12.463,1.457"/>
	</g>
</g>
<g id="Table">
	<g>
		<g>
			
				<line style="fill:none;stroke:#263238;stroke-linecap:round;stroke-linejoin:round;stroke-miterlimit:10;" x1="246.69" y1="399.647" x2="246.69" y2="443.173"/>
			
				<line style="fill:none;stroke:#263238;stroke-linecap:round;stroke-linejoin:round;stroke-miterlimit:10;" x1="246.69" y1="385.405" x2="246.69" y2="394.732"/>
			<polyline style="fill:none;stroke:#263238;stroke-linecap:round;stroke-linejoin:round;stroke-miterlimit:10;" points="
				63.49,443.428 63.49,362.328 246.69,362.328 246.69,380.131 			"/>
			<polyline style="fill:none;stroke:#263238;stroke-linecap:round;stroke-linejoin:round;stroke-miterlimit:10;" points="
				90.18,371.196 74.284,371.196 74.284,435.994 			"/>
			<polyline style="fill:none;stroke:#263238;stroke-linecap:round;stroke-linejoin:round;stroke-miterlimit:10;" points="
				235.896,443.173 235.896,371.196 99.411,371.196 			"/>
			
				<line style="fill:none;stroke:#263238;stroke-linecap:round;stroke-linejoin:round;stroke-miterlimit:10;" x1="228.28" y1="353.931" x2="223.229" y2="353.931"/>
			<polyline style="fill:none;stroke:#263238;stroke-linecap:round;stroke-linejoin:round;stroke-miterlimit:10;" points="
				215.982,353.931 58.936,353.931 58.936,362.269 251.244,362.269 251.244,353.931 231.5,353.931 			"/>
		</g>
		<g>
			<g>
				<path style="fill:none;stroke:#263238;stroke-linecap:round;stroke-linejoin:round;stroke-miterlimit:10;" d="M69.765,300.49
					c0,0,15.053,1.188,15.681,12.294C85.446,312.784,70.203,319.802,69.765,300.49z"/>
				<path style="fill:none;stroke:#263238;stroke-linecap:round;stroke-linejoin:round;stroke-miterlimit:10;" d="M99.543,303.247
					c0,0,8.41-11.369,21.997-5.539C121.54,297.708,113.243,311.454,99.543,303.247z"/>
				<path style="fill:none;stroke:#263238;stroke-linecap:round;stroke-linejoin:round;stroke-miterlimit:10;" d="M120.389,267.351
					c0,0,2.418,21.874-17.492,15.85C102.897,283.201,109.219,267.121,120.389,267.351z"/>
				<path style="fill:none;stroke:#263238;stroke-linecap:round;stroke-linejoin:round;stroke-miterlimit:10;" d="M95.943,255.175
					c0,0,15.746,8.491,4.168,21.376C100.112,276.551,89.068,267.348,95.943,255.175z"/>
				<path style="fill:none;stroke:#263238;stroke-linecap:round;stroke-linejoin:round;stroke-miterlimit:10;" d="M76.569,274.72
					c0,0,17.12-1.727,17.12,14.121C93.689,288.841,76.569,289.516,76.569,274.72z"/>
				<path style="fill:none;stroke:#263238;stroke-linecap:round;stroke-linejoin:round;stroke-miterlimit:10;" d="M89.399,321.731
					c-0.249-5.316-0.247-12.157,3.001-19.388c7.492-16.683,10.026-30.731,6.11-40.634"/>
				<path style="fill:none;stroke:#263238;stroke-linecap:round;stroke-linejoin:round;stroke-miterlimit:10;" d="M82.193,278.981
					c0,0,10.262,4.077,13.75,14.648"/>
				<path style="fill:none;stroke:#263238;stroke-linecap:round;stroke-linejoin:round;stroke-miterlimit:10;" d="M114.977,276.102
					c0,0-5.93,8.078-15.977,7.206"/>
				<path style="fill:none;stroke:#263238;stroke-linecap:round;stroke-linejoin:round;stroke-miterlimit:10;" d="M114.977,300.032
					c0,0-16.424,4.732-22.951,3.183"/>
				<path style="fill:none;stroke:#263238;stroke-linecap:round;stroke-linejoin:round;stroke-miterlimit:10;" d="M74.674,305.491
					c0,0,7.341,8.058,14.725,7.932"/>
			</g>
			<path style="fill:none;stroke:#263238;stroke-miterlimit:10;" d="M108.926,321.731H73.235c-0.48,0-0.869,0.389-0.869,0.869v2.706
				c0,0.48,0.389,0.869,0.869,0.869h1.042l3.181,27.756h27.246l3.18-27.756h1.042c0.48,0,0.869-0.389,0.869-0.869v-2.706
				C109.795,322.12,109.406,321.731,108.926,321.731z"/>
			
				<line style="fill:none;stroke:#263238;stroke-linecap:round;stroke-linejoin:round;stroke-miterlimit:10;" x1="76.569" y1="326.175" x2="97.327" y2="326.175"/>
			
				<line style="fill:none;stroke:#263238;stroke-linecap:round;stroke-linejoin:round;stroke-miterlimit:10;" x1="101.242" y1="326.175" x2="104.362" y2="326.175"/>
		</g>
	</g>
</g>
<g id="Character_2">
	<g>
		<path style="fill:#263238;" d="M133.406,443.428c0,0-1.709-6.526,0.289-8.944c3.589-4.342-0.438-7.983,3.164-9.492l1.509,1.752
			c0.293-1.779-0.547-7.181,6.134-7.886c8.076-0.852,8.229,5.026,8.665,6.961l-0.133-2.705c3.443,0,1.659,3.438,6.88,9.061
			c3.985,4.291,3.993,9.794,3.773,11.253H133.406z"/>
		<path style="fill:#263238;" d="M195.017,443.428c-3.249-1.453-0.264-13.704-0.264-13.704s-4.373-2.936-0.003-5.978
			c0,0,4.889,4.751,12.41,2.016c0,0,0.855-8.204,5.982-7.149c0,0,1.316,5.198,4.323,8.164c8.155,8.044,18.687,8.964,20.449,12.842
			c0.527,1.16-0.112,3.809-0.112,3.809H195.017z"/>
		<g>
			<g>
				<defs>
					<path id="XMLID_591_" d="M181.112,247.912l4.009,8.474c0,0,16.535,34.186,26.67,73.326c0.24,0.926,5.482,19.47,1.279,65.636
						l2.396,8.101l-2.616,13.38c0,0,3.935,5.692,3.795,7.549c0,0-9.717,1.815-12.955,3.555c-2.525,1.357-10.093,8.831-10.093,8.831
						c-2.146-0.443-2.334-9.127-2.334-9.127s-4.497-77.065-5.78-80.389c-1.283-3.324-9.178-17.638-21.474-50.405
						c0,0-0.278,45.772-3.563,57.347c-2.923,10.3,0.538,39.131,0.538,39.131l-1.973,32.092c0,0,6.916,7.188,1.305,9.115
						c0,0-3.747-7.212-14.427-8.851c-5.428-0.833-12.196,8.807-12.196,8.807c-2.371-0.76,1.011-12.87,1.011-12.87
						c-7.57-57.124-1.981-46.784-3.494-74.704c-0.971-17.916-6.057-94.581-0.091-100.81L181.112,247.912z"/>
				</defs>
				<use xlink:href="#XMLID_591_"  style="overflow:visible;fill:#BFBFBF;"/>
				<clipPath id="XMLID_00000000904480425997430510000004186692400230810522_">
					<use xlink:href="#XMLID_591_"  style="overflow:visible;"/>
				</clipPath>
				<path style="opacity:0.2;clip-path:url(#XMLID_00000000904480425997430510000004186692400230810522_);" d="M128.263,274.306
					c26.733,2.106,49.891-6.642,59.932-11.214c-1.903-4.286-3.076-6.706-3.076-6.706l-4.009-8.471l-49.993-1.811
					C128.965,248.349,128.253,259.776,128.263,274.306z"/>
				<path style="opacity:0.2;clip-path:url(#XMLID_00000000904480425997430510000004186692400230810522_);" d="M164.233,297.428
					c12.166,32.349,19.98,46.51,21.255,49.817c0.73,1.912,2.522,28.082,3.917,50.048c1.607-19.98,3.251-41.07,3.399-45.208
					c0.296-8.23-5.653-19.528-6.549-22.447c-0.896-2.91,1.127-6.078,1.127-6.078l-10.706-13.496
					c0.36-4.582-5.302-24.572-5.302-24.572C168.002,288.68,165.037,295.469,164.233,297.428z"/>
				
					<use xlink:href="#XMLID_591_"  style="overflow:visible;fill:none;stroke:#263238;stroke-linecap:round;stroke-linejoin:round;stroke-miterlimit:10;"/>
			</g>
			<path style="fill:none;stroke:#263238;stroke-linecap:round;stroke-linejoin:round;stroke-miterlimit:10;" d="M164.01,296.842
				c0,0,6.111-11.795,11.323-15.084"/>
			<path style="fill:none;stroke:#263238;stroke-linecap:round;stroke-linejoin:round;stroke-miterlimit:10;" d="M177.623,277.94
				c0,0-18.562,5.645-24.995,6.742"/>
			<path style="fill:none;stroke:#263238;stroke-linecap:round;stroke-linejoin:round;stroke-miterlimit:10;" d="M168.122,258.996
				c0.8,15.453,6.252,18.085,0.981,21.456c0,0,0.145,7.228-2.474,11.809"/>
			<path style="fill:none;stroke:#263238;stroke-linecap:round;stroke-linejoin:round;stroke-miterlimit:10;" d="M135.598,253.094
				c0,0,2.193,23.75-5.116,28.217"/>
			<path style="fill:none;stroke:#263238;stroke-linecap:round;stroke-linejoin:round;stroke-miterlimit:10;" d="M130.482,260.746
				c0,0-0.548,15.815,0,28.555c0,0,1.827,53.851,3.654,60.612c1.827,6.761-2.815,16.965-2.412,46.214"/>
			<path style="fill:none;stroke:#263238;stroke-linecap:round;stroke-linejoin:round;stroke-miterlimit:10;" d="M148.022,419.026
				c-1.731-0.327-3.556-0.179-5.116,0.684"/>
			<path style="fill:none;stroke:#263238;stroke-linecap:round;stroke-linejoin:round;stroke-miterlimit:10;" d="M159.013,425.413
				c-2.292-2.186-4.964-4.11-7.865-5.395"/>
			<path style="fill:none;stroke:#263238;stroke-linecap:round;stroke-linejoin:round;stroke-miterlimit:10;" d="M155.955,300.573
				c-4.1,4.592-10.592,13.264-17.251,13.996"/>
			<path style="fill:none;stroke:#263238;stroke-linecap:round;stroke-linejoin:round;stroke-miterlimit:10;" d="M162.275,293.087
				c-1.261,1.593-2.562,3.155-3.883,4.698"/>
			<path style="fill:none;stroke:#263238;stroke-linecap:round;stroke-linejoin:round;stroke-miterlimit:10;" d="M156.428,346.91
				c0,0-9.319,12.686-14.435,13.417"/>
			<path style="fill:none;stroke:#263238;stroke-linecap:round;stroke-linejoin:round;stroke-miterlimit:10;" d="M167.391,294.549
				c0,0,16.596,46.228,22.367,50.796c0,0,0.655,33.986,0.838,45.862c0.183,11.877,2.924,27.657,2.924,27.657"/>
			<path style="fill:none;stroke:#263238;stroke-linecap:round;stroke-linejoin:round;stroke-miterlimit:10;" d="M211.243,418.52
				c0,0-6.395,2.209-9.501,3.619c-3.106,1.409-4.203,4.516-4.203,4.516"/>
			<path style="fill:none;stroke:#263238;stroke-linecap:round;stroke-linejoin:round;stroke-miterlimit:10;" d="M195.072,328.674
				c-8.915-5.596-20.664-12.582-25.399-22.432"/>
			<path style="fill:none;stroke:#263238;stroke-linecap:round;stroke-linejoin:round;stroke-miterlimit:10;" d="M202.838,333.285
				c-1.685-0.932-3.346-1.908-4.994-2.903"/>
			<path style="fill:none;stroke:#263238;stroke-linecap:round;stroke-linejoin:round;stroke-miterlimit:10;" d="M174.761,265.246
				c-4.794-0.07-10.041-0.7-14.131-3.404"/>
			<path style="fill:none;stroke:#263238;stroke-linecap:round;stroke-linejoin:round;stroke-miterlimit:10;" d="M182.374,264.799
				c-1.371,0.194-2.754,0.31-4.137,0.381"/>
		</g>
		<path style="fill:#263238;" d="M191.26,158.638c-3.661-5.536-22.313-6.952-34.28-6.952s-26.498-2.019-33.064,11.501
			c-5.008,10.312,6.525,64.833,6.525,64.833l-2.825,23.538c21.684,6.803,58.826,5.298,58.826,5.298l-5-21.279
			C181.441,235.577,194.92,164.175,191.26,158.638z"/>
		<path style="fill:#FFFFFF;stroke:#263238;stroke-linecap:round;stroke-linejoin:round;stroke-miterlimit:10;" d="M149.874,137.998
			c0,0,1.606,12.831-3.275,15.599c0,0,2.441,9.411,10.982,9.994c8.542,0.583,12.359-8.624,12.359-8.624L149.874,137.998z"/>
		<g>
			<g>
				<defs>
					<path id="XMLID_590_" d="M220.632,120.345l-25.605,2.363l-1.443-15.634c-0.096-1.035,0.666-1.951,1.701-2.047l21.858-2.017
						c1.035-0.096,1.951,0.666,2.047,1.701L220.632,120.345z"/>
				</defs>
				<use xlink:href="#XMLID_590_"  style="overflow:visible;fill:#92E3A9;"/>
				<clipPath id="XMLID_00000032624671760876472260000013514817639967344020_">
					<use xlink:href="#XMLID_590_"  style="overflow:visible;"/>
				</clipPath>
				<path style="opacity:0.3;clip-path:url(#XMLID_00000032624671760876472260000013514817639967344020_);fill-opacity:0.7;" d="
					M220.632,120.345l-25.605,2.363l-1.443-15.634c-0.096-1.035,0.666-1.951,1.701-2.047l21.858-2.017
					c1.035-0.096,1.951,0.666,2.047,1.701L220.632,120.345z"/>
				
					<rect x="212.054" y="104.875" transform="matrix(0.9958 -0.0919 0.0919 0.9958 -9.3075 20.2458)" style="opacity:0.3;clip-path:url(#XMLID_00000032624671760876472260000013514817639967344020_);fill:#FFFFFF;fill-opacity:0.7;" width="6.33" height="12.659"/>
				
					<use xlink:href="#XMLID_590_"  style="overflow:visible;fill:none;stroke:#263238;stroke-linecap:round;stroke-linejoin:round;stroke-miterlimit:10;"/>
			</g>
			<g>
				<defs>
					<path id="XMLID_589_" d="M258.471,116.853l-25.606,2.363l-1.443-15.634c-0.095-1.035,0.666-1.951,1.701-2.046l21.858-2.017
						c1.035-0.096,1.951,0.666,2.046,1.701L258.471,116.853z"/>
				</defs>
				<use xlink:href="#XMLID_589_"  style="overflow:visible;fill:#92E3A9;"/>
				<clipPath id="XMLID_00000061462272217985124220000005682007743969461907_">
					<use xlink:href="#XMLID_589_"  style="overflow:visible;"/>
				</clipPath>
				<path style="opacity:0.3;clip-path:url(#XMLID_00000061462272217985124220000005682007743969461907_);fill-opacity:0.7;" d="
					M258.471,116.853l-25.606,2.363l-1.443-15.634c-0.095-1.035,0.666-1.951,1.701-2.046l21.858-2.017
					c1.035-0.096,1.951,0.666,2.046,1.701L258.471,116.853z"/>
				
					<rect x="251.978" y="101.306" transform="matrix(0.9958 -0.0919 0.0919 0.9958 -8.8164 23.7851)" style="opacity:0.3;clip-path:url(#XMLID_00000061462272217985124220000005682007743969461907_);fill:#FFFFFF;fill-opacity:0.7;" width="3.824" height="12.659"/>
				
					<use xlink:href="#XMLID_589_"  style="overflow:visible;fill:none;stroke:#263238;stroke-linecap:round;stroke-linejoin:round;stroke-miterlimit:10;"/>
			</g>
			<path style="fill:#92E3A9;stroke:#263238;stroke-linecap:round;stroke-linejoin:round;stroke-miterlimit:10;" d="
				M250.505,117.588l-25.605,2.363l-1.443-15.634c-0.095-1.035,0.666-1.951,1.701-2.046l21.858-2.017
				c1.035-0.096,1.951,0.666,2.046,1.701L250.505,117.588z"/>
			<path style="fill:#92E3A9;stroke:#263238;stroke-linecap:round;stroke-linejoin:round;stroke-miterlimit:10;" d="
				M288.344,114.096l-25.605,2.363l-1.443-15.634c-0.095-1.035,0.666-1.951,1.701-2.047l21.858-2.017
				c1.035-0.095,1.951,0.666,2.047,1.701L288.344,114.096z"/>
			
				<rect x="241.928" y="102.118" transform="matrix(0.9958 -0.0919 0.0919 0.9958 -8.9292 22.983)" style="opacity:0.3;fill:#FFFFFF;fill-opacity:0.7;" width="6.33" height="12.659"/>
			
				<rect x="279.351" y="98.665" transform="matrix(0.9958 -0.0919 0.0919 0.9958 -8.4522 26.403)" style="opacity:0.3;fill:#FFFFFF;fill-opacity:0.7;" width="6.33" height="12.659"/>
			<g>
				<defs>
					<path id="XMLID_588_" d="M299.215,109.415l6.634,71.885L190.03,191.988l-6.633-71.885c-0.232-2.509,1.613-4.718,4.113-4.949
						l106.757-9.851C296.765,105.072,298.983,106.906,299.215,109.415z"/>
				</defs>
				<use xlink:href="#XMLID_588_"  style="overflow:visible;fill:#92E3A9;"/>
				<clipPath id="XMLID_00000092419514740945717890000008714477851730968200_">
					<use xlink:href="#XMLID_588_"  style="overflow:visible;"/>
				</clipPath>
				<path style="opacity:0.3;clip-path:url(#XMLID_00000092419514740945717890000008714477851730968200_);fill-opacity:0.7;" d="
					M299.215,109.415l6.634,71.885L190.03,191.988l-6.633-71.885c-0.232-2.509,1.613-4.718,4.113-4.949l106.757-9.851
					C296.765,105.072,298.983,106.906,299.215,109.415z"/>
				
					<use xlink:href="#XMLID_588_"  style="overflow:visible;fill:none;stroke:#263238;stroke-linecap:round;stroke-linejoin:round;stroke-miterlimit:10;"/>
			</g>
			<path style="fill:#92E3A9;stroke:#263238;stroke-linecap:round;stroke-linejoin:round;stroke-miterlimit:10;" d="
				M299.215,109.415l6.634,71.885l-85.945,7.931l-6.633-71.885c-0.232-2.509,1.613-4.718,4.113-4.949l76.883-7.095
				C296.765,105.072,298.983,106.906,299.215,109.415z"/>
			<path style="opacity:0.3;fill:#FFFFFF;fill-opacity:0.7;" d="M293.638,112.509l-73.468,6.78
				c-1.033,0.095-1.949-0.665-2.044-1.699l0,0c-0.095-1.033,0.665-1.949,1.699-2.044l73.468-6.78
				c1.033-0.095,1.948,0.665,2.044,1.699l0,0C295.432,111.499,294.671,112.414,293.638,112.509z"/>
		</g>
		<g>
			<path style="fill:#263238;" d="M164.536,112.558c0,0-16.946-3.397-18.845,7.514c-1.899,10.911,4.324,15.546,4.324,15.546
				L164.536,112.558z"/>
			<path style="fill:#FFFFFF;stroke:#263238;stroke-linecap:round;stroke-linejoin:round;stroke-miterlimit:10;" d="M150.041,141.61
				c-1.736-4.864-2.37-10.58-0.871-16.894c1.664-7.006,10.008-16.628,22.647-7.876c6.517,4.512,6.915,14.295,4.885,23.262
				c-0.484,2.139-0.121,4.231-0.831,6.194c-2.498,6.904-7.069,12.214-9.567,12.335c-4.177,0.204-12.517-4.844-12.172-9.243"/>
			<path style="fill:none;stroke:#263238;stroke-linecap:round;stroke-linejoin:round;stroke-miterlimit:10;" d="M166.888,138.441
				c0,0-3.369-2.44-6.613-0.444"/>
			<path style="fill:none;stroke:#263238;stroke-linecap:round;stroke-linejoin:round;stroke-miterlimit:10;" d="M173.251,137.998
				c0,0,2.547-2.336,4.206-2.007"/>
			<path style="fill:#263238;" d="M162.128,142.184c0,0.62,0.316,1.123,0.705,1.123c0.389,0,0.705-0.503,0.705-1.123
				c0-0.62-0.316-1.123-0.705-1.123C162.443,141.061,162.128,141.564,162.128,142.184z"/>
			<ellipse style="fill:#263238;" cx="173.251" cy="141.561" rx="0.705" ry="1.123"/>
			<path style="fill:none;stroke:#263238;stroke-linecap:round;stroke-linejoin:round;stroke-miterlimit:10;" d="M171.824,140.356
				c-1.248,1.622,0.499,7.798,0,8.235c-0.499,0.437-3.681-0.811-3.681-0.811s-0.749-0.936,0.811-1.435"/>
			<path style="fill:none;stroke:#263238;stroke-linecap:round;stroke-linejoin:round;stroke-miterlimit:10;" d="M168.947,151.687
				c0,0-4.266,0-5.408-1.552"/>
			<path style="fill:#757575;stroke:#263238;stroke-linecap:round;stroke-linejoin:round;stroke-miterlimit:10;" d="
				M158.778,128.584l-0.333,5.157c0,0-3.66,1.885-4.575,3.812c-0.915,1.927-0.582,4.007-0.582,4.007s-2.222-3.881-3.414-3.563
				c-0.433,0.115-0.432,1.738-0.432,1.738s-4.972-11.152-0.48-17.057S158.778,128.584,158.778,128.584z"/>
			<path style="fill:#FFFFFF;stroke:#263238;stroke-linecap:round;stroke-linejoin:round;stroke-miterlimit:10;" d="
				M151.728,140.438c0,0-0.998-3.743-4.367-4.741c-3.369-0.998-1.061,7.977,1.809,9.171c2.87,1.194,3.59,1.996,3.76,0.936"/>
			<path style="fill:#263238;" d="M147.136,127.928c-0.275-0.377-1.514-9.978,4.831-14.321c6.345-4.344,17.083-3.855,23.917,2.124
				c6.833,5.979,4.881,16.347,0,19.888v-4.326c0,0-2.252,4.342-8.997,4.701l2.059-3.179c0,0-3.312,1.952-9.169,1.83
				c0,0,2.748-2.196,2.35-4.149C162.128,130.496,152.84,135.729,147.136,127.928z"/>
		</g>
		<path style="fill:#FFFFFF;stroke:#263238;stroke-linecap:round;stroke-linejoin:round;stroke-miterlimit:10;" d="M148.329,162.611
			c-4.68,0.562-11.334,6.671-6.966,17.519c2.769,6.877,25.525,2.789,25.525,2.789c8.441-3.474,20.771-16.003,29.819-21.81
			c0,0-1.909-11.987-4.11-10.301c-10.223,7.831-18.64,8.375-32.904,15.232C159.692,166.039,151.275,162.257,148.329,162.611z"/>
		<path style="fill:#FFFFFF;stroke:#263238;stroke-linecap:round;stroke-linejoin:round;stroke-miterlimit:10;" d="M158.778,175.93
			c-0.14,4.483,1.704,5.275,4.804,6.33"/>
		<path style="fill:#FFFFFF;stroke:#263238;stroke-linecap:round;stroke-linejoin:round;stroke-miterlimit:10;" d="M191.89,151.687
			c0.206-0.647,3.963-7.304,5.069-9.003c1.106-1.699,5.854-3.225,7.7-4.242c1.846-1.017,1.978-2.568,3.033-1.463
			c1.055,1.105,0,3.641-5.538,6.329c0,0,4.422,0.213,5.903,0c1.481-0.213,2.8-1.562,3.459-0.624
			c0.659,0.938,0.791,2.596-2.505,3.614c-3.297,1.017-4.879,0.96-4.879,0.96s4.22,0.985,4.747,1.378
			c0.528,0.393,1.319,1.305,2.11,1.442c0.791,0.138,1.648,1.016,0.198,2.05c-1.451,1.034-3.363,0.066-3.363,0.066
			s3.824,1.846,2.637,3.033c-1.187,1.187-5.011,0.923-5.011,0.923s-5.67,6.857-10.417,5.406"/>
		<path style="fill:none;stroke:#263238;stroke-linecap:round;stroke-linejoin:round;stroke-miterlimit:10;" d="M198.659,142.683
			c0,0,1.055,0.147,1.385,1.334c0.33,1.187,1.293,1.253,1.887,2.571c0.593,1.319,0.421,3.365,1.014,4.056
			c0.593,0.691,0,3.658,0,3.658"/>
		<path style="fill:none;stroke:#FFFFFF;stroke-linecap:round;stroke-linejoin:round;stroke-miterlimit:10;" d="M149.311,161.757
			c-2.455-3.119-7.948-1.709-7.948-1.709"/>
		<path style="fill:none;stroke:#FFFFFF;stroke-linecap:round;stroke-linejoin:round;stroke-miterlimit:10;" d="M138.363,154.303
			c0,0,5.657,0.826,7.328,5.539"/>
		<path style="fill:none;stroke:#FFFFFF;stroke-linecap:round;stroke-linejoin:round;stroke-miterlimit:10;" d="M148.329,184.124
			c0,0-5.515,4.267-13.922-1.865"/>
		<path style="fill:none;stroke:#FFFFFF;stroke-linecap:round;stroke-linejoin:round;stroke-miterlimit:10;" d="M141.363,185.409
			c0,0-2.802,3.87-9.626,3.822"/>
		<path style="fill:none;stroke:#FFFFFF;stroke-linecap:round;stroke-linejoin:round;stroke-miterlimit:10;" d="M176.44,234.103
			c0,0-14.44,11.503-29.11,10.028"/>
		<path style="fill:none;stroke:#FFFFFF;stroke-linecap:round;stroke-linejoin:round;stroke-miterlimit:10;" d="M137.407,208.81
			c0,0,22.418,16.438,39.033,17.493"/>
	</g>
</g>
<g id="Character_3">
	<g>
		<path style="fill:#263238;" d="M328.714,211.088l-4.044,21.746l-32.615,19.817l4.505,8.283c0,0,37.715-11.506,38.627-14.192
			c0.912-2.687,9.615-31.177,9.615-31.177L328.714,211.088z"/>
		<path style="fill:#999999;stroke:#263238;stroke-linecap:round;stroke-linejoin:round;stroke-miterlimit:10;" d="M342.96,174.33
			l-2.18,26.36l-1.15,13.83c-6.29,3.06-12.44-1.54-12.82-1.84c-0.01-0.01-0.02-0.01-0.02-0.01
			C328.56,207.66,330.55,179.33,342.96,174.33z"/>
		<path style="fill:#263238;" d="M340.78,200.69l-1.15,13.83c-6.29,3.06-12.44-1.54-12.82-1.84c0.27,0.12,3.58,1.52,5.73-0.01
			c0,0-1.85-2.11-1.98-2.64c-0.13-0.52,1.98-0.66,1.98-0.66s-1.4-11.21,2.33-15.95C336.33,191.56,338.61,195.36,340.78,200.69z"/>
		<g>
			<path style="fill:#92E3A9;stroke:#263238;stroke-linecap:round;stroke-linejoin:round;stroke-miterlimit:10;" d="
				M365.592,418.443l1.041,2.932c0,0-2.41,4.046-5.079,7.148c0,0-1.028-0.327-2.644,1.124c-1.616,1.451-1.763,3.76-1.763,3.76
				s-7.634,9.163-17.331,9.295c-9.698,0.132-6.766-4.747-6.766-4.747L365.592,418.443z"/>
			<g>
				<defs>
					<path id="XMLID_587_" d="M356.485,395.13c0,0-12.994-4.791-15.546,4.791c0,0,2.32,10.552,0.928,16.316
						c-1.392,5.763-8.384,16.788-8.817,18.887c-0.845,4.094-0.208,4.372-0.208,4.372s5.092,2.942,11.925-0.208
						c6.833-3.151,18.678-16.706,20.535-19.496c1.856-2.791-5.801-13.83-5.801-13.83L356.485,395.13z"/>
				</defs>
				<use xlink:href="#XMLID_587_"  style="overflow:visible;fill:#FFFFFF;"/>
				<clipPath id="XMLID_00000088820262529334388720000015039746939315128470_">
					<use xlink:href="#XMLID_587_"  style="overflow:visible;"/>
				</clipPath>
				<path style="opacity:0.4;clip-path:url(#XMLID_00000088820262529334388720000015039746939315128470_);fill:#92E3A9;" d="
					M356.485,395.13c0,0-12.994-4.791-15.546,4.791c0,0,2.32,10.552,0.928,16.316c-1.392,5.763-8.384,16.788-8.817,18.887
					c-0.845,4.094-0.208,4.372-0.208,4.372s5.092,2.942,11.925-0.208c6.833-3.151,18.678-16.706,20.535-19.496
					c1.856-2.791-5.801-13.83-5.801-13.83L356.485,395.13z"/>
				
					<use xlink:href="#XMLID_587_"  style="overflow:visible;fill:none;stroke:#263238;stroke-linecap:round;stroke-linejoin:round;stroke-miterlimit:10;"/>
			</g>
			<path style="fill:none;stroke:#263238;stroke-linecap:round;stroke-linejoin:round;stroke-miterlimit:10;" d="M349.833,408.678
				c0,0,2.159,9.571-3.252,18.806"/>
			<path style="fill:#92E3A9;stroke:#263238;stroke-linecap:round;stroke-linejoin:round;stroke-miterlimit:10;" d="
				M346.581,429.981c0,0-1.389,3.965-5.565,5.143c-4.177,1.178-7.966,0-7.966,0l3.121-6.327
				C336.171,428.797,340.7,430.88,346.581,429.981z"/>
			<path style="fill:none;stroke:#263238;stroke-linecap:round;stroke-linejoin:round;stroke-miterlimit:10;" d="M348.42,426.171
				c0,0-6.799,0.406-10.35-0.98"/>
			<path style="fill:none;stroke:#263238;stroke-linecap:round;stroke-linejoin:round;stroke-miterlimit:10;" d="M349.678,422.417
				c0,0-6.355,0.972-9.906-1.042"/>
			<path style="fill:none;stroke:#263238;stroke-linecap:round;stroke-linejoin:round;stroke-miterlimit:10;" d="M350.761,418.251
				c0,0-5.574,0.814-9.207-0.912"/>
			<path style="fill:none;stroke:#263238;stroke-linecap:round;stroke-linejoin:round;stroke-miterlimit:10;" d="M351.38,413.529
				c0,0-6.197,1.944-9.131,0"/>
			<path style="fill:#92E3A9;stroke:#263238;stroke-linecap:round;stroke-linejoin:round;stroke-miterlimit:10;" d="
				M352.308,401.865l1.083,6.813c0,0-8.198,5.407-13.619-1.344l0.025-7.109C339.797,400.225,341.808,405.018,352.308,401.865z"/>
		</g>
		<path style="fill:#263238;" d="M345.187,248.992c-8.308,26.327-34.099,68.563-31.484,79.365
			c1.429,5.902,9.94,39.336,16.594,54.036c2.538,5.607,7.999,9.361,7.999,9.361l3.953,8.472c9.626,4.186,13.078-4.335,13.078-4.335
			l-1.936-9.599c5.164-9.378,2.959-9.378-3.712-58c-0.786-5.729,12.497-23.44,12.497-23.44l6.83,44.543l1.11,36.5l3.548,11.276
			c0,0,0.872,10.593,0.798,11.23h15.824l1.747-11.645c0,0,7.352-6.929,7.352-14.93s-1.582-48.748,0-60.616
			c1.582-11.868-3.706-67.206-3.706-67.206L345.187,248.992z"/>
		<g>
			<g>
				<defs>
					<path id="XMLID_585_" d="M259.912,243.253l-25.62-2.203l1.345-15.643c0.089-1.035,1.001-1.802,2.036-1.714l21.87,1.881
						c1.035,0.089,1.802,1.001,1.713,2.036L259.912,243.253z"/>
				</defs>
				<use xlink:href="#XMLID_585_"  style="overflow:visible;fill:#92E3A9;"/>
				<clipPath id="XMLID_00000007416171808791939410000011695195722223368087_">
					<use xlink:href="#XMLID_585_"  style="overflow:visible;"/>
				</clipPath>
				<path style="opacity:0.3;clip-path:url(#XMLID_00000007416171808791939410000011695195722223368087_);fill-opacity:0.7;" d="
					M259.912,243.253l-25.62-2.203l1.345-15.643c0.089-1.035,1.001-1.802,2.036-1.714l21.87,1.881
					c1.035,0.089,1.802,1.001,1.713,2.036L259.912,243.253z"/>
				
					<rect x="253.037" y="226.97" transform="matrix(0.9963 0.0857 -0.0857 0.9963 20.9302 -21.0925)" style="opacity:0.3;clip-path:url(#XMLID_00000007416171808791939410000011695195722223368087_);fill:#FFFFFF;fill-opacity:0.7;" width="6.33" height="12.659"/>
				
					<use xlink:href="#XMLID_585_"  style="overflow:visible;fill:none;stroke:#263238;stroke-linecap:round;stroke-linejoin:round;stroke-miterlimit:10;"/>
			</g>
			<g>
				<defs>
					<path id="XMLID_584_" d="M297.772,246.508l-25.62-2.203l1.345-15.643c0.089-1.035,1-1.802,2.036-1.713l21.87,1.88
						c1.035,0.089,1.803,1.001,1.713,2.036L297.772,246.508z"/>
				</defs>
				<use xlink:href="#XMLID_584_"  style="overflow:visible;fill:#92E3A9;"/>
				<clipPath id="XMLID_00000164477862094337070000000002328747816547234485_">
					<use xlink:href="#XMLID_584_"  style="overflow:visible;"/>
				</clipPath>
				<path style="opacity:0.3;clip-path:url(#XMLID_00000164477862094337070000000002328747816547234485_);fill-opacity:0.7;" d="
					M297.772,246.508l-25.62-2.203l1.345-15.643c0.089-1.035,1-1.802,2.036-1.713l21.87,1.88c1.035,0.089,1.803,1.001,1.713,2.036
					L297.772,246.508z"/>
				
					<rect x="292.982" y="230.297" transform="matrix(0.9963 0.0857 -0.0857 0.9963 21.3548 -24.3925)" style="opacity:0.3;clip-path:url(#XMLID_00000164477862094337070000000002328747816547234485_);fill:#FFFFFF;fill-opacity:0.7;" width="3.824" height="12.659"/>
				
					<use xlink:href="#XMLID_584_"  style="overflow:visible;fill:none;stroke:#263238;stroke-linecap:round;stroke-linejoin:round;stroke-miterlimit:10;"/>
			</g>
			<path style="fill:#92E3A9;stroke:#263238;stroke-linecap:round;stroke-linejoin:round;stroke-miterlimit:10;" d="
				M289.802,245.823l-25.62-2.203l1.345-15.643c0.089-1.035,1-1.802,2.036-1.713l21.871,1.88c1.035,0.089,1.802,1.001,1.714,2.036
				L289.802,245.823z"/>
			<path style="fill:#92E3A9;stroke:#263238;stroke-linecap:round;stroke-linejoin:round;stroke-miterlimit:10;" d="
				M327.662,249.079l-25.62-2.203l1.345-15.643c0.089-1.035,1.001-1.802,2.036-1.714l21.871,1.881c1.035,0.089,1.802,1,1.714,2.036
				L327.662,249.079z"/>
			
				<rect x="282.927" y="229.54" transform="matrix(0.9963 0.0857 -0.0857 0.9963 21.2562 -23.6397)" style="opacity:0.3;fill:#FFFFFF;fill-opacity:0.7;" width="6.33" height="12.659"/>
			
				<rect x="320.371" y="232.759" transform="matrix(0.9963 0.0857 -0.0857 0.9963 21.6738 -26.8401)" style="opacity:0.3;fill:#FFFFFF;fill-opacity:0.7;" width="6.33" height="12.659"/>
			<g>
				<defs>
					<path id="XMLID_583_" d="M339.19,246.394l-6.184,71.925l-115.882-9.964l6.184-71.925c0.216-2.511,2.422-4.358,4.923-4.143
						l106.816,9.184C337.547,241.686,339.406,243.883,339.19,246.394z"/>
				</defs>
				<use xlink:href="#XMLID_583_"  style="overflow:visible;fill:#92E3A9;"/>
				<clipPath id="XMLID_00000102507671110962629550000005528327792205858454_">
					<use xlink:href="#XMLID_583_"  style="overflow:visible;"/>
				</clipPath>
				<path style="opacity:0.3;clip-path:url(#XMLID_00000102507671110962629550000005528327792205858454_);fill-opacity:0.7;" d="
					M339.19,246.394l-6.184,71.925l-115.882-9.964l6.184-71.925c0.216-2.511,2.422-4.358,4.923-4.143l106.816,9.184
					C337.547,241.686,339.406,243.883,339.19,246.394z"/>
				
					<use xlink:href="#XMLID_583_"  style="overflow:visible;fill:none;stroke:#263238;stroke-linecap:round;stroke-linejoin:round;stroke-miterlimit:10;"/>
			</g>
			<path style="fill:#92E3A9;stroke:#263238;stroke-linecap:round;stroke-linejoin:round;stroke-miterlimit:10;" d="M339.19,246.394
				l-6.184,71.925l-85.993-7.394L253.197,239c0.216-2.511,2.422-4.358,4.923-4.143l76.926,6.615
				C337.547,241.686,339.406,243.883,339.19,246.394z"/>
			<path style="opacity:0.3;fill:#FFFFFF;fill-opacity:0.7;" d="M333.154,248.453l-73.509-6.321c-1.034-0.089-1.8-0.999-1.711-2.033
				l0,0c0.089-1.034,0.999-1.8,2.033-1.711l73.509,6.321c1.034,0.089,1.8,0.999,1.711,2.033l0,0
				C335.098,247.776,334.188,248.542,333.154,248.453z"/>
		</g>
		<g>
			<g>
				<defs>
					<path id="XMLID_586_" d="M390.796,408.813c0,0-5.538-3.956-17.011-3.165c0,0-0.831,13.752-2.393,17.755
						c-1.563,4.003-9.784,10.926-11.311,12.113c-1.527,1.187-1.527,5.341-1.527,5.341h34.813c0,0-0.593-9.204-2.769-17.657
						L390.796,408.813z"/>
				</defs>
				<use xlink:href="#XMLID_586_"  style="overflow:visible;fill:#FFFFFF;"/>
				<clipPath id="XMLID_00000148646532614302641600000013310096267685874326_">
					<use xlink:href="#XMLID_586_"  style="overflow:visible;"/>
				</clipPath>
				<path style="opacity:0.4;clip-path:url(#XMLID_00000148646532614302641600000013310096267685874326_);fill:#92E3A9;" d="
					M390.796,408.813c0,0-5.538-3.956-17.011-3.165c0,0-0.831,13.752-2.393,17.755c-1.563,4.003-9.784,10.926-11.311,12.113
					c-1.527,1.187-1.527,5.341-1.527,5.341h34.813c0,0-0.593-9.204-2.769-17.657L390.796,408.813z"/>
				
					<use xlink:href="#XMLID_586_"  style="overflow:visible;fill:none;stroke:#263238;stroke-linecap:round;stroke-linejoin:round;stroke-miterlimit:10;"/>
			</g>
			<path style="fill:none;stroke:#263238;stroke-linecap:round;stroke-linejoin:round;stroke-miterlimit:10;" d="M383.609,410.593
				c0,0-0.823,12.659-2.785,15.956c-1.962,3.297-3.859,5.011-3.859,5.011"/>
			<path style="fill:#92E3A9;stroke:#263238;stroke-linecap:round;stroke-linejoin:round;stroke-miterlimit:10;" d="M375.961,433.34
				c0,0-1.747,2.176-3.692,2.473c-1.945,0.297-12.188-0.297-12.188-0.297l4.177-3.611
				C364.259,431.905,372.796,430.472,375.961,433.34z"/>
			<path style="fill:none;stroke:#263238;stroke-linecap:round;stroke-linejoin:round;stroke-miterlimit:10;" d="M379.62,430.373
				c0,0-7.423-4.266-12.711-1.045"/>
			<path style="fill:none;stroke:#263238;stroke-linecap:round;stroke-linejoin:round;stroke-miterlimit:10;" d="M381.411,427.477
				c0,0-5.182-4.05-11.294-1.827"/>
			<path style="fill:none;stroke:#263238;stroke-linecap:round;stroke-linejoin:round;stroke-miterlimit:10;" d="M383.609,423.065
				c0,0-5.576-4.333-11.458-1.573"/>
			<path style="fill:none;stroke:#263238;stroke-linecap:round;stroke-linejoin:round;stroke-miterlimit:10;" d="M384.368,417.556
				c0,0-6.764-3.638-11.69-0.879"/>
			<path style="fill:#92E3A9;stroke:#263238;stroke-linecap:round;stroke-linejoin:round;stroke-miterlimit:10;" d="
				M393.368,440.857v2.571h-3.988c0,0-3.429-1.978-6.693,0c0,0-15.527,0-18.791,0c-3.264,0-5.736-1.286-5.736-1.286l0.396-1.286
				H393.368z"/>
			<path style="fill:#92E3A9;stroke:#263238;stroke-linecap:round;stroke-linejoin:round;stroke-miterlimit:10;" d="M388.38,408.023
				l-0.891,5.603c0,0-10.449-3.388-16.22-1.187v-6.896C371.269,405.543,382.018,401.761,388.38,408.023z"/>
		</g>
		<g>
			<defs>
				<path id="XMLID_592_" d="M399.68,268.23c0,0-22.21,4.35-43.99-2.71c-4.81-1.56-9.61-3.68-14.14-6.53c0,0,0.06-1.4,0.1-3.69
					c0.18-8.94,0.13-31.43-4.58-37.04c-2.96-3.51-5.35-25.21,0.44-36.18l17.71-14.24c24.52,4.79,29.7,11.28,33.75,25.28
					c0.75,2.56,1.45,5.37,2.23,8.47c0.85,3.38,1.65,7.51,2.41,12.05C397.29,236.02,399.68,268.23,399.68,268.23z"/>
			</defs>
			<use xlink:href="#XMLID_592_"  style="overflow:visible;fill:#999999;"/>
			<clipPath id="XMLID_00000175312659607624718300000009116040641733320124_">
				<use xlink:href="#XMLID_592_"  style="overflow:visible;"/>
			</clipPath>
			<path style="opacity:0.2;clip-path:url(#XMLID_00000175312659607624718300000009116040641733320124_);" d="M393.61,213.64
				l-10,44.67c0,0-14.45,4.04-27.92,7.21c-4.81-1.56-9.61-3.68-14.14-6.53c0,0,0.06-1.4,0.1-3.69c12.1-6.19,29.76-15.29,29.62-15.72
				c-0.23-0.67,0-24.01,0-24.01s15.95-3.71,17.7-22.45c0.75,2.56,1.45,5.37,2.23,8.47C392.05,204.97,392.85,209.1,393.61,213.64z"/>
			
				<use xlink:href="#XMLID_592_"  style="overflow:visible;fill:none;stroke:#263238;stroke-linecap:round;stroke-linejoin:round;stroke-miterlimit:10;"/>
		</g>
		<path style="fill:#FFFFFF;stroke:#263238;stroke-linecap:round;stroke-linejoin:round;stroke-miterlimit:10;" d="M356.011,149.201
			c0,0-7.819,11.202,2.581,19.935c0,0-12.623,14.168-16.774,12.215c-1.748-0.822,0-5.934,0-5.934l-7.317-13.534L356.011,149.201z"/>
		<g>
			<path style="fill:#FFFFFF;stroke:#263238;stroke-linecap:round;stroke-linejoin:round;stroke-miterlimit:10;" d="
				M353.446,154.949c2.448-10.672,1.271-26.563-13.676-25.145c-10.476,0.994-17.953,6.792-15.04,20.852
				c1.23,5.938,2.241,14.337,7.678,21.91c1.51,2.103,17.308-5.327,16.356-11.336"/>
			<path style="fill:none;stroke:#263238;stroke-linecap:round;stroke-linejoin:round;stroke-miterlimit:10;" d="M332.057,148.33
				c0,0,3.141-1.438,6.487,0.628"/>
			<path style="fill:none;stroke:#263238;stroke-linecap:round;stroke-linejoin:round;stroke-miterlimit:10;" d="M324.539,149.645
				c0,0,0.5-1.358,2.249-1.03"/>
			<path style="fill:#FFFFFF;stroke:#263238;stroke-linecap:round;stroke-linejoin:round;stroke-miterlimit:10;" d="
				M328.276,151.862c0,0-3.077,5.609-3.085,6.412c-0.009,0.804,3.789,1.064,3.789,1.064"/>
			<path style="fill:#263238;" d="M334.9,153.02c0.019,0.61-0.272,1.115-0.65,1.126c-0.378,0.012-0.7-0.473-0.719-1.084
				c-0.019-0.61,0.272-1.115,0.65-1.127C334.559,151.924,334.881,152.409,334.9,153.02z"/>
			<path style="fill:none;stroke:#263238;stroke-linecap:round;stroke-linejoin:round;stroke-miterlimit:10;" d="M330.545,163.421
				c0,0,5.916-1.11,6.963-3.189"/>
			<path style="fill:#263238;" d="M324.5,141.026l4.598-1.339c0,0,6.447-2.953,7.817-2.58c1.37,0.372,4.151,4.698,4.068,7.136
				c0,0,4.334,3.814,4.882,9.363l1.328-0.608c0,0-0.074-4.965,2.77-4.868c2.844,0.097,4.12,3.533,3.924,4.602
				c-0.195,1.069-3.293,5.508-3.293,5.508s7.114-1.059,7.345-14.962c0.231-13.904-15.049-16.304-22.48-15.701
				c-7.431,0.604-11.316,0.417-11.316,0.417l0.42,3.974l-3.037,0.791l2.268,2.769l-2.479,1.136L324.5,141.026z"/>
		</g>
		<path style="fill:none;stroke:#FFFFFF;stroke-linecap:round;stroke-linejoin:round;stroke-miterlimit:10;" d="M350.258,293.008
			c0,0,18.106,4.793,23.006,18.271"/>
		<path style="fill:none;stroke:#FFFFFF;stroke-linecap:round;stroke-linejoin:round;stroke-miterlimit:10;" d="M358.555,300.254
			c0,0-9.789,16.29-24.76,24.749"/>
		<path style="fill:none;stroke:#FFFFFF;stroke-linecap:round;stroke-linejoin:round;stroke-miterlimit:10;" d="M344.802,391.858
			c0,0,5.557-1.247,7.073-3.407"/>
		<path style="fill:none;stroke:#FFFFFF;stroke-linecap:round;stroke-linejoin:round;stroke-miterlimit:10;" d="M375.763,393.933
			c0,0,5.439-2.823,10.854,0"/>
		<path style="fill:none;stroke:#FFFFFF;stroke-linecap:round;stroke-linejoin:round;stroke-miterlimit:10;" d="M393.368,318.091
			c0,0-9.127,23.647-13.747,25.839"/>
		<path style="fill:none;stroke:#FFFFFF;stroke-linecap:round;stroke-linejoin:round;stroke-miterlimit:10;" d="M353.391,281.049
			c0.246,2.567,11.018,14.481,19.874,19.205"/>
		<path style="fill:none;stroke:#FFFFFF;stroke-linecap:round;stroke-linejoin:round;stroke-miterlimit:10;" d="M362.564,271.003
			c0,0,2.146,4.71,0.763,10.046c-1.383,5.336,0,8.862,0,8.862"/>
		<path style="fill:none;stroke:#263238;stroke-linecap:round;stroke-linejoin:round;stroke-miterlimit:10;" d="M342.96,221.816
			c0,0,16.834,21.786,34.92,28.936"/>
		<path style="fill:none;stroke:#263238;stroke-linecap:round;stroke-linejoin:round;stroke-miterlimit:10;" d="M360.42,186.611
			c0,0-0.058,14.811,10.624,21.49"/>
		<g>
			<path style="fill:#FFFFFF;stroke:#263238;stroke-linecap:round;stroke-linejoin:round;stroke-miterlimit:10;" d="
				M366.426,208.217c-2.257,2.228,0.208,30.08,0.208,30.08s-13.137,5.145-17.242,8.457s-23.586,10.908-23.586,10.908
				s-2.996,10.223,0.748,10.572c3.744,0.349,42.471-12.851,51.327-17.482c0,0,5.767-34.034,5.729-42.651"/>
			<path style="fill:#FFFFFF;stroke:#263238;stroke-linecap:round;stroke-linejoin:round;stroke-miterlimit:10;" d="
				M327.346,257.052c-1.797-0.338-4.961-1.525-6.676-1.129s-4.747,2.242-7.912,3.033c-3.165,0.791-1.846,1.978,0,2.374
				c1.846,0.396,4.088,0,4.088,0l-2.564,2.505c0,0-4.059,2.11-4.557,2.11c-0.923,0-4.22,0.898-3.956,2.295
				c0.264,1.397,2.11,1.237,4.22,1.317c0,0-3.363,0.673-3.033,2.586c0.225,1.306,3.956,0.132,5.934,0.132
				c0,0-1.582,1.714-0.396,2.242c1.187,0.527,3.793-0.791,3.793-0.791s-0.101,1.423,1.086,1.569s4.148-1.041,6.162-2.228
				s3.807-2.728,5.706-4.22c1.899-1.492,2.587-1.675,2.587-1.675"/>
			<path style="fill:none;stroke:#263238;stroke-linecap:round;stroke-linejoin:round;stroke-miterlimit:10;" d="M309.989,269.557
				c0,0,1.978-0.118,2.769-0.316c0.791-0.198,1.583-0.462,1.583-0.462"/>
			<path style="fill:none;stroke:#263238;stroke-linecap:round;stroke-linejoin:round;stroke-miterlimit:10;" d="M312.89,272.275
				c0,0,2.242-0.33,3.429-1.187"/>
			<path style="fill:none;stroke:#263238;stroke-linecap:round;stroke-linejoin:round;stroke-miterlimit:10;" d="M316.287,273.725
				c0,0,1.614-0.198,2.504-0.923"/>
			<path style="fill:none;stroke:#263238;stroke-linecap:round;stroke-linejoin:round;stroke-miterlimit:10;" d="M314.604,264.56
				c0,0-0.725,1.648,0,2.572c0.725,0.923,1.582,0.975,1.714,2.037c0.132,1.062,1.846,0.996,2.473,1.655
				c0.626,0.659,1.092,1.894,3.066,1.978"/>
		</g>
		<path style="fill:#999999;stroke:#263238;stroke-linecap:round;stroke-linejoin:round;stroke-miterlimit:10;" d="M365.592,179.329
			c-6.812,15.407,0,36.791,0,36.791s16.473,5.604,18.018,3.187c1.544-2.417,4.304-14.225,4.77-19.687"/>
		<path style="fill:none;stroke:#263238;stroke-linecap:round;stroke-linejoin:round;stroke-miterlimit:10;" d="M383.61,201.33
			c0,0-7.027,9.626-12.566,9.758"/>
	</g>
</g>
<g id="Character_1">
	<g>
		<path style="fill:#263238;" d="M138.023,330.511c0,0,5.33-3.428,12.646-1.582c7.316,1.846,26.305,29.011,28.942,31.648
			c2.637,2.637,7.582,4.045,12.132,8.793c7.2,7.513,17.67,14.152,18.725,14.152c1.055,0,1.912-0.659,3.231-0.923
			c1.319-0.264,11.539-1.187,11.539-1.187s3.429,0.762,0,2.227c-3.429,1.465-3.165,2.784-3.165,2.784s-0.689,1.11,0.689,2.165
			c1.377,1.055,2.191,0.482,4.158,3.274c1.967,2.792-2.78,1.209-2.78,1.209s1.055,3.017-1.055,2.695
			c-2.11-0.322-0.264,2.932-3.692,2.492c-3.428-0.44-10.769-5.067-12.615-9.924c0,0-29.934-14.308-34.417-18
			c-4.484-3.692-23.318-23.473-24.648-23.736"/>
		<g>
			<g>
				<defs>
					<path id="XMLID_581_" d="M240.165,374.895h-25.714v-15.701c0-1.039,0.842-1.882,1.882-1.882h21.951
						c1.039,0,1.882,0.842,1.882,1.882V374.895z"/>
				</defs>
				<use xlink:href="#XMLID_581_"  style="overflow:visible;fill:#92E3A9;"/>
				<clipPath id="XMLID_00000002372479701054914320000012574987387422371714_">
					<use xlink:href="#XMLID_581_"  style="overflow:visible;"/>
				</clipPath>
				<path style="opacity:0.3;clip-path:url(#XMLID_00000002372479701054914320000012574987387422371714_);fill-opacity:0.7;" d="
					M240.165,374.895h-25.714v-15.701c0-1.039,0.842-1.882,1.882-1.882h21.951c1.039,0,1.882,0.842,1.882,1.882V374.895z"/>
				
					<rect x="232.451" y="358.966" style="opacity:0.3;clip-path:url(#XMLID_00000002372479701054914320000012574987387422371714_);fill:#FFFFFF;fill-opacity:0.7;" width="6.33" height="12.659"/>
				
					<use xlink:href="#XMLID_581_"  style="overflow:visible;fill:none;stroke:#263238;stroke-linecap:round;stroke-linejoin:round;stroke-miterlimit:10;"/>
			</g>
			<g>
				<defs>
					<path id="XMLID_582_" d="M278.165,374.895h-25.714v-15.701c0-1.039,0.842-1.882,1.882-1.882h21.951
						c1.039,0,1.882,0.842,1.882,1.882V374.895z"/>
				</defs>
				<use xlink:href="#XMLID_582_"  style="overflow:visible;fill:#92E3A9;"/>
				<clipPath id="XMLID_00000115482160433745915600000010348951193758868889_">
					<use xlink:href="#XMLID_582_"  style="overflow:visible;"/>
				</clipPath>
				<path style="opacity:0.3;clip-path:url(#XMLID_00000115482160433745915600000010348951193758868889_);fill-opacity:0.7;" d="
					M278.165,374.895h-25.714v-15.701c0-1.039,0.842-1.882,1.882-1.882h21.951c1.039,0,1.882,0.842,1.882,1.882V374.895z"/>
				
					<rect x="272.538" y="358.966" style="opacity:0.3;clip-path:url(#XMLID_00000115482160433745915600000010348951193758868889_);fill:#FFFFFF;fill-opacity:0.7;" width="3.824" height="12.659"/>
				
					<use xlink:href="#XMLID_582_"  style="overflow:visible;fill:none;stroke:#263238;stroke-linecap:round;stroke-linejoin:round;stroke-miterlimit:10;"/>
			</g>
			<path style="fill:#92E3A9;stroke:#263238;stroke-linecap:round;stroke-linejoin:round;stroke-miterlimit:10;" d="
				M270.165,374.895h-25.714v-15.701c0-1.039,0.842-1.882,1.882-1.882h21.951c1.039,0,1.882,0.842,1.882,1.882V374.895z"/>
			<path style="fill:#92E3A9;stroke:#263238;stroke-linecap:round;stroke-linejoin:round;stroke-miterlimit:10;" d="
				M308.165,374.895h-25.714v-15.701c0-1.039,0.842-1.882,1.882-1.882h21.951c1.039,0,1.882,0.842,1.882,1.882V374.895z"/>
			<rect x="262.451" y="358.966" style="opacity:0.3;fill:#FFFFFF;fill-opacity:0.7;" width="6.33" height="12.659"/>
			<rect x="300.033" y="358.966" style="opacity:0.3;fill:#FFFFFF;fill-opacity:0.7;" width="6.33" height="12.659"/>
			<g>
				<defs>
					<path id="XMLID_580_" d="M319.42,371.233v72.19H203.11v-72.19c0-2.52,2.04-4.55,4.55-4.55h107.21
						C317.38,366.683,319.42,368.713,319.42,371.233z"/>
				</defs>
				<use xlink:href="#XMLID_580_"  style="overflow:visible;fill:#92E3A9;"/>
				<clipPath id="XMLID_00000119083814803795352790000000057264885336720061_">
					<use xlink:href="#XMLID_580_"  style="overflow:visible;"/>
				</clipPath>
				<path style="opacity:0.3;clip-path:url(#XMLID_00000119083814803795352790000000057264885336720061_);fill-opacity:0.7;" d="
					M319.42,371.233v72.19H203.11v-72.19c0-2.52,2.04-4.55,4.55-4.55h107.21C317.38,366.683,319.42,368.713,319.42,371.233z"/>
				
					<use xlink:href="#XMLID_580_"  style="overflow:visible;fill:none;stroke:#263238;stroke-linecap:round;stroke-linejoin:round;stroke-miterlimit:10;"/>
			</g>
			<path style="fill:#92E3A9;stroke:#263238;stroke-linecap:round;stroke-linejoin:round;stroke-miterlimit:10;" d="M319.42,371.233
				v72.19h-86.31v-72.19c0-2.52,2.04-4.55,4.55-4.55h77.21C317.38,366.683,319.42,368.713,319.42,371.233z"/>
			<path style="opacity:0.3;fill:#FFFFFF;fill-opacity:0.7;" d="M313.582,373.802h-73.78c-1.038,0-1.879-0.841-1.879-1.879l0,0
				c0-1.038,0.841-1.879,1.879-1.879h73.78c1.038,0,1.879,0.841,1.879,1.879l0,0C315.461,372.96,314.62,373.802,313.582,373.802z"/>
		</g>
		<g>
			<path style="fill:#757575;stroke:#263238;stroke-linecap:round;stroke-linejoin:round;stroke-miterlimit:10;" d="M176.98,443.423
				c-6.01,0-14.43-3.86-24.14-7.94c-10.07-4.24-21.54-8.72-33.18-9.39c-4.34-0.25-1.71,17.33-1.71,17.33h-9.5
				c0,0-9.36-12.52-10.42-23.73c0,0,7.66-4.73,9.5-5.01c0.38-0.06,1.09-0.08,1.91-0.09c2.06-0.02,4.81,0.09,4.81,0.09
				s-0.01,0-0.02-0.01c-0.44-0.26-7.45-4.48-11.32-8.77c-3.19-3.54-4.655-9.135-4.76-12.47c-0.052-1.659,0.734-6.599,0.734-6.599
				l49.916,0.829c0,0,0.54,0.38,1.5,1.09c5.79,4.22,26.95,19.94,37.53,31.79c3.42,3.83,5.73,7.25,6.07,9.75
				C195.48,441.843,186.05,443.423,176.98,443.423z"/>
			<path style="fill:#263238;" d="M187.83,420.543l-24.28,5.55c0,0-6.33,3.38-10.71,9.39c-10.07-4.24-21.54-8.72-33.18-9.39
				c-4.34-0.25-1.71,17.33-1.71,17.33h-9.5c0,0-9.36-12.52-10.42-23.73c0,0,8.84,12.6,10.95,18.96c0,0,3.43-11.84,8.97-16.59
				c0,0-3.73-4.35-8.51-7.47c2.06-0.02,4.81,0.09,4.81,0.09s-0.01,0-0.02-0.01c-0.44-0.26-7.45-4.48-11.32-8.77
				c-3.19-3.54-4.484-9.145-4.76-12.47c-0.136-1.644,0.057-6.599,0.057-6.599s37.233,5.309,52.093,1.919
				C156.09,392.973,177.25,408.693,187.83,420.543z"/>
			<path style="fill:none;stroke:#263238;stroke-linecap:round;stroke-linejoin:round;stroke-miterlimit:10;" d="M148.802,419.692
				c0,0,19.78,9.911,25.055,13.791c5.275,3.88,6.851,2.825,6.851,2.825"/>
			<path style="fill:none;stroke:#263238;stroke-linecap:round;stroke-linejoin:round;stroke-miterlimit:10;" d="M102.912,418.637
				c0,0,4.747,7.252,5.011,9.428"/>
		</g>
		<path style="fill:#263238;" d="M182.466,279.481c0,0,10.556-4.586,9.567,14.901c-0.989,19.486,2.571,20.475,2.571,20.475
			s-26.506,10.879-33.231,1.582C154.648,307.142,161.031,281.688,182.466,279.481z"/>
		<path style="fill:#FFFFFF;stroke:#263238;stroke-linecap:round;stroke-linejoin:round;stroke-miterlimit:10;" d="M180.977,314.857
			c0,0-10.9,5.143-11.889,9.89c-0.989,4.747-14.637-2.392-14.637-2.392l9.89-14.225L180.977,314.857z"/>
		<path style="fill:#757575;stroke:#263238;stroke-linecap:round;stroke-linejoin:round;stroke-miterlimit:10;" d="M109.531,367.022
			c-25.037,31.834-4.71,47.199,23.632,44.66l-5.68,8.966l14.252,2.473c0,0,10.938-7.138,25.835-14.769
			c25.362-12.992,35.604-12.221,32.967-25.231c-2.637-13.01-33.691-21.45-64.845-7.736
			C135.693,375.384,118.765,355.281,109.531,367.022z"/>
		<g>
			<path style="fill:#FFFFFF;stroke:#263238;stroke-linecap:round;stroke-linejoin:round;stroke-miterlimit:10;" d="
				M118.253,436.307c0,0,6.505-18.016,9.231-18.989c2.726-0.973,12.945,2.901,14.252,5.802c0,0,3.474-5.324,4.897-3.057
				c1.422,2.266-0.631,5.959,0,8.86c0.631,2.901,7.654,6.857,10.472,7.385c2.818,0.527,4.401,2.11,4.401,3.692s0,3.429,0,3.429
				h-43.253C118.253,443.428,116.67,440.491,118.253,436.307z"/>
			<path style="fill:none;stroke:#263238;stroke-linecap:round;stroke-linejoin:round;stroke-miterlimit:10;" d="M146.633,426.094
				c0,0-5.733,2.828-7.826,2.037c-2.093-0.791,1.072,4.747,1.863,5.275c0.791,0.527,5.962-1.846,5.962-1.846"/>
			<path style="fill:none;stroke:#263238;stroke-linecap:round;stroke-linejoin:round;stroke-miterlimit:10;" d="M123.665,423.12
				c0,0,7.775,0.146,10.148,2.974"/>
			<path style="fill:none;stroke:#263238;stroke-linecap:round;stroke-linejoin:round;stroke-miterlimit:10;" d="M118.253,436.307
				c0,0,12.396,2.901,13.451,2.901s5.011-1.451,5.011-1.451s3.395,1.714,5.654,2.769c2.259,1.055,17.028,0,17.028,0"/>
		</g>
		<path style="fill:none;stroke:#263238;stroke-linecap:round;stroke-linejoin:round;stroke-miterlimit:10;" d="M133.164,411.682
			c11.848-1.287,34.832-15.875,42.796-20.943c7.964-5.069,10.074-3.75,10.074-3.75"/>
		<path style="fill:#92E3A9;stroke:#263238;stroke-linecap:round;stroke-linejoin:round;stroke-miterlimit:10;" d="M98.207,386.834
			l1.893-14.351l4.562-3.443c7.385-17.934,40.866-51.417,49.986-51.311c13.714,0.16,16.133,14.547,17.825,30.299
			c1.692,15.751-19.671,13.378-19.671,13.378v3.956l-12.148,6.29l7.357-0.232C148.011,371.42,126.846,391.99,98.207,386.834z"/>
		<g>
			<path style="fill:#FFFFFF;stroke:#263238;stroke-linecap:round;stroke-linejoin:round;stroke-miterlimit:10;" d="M157.55,289.946
				c2.866-8.991,16.012-11.399,20.716-9.922c2.958,0.929,7.076,4.188,8.911,8.13c1.202,2.582-1.308,7.165,0.48,9.837
				c2.561,3.828,2.344,11.906,1.42,16.958c-0.495,2.704-11.727,4.306-20.91-1.981C158.308,306.216,154.771,298.664,157.55,289.946z"
				/>
			<path style="fill:#263238;" d="M170.815,277.385c0,0,11.564-1.887,11.641,1.087c0.515,19.727-11.313,23.869-11.313,23.869
				s-4.83-3.845-5.916-1.207c-1.086,2.639,1.707,9.934,5.122,10.089c0,0-2.636,3.436-0.141,8.241c0,0-19.576,3.266-21.198-5.805
				c0,0,1.094-4.301,1.621-9.576C151.904,291.373,148.929,282.818,170.815,277.385z"/>
			<path style="fill:#FFFFFF;stroke:#263238;stroke-linecap:round;stroke-linejoin:round;stroke-miterlimit:10;" d="M186.26,297.486
				c2.411,2.178,4.142,2.178,4.113,2.949c-0.09,2.435-3.027,3.648-3.027,3.648"/>
			<path style="fill:none;stroke:#263238;stroke-linecap:round;stroke-linejoin:round;stroke-miterlimit:10;" d="M187.309,308.13
				c0,0-2.432,0.959-5.267,0.132"/>
			<path style="fill:#263238;" d="M180.905,285.379c0,0,7.683-2.231,6.272,10.25c0,0,3.208-4.344,3.197-9.241
				c-0.02-8.463-11.331-6.768-11.331-6.768l1.475,5.992"/>
			<path style="fill:none;stroke:#263238;stroke-linecap:round;stroke-linejoin:round;stroke-miterlimit:10;" d="M187.89,291.491
				c0,0-0.639-0.573-2.037-0.369"/>
			<path style="fill:none;stroke:#263238;stroke-linecap:round;stroke-linejoin:round;stroke-miterlimit:10;" d="M182.709,291.355
				c0,0-4.133,0.233-5.918,3.027"/>
			<path style="fill:#263238;" d="M181.719,297.92c0.063,0.661-0.219,1.229-0.629,1.268c-0.41,0.039-0.793-0.466-0.855-1.128
				c-0.063-0.661,0.219-1.229,0.629-1.268C181.274,296.754,181.656,297.259,181.719,297.92z"/>
		</g>
		<path style="fill:none;stroke:#263238;stroke-linecap:round;stroke-linejoin:round;stroke-miterlimit:10;" d="M133.813,414.681
			c0,0,9.199,0.972,11.198,5.011"/>
		<path style="fill:#FFFFFF;stroke:#263238;stroke-linecap:round;stroke-linejoin:round;stroke-miterlimit:10;" d="M157.105,324.483
			c0,0,5.33-3.428,12.646-1.582c7.316,1.846,26.305,29.011,28.942,31.648c2.637,2.637,7.582,4.045,12.132,8.793
			c7.2,7.513,17.67,14.152,18.725,14.152c1.055,0,1.912-0.659,3.231-0.923c1.319-0.264,11.538-1.187,11.538-1.187
			s3.429,0.762,0,2.227c-3.429,1.465-3.165,2.784-3.165,2.784s-0.689,1.11,0.689,2.165c1.377,1.055,2.191,0.482,4.158,3.274
			c1.967,2.792-2.78,1.209-2.78,1.209s1.055,3.017-1.055,2.695c-2.11-0.322-0.264,2.932-3.692,2.492
			c-3.428-0.44-10.769-5.067-12.615-9.924c0,0-29.934-14.308-34.418-18c-4.484-3.692-23.318-23.473-24.648-23.736"/>
		<path style="fill:#92E3A9;stroke:#263238;stroke-linecap:round;stroke-linejoin:round;stroke-miterlimit:10;" d="M152.802,321.582
			c0,0,14.759-3.956,19.907-1.055c5.148,2.901,14.906,16.352,14.906,16.352s-11.894,10.653-15.574,9.678
			c-3.679-0.975-14.937-2.557-14.937-2.557"/>
		<path style="fill:none;stroke:#263238;stroke-linecap:round;stroke-linejoin:round;stroke-miterlimit:10;" d="M165.597,345.302
			c0,0-5.348,2.942-7.321,2.942"/>
		<path style="fill:none;stroke:#263238;stroke-linecap:round;stroke-linejoin:round;stroke-miterlimit:10;" d="M157.105,330.549
			c0.445,0.791,0.294,9.443,9.687,12.132"/>
		<path style="fill:none;stroke:#263238;stroke-linecap:round;stroke-linejoin:round;stroke-miterlimit:10;" d="M106.912,369.318
			c0,0,20.044,3.429,26.901-2.637"/>
		<path style="fill:none;stroke:#263238;stroke-linecap:round;stroke-linejoin:round;stroke-miterlimit:10;" d="M140.655,371.652
			c0,0-4.995-0.882-6.841,1.689c-1.846,2.571-11.868,4.945-11.868,4.945"/>
		<path style="fill:none;stroke:#263238;stroke-linecap:round;stroke-linejoin:round;stroke-miterlimit:10;" d="M100.451,390.739
			c0,0-2.886,12.457,9.436,18.035"/>
		<path style="fill:none;stroke:#263238;stroke-linecap:round;stroke-linejoin:round;stroke-miterlimit:10;" d="M106.912,391.604
			c0,0,0.066,6.132,2.044,9.495l6.132,1.978l6.857-3.818c0,0-1.451-7.852-1.583-9.434"/>
	</g>
</g>
</svg>
