<?xml version="1.0" encoding="utf-8"?>
<!-- Generator: Adobe Illustrator 27.5.0, SVG Export Plug-In . SVG Version: 6.00 Build 0)  -->
<svg version="1.1" xmlns="http://www.w3.org/2000/svg" xmlns:xlink="http://www.w3.org/1999/xlink" x="0px" y="0px"
	 viewBox="0 0 500 500" style="enable-background:new 0 0 500 500;" xml:space="preserve">
<g id="Background_Simple">
	<g>
		<path style="fill:#92E3A9;" d="M488.615,301.278c5.991-99.538-39.426-194.829-118.145-243.387
			c-13.959-8.611-29.408-16.053-46.47-21.75C198-5.926,151,29.499,118,73.779c-33,44.281-2,119.557-40,150.554
			C40,255.329-6,299.61,13,364.924s66,108.487,110,104.059c44-4.428,90-61.993,121-24.354c31,37.638,130,74.17,195,11.07
			C473.737,421.977,485.34,355.691,488.615,301.278z"/>
		<path style="opacity:0.7;fill:#FFFFFF;" d="M488.615,301.278c5.991-99.538-39.426-194.829-118.145-243.387
			c-13.959-8.611-29.408-16.053-46.47-21.75C198-5.926,151,29.499,118,73.779c-33,44.281-2,119.557-40,150.554
			C40,255.329-6,299.61,13,364.924s66,108.487,110,104.059c44-4.428,90-61.993,121-24.354c31,37.638,130,74.17,195,11.07
			C473.737,421.977,485.34,355.691,488.615,301.278z"/>
	</g>
</g>
<g id="Pole">
	<g>
		
			<circle style="fill:#878787;stroke:#263238;stroke-linecap:round;stroke-linejoin:round;stroke-miterlimit:10;" cx="245.885" cy="17.333" r="7.18"/>
		
			<rect x="240.732" y="29.892" style="fill:#878787;stroke:#263238;stroke-linecap:round;stroke-linejoin:round;stroke-miterlimit:10;" width="10.305" height="415.203"/>
		
			<rect x="237.786" y="24.355" style="fill:#878787;stroke:#263238;stroke-linecap:round;stroke-linejoin:round;stroke-miterlimit:10;" width="16.198" height="5.514"/>
	</g>
</g>
<g id="Arrows">
	<g>
		<polygon style="fill:#92E3A9;stroke:#263238;stroke-linecap:round;stroke-linejoin:round;stroke-miterlimit:10;" points="
			330.907,53.28 298.891,34.796 298.891,40.583 229.649,40.583 229.649,65.978 298.891,65.978 298.891,71.765 		"/>
		<polygon style="fill:#263238;stroke:#263238;stroke-linecap:round;stroke-linejoin:round;stroke-miterlimit:10;" points="
			296.286,160.181 280.656,146.318 280.656,150.658 232.977,146.975 232.977,173.386 280.656,169.704 280.656,174.044 		"/>
		<polygon style="fill:#FFFFFF;stroke:#263238;stroke-linecap:round;stroke-linejoin:round;stroke-miterlimit:10;" points="
			191.797,87.389 212.638,68.904 212.638,74.691 257.712,77.231 257.712,97.547 212.638,100.086 212.638,105.873 		"/>
		<polygon style="fill:#92E3A9;stroke:#263238;stroke-linecap:round;stroke-linejoin:round;stroke-miterlimit:10;" points="
			158.52,126.905 190.536,108.42 190.536,114.207 259.779,114.207 259.779,139.602 190.536,139.602 190.536,145.389 		"/>
	</g>
</g>
<g id="Plants">
	<g>
		<path style="fill:#263238;" d="M337.194,382.21c-1.37-0.731-3.147-0.5-4.87,0.631c-2.937,1.805-6.812,6.827-7.738,8.502
			c-1.221,1.013-2.394,2.075-3.514,3.184c0.982-1.986,3.614-7.4,1.398-10.733c-3.09-4.212-6.979,1.853-5.265,5.681
			c1.289,3.197,1.911,5.746,1.858,7.156c-1.439,1.585-2.783,3.247-4.023,4.98c0.612-2.06,2.325-7.888-0.458-10.822
			c-3.753-3.631-6.52,2.954-4.188,6.434c1.823,2.946,2.869,5.36,3.045,6.752c-1.154,1.803-2.199,3.671-3.137,5.592
			c0.253-2.088,0.999-8.181-2.266-10.621c-4.306-2.953-5.922,3.983-3.044,7.027c2.296,2.606,3.732,4.817,4.132,6.16
			c-0.838,1.965-1.562,3.98-2.17,6.031c-0.098-2.132-0.384-8.25-4-10.098c-4.738-2.194-5.18,4.931-1.835,7.462
			c2.692,2.185,4.474,4.13,5.097,5.396c-0.5,2.078-0.885,4.188-1.141,6.322c-0.468-2.171-1.787-8.098-5.618-9.294
			c-5.041-1.371-4.289,5.79-0.564,7.743c2.994,1.7,5.069,3.322,5.913,4.479c-0.164,2.503-0.161,5.027,0.027,7.559
			c0.017,0.229,0.208,0.403,0.433,0.403c0.011,0,0.022-0.001,0.033-0.001c0.24-0.018,0.419-0.227,0.402-0.466
			c-0.186-2.496-0.188-4.985-0.026-7.452c0.989-1.021,3.318-2.201,6.609-2.766c3.894-0.815,6.943-4.29,2.045-5.616
			c-3.994-1.242-7.237,3.227-8.362,5.271c0.254-2.04,0.628-4.058,1.11-6.046c1.158-0.812,3.636-1.546,6.942-1.534
			c3.971-0.124,7.549-3.001,2.943-5.134c-3.694-1.869-7.589,1.852-9.068,3.669c0.584-1.925,1.269-3.817,2.06-5.663
			c1.277-0.595,3.836-0.891,7.084-0.321c3.932,0.553,7.933-1.677,3.75-4.551c-3.328-2.453-7.776,0.541-9.537,2.075
			c0.888-1.789,1.874-3.529,2.954-5.212c1.355-0.375,3.93-0.239,7.043,0.868c3.782,1.203,8.107-0.335,4.467-3.872
			c-2.893-2.994-7.831-0.727-9.798,0.487c1.176-1.626,2.45-3.185,3.805-4.676c1.396-0.155,3.929,0.401,6.836,2.02
			c3.529,1.816,8.083,1.004,5.096-3.098c-2.365-3.46-7.695-1.991-9.824-1.116c1.13-1.11,2.309-2.175,3.541-3.186
			c1.634-0.603,6.51-2.2,8.495-2.709c1.182-0.406,5.033-1.923,4.969-4.408C338.824,383.715,338.181,382.737,337.194,382.21z"/>
		<path style="fill:#263238;" d="M350.101,415.115c-0.626-0.871-1.798-1.27-3.211-1.095c-2.371,0.222-6.305,2.151-7.39,2.907
			c-1.066,0.255-2.117,0.555-3.149,0.901c1.214-0.931,4.498-3.482,4.141-6.224c-0.629-3.553-4.89-0.981-4.996,1.913
			c-0.177,2.374-0.569,4.143-1.033,5.001c-1.375,0.543-2.715,1.163-4.013,1.858c1.008-1.09,3.848-4.178,3.018-6.846
			c-1.218-3.395-4.941-0.159-4.559,2.709c0.231,2.382,0.142,4.197-0.173,5.113c-1.265,0.765-2.483,1.604-3.65,2.508
			c0.794-1.217,3.115-4.764,1.837-7.273c-1.767-3.144-4.885,0.661-4.031,3.425c0.628,2.315,0.842,4.123,0.681,5.078
			c-1.119,0.962-2.182,1.989-3.185,3.075c0.59-1.35,2.279-5.229,0.603-7.478c-2.267-2.806-4.715,1.475-3.414,4.064
			c1.001,2.176,1.512,3.924,1.512,4.899c-0.944,1.135-1.827,2.325-2.636,3.569c0.372-1.488,1.364-5.563-0.645-7.473
			c-2.705-2.388-4.424,2.279-2.712,4.626c1.337,1.967,2.128,3.605,2.297,4.58c-0.865,1.501-1.634,3.066-2.29,4.692
			c-0.059,0.147,0.006,0.313,0.146,0.382c0.007,0.003,0.014,0.006,0.021,0.009c0.154,0.062,0.329-0.012,0.391-0.166
			c0.646-1.603,1.405-3.146,2.258-4.625c0.924-0.331,2.728-0.351,4.939,0.303c2.661,0.683,5.611-0.539,2.981-2.856
			c-2.096-1.988-5.469-0.208-6.79,0.714c0.78-1.186,1.628-2.322,2.533-3.408c0.965-0.15,2.725,0.152,4.77,1.168
			c2.499,1.135,5.593,0.444,3.39-2.283c-1.718-2.285-5.267-1.168-6.739-0.494c0.949-1.015,1.951-1.978,3.005-2.881
			c0.973,0.021,2.649,0.618,4.487,1.963c2.268,1.542,5.427,1.382,3.712-1.676c-1.314-2.536-4.984-2.038-6.543-1.624
			c1.097-0.837,2.238-1.615,3.421-2.328c0.954,0.181,2.508,1.051,4.099,2.687c1.976,1.9,5.126,2.266,3.949-1.036
			c-0.879-2.738-4.631-2.84-6.22-2.688c1.225-0.648,2.49-1.226,3.785-1.736c0.913,0.33,2.312,1.447,3.619,3.338
			c1.633,2.202,4.703,3.089,4.103-0.364c-0.409-2.865-4.161-3.582-5.747-3.689c1.039-0.343,2.094-0.643,3.166-0.893
			c1.197,0.125,4.705,0.623,6.091,0.914c0.856,0.109,3.705,0.344,4.424-1.215C350.652,416.545,350.552,415.743,350.101,415.115z"/>
	</g>
	<g>
		<path style="fill:#263238;" d="M459.184,409.623c-0.721-0.385-1.656-0.263-2.562,0.332c-1.545,0.95-3.584,3.592-4.071,4.473
			c-0.642,0.533-1.259,1.092-1.849,1.675c0.517-1.045,1.901-3.893,0.735-5.647c-1.626-2.216-3.672,0.975-2.77,2.989
			c0.678,1.682,1.006,3.023,0.978,3.765c-0.757,0.834-1.464,1.708-2.116,2.62c0.322-1.084,1.223-4.15-0.241-5.694
			c-1.975-1.91-3.43,1.554-2.203,3.385c0.959,1.55,1.51,2.82,1.602,3.552c-0.607,0.948-1.157,1.931-1.65,2.942
			c0.133-1.099,0.525-4.304-1.192-5.588c-2.266-1.553-3.116,2.096-1.602,3.697c1.208,1.371,1.963,2.534,2.174,3.241
			c-0.441,1.034-0.822,2.094-1.141,3.173c-0.051-1.121-0.202-4.34-2.104-5.313c-2.493-1.154-2.725,2.594-0.966,3.926
			c1.416,1.15,2.354,2.173,2.682,2.839c-0.263,1.093-0.466,2.204-0.6,3.326c-0.246-1.142-0.94-4.26-2.955-4.89
			c-2.652-0.721-2.257,3.046-0.297,4.074c1.575,0.894,2.667,1.747,3.111,2.357c-0.086,1.317-0.085,2.645,0.014,3.977
			c0.009,0.12,0.109,0.212,0.228,0.212c0.006,0,0.011,0,0.017-0.001c0.126-0.01,0.221-0.119,0.211-0.245
			c-0.098-1.313-0.099-2.622-0.014-3.921c0.52-0.537,1.746-1.158,3.477-1.455c2.048-0.429,3.653-2.257,1.076-2.955
			c-2.101-0.653-3.807,1.698-4.399,2.773c0.134-1.073,0.331-2.135,0.584-3.181c0.609-0.427,1.913-0.813,3.652-0.807
			c2.089-0.065,3.971-1.579,1.549-2.701c-1.943-0.983-3.993,0.974-4.771,1.931c0.307-1.013,0.668-2.008,1.084-2.98
			c0.672-0.313,2.018-0.469,3.727-0.169c2.069,0.291,4.174-0.882,1.973-2.394c-1.751-1.291-4.091,0.284-5.017,1.092
			c0.467-0.941,0.986-1.857,1.554-2.742c0.713-0.197,2.068-0.126,3.705,0.457c1.99,0.633,4.265-0.176,2.35-2.037
			c-1.522-1.575-4.12-0.383-5.155,0.256c0.619-0.855,1.289-1.676,2.002-2.46c0.734-0.082,2.067,0.211,3.596,1.063
			c1.857,0.956,4.253,0.528,2.681-1.63c-1.244-1.82-4.049-1.048-5.169-0.587c0.594-0.584,1.215-1.144,1.863-1.676
			c0.86-0.317,3.425-1.158,4.469-1.425c0.622-0.214,2.648-1.012,2.614-2.319C460.042,410.415,459.703,409.901,459.184,409.623z"/>
		<path style="fill:#263238;" d="M465.974,426.936c-0.329-0.458-0.946-0.668-1.689-0.576c-1.247,0.117-3.317,1.132-3.888,1.529
			c-0.561,0.134-1.113,0.292-1.657,0.474c0.639-0.49,2.366-1.832,2.179-3.274c-0.331-1.869-2.573-0.516-2.629,1.007
			c-0.093,1.249-0.299,2.18-0.543,2.631c-0.724,0.286-1.429,0.612-2.111,0.978c0.53-0.573,2.024-2.198,1.588-3.602
			c-0.641-1.786-2.6-0.084-2.398,1.425c0.121,1.253,0.075,2.208-0.091,2.69c-0.666,0.402-1.306,0.844-1.92,1.32
			c0.418-0.64,1.639-2.507,0.967-3.826c-0.93-1.654-2.57,0.348-2.121,1.802c0.33,1.218,0.443,2.169,0.358,2.672
			c-0.589,0.506-1.148,1.046-1.676,1.618c0.31-0.711,1.199-2.751,0.317-3.934c-1.193-1.476-2.48,0.776-1.796,2.138
			c0.527,1.145,0.795,2.065,0.795,2.578c-0.497,0.597-0.961,1.223-1.387,1.878c0.196-0.783,0.717-2.927-0.339-3.932
			c-1.423-1.256-2.328,1.199-1.427,2.434c0.703,1.035,1.119,1.897,1.209,2.41c-0.455,0.79-0.86,1.613-1.205,2.469
			c-0.031,0.077,0.003,0.165,0.077,0.201c0.004,0.002,0.007,0.003,0.011,0.005c0.081,0.033,0.173-0.007,0.206-0.088
			c0.34-0.843,0.739-1.655,1.188-2.433c0.486-0.174,1.435-0.185,2.598,0.159c1.4,0.359,2.952-0.284,1.569-1.503
			c-1.103-1.046-2.877-0.11-3.572,0.376c0.41-0.624,0.856-1.222,1.332-1.793c0.508-0.079,1.434,0.08,2.509,0.615
			c1.315,0.597,2.943,0.234,1.784-1.201c-0.904-1.202-2.771-0.615-3.545-0.26c0.499-0.534,1.026-1.041,1.581-1.516
			c0.512,0.011,1.393,0.325,2.361,1.033c1.193,0.811,2.855,0.727,1.953-0.882c-0.691-1.334-2.622-1.072-3.442-0.855
			c0.577-0.441,1.178-0.85,1.8-1.225c0.502,0.095,1.32,0.553,2.157,1.414c1.04,1,2.697,1.192,2.078-0.545
			c-0.462-1.44-2.436-1.494-3.273-1.414c0.645-0.341,1.31-0.645,1.991-0.914c0.48,0.173,1.217,0.761,1.904,1.756
			c0.859,1.159,2.474,1.625,2.159-0.192c-0.215-1.508-2.189-1.885-3.024-1.941c0.546-0.18,1.102-0.338,1.666-0.47
			c0.63,0.066,2.476,0.328,3.204,0.481c0.451,0.057,1.949,0.181,2.328-0.639C466.264,427.688,466.212,427.266,465.974,426.936z"/>
	</g>
	<g>
		<path style="fill:#263238;" d="M191.433,409.623c0.721-0.385,1.656-0.263,2.563,0.332c1.545,0.95,3.584,3.592,4.071,4.473
			c0.642,0.533,1.259,1.092,1.849,1.675c-0.516-1.045-1.901-3.893-0.735-5.647c1.626-2.216,3.672,0.975,2.77,2.989
			c-0.678,1.682-1.006,3.023-0.978,3.765c0.757,0.834,1.464,1.708,2.116,2.62c-0.322-1.084-1.223-4.15,0.241-5.694
			c1.975-1.91,3.43,1.554,2.203,3.385c-0.959,1.55-1.509,2.82-1.602,3.552c0.607,0.948,1.157,1.931,1.65,2.942
			c-0.133-1.099-0.525-4.304,1.192-5.588c2.265-1.553,3.116,2.096,1.602,3.697c-1.208,1.371-1.963,2.534-2.174,3.241
			c0.441,1.034,0.822,2.094,1.142,3.173c0.051-1.121,0.202-4.34,2.104-5.313c2.493-1.154,2.725,2.594,0.966,3.926
			c-1.416,1.15-2.354,2.173-2.682,2.839c0.263,1.093,0.466,2.204,0.6,3.326c0.246-1.142,0.94-4.26,2.956-4.89
			c2.652-0.721,2.257,3.046,0.296,4.074c-1.575,0.894-2.667,1.747-3.111,2.357c0.086,1.317,0.085,2.645-0.014,3.977
			c-0.009,0.12-0.109,0.212-0.228,0.212c-0.006,0-0.012,0-0.017-0.001c-0.126-0.01-0.221-0.119-0.211-0.245
			c0.098-1.313,0.099-2.622,0.014-3.921c-0.52-0.537-1.746-1.158-3.477-1.455c-2.048-0.429-3.653-2.257-1.076-2.955
			c2.101-0.653,3.807,1.698,4.4,2.773c-0.133-1.073-0.331-2.135-0.584-3.181c-0.609-0.427-1.913-0.813-3.652-0.807
			c-2.089-0.065-3.971-1.579-1.548-2.701c1.943-0.983,3.992,0.974,4.771,1.931c-0.307-1.013-0.667-2.008-1.084-2.98
			c-0.672-0.313-2.018-0.469-3.727-0.169c-2.068,0.291-4.174-0.882-1.973-2.394c1.751-1.291,4.091,0.284,5.018,1.092
			c-0.467-0.941-0.986-1.857-1.554-2.742c-0.713-0.197-2.067-0.126-3.705,0.457c-1.99,0.633-4.265-0.176-2.35-2.037
			c1.522-1.575,4.12-0.383,5.155,0.256c-0.619-0.855-1.289-1.676-2.002-2.46c-0.734-0.082-2.067,0.211-3.596,1.063
			c-1.857,0.956-4.253,0.528-2.681-1.63c1.244-1.82,4.049-1.048,5.169-0.587c-0.594-0.584-1.215-1.144-1.863-1.676
			c-0.86-0.317-3.425-1.158-4.469-1.425c-0.622-0.214-2.648-1.012-2.614-2.319C190.575,410.415,190.914,409.901,191.433,409.623z"/>
		<path style="fill:#263238;" d="M184.642,426.936c0.329-0.458,0.946-0.668,1.689-0.576c1.247,0.117,3.317,1.132,3.888,1.529
			c0.561,0.134,1.113,0.292,1.657,0.474c-0.639-0.49-2.366-1.832-2.179-3.274c0.331-1.869,2.573-0.516,2.629,1.007
			c0.093,1.249,0.299,2.18,0.543,2.631c0.724,0.286,1.428,0.612,2.111,0.978c-0.53-0.573-2.024-2.198-1.588-3.602
			c0.641-1.786,2.6-0.084,2.398,1.425c-0.121,1.253-0.075,2.208,0.091,2.69c0.666,0.402,1.306,0.844,1.92,1.32
			c-0.418-0.64-1.639-2.507-0.967-3.826c0.93-1.654,2.57,0.348,2.121,1.802c-0.33,1.218-0.443,2.169-0.358,2.672
			c0.589,0.506,1.148,1.046,1.676,1.618c-0.31-0.711-1.199-2.751-0.317-3.934c1.193-1.476,2.481,0.776,1.796,2.138
			c-0.527,1.145-0.795,2.065-0.795,2.578c0.497,0.597,0.961,1.223,1.387,1.878c-0.196-0.783-0.717-2.927,0.339-3.932
			c1.423-1.256,2.328,1.199,1.427,2.434c-0.703,1.035-1.119,1.897-1.209,2.41c0.455,0.79,0.86,1.613,1.205,2.469
			c0.031,0.077-0.003,0.165-0.076,0.201c-0.004,0.002-0.007,0.003-0.011,0.005c-0.081,0.033-0.173-0.007-0.206-0.088
			c-0.34-0.843-0.739-1.655-1.188-2.433c-0.486-0.174-1.435-0.185-2.599,0.159c-1.4,0.359-2.952-0.284-1.568-1.503
			c1.103-1.046,2.877-0.11,3.572,0.376c-0.41-0.624-0.856-1.222-1.333-1.793c-0.508-0.079-1.434,0.08-2.509,0.615
			c-1.315,0.597-2.943,0.234-1.784-1.201c0.904-1.202,2.771-0.615,3.545-0.26c-0.5-0.534-1.027-1.041-1.581-1.516
			c-0.512,0.011-1.394,0.325-2.361,1.033c-1.193,0.811-2.855,0.727-1.953-0.882c0.691-1.334,2.622-1.072,3.442-0.855
			c-0.577-0.441-1.178-0.85-1.8-1.225c-0.502,0.095-1.32,0.553-2.157,1.414c-1.04,1-2.697,1.192-2.078-0.545
			c0.462-1.44,2.436-1.494,3.272-1.414c-0.645-0.341-1.31-0.645-1.991-0.914c-0.48,0.173-1.217,0.761-1.904,1.756
			c-0.859,1.159-2.474,1.625-2.159-0.192c0.215-1.508,2.189-1.885,3.024-1.941c-0.546-0.18-1.102-0.338-1.666-0.47
			c-0.63,0.066-2.476,0.328-3.204,0.481c-0.451,0.057-1.949,0.181-2.328-0.639C184.352,427.688,184.405,427.266,184.642,426.936z"/>
	</g>
	<g>
		<path style="fill:#263238;" d="M42.48,382.21c1.37-0.731,3.147-0.5,4.87,0.631c2.937,1.805,6.812,6.827,7.738,8.502
			c1.221,1.013,2.394,2.075,3.514,3.184c-0.982-1.986-3.614-7.4-1.398-10.733c3.09-4.212,6.979,1.853,5.265,5.681
			c-1.289,3.197-1.911,5.746-1.858,7.156c1.439,1.585,2.783,3.247,4.023,4.98c-0.611-2.06-2.325-7.888,0.458-10.822
			c3.753-3.631,6.52,2.954,4.188,6.434c-1.823,2.946-2.869,5.36-3.045,6.752c1.154,1.803,2.199,3.671,3.136,5.592
			c-0.253-2.088-0.999-8.181,2.266-10.621c4.306-2.953,5.922,3.983,3.044,7.027c-2.296,2.606-3.731,4.817-4.132,6.16
			c0.838,1.965,1.562,3.98,2.17,6.031c0.098-2.132,0.384-8.25,4-10.098c4.738-2.194,5.18,4.931,1.835,7.462
			c-2.692,2.185-4.474,4.13-5.097,5.396c0.5,2.078,0.885,4.188,1.141,6.322c0.468-2.171,1.787-8.098,5.618-9.294
			c5.041-1.371,4.289,5.79,0.564,7.743c-2.994,1.7-5.069,3.322-5.913,4.479c0.164,2.503,0.161,5.027-0.027,7.559
			c-0.017,0.229-0.208,0.403-0.433,0.403c-0.011,0-0.022-0.001-0.033-0.001c-0.24-0.018-0.419-0.227-0.402-0.466
			c0.186-2.496,0.188-4.985,0.026-7.452c-0.989-1.021-3.318-2.201-6.609-2.766c-3.894-0.815-6.943-4.29-2.045-5.616
			c3.994-1.242,7.237,3.227,8.362,5.271c-0.254-2.04-0.628-4.058-1.11-6.046c-1.158-0.812-3.636-1.546-6.942-1.534
			c-3.971-0.124-7.549-3.001-2.943-5.134c3.694-1.869,7.589,1.852,9.068,3.669c-0.584-1.925-1.269-3.817-2.06-5.663
			c-1.277-0.595-3.836-0.891-7.084-0.321c-3.932,0.553-7.933-1.677-3.75-4.551c3.328-2.453,7.776,0.541,9.537,2.075
			c-0.889-1.789-1.874-3.529-2.954-5.212c-1.355-0.375-3.93-0.239-7.043,0.868c-3.782,1.203-8.107-0.335-4.467-3.872
			c2.893-2.994,7.831-0.727,9.798,0.487c-1.176-1.626-2.45-3.185-3.805-4.676c-1.396-0.155-3.929,0.401-6.836,2.02
			c-3.529,1.816-8.083,1.004-5.096-3.098c2.365-3.46,7.695-1.991,9.824-1.116c-1.13-1.11-2.309-2.175-3.541-3.186
			c-1.634-0.603-6.51-2.2-8.495-2.709c-1.182-0.406-5.033-1.923-4.969-4.408C40.849,383.715,41.493,382.737,42.48,382.21z"/>
		<path style="fill:#263238;" d="M29.573,415.115c0.625-0.871,1.798-1.27,3.211-1.095c2.371,0.222,6.305,2.151,7.389,2.907
			c1.066,0.255,2.117,0.555,3.149,0.901c-1.214-0.931-4.498-3.482-4.141-6.224c0.629-3.553,4.89-0.981,4.996,1.913
			c0.177,2.374,0.569,4.143,1.033,5.001c1.375,0.543,2.715,1.163,4.013,1.858c-1.007-1.09-3.847-4.178-3.018-6.846
			c1.218-3.395,4.941-0.159,4.559,2.709c-0.231,2.382-0.142,4.197,0.173,5.113c1.265,0.765,2.483,1.604,3.65,2.508
			c-0.794-1.217-3.115-4.764-1.837-7.273c1.767-3.144,4.885,0.661,4.031,3.425c-0.628,2.315-0.842,4.123-0.681,5.078
			c1.119,0.962,2.182,1.989,3.185,3.075c-0.59-1.35-2.279-5.229-0.603-7.478c2.267-2.806,4.715,1.475,3.414,4.064
			c-1.001,2.176-1.512,3.924-1.512,4.899c0.944,1.135,1.827,2.325,2.636,3.569c-0.372-1.488-1.364-5.563,0.645-7.473
			c2.705-2.388,4.424,2.279,2.712,4.626c-1.337,1.967-2.128,3.605-2.297,4.58c0.865,1.501,1.634,3.066,2.29,4.692
			c0.059,0.147-0.006,0.313-0.146,0.382c-0.007,0.003-0.014,0.006-0.021,0.009c-0.154,0.062-0.329-0.012-0.391-0.166
			c-0.646-1.603-1.405-3.146-2.258-4.625c-0.924-0.331-2.728-0.351-4.939,0.303c-2.661,0.683-5.611-0.539-2.981-2.856
			c2.096-1.988,5.469-0.208,6.79,0.714c-0.78-1.186-1.628-2.322-2.533-3.408c-0.965-0.15-2.725,0.152-4.77,1.168
			c-2.499,1.135-5.593,0.444-3.39-2.283c1.718-2.285,5.267-1.168,6.739-0.494c-0.949-1.015-1.951-1.978-3.005-2.881
			c-0.973,0.021-2.649,0.618-4.487,1.963c-2.268,1.542-5.427,1.382-3.712-1.676c1.314-2.536,4.984-2.038,6.543-1.624
			c-1.097-0.837-2.238-1.615-3.421-2.328c-0.954,0.181-2.508,1.051-4.099,2.687c-1.976,1.9-5.126,2.266-3.949-1.036
			c0.879-2.738,4.631-2.84,6.22-2.688c-1.225-0.648-2.49-1.226-3.785-1.736c-0.913,0.33-2.312,1.447-3.619,3.338
			c-1.633,2.202-4.703,3.089-4.103-0.364c0.41-2.865,4.161-3.582,5.747-3.689c-1.039-0.343-2.094-0.643-3.166-0.893
			c-1.197,0.125-4.705,0.623-6.091,0.914c-0.856,0.109-3.705,0.344-4.424-1.215C29.021,416.545,29.122,415.743,29.573,415.115z"/>
	</g>
	<g>
		<path style="fill:#263238;" d="M415.078,409.623c0.721-0.385,1.656-0.263,2.563,0.332c1.545,0.95,3.584,3.592,4.071,4.473
			c0.642,0.533,1.259,1.092,1.849,1.675c-0.516-1.045-1.901-3.893-0.735-5.647c1.626-2.216,3.672,0.975,2.77,2.989
			c-0.678,1.682-1.006,3.023-0.978,3.765c0.757,0.834,1.464,1.708,2.116,2.62c-0.322-1.084-1.223-4.15,0.241-5.694
			c1.975-1.91,3.43,1.554,2.203,3.385c-0.959,1.55-1.509,2.82-1.602,3.552c0.607,0.948,1.157,1.931,1.65,2.942
			c-0.133-1.099-0.526-4.304,1.192-5.588c2.265-1.553,3.116,2.096,1.602,3.697c-1.208,1.371-1.963,2.534-2.174,3.241
			c0.441,1.034,0.822,2.094,1.142,3.173c0.051-1.121,0.202-4.34,2.104-5.313c2.493-1.154,2.725,2.594,0.966,3.926
			c-1.416,1.15-2.354,2.173-2.681,2.839c0.263,1.093,0.466,2.204,0.6,3.326c0.246-1.142,0.94-4.26,2.956-4.89
			c2.652-0.721,2.257,3.046,0.297,4.074c-1.575,0.894-2.667,1.747-3.111,2.357c0.086,1.317,0.085,2.645-0.014,3.977
			c-0.009,0.12-0.109,0.212-0.228,0.212c-0.006,0-0.012,0-0.017-0.001c-0.126-0.01-0.221-0.119-0.211-0.245
			c0.098-1.313,0.099-2.622,0.014-3.921c-0.52-0.537-1.746-1.158-3.477-1.455c-2.048-0.429-3.653-2.257-1.076-2.955
			c2.101-0.653,3.807,1.698,4.399,2.773c-0.133-1.073-0.33-2.135-0.584-3.181c-0.609-0.427-1.913-0.813-3.652-0.807
			c-2.09-0.065-3.971-1.579-1.548-2.701c1.943-0.983,3.992,0.974,4.771,1.931c-0.307-1.013-0.668-2.008-1.084-2.98
			c-0.672-0.313-2.018-0.469-3.727-0.169c-2.068,0.291-4.174-0.882-1.973-2.394c1.751-1.291,4.091,0.284,5.017,1.092
			c-0.467-0.941-0.986-1.857-1.554-2.742c-0.713-0.197-2.067-0.126-3.705,0.457c-1.99,0.633-4.265-0.176-2.35-2.037
			c1.522-1.575,4.12-0.383,5.155,0.256c-0.619-0.855-1.289-1.676-2.002-2.46c-0.734-0.082-2.067,0.211-3.596,1.063
			c-1.857,0.956-4.253,0.528-2.681-1.63c1.244-1.82,4.049-1.048,5.169-0.587c-0.594-0.584-1.215-1.144-1.863-1.676
			c-0.86-0.317-3.425-1.158-4.469-1.425c-0.622-0.214-2.648-1.012-2.614-2.319C414.221,410.415,414.559,409.901,415.078,409.623z"/>
		<path style="fill:#263238;" d="M408.288,426.936c0.329-0.458,0.946-0.668,1.689-0.576c1.247,0.117,3.317,1.132,3.888,1.529
			c0.561,0.134,1.113,0.292,1.657,0.474c-0.639-0.49-2.366-1.832-2.179-3.274c0.331-1.869,2.573-0.516,2.629,1.007
			c0.093,1.249,0.299,2.18,0.543,2.631c0.724,0.286,1.429,0.612,2.111,0.978c-0.53-0.573-2.024-2.198-1.588-3.602
			c0.641-1.786,2.6-0.084,2.398,1.425c-0.121,1.253-0.075,2.208,0.091,2.69c0.665,0.402,1.306,0.844,1.92,1.32
			c-0.418-0.64-1.639-2.507-0.967-3.826c0.93-1.654,2.57,0.348,2.121,1.802c-0.33,1.218-0.443,2.169-0.358,2.672
			c0.589,0.506,1.148,1.046,1.676,1.618c-0.31-0.711-1.199-2.751-0.317-3.934c1.193-1.476,2.48,0.776,1.796,2.138
			c-0.527,1.145-0.795,2.065-0.795,2.578c0.497,0.597,0.961,1.223,1.387,1.878c-0.196-0.783-0.718-2.927,0.339-3.932
			c1.423-1.256,2.328,1.199,1.427,2.434c-0.703,1.035-1.119,1.897-1.209,2.41c0.455,0.79,0.86,1.613,1.205,2.469
			c0.031,0.077-0.003,0.165-0.077,0.201c-0.004,0.002-0.007,0.003-0.011,0.005c-0.081,0.033-0.173-0.007-0.206-0.088
			c-0.34-0.843-0.739-1.655-1.188-2.433c-0.486-0.174-1.435-0.185-2.599,0.159c-1.4,0.359-2.952-0.284-1.568-1.503
			c1.103-1.046,2.877-0.11,3.572,0.376c-0.41-0.624-0.856-1.222-1.332-1.793c-0.508-0.079-1.434,0.08-2.509,0.615
			c-1.315,0.597-2.943,0.234-1.784-1.201c0.904-1.202,2.771-0.615,3.545-0.26c-0.499-0.534-1.027-1.041-1.581-1.516
			c-0.512,0.011-1.394,0.325-2.361,1.033c-1.193,0.811-2.855,0.727-1.953-0.882c0.691-1.334,2.622-1.072,3.442-0.855
			c-0.577-0.441-1.178-0.85-1.8-1.225c-0.502,0.095-1.32,0.553-2.157,1.414c-1.04,1-2.697,1.192-2.078-0.545
			c0.462-1.44,2.436-1.494,3.273-1.414c-0.645-0.341-1.31-0.645-1.991-0.914c-0.48,0.173-1.217,0.761-1.904,1.756
			c-0.859,1.159-2.474,1.625-2.159-0.192c0.215-1.508,2.189-1.885,3.024-1.941c-0.546-0.18-1.102-0.338-1.666-0.47
			c-0.63,0.066-2.476,0.328-3.204,0.481c-0.451,0.057-1.949,0.181-2.328-0.639C407.998,427.688,408.051,427.266,408.288,426.936z"/>
	</g>
</g>
<g id="Grass">
	<g>
		<polygon style="fill:#92E3A9;" points="486.129,432.205 481.273,436.205 476.419,432.205 471.57,436.205 466.722,432.205 
			461.873,436.205 457.023,432.205 452.173,436.205 447.326,432.205 442.481,436.205 437.633,432.205 432.789,436.205 
			427.941,432.205 423.092,436.205 418.244,432.205 413.397,436.205 408.549,432.205 403.702,436.205 398.855,432.205 
			394.009,436.205 389.162,432.205 384.317,436.205 379.47,432.205 374.625,436.205 369.781,432.205 364.934,436.205 
			360.089,432.205 355.246,436.205 350.402,432.205 345.555,436.205 340.711,432.205 335.869,436.205 331.027,432.205 
			326.182,436.205 321.337,432.205 316.495,436.205 311.655,432.205 306.814,436.205 301.973,432.205 297.128,436.205 
			292.284,432.205 287.44,436.205 282.595,432.205 277.749,436.205 272.904,432.205 268.06,436.205 263.215,432.205 
			258.369,436.205 253.525,432.205 248.681,436.205 243.837,432.205 238.992,436.205 234.147,432.205 229.303,436.205 
			224.46,432.205 219.616,436.205 214.771,432.205 209.926,436.205 205.082,432.205 200.239,436.205 195.396,432.205 
			190.553,436.205 185.708,432.205 180.863,436.205 176.019,432.205 171.177,436.205 166.334,432.205 161.492,436.205 
			156.649,432.205 151.804,436.205 146.959,432.205 142.116,436.205 137.273,432.205 132.431,436.205 127.59,432.205 
			122.748,436.205 117.905,432.205 113.062,436.205 108.216,432.205 103.373,436.205 98.53,432.205 93.689,436.205 88.848,432.205 
			84.007,436.205 79.165,432.205 74.324,436.205 69.482,432.205 64.638,436.205 59.793,432.205 54.95,436.205 50.108,432.205 
			45.267,436.205 40.426,432.205 35.586,436.205 30.746,432.205 25.906,436.205 21.065,432.205 16.224,436.205 11.585,432.373 
			11.585,445.26 486.913,445.26 486.913,432.873 		"/>
		<polygon style="fill:none;" points="486.129,432.205 481.273,436.205 476.419,432.205 471.57,436.205 466.722,432.205 
			461.873,436.205 457.023,432.205 452.173,436.205 447.326,432.205 442.481,436.205 437.633,432.205 432.789,436.205 
			427.941,432.205 423.092,436.205 418.244,432.205 413.397,436.205 408.549,432.205 403.702,436.205 398.855,432.205 
			394.009,436.205 389.162,432.205 384.317,436.205 379.47,432.205 374.625,436.205 369.781,432.205 364.934,436.205 
			360.089,432.205 355.246,436.205 350.402,432.205 345.555,436.205 340.711,432.205 335.869,436.205 331.027,432.205 
			326.182,436.205 321.337,432.205 316.495,436.205 311.655,432.205 306.814,436.205 301.973,432.205 297.128,436.205 
			292.284,432.205 287.44,436.205 282.595,432.205 277.749,436.205 272.904,432.205 268.06,436.205 263.215,432.205 
			258.369,436.205 253.525,432.205 248.681,436.205 243.837,432.205 238.992,436.205 234.147,432.205 229.303,436.205 
			224.46,432.205 219.616,436.205 214.771,432.205 209.926,436.205 205.082,432.205 200.239,436.205 195.396,432.205 
			190.553,436.205 185.708,432.205 180.863,436.205 176.019,432.205 171.177,436.205 166.334,432.205 161.492,436.205 
			156.649,432.205 151.804,436.205 146.959,432.205 142.116,436.205 137.273,432.205 132.431,436.205 127.59,432.205 
			122.748,436.205 117.905,432.205 113.062,436.205 108.216,432.205 103.373,436.205 98.53,432.205 93.689,436.205 88.848,432.205 
			84.007,436.205 79.165,432.205 74.324,436.205 69.482,432.205 64.638,436.205 59.793,432.205 54.95,436.205 50.108,432.205 
			45.267,436.205 40.426,432.205 35.586,436.205 30.746,432.205 25.906,436.205 21.065,432.205 16.224,436.205 11.585,432.373 
			11.585,445.26 486.913,445.26 486.913,432.873 		"/>
	</g>
</g>
<g id="Floor">
	
		<line style="fill:none;stroke:#263238;stroke-linecap:round;stroke-linejoin:round;stroke-miterlimit:10;" x1="1.979" y1="445.26" x2="494.536" y2="445.26"/>
</g>
<g id="Clouds">
	<g>
		<path style="fill:none;stroke:#263238;stroke-linecap:round;stroke-linejoin:round;stroke-miterlimit:10;" d="M440.792,106.863
			c0,0-10.971-17.554-29.987-16.822s-21.211,15.36-27.062,19.017s-9.508-5.12-21.211-3.657
			c-11.702,1.463-14.628,6.583-18.285,10.971c-3.657,4.388-9.508-1.463-18.285-0.731c-8.777,0.731-10.971,6.583-13.897,8.777
			c-2.926,2.194-12.434,3.657-12.434,3.657h174.805c0,0,0.731-15.36-10.971-17.554C451.764,108.325,447.375,113.445,440.792,106.863
			z"/>
		<path style="fill:none;stroke:#263238;stroke-linecap:round;stroke-linejoin:round;stroke-miterlimit:10;" d="M112.538,148.168
			c0,0-7.028-11.245-19.21-10.777c-12.182,0.469-13.588,9.839-17.336,12.182c-3.748,2.343-6.091-3.28-13.588-2.343
			c-7.497,0.937-9.371,4.217-11.714,7.028c-2.343,2.811-6.091-0.937-11.714-0.468c-5.623,0.468-7.028,4.217-8.902,5.622
			c-1.874,1.406-7.965,2.343-7.965,2.343h111.982c0,0,0.468-9.839-7.028-11.245C119.567,149.105,116.755,152.385,112.538,148.168z"
			/>
		<path style="fill:none;stroke:#263238;stroke-linecap:round;stroke-linejoin:round;stroke-miterlimit:10;" d="M188.323,35.914
			c0,0-5.316-8.505-14.529-8.151c-9.214,0.354-10.277,7.442-13.112,9.214s-4.607-2.481-10.277-1.772
			c-5.67,0.709-7.088,3.189-8.859,5.316c-1.772,2.126-4.607-0.709-8.859-0.354c-4.253,0.354-5.316,3.189-6.733,4.252
			c-1.418,1.063-6.024,1.772-6.024,1.772h84.696c0,0,0.354-7.442-5.316-8.505C193.638,36.623,191.512,39.104,188.323,35.914z"/>
	</g>
</g>
<g id="Character_3">
	<g>
		<path style="fill:#263238;stroke:#263238;stroke-linecap:round;stroke-linejoin:round;stroke-miterlimit:10;" d="M408.824,235.276
			c0,0-1.728,3.116-2.445,3.607s-4.77-0.683-6.096,2.509c-1.326,3.191,2.061,4.032,2.061,4.032s-2.989,0.38-3.005,3.815
			c-0.017,3.436,4.671,2.331,4.671,2.331s-2.346,1.959-0.294,2.133c2.052,0.175,6.779-5.611,8.546-7.261
			C414.028,244.792,411.082,234.343,408.824,235.276z"/>
		<g>
			<path style="fill:#92E3A9;stroke:#263238;stroke-linecap:round;stroke-linejoin:round;stroke-miterlimit:10;" d="
				M413.605,441.785c0,0-5.183,4.878-7.927,6.402c-2.744,1.524-9.451,2.896-11.585,3.506c-2.134,0.61-4.268,3.049-3.354,5.183
				c0.915,2.134,5.792,2.591,10.061,2.896s9.756-0.152,10.823-0.152c1.067,0,9.756,2.134,10.823-0.762
				c1.067-2.896,1.829-15.853,1.829-15.853L413.605,441.785z"/>
			<path style="fill:#FFFFFF;stroke:#263238;stroke-linecap:round;stroke-linejoin:round;stroke-miterlimit:10;" d="M399.21,450.776
				c0,0,1.261,1.982,2.703,1.622c1.441-0.36,5.946-2.342,6.847-3.243c0.901-0.901,6.675-5.693,6.675-5.693l-1.829-1.677
				c0,0-7.043,5.614-7.927,6.402C404.795,448.975,399.21,450.776,399.21,450.776z"/>
			<path style="fill:#FFFFFF;stroke:#263238;stroke-linecap:round;stroke-linejoin:round;stroke-miterlimit:10;" d="
				M422.446,458.857c0.161-0.437,0.315-1.105,0.46-1.92c-1.699-0.033-3.841-0.062-6.1-0.062c-5.183,0-11.89-0.305-19.511-1.982
				c-3.413-0.751-5.016-1.225-5.753-1.522c-0.868,1.012-1.315,2.306-0.802,3.503c0.914,2.134,5.792,2.591,10.061,2.896
				s9.756-0.152,10.823-0.152C412.69,459.619,421.379,461.753,422.446,458.857z"/>
		</g>
		<path style="fill:#263238;stroke:#263238;stroke-linecap:round;stroke-linejoin:round;stroke-miterlimit:10;" d="M407.522,248.428
			c0,0-7.279,5.932-10.738,11.028c-3.458,5.096-6.37,8.009-2.912,15.289c3.458,7.281,2.73,20.75,2.73,20.75
			s1.82,27.666,1.092,31.306c-0.728,3.64-2.002,20.204,2.184,35.675c4.186,15.471,11.103,36.221,11.285,37.677
			c0.182,1.456,3.094,27.666,3.276,33.309c0.182,5.642-1.638,8.373-1.274,9.465c0.364,1.092,2.366,1.82,5.46,1.82
			c3.094,0,8.555,2.002,9.465,0.182c0.91-1.82,3.64-10.375,3.64-10.375s5.096-15.107,5.096-22.57c0-7.463-2.002-18.93-2.548-23.48
			c-0.546-4.55,3.276-31.671,5.278-38.951c2.002-7.281,6.818-10.037,7.182-19.866c0.364-9.829-1.357-11.805-1.357-11.805
			s-5.824-19.657-6.552-24.39c-0.728-4.732-0.91-12.377-0.91-16.381s0-9.647,0-9.647s-0.91-13.833-3.458-19.658
			c-2.548-5.824-3.099-5.683-6.555-7.574C424.45,238.342,410.902,244.023,407.522,248.428z"/>
		<path style="fill:#92E3A9;stroke:#263238;stroke-linecap:round;stroke-linejoin:round;stroke-miterlimit:10;" d="M438.829,293.492
			c-0.728-4.732-0.91-12.377-0.91-16.381s0-9.647,0-9.647s-0.91-13.833-3.458-19.658c-2.548-5.824-3.099-5.683-6.555-7.574
			c-3.456-1.891-17.004,3.79-20.384,8.195c0,0-7.279,5.932-10.738,11.028c-3.458,5.096-6.37,8.009-2.912,15.289
			c3.458,7.281,2.73,20.75,2.73,20.75s0.74,11.26,1.088,20.359h47.096C443.284,310.714,439.414,297.293,438.829,293.492z"/>
		<path style="fill:#263238;stroke:#263238;stroke-linecap:round;stroke-linejoin:round;stroke-miterlimit:10;" d="M471.92,293.954
			c-0.324-7.624-4.704-17.357-8.111-19.466c-3.406-2.109-4.055-2.271-6.164-3.893c-2.109-1.622-6.651-4.866-6.651-4.866
			s5.515-1.947,5.191-3.244c-0.324-1.298-3.244-6.002-5.677-5.515c-2.433,0.487-4.38,3.244-4.38,3.244l-11.121-16.047
			c0,0,6.579,16.696,7.065,22.536c0.487,5.84-0.324,6.651-0.324,6.651s-15.086,30.172-16.384,30.01s-13.302-17.357-13.302-17.357
			l0.162-5.84c0,0,0.577-4.693,3.406-10.544c2.83-5.851,5.191-14.113,9.409-22.223c4.218-8.111,9.967-3.232,9.967-3.232
			s-6.074-6.501-11.427-3.743c0,0-5.353,5.515-6.488,10.544c-1.135,5.029-6.813,25.468-6.813,25.468l-1.947,26.441l2.271,0.324
			v-15.897c0,0,10.544,13.951,11.679,16.546c1.136,2.595,12.491,18.168,14.762,21.899c2.271,3.731,11.679,7.786,18.006,7.786
			c6.326,0,8.922,0.811,10.382-5.84c1.46-6.651,2.433-12.977,3.082-14.437C469.162,311.798,472.244,301.579,471.92,293.954z
			 M447.587,264.918c0,0,0.973-5.515,2.271-6.489c1.298-0.973,3.082,0.487,3.569,2.109c0.487,1.622-4.704,4.866-4.704,4.866
			L447.587,264.918z"/>
		<g>
			<path style="fill:#92E3A9;stroke:#263238;stroke-linecap:round;stroke-linejoin:round;stroke-miterlimit:10;" d="
				M427.727,241.982c0,0,4.368-0.182,7.28,2.184c2.912,2.366,23.116,32.58,23.116,42.045c0,9.465-5.824,7.827-13.287,8.373
				c-7.463,0.546-26.392-2.184-28.758-3.276c-2.366-1.092-3.64-3.458-4.368-4.004c-0.728-0.546-1.82,0-3.094-0.364
				c-1.274-0.364-1.82-0.546-2.548-3.094c-0.728-2.548-0.728-6.552-0.728-6.552s-1.092-2.548,0.546-2.548
				c1.638,0,5.096-0.364,6.917,0.728c1.82,1.092,6.734,9.647,6.734,9.647s16.199-2.366,18.383-3.094
				c2.184-0.728,6.189-2.002,6.189-2.002l-18.201-14.379"/>
			<path style="fill:#FFFFFF;stroke:#263238;stroke-linecap:round;stroke-linejoin:round;stroke-miterlimit:10;" d="
				M438.055,281.981c-0.044,0.015-0.092,0.03-0.135,0.045c-2.184,0.728-18.383,3.094-18.383,3.094s-4.914-8.555-6.734-9.647
				c-1.82-1.092-5.278-0.728-6.917-0.728c-1.638,0-0.546,2.548-0.546,2.548s0,4.004,0.728,6.552c0.728,2.548,1.274,2.73,2.548,3.094
				c1.274,0.364,2.366-0.182,3.094,0.364c0.728,0.546,2.002,2.912,4.368,4.004c2.061,0.952,16.692,3.145,25.362,3.334
				C440.616,289.44,438.981,284.514,438.055,281.981z"/>
			
				<line style="fill:none;stroke:#263238;stroke-linecap:round;stroke-linejoin:round;stroke-miterlimit:10;" x1="405.339" y1="277.293" x2="411.702" y2="276.791"/>
			
				<line style="fill:none;stroke:#263238;stroke-linecap:round;stroke-linejoin:round;stroke-miterlimit:10;" x1="405.413" y1="280.359" x2="409.8" y2="279.497"/>
			<path style="fill:none;stroke:#263238;stroke-linecap:round;stroke-linejoin:round;stroke-miterlimit:10;" d="M406.067,283.846
				c0,0,2.245-0.98,3.263-1.058"/>
		</g>
		<g>
			
				<line style="fill:none;stroke:#878787;stroke-linecap:round;stroke-linejoin:round;stroke-miterlimit:10;" x1="400.103" y1="327.648" x2="405.2" y2="333.764"/>
			<path style="fill:none;stroke:#878787;stroke-linecap:round;stroke-linejoin:round;stroke-miterlimit:10;" d="M407.238,331.216
				c0,0-3.058,22.681,0,34.914c3.058,12.232,7.645,35.933,8.41,44.598c0.764,8.665,2.039,23.446,0.51,29.307"/>
			<path style="fill:none;stroke:#878787;stroke-linecap:round;stroke-linejoin:round;stroke-miterlimit:10;" d="M410.551,327.648
				c0,0,5.097-4.077,13.252-5.097"/>
		</g>
		<path style="fill:#92E3A9;stroke:#263238;stroke-linecap:round;stroke-linejoin:round;stroke-miterlimit:10;" d="M415.434,443.461
			c0,0-2.583,2.678-5.03,7.012c-2.495,4.42-15.589,5.987-16.92,8.384c-0.878,1.581,0.211,5.328,1.982,5.793
			c2.4,0.629,21.95,1.067,24.389,0.61c2.439-0.457,9.146,0.152,9.908-2.896c0.762-3.049-1.982-13.719-1.982-13.719l0.152-4.878
			L415.434,443.461z"/>
		<path style="fill:#FFFFFF;stroke:#263238;stroke-linecap:round;stroke-linejoin:round;stroke-miterlimit:10;" d="M417.587,443.569
			c0,0-1.982,5.045-4.144,8.829c-2.162,3.784-7.567,3.784-8.468,3.423c-0.901-0.36-0.36-1.261-0.36-1.261s3.58-1.319,4.685-2.703
			c1.104-1.384,6.135-8.396,6.135-8.396L417.587,443.569z"/>
		<path style="fill:#FFFFFF;stroke:#263238;stroke-linecap:round;stroke-linejoin:round;stroke-miterlimit:10;" d="M403.392,459.009
			c-1.043-1.802-3.088-2.482-4.486-2.739c-2.692,0.878-4.914,1.672-5.422,2.587c-0.878,1.581,0.211,5.328,1.982,5.793
			c0.963,0.252,4.689,0.474,8.962,0.619C404.544,463.782,404.56,461.028,403.392,459.009z"/>
		<path style="fill:#FFFFFF;stroke:#263238;stroke-linecap:round;stroke-linejoin:round;stroke-miterlimit:10;" d="M429.852,459.814
			c-1.903,0.373-4.841,0.925-6.034,1.025c-1.829,0.152-12.652,1.524-20.731,0.915c-4.422-0.334-7.739-1.351-9.844-2.205
			c-0.351,1.784,0.675,4.696,2.222,5.102c2.4,0.629,21.95,1.067,24.389,0.61c2.439-0.457,9.146,0.152,9.908-2.896
			C429.913,461.763,429.925,460.865,429.852,459.814z"/>
		<g>
			<path style="fill:#FFFFFF;stroke:#263238;stroke-linecap:round;stroke-linejoin:round;stroke-miterlimit:10;" d="
				M409.492,205.679c0,0-3.562,2.141-5.098,4.333c-1.536,2.192-1.949,5.607-2.41,6.873c-0.462,1.266-2.488,2.464-3.978,3.2
				c-1.489,0.736-0.645,2.245,0.213,3.082c0.858,0.836,1.906,1.257,1.906,1.257s-0.127,3.694-0.22,6.606s0.757,3.183,1.874,3.842
				c1.116,0.659,6.192,1.832,6.192,1.832s0.821,6.462,0.665,7.898c-0.155,1.436-0.678,3.028-1.221,4.729
				c-0.543,1.701,0.246,2.299,1.695,1.781c1.449-0.518,3.257-1.757,7.733-3.4c4.475-1.643,5.582-5.154,5.812-5.787
				c0.231-0.633,4.731-15.678,3.249-22.826c-1.481-7.149-6.416-10.887-10.254-12.055
				C411.814,205.877,409.492,205.679,409.492,205.679z"/>
			<path style="fill:#263238;stroke:#263238;stroke-linecap:round;stroke-linejoin:round;stroke-miterlimit:10;" d="
				M407.507,205.411c0,0,0.313,0.734,2.325,6.856c2.011,6.121,5.884,8.309,7.567,12.567c1.683,4.258,1.809,9.013-0.895,13.239
				c-2.705,4.227-4.985,2.561-7.036,6.91c-2.051,4.349,3.928,3.099,3.928,3.099s-4.842,1.799-4.86,5.514
				c-0.018,3.714,6.49-0.365,6.49-0.365s0.18,3.864,3.295,2.868c3.115-0.995,4.152-9.196,5.511-11.646
				c1.359-2.45,4.331-4.58,5.125-4.72c1.945-0.343,3.49,1.323,3.776,1.602c0.286,0.279,2.467,6.426,3.524,0.765
				c1.057-5.661-2.339-7.985-2.339-7.985s1.028-7.919,0.765-14.954c-0.263-7.034-4.356-12.868-8.589-14.335
				c-4.233-1.466-12.662-1.576-15.573-1.669C407.607,203.064,407.288,203.567,407.507,205.411z"/>
			<path style="fill:none;stroke:#263238;stroke-linecap:round;stroke-linejoin:round;stroke-miterlimit:10;" d="M405.261,218.296
				c-0.608,2.281-1.975,3.896-3.055,3.609c-1.08-0.288-1.462-2.37-0.855-4.65c0.608-2.281,1.975-3.896,3.055-3.609
				C405.486,213.933,405.869,216.015,405.261,218.296z"/>
			
				<line style="fill:none;stroke:#263238;stroke-linecap:round;stroke-linejoin:round;stroke-miterlimit:10;" x1="405.919" y1="217.883" x2="417.749" y2="222.15"/>
			<path style="fill:#FFFFFF;stroke:#263238;stroke-linecap:round;stroke-linejoin:round;stroke-miterlimit:10;" d="
				M414.877,223.227c0,0,2.992-5.026,5.026-0.718c2.034,4.308-1.915,7.779-3.351,8.138"/>
			<path style="fill:#FFFFFF;stroke:#263238;stroke-linecap:round;stroke-linejoin:round;stroke-miterlimit:10;" d="
				M400.755,227.895c0,0,1.795,0.239,3.231-1.077"/>
			<path style="fill:#263238;" d="M404.106,218.201c-0.31,0.907-0.815,1.555-1.128,1.448c-0.313-0.107-0.315-0.929-0.004-1.835
				c0.31-0.907,0.815-1.555,1.128-1.448C404.415,216.472,404.417,217.294,404.106,218.201z"/>
			<path style="fill:none;stroke:#263238;stroke-linecap:round;stroke-linejoin:round;stroke-miterlimit:10;" d="M404.585,212.337
				c0,0,1.556-0.239,2.035,2.393"/>
		</g>
	</g>
</g>
<g id="Character_2">
	<g>
		<g>
			<g>
				<path style="fill:#878787;stroke:#263238;stroke-linecap:round;stroke-linejoin:round;stroke-miterlimit:10;" d="
					M219.819,410.416c0,0-11.061-0.38-10.942,1.724c0.119,2.104,3.119,14.808,4.152,18.09c1.033,3.281,3.5,9.285,4.947,11.625
					c1.447,2.341,2.5,5.05,4.63,4.168c2.131-0.882,2.4-3.163,2.045-3.939c-0.355-0.776-1.927-5.03-1.461-7.496
					c0.467-2.466,2.839-10.404,3.464-11.909c0.624-1.506,1.696-4.906,1.696-4.906L219.819,410.416z"/>
				<path style="fill:#FFFFFF;stroke:#263238;stroke-linecap:round;stroke-linejoin:round;stroke-miterlimit:10;" d="
					M222.178,441.809c-1.276-1.762-6.321-10.527-6.973-19.332c-0.447-6.029-1.95-9.943-2.854-11.814
					c-1.956,0.24-3.519,0.68-3.474,1.478c0.119,2.104,3.119,14.809,4.152,18.09c1.033,3.281,3.5,9.285,4.947,11.625
					c1.447,2.341,2.5,5.05,4.63,4.168c0.914-0.378,1.47-1.015,1.796-1.679C223.661,443.594,222.79,442.654,222.178,441.809z"/>
			</g>
			<path style="fill:#263238;stroke:#263238;stroke-linecap:round;stroke-linejoin:round;stroke-miterlimit:10;" d="
				M265.182,379.326c0,0-14.519,5.802-18.865,10.044c-4.346,4.242-23.966,19.606-23.966,19.606s-2.683,0.29-2.532,1.441
				c0.151,1.151,1.756,4.452,2.829,6.589c1.072,2.137,3.867,4.142,6.208,2.695c2.341-1.447,4.195-5.393,9.08-8.662
				c4.885-3.269,14.61-8.472,18.668-9.86c4.057-1.388,11.816-4.94,11.816-4.94s10.455-4.223,12.927-9.484
				c2.472-5.261-0.266-20.056-0.595-21.595C280.422,363.62,265.182,379.326,265.182,379.326z"/>
		</g>
		<g>
			<path style="fill:#FFFFFF;stroke:#263238;stroke-linecap:round;stroke-linejoin:round;stroke-miterlimit:10;" d="
				M280.568,321.914l3.881,7.149c0,0,3.791,5.77,3.881,7.149c0.09,1.379,0.92,5.259,1.171,5.955
				c0.251,0.696-0.061,1.786-1.284,1.332c-1.223-0.455-1.474-1.151-1.474-1.151l-0.017,1.548c0,0-0.386,1.957-1.361,1.001
				c-0.439-0.431-1.286-0.424-1.286-0.424s-3.679,0.134-5.011-1.15c-1.332-1.284-2.522-8.478-3.129-10.837
				c-0.607-2.359-0.433-15.422-0.433-15.422L280.568,321.914z"/>
			<path style="fill:#FFFFFF;stroke:#263238;stroke-linecap:round;stroke-linejoin:round;stroke-miterlimit:10;" d="
				M286.745,342.347l-0.987-2.745c0,0-2.357-0.5-3.218-1.856c-0.861-1.356-1.335-3.816-1.335-3.816"/>
			
				<line style="fill:#FFFFFF;stroke:#263238;stroke-linecap:round;stroke-linejoin:round;stroke-miterlimit:10;" x1="283.334" y1="339.03" x2="279.457" y2="338.059"/>
		</g>
		<g>
			<g>
				<path style="fill:#878787;stroke:#263238;stroke-linecap:round;stroke-linejoin:round;stroke-miterlimit:10;" d="
					M279.033,437.461c0,0,1.107,3.437,4.474,5.462c3.367,2.025,7.878,4.089,10.16,4.358c2.282,0.269,6.115-0.172,6.412,2.32
					c0.296,2.492,1.243,2.716-2.63,4.301c-3.873,1.585-10.424,1.016-15.764,0.833c-5.34-0.183-14.868-0.701-16.006-0.931
					c-1.138-0.23-1.763-4.261-1.29-6.918c0.473-2.657,0.841-7.799,0.841-7.799L279.033,437.461z"/>
				<path style="fill:#FFFFFF;stroke:#263238;stroke-linecap:round;stroke-linejoin:round;stroke-miterlimit:10;" d="
					M300.079,449.601c-0.061-0.51-0.275-0.892-0.588-1.187c-1.468,1.035-5.709,3.252-15.339,3.504
					c-9.9,0.26-16.221-1.113-19.849-1.615c0.179,1.799,0.681,3.36,1.376,3.501c1.138,0.23,10.666,0.748,16.006,0.931
					c5.34,0.183,11.891,0.752,15.764-0.833C301.322,452.317,300.375,452.093,300.079,449.601z"/>
			</g>
			<path style="fill:#263238;stroke:#263238;stroke-linecap:round;stroke-linejoin:round;stroke-miterlimit:10;" d="
				M280.365,331.924c0,0,2.083,33.865,0.441,48.319c-1.642,14.454-4.992,39.732-3.886,46.453c1.106,6.72,2.112,10.764,2.112,10.764
				s1.059,2.519-4.326,3.67c-5.385,1.152-9.91-0.531-9.91-0.531s-1.851-18.392-2.594-24.528c-0.744-6.135-0.477-25.028,0.324-31.683
				c0.801-6.655-7.18-41.105-10.607-46.95c-3.427-5.846-9.767-10.264-9.446-19.608c0.321-9.344,1.314-10.456,1.314-10.456
				l35.705,8.758L280.365,331.924z"/>
		</g>
		<g>
			<path style="fill:#FFFFFF;stroke:#263238;stroke-linecap:round;stroke-linejoin:round;stroke-miterlimit:10;" d="M239.938,256.8
				c0,0,0.238-2.355-1.965-2.431c-2.203-0.076-17.76-1.24-21.096,4.16c-3.336,5.399-6.318,23.414-5.856,28.314
				c0.462,4.9,0.272,5.838,0.272,5.838s-5.849,0.587-5.914,2.475c-0.065,1.888,0.773,18.774,3.356,21.541
				c2.583,2.767,8.27,2.332,8.27,2.332s5.405,7.747,12.351,7.356c6.945-0.392,14.015-4.402,15.523-7.029
				c1.508-2.626,6.2-15.384,5.607-25.644c-0.593-10.26-5.896-25.567-7.319-30.027C241.745,259.225,239.938,256.8,239.938,256.8z"/>
			<path style="fill:none;stroke:#263238;stroke-linecap:round;stroke-linejoin:round;stroke-miterlimit:10;" d="M220.35,258.333
				c0,0,2.794-3.37,3.506,3.429c0.712,6.799,5.389,40.358,5.791,46.989c0.402,6.63,0.75,10.266-4.985,12.117"/>
			<path style="fill:#263238;stroke:#263238;stroke-linecap:round;stroke-linejoin:round;stroke-miterlimit:10;" d="
				M250.486,293.712c-0.074-1.282-0.222-2.643-0.426-4.051l-22.206,2.486c0,0,1.228,10.125,1.64,11.872
				c0.413,1.747,0.848,12.002-0.958,14.146c-1.449,1.719-7.127,2.986-9.324,3.422c2.209,2.218,5.884,5.039,10.145,4.799
				c6.945-0.392,14.015-4.402,15.523-7.029C246.388,316.73,251.079,303.973,250.486,293.712z"/>
			<path style="fill:#263238;stroke:#263238;stroke-linecap:round;stroke-linejoin:round;stroke-miterlimit:10;" d="
				M223.137,314.829c0.054-1.574-1.88-18.654-1.94-21.492c-0.06-2.838-9.903-0.655-9.903-0.655s-5.849,0.587-5.914,2.475
				c-0.065,1.888,0.773,18.774,3.357,21.541c2.583,2.767,8.27,2.332,8.27,2.332S223.083,316.402,223.137,314.829z"/>
		</g>
		<path style="fill:#263238;stroke:#263238;stroke-linecap:round;stroke-linejoin:round;stroke-miterlimit:10;" d="M275.486,233.717
			c0,0-1.092,3.427,2.507,8.963c3.599,5.536,1.295,9.571,0.341,12.136c-0.954,2.565,2.234,4.299,2.234,4.299
			s-0.373,1.395-4.384,1.582c-4.012,0.187-8.054-1.9-9.602-10.397c-1.549-8.497,3.961-17.618,5.478-17.674
			C273.577,232.569,275.486,233.717,275.486,233.717z"/>
		<path style="fill:#92E3A9;stroke:#263238;stroke-linecap:round;stroke-linejoin:round;stroke-miterlimit:10;" d="M267.681,251.766
			c0,0,13.947,11.349,15.445,18.175c1.499,6.826-3.856,12.069-3.856,12.069l0.222,34.124l-31.749-6.762l1.099-13.668
			c0,0-4.579-36.392-4.163-43.939c0.417-7.548,7.074-8.737,11.432-7.169C260.469,246.162,267.681,251.766,267.681,251.766z"/>
		<path style="fill:#263238;stroke:#263238;stroke-linecap:round;stroke-linejoin:round;stroke-miterlimit:10;" d="M238.924,255.166
			c0,0,3.646-12.827,11.265-12.962c7.618-0.135,10.856,3.043,12.812,11.541c1.956,8.498-4.821,29.904-6.688,35.18
			c-1.867,5.275-6.952,18.309-6.952,18.309s8.211-46.79,7.6-53.556c-0.611-6.766-5.824-10.457-8.819-9.155
			c-2.995,1.302-9.13,12.192-9.13,12.192L238.924,255.166z"/>
		<g>
			<path style="fill:#FFFFFF;stroke:#263238;stroke-linecap:round;stroke-linejoin:round;stroke-miterlimit:10;" d="
				M276.404,206.765c0,0,4.218,3.31,4.109,6.472c-0.109,3.161-0.82,4.47-0.378,6.151c0.442,1.681,3.202,3.775,2.491,5.083
				c-0.711,1.308-2.547,1.412-2.547,1.412s-0.659,4.596-2.087,7.379c-1.428,2.783-4.033,0.328-5.559,1.108
				c-1.526,0.781-3.414,7.959-3.987,10.105c-0.573,2.146-1.09,2.628-0.493,4.648c0.597,2.02,2.652,5.255,2.652,5.255
				s-14.937-11.341-16.9-12.408c-1.962-1.067-3.621-1.291-2.1-1.905c1.52-0.614,8.698-5.865,9.575-11.999
				c0.877-6.134,4.679-19.831,7.382-20.904C271.263,206.089,275.584,206.404,276.404,206.765z"/>
			<path style="fill:#263238;" d="M277.839,218.805c-0.03,0.866-0.344,1.558-0.703,1.546s-0.625-0.724-0.595-1.59
				c0.03-0.866,0.344-1.558,0.703-1.546C277.602,217.227,277.869,217.939,277.839,218.805z"/>
			<path style="fill:none;stroke:#263238;stroke-linecap:round;stroke-linejoin:round;stroke-miterlimit:10;" d="M279.227,216.2
				c0,0-0.917-1.655-3.125-0.432"/>
			<path style="fill:none;stroke:#263238;stroke-linecap:round;stroke-linejoin:round;stroke-miterlimit:10;" d="M279.031,228.21
				c0,0-1.95,0.041-3.315-1.196"/>
		</g>
		<path style="fill:#263238;stroke:#263238;stroke-linecap:round;stroke-linejoin:round;stroke-miterlimit:10;" d="M283.07,205.182
			c-0.951-3.822-6.659-1.528-7.834-2.001c-1.174-0.473-11.846-4.953-19.679-0.676c-7.833,4.278-7.593,16.194-6.619,19.367
			c0,0-1.37,4.025-4.739,6.49c-3.37,2.465-7.038,6.797-5.979,10.119s2.393,5.479,2.393,5.479s-3.968-0.606-5.01,2.409
			c-1.042,3.015-0.141,7.857,2.371,8.001c2.511,0.144,3.984-2.073,6.706-2.605c2.596-0.508,7.439-7.775,8.837-9.56
			c3.178,0.194,7.171-0.108,10.61-2.382c6.535-4.322,2.472-7.284,5.882-18.317c3.41-11.033,6.26-13.742,6.26-13.742
			c0.872-0.187,4.389,4.589,4.389,4.589S284.021,209.003,283.07,205.182z"/>
		
			<rect x="245.717" y="307.171" transform="matrix(0.9994 0.0343 -0.0343 0.9994 11.2345 -8.9357)" style="fill:#878787;stroke:#263238;stroke-linecap:round;stroke-linejoin:round;stroke-miterlimit:10;" width="40.464" height="31.332"/>
		<g>
			<path style="fill:#FFFFFF;stroke:#263238;stroke-linecap:round;stroke-linejoin:round;stroke-miterlimit:10;" d="
				M259.742,248.973c0,0-1.172-5.754-6.037-7.003c-4.865-1.249-9.737,2.995-10.978,11.617c-1.241,8.622,2.393,40.413,2.686,41.053
				c0.293,0.64,12.203,34.605,12.203,34.605s0.257,10.879,0.875,11.215c0.619,0.336,2.784,1.513,4.048,1.399
				c1.264-0.114,3.787-0.185,3.787-0.185s0.293,0.64,1.563,0.369c1.27-0.271,2.42-1.65,2.42-1.65s0.087,2.051,1.221,1.145
				c1.134-0.906,1.492-2.154,2.338-3.858c0.846-1.704-2.942-6.088-3.859-6.907c-0.917-0.819-3.088-1.839-3.994-2.973
				c-0.906-1.134-9.599-37.037-9.599-37.037s1.896-23.094,2.047-27.499C258.615,258.859,260.231,253.086,259.742,248.973z"/>
			<path style="fill:#92E3A9;stroke:#263238;stroke-linecap:round;stroke-linejoin:round;stroke-miterlimit:10;" d="
				M258.592,261.469c0.412-4.095,1.575-8.922,1.15-12.496c0,0-1.172-5.754-6.037-7.003c-4.865-1.249-9.737,2.995-10.978,11.617
				c-0.243,1.69-0.297,4.278-0.228,7.34C245.969,260.039,253.078,258.778,258.592,261.469z"/>
			<path style="fill:#FFFFFF;stroke:#263238;stroke-linecap:round;stroke-linejoin:round;stroke-miterlimit:10;" d="
				M270.309,340.395c0,0,0.748-3.44,0.808-5.171"/>
		</g>
		<path style="fill:#FFFFFF;stroke:#263238;stroke-linecap:round;stroke-linejoin:round;stroke-miterlimit:10;" d="M233.747,251.097
			c-0.175-1.52,2.623,2.967,2.623,2.967l-1.361,0.204l2.964,0.102c0,0-2.643-5.605-5.009-5.528
			c-2.366,0.076-0.656,5.334-0.656,5.334l1.979,0.068C234.198,253.826,233.895,252.383,233.747,251.097z"/>
	</g>
</g>
<g id="Character_1">
	<g>
		<path style="fill:#FFFFFF;stroke:#263238;stroke-linecap:round;stroke-linejoin:round;stroke-miterlimit:10;" d="M110.404,442.241
			c0,0,6.585,6.105,9.178,8.006c2.593,1.902,13.656,5.013,14.521,5.532c0.864,0.519,2.939,4.84-3.803,5.532
			c-6.742,0.691-22.3-2.074-25.066-1.383c-2.766,0.691-8.643,1.556-11.063,0.346c-2.42-1.21-0.519-16.249-0.519-16.249
			S107.968,440.112,110.404,442.241z"/>
		<path style="fill:#263238;stroke:#263238;stroke-linecap:round;stroke-linejoin:round;stroke-miterlimit:10;" d="M127.357,328.822
			c0,0-3.343,35.578-7.163,48.949c-3.82,13.371-7.88,31.041-8.357,32.474c-0.478,1.433-2.627,21.729-2.627,21.729
			s1.671,1.433,1.671,2.149c0,0.716-0.478,8.118-0.478,8.118l-6.208-0.716c0,0-0.716-7.641-0.716-15.759
			c0-8.118,5.969-62.798,6.925-66.858s5.731-31.041,5.731-31.041L127.357,328.822z"/>
		<g>
			<path style="fill:#FFFFFF;stroke:#263238;stroke-linecap:round;stroke-linejoin:round;stroke-miterlimit:10;" d="
				M107.827,440.913c0,0,4.495,7.26,7.26,9.681c2.766,2.42,15.039,5.705,16.768,6.223c1.729,0.519,1.902,1.901,1.729,4.149
				c-0.173,2.247-6.569,3.803-18.67,4.322c-12.101,0.519-22.127-0.346-24.201-0.691c-2.074-0.346-2.766-1.729-2.074-4.667
				c0.691-2.939,2.593-14.175,2.593-14.175L107.827,440.913z"/>
			<path style="fill:#FFFFFF;stroke:#263238;stroke-linecap:round;stroke-linejoin:round;stroke-miterlimit:10;" d="
				M104.024,461.484l-15.178-2.505c-0.077,0.37-0.147,0.693-0.207,0.949c-0.691,2.939,0,4.322,2.074,4.667
				c2.074,0.346,12.101,1.21,24.201,0.691c12.101-0.519,18.497-2.074,18.67-4.322c0.056-0.731,0.068-1.362,0.009-1.91
				c-2.779,0.73-6.309,1.679-8.134,2.256C122.175,462.348,104.024,461.484,104.024,461.484z"/>
		</g>
		<path style="fill:#263238;stroke:#263238;stroke-linecap:round;stroke-linejoin:round;stroke-miterlimit:10;" d="M91.78,332.881
			l1.433,52.531c0,0-4.059,5.969-3.104,20.296s2.149,33.668,2.149,33.668l-2.149,2.149l0.478,6.447c0,0,3.82,0,7.402-0.955
			c3.582-0.955,8.357-3.582,8.357-3.582s2.388-1.194,1.91-3.582c-0.478-2.388-1.91-3.582-1.433-5.492
			c0.478-1.91,6.686-49.188,7.402-53.008c0.716-3.82,7.88-43.219,7.88-43.219l2.865-11.461l-33.668,1.194L91.78,332.881z"/>
		<path style="fill:#92E3A9;stroke:#263238;stroke-linecap:round;stroke-linejoin:round;stroke-miterlimit:10;" d="M128.776,287.491
			c0,0,4.662,21.193,6.146,30.094c1.483,8.901,0,17.166,0,17.166h-9.113l-1.695-49.591L128.776,287.491z"/>
		<g>
			<path style="fill:#263238;stroke:#263238;stroke-linecap:round;stroke-linejoin:round;stroke-miterlimit:10;" d="M90.403,239.173
				c0,0-7.153-0.333-8.982,0.998c-1.83,1.331-9.648,10.313-10.812,11.478s-4.824,2.994-4.99,6.487
				c-0.166,3.493,2.329,19.462,3.826,23.454c1.497,3.992-0.832,2.994-0.832,5.489c0,2.495,4.159,10.313,5.323,14.305
				c1.164,3.992,5.822,6.986,7.818,7.319c1.996,0.333,6.654,1.663,9.315-0.333c2.661-1.996,9.648-10.646,9.648-10.646
				s-5.305-50.323-5.822-52.73C94.378,242.589,94.229,239.007,90.403,239.173z"/>
			<path style="fill:#878787;stroke:#263238;stroke-linecap:round;stroke-linejoin:round;stroke-miterlimit:10;" d="M78.925,262.96
				c-0.333-15.636-3.826-12.143-5.323-11.977c-0.644,0.072-1.779,0.297-2.865,0.531c-0.042,0.044-0.097,0.103-0.129,0.135
				c-1.164,1.164-4.824,2.994-4.99,6.487c-0.166,3.493,2.329,19.462,3.826,23.454c1.497,3.992-0.832,2.994-0.832,5.489
				c0,2.495,4.159,10.313,5.323,14.305c1.165,3.992,5.822,6.986,7.818,7.319c1.996,0.333,6.654,1.663,9.315-0.333
				c0.443-0.332,1.012-0.86,1.643-1.49c0.076-0.549,0.096-1.107,0.021-1.671C92.066,300.22,79.258,278.596,78.925,262.96z"/>
		</g>
		<path style="fill:#92E3A9;stroke:#263238;stroke-linecap:round;stroke-linejoin:round;stroke-miterlimit:10;" d="M114.661,241.893
			c0,0,7.614,6.732,8.497,9.049c0.883,2.317,17.877,23.174,19.201,24.829c1.324,1.655,0.662,2.979,0,3.973
			c-0.662,0.993-16.774,4.635-18.208,2.98s-3.421-15.67-4.635-22.512c-1.214-6.842-9.049-16.553-9.049-18.319
			C110.468,240.128,114.661,241.893,114.661,241.893z"/>
		<path style="fill:#92E3A9;stroke:#263238;stroke-linecap:round;stroke-linejoin:round;stroke-miterlimit:10;" d="M136.952,276.213
			c0,0,2.98-1.655,3.973-1.545c0.993,0.11,4.193,2.207,5.076,5.186s2.207,5.738-0.221,8.276c-2.428,2.538-7.945,3.862-9.932,3.2
			c-1.986-0.662-4.304-3.311-3.973-4.525C132.207,285.593,136.952,276.213,136.952,276.213z"/>
		<path style="fill:#FFFFFF;stroke:#263238;stroke-linecap:round;stroke-linejoin:round;stroke-miterlimit:10;" d="M111.752,237.632
			l2.578,0.841c0,0,3.311,4.083,2.538,4.524c-0.773,0.441-6.621-2.207-6.621-2.207L111.752,237.632z"/>
		<path style="fill:#FFFFFF;stroke:#263238;stroke-linecap:round;stroke-linejoin:round;stroke-miterlimit:10;" d="M109.205,238.733
			c0,0,11.728,10.628,13.01,14.293c1.283,3.665,9.529,79.162,9.529,79.162l-40.314-2.199l8.246-39.031l-8.979-49.11l9.895-6.78
			L109.205,238.733z"/>
		<path style="fill:#92E3A9;stroke:#263238;stroke-linecap:round;stroke-linejoin:round;stroke-miterlimit:10;" d="M109.205,238.733
			c0,0,6.414,12.461,8.063,20.157c1.649,7.696-0.367,75.863-0.367,75.863l-31.335,0.367l5.497-37.382c0,0-7.33-49.659-6.414-52.958
			s8.979-9.712,8.979-9.712L109.205,238.733z"/>
		<path style="fill:#263238;stroke:#263238;stroke-linecap:round;stroke-linejoin:round;stroke-miterlimit:10;" d="M85.413,243.332
			c0,0,5.323-3.992,11.145-1.331c5.822,2.661,7.317,9.686,7.65,12.495c0.334,2.809,2.995,10.46-0.331,18.278
			c-3.327,7.818-13.973,19.129-13.973,19.129l-0.166,12.143c0,0,5.323-11.477,9.98-17.798c4.658-6.321,12.475-24.119,10.479-32.104
			c-1.996-7.984-6.155-13.307-11.311-15.802c-5.157-2.495-8.151-1.497-8.151-1.497S85.413,241.336,85.413,243.332z"/>
		<g>
			<path style="fill:#FFFFFF;stroke:#263238;stroke-linecap:round;stroke-linejoin:round;stroke-miterlimit:10;" d="M114.66,201.736
				c0,0,3.957,4.093,3.921,5.372c-0.035,1.279-0.88,2.428-0.502,3.33c0.378,0.902,2.977,3.117,3.186,4.151
				c0.209,1.034-2.045,2.956-2.045,2.956s1.818,7.068,1.558,9.175c-0.26,2.107-5.75,2.53-6.483,2.776
				c-0.733,0.246-2.543,5.067-2.543,8.136c0,3.069-0.096,3.644-0.096,3.644l-14.96-8.055c0,0,0.482-4.673-0.424-6.74
				c-0.906-2.067-4.789-6.762-7.37-9.372c-2.581-2.61-1.667-6.805-1.667-6.805s-1.315,0.755-2.105,0.718
				c-0.79-0.036-0.195-3.874-0.195-3.874s-2.329,2.035-1.899,0.285c0.429-1.75,3.92-6.27,8.635-9.08
				c4.716-2.811,10.95-5.685,11.439-5.686c0.489-0.001-2.747-0.522-0.322-1.109c2.425-0.587,7.191,1.046,9.075,3.111
				c1.884,2.066,2.15,3.382,2.15,3.382s-1.645-4.755,0.768-2.014C117.194,198.779,114.66,201.736,114.66,201.736z"/>
			<path style="fill:#263238;stroke:#263238;stroke-linecap:round;stroke-linejoin:round;stroke-miterlimit:10;" d="
				M114.782,196.037c-2.019-2.295-1.198,0.655-0.876,1.68c-0.191-0.51-0.707-1.585-2.042-3.048c-1.884-2.066-6.65-3.699-9.075-3.111
				c-2.425,0.587,0.811,1.108,0.322,1.109c-0.489,0.001-5.154,0.384-9.87,3.195c-4.716,2.811-9.775,9.822-10.204,11.572
				c-0.43,1.75,1.899-0.286,1.899-0.286s-0.595,3.838,0.195,3.874c0.79,0.036,2.105-0.718,2.105-0.718s-0.914,4.196,1.667,6.805
				c1.941,1.962,4.617,5.103,6.211,7.42c0.58-0.472,1.215-1.122,1.378-1.81c0.317-1.336-1.376-1.972-1.589-5.451
				s2.31-2.129,3.343-2.338c1.034-0.209,2.711,1.312,3.557,1.141c0.846-0.171,0,0,1.07-0.999c1.07-0.999-0.19-1.429-0.418-2.557
				c-0.228-1.128,1.368-2.917,2.003-5.1c0.636-2.183-0.454-1.767-0.587-2.425c-0.133-0.658,6.277-2.343,7.819-2.459
				c1.542-0.116,2.97-0.795,2.97-0.795S117.194,198.779,114.782,196.037z"/>
			<path style="fill:none;stroke:#263238;stroke-linecap:round;stroke-linejoin:round;stroke-miterlimit:10;" d="M115.97,207.971
				c0,0-1.672-0.426-2.912,0.216c-1.24,0.642-1.834,1.186-1.834,1.186"/>
			<path style="fill:#263238;" d="M115.269,211.543c0.141,0.701-0.144,1.35-0.637,1.449c-0.493,0.1-1.008-0.388-1.149-1.089
				c-0.141-0.701,0.144-1.35,0.637-1.449C114.614,210.355,115.128,210.842,115.269,211.543z"/>
			<path style="fill:none;stroke:#263238;stroke-linecap:round;stroke-linejoin:round;stroke-miterlimit:10;" d="M118.415,219.86
				c0,0-2.406,0.681-4.27-0.312"/>
			<path style="fill:#FFFFFF;stroke:#263238;stroke-linecap:round;stroke-linejoin:round;stroke-miterlimit:10;" d="M99.602,216.319
				c0,0-1.922-2.254-3.745-1.592c-1.823,0.661-0.595,3.838,0.95,5.678c1.545,1.84,2.882,2.647,4.29,0.895"/>
			<path style="fill:#263238;stroke:#263238;stroke-linecap:round;stroke-linejoin:round;stroke-miterlimit:10;" d="
				M114.295,229.496l-4.269,0.177l3.146,2.985C113.172,232.658,113.769,229.798,114.295,229.496z"/>
		</g>
		<polygon style="fill:#92E3A9;stroke:#263238;stroke-linecap:round;stroke-linejoin:round;stroke-miterlimit:10;" points="
			95.278,230.854 93.629,235.068 107.739,244.414 111.752,237.632 		"/>
		<path style="fill:#FFFFFF;stroke:#263238;stroke-linecap:round;stroke-linejoin:round;stroke-miterlimit:10;" d="M116.206,291.442
			c0,0,7.504,2.207,10.263,1.214s6.731-4.635,7.394-5.738c0.662-1.103-1.104-3.973-1.655-4.414c-0.552-0.441-2.649-0.11-3.862-0.662
			c-1.214-0.552-2.538-1.104-3.421-1.655c-0.883-0.552-2.869-1.545-2.869-1.545L116.206,291.442z"/>
		<path style="fill:#FFFFFF;stroke:#263238;stroke-linecap:round;stroke-linejoin:round;stroke-miterlimit:10;" d="M125.807,275.441
			c0,0,1.104-5.738,1.435-6.18s2.428-3.973,3.2-3.642c0.772,0.331,0.883,0.11,0.552,1.104c-0.331,0.993-0.993,2.317-1.104,2.869
			c-0.11,0.552-0.221,1.876-0.221,2.207c0,0.331,1.986-3.862,2.538-4.414c0.552-0.552,1.876,0,1.876,0.773
			c0,0.772-1.986,4.855-2.097,5.186c-0.11,0.331,2.538-3.09,3.531-3.09c0.993,0,2.097,0.441,1.986,1.104
			c-0.11,0.662-1.104,0.993-1.435,1.324c-0.331,0.331-1.435,2.428-1.435,2.428s2.648-2.759,3.311-1.766
			c0.662,0.993-0.993,2.869-0.993,2.869l-0.552,0.772L125.807,275.441z"/>
		<path style="fill:#FFFFFF;stroke:#263238;stroke-linecap:round;stroke-linejoin:round;stroke-miterlimit:10;" d="M117.861,276.986
			c0,0,2.98-1.655,4.745-1.876s13.463,0.221,15.339,0.662c1.876,0.441,4.635,1.986,4.414,6.952c-0.221,4.966-5.407,6.18-6.4,6.29
			c-0.993,0.11-5.738-3.642-7.504-4.525c-1.766-0.883-8.276-3.862-8.276-3.862l-3.31-1.435L117.861,276.986z"/>
		<path style="fill:#92E3A9;stroke:#263238;stroke-linecap:round;stroke-linejoin:round;stroke-miterlimit:10;" d="M94.378,242.589
			c0,0,3.6,1.385,5.677,4.431c2.077,3.046,4.154,7.477,4.154,7.477l16.199,21.461c0,0-0.415,9.553-3.046,11.907
			c-2.631,2.354-7.338,3.185-7.338,3.185l-16.476-16.615c0,0-5.261-1.661-6.507-3.6c-1.246-1.938-5.815-13.292-4.984-20.215
			c0.831-6.923,7.061-8.861,7.061-8.861"/>
		<path style="fill:#92E3A9;stroke:#263238;stroke-linecap:round;stroke-linejoin:round;stroke-miterlimit:10;" d="M119.577,274.987
			c0,0-0.138,2.908-2.354,6.923c-2.215,4.015-4.292,6.646-4.708,6.784c-0.415,0.139-2.492,2.354-2.492,2.354
			s4.015,1.523,4.707,1.523s4.569-1.523,6.923-4.846c2.354-3.323,2.354-7.754,1.523-10.107
			C122.346,275.264,120.546,274.018,119.577,274.987z"/>
	</g>
</g>
</svg>
