<?xml version="1.0" encoding="utf-8"?>
<!-- Generator: Adobe Illustrator 16.0.0, SVG Export Plug-In . SVG Version: 6.00 Build 0)  -->
<!DOCTYPE svg PUBLIC "-//W3C//DTD SVG 1.1//EN" "http://www.w3.org/Graphics/SVG/1.1/DTD/svg11.dtd">
<svg version="1.1" xmlns="http://www.w3.org/2000/svg" xmlns:xlink="http://www.w3.org/1999/xlink" x="0px" y="0px" width="500px"
	 height="500px" viewBox="0 0 500 500" enable-background="new 0 0 500 500" xml:space="preserve">
<g id="Background_Simple">
	<g>
		<path fill="#92E3A9" d="M130.631,467.407c0,0-95.048-72.204-117.469-184.84C-9.259,169.933,82.863,147.223,136.896,109.052
			c54.032-38.171,73.92-81.124,152.212-83.76c78.292-2.636,118.793,26.373,147.061,82.583
			c28.268,56.209,43.363,113.93,52.248,170.263c8.885,56.332,4.517,101.327-45.738,123.772
			c-50.255,22.444-73.578,12.599-97.45,38.445S212.403,524.707,130.631,467.407z"/>
		<path opacity="0.7" fill="#FFFFFF" d="M130.631,467.407c0,0-95.048-72.204-117.469-184.84
			C-9.259,169.933,82.863,147.223,136.896,109.052c54.032-38.171,73.92-81.124,152.212-83.76
			c78.292-2.636,118.793,26.373,147.061,82.583c28.268,56.209,43.363,113.93,52.248,170.263
			c8.885,56.332,4.517,101.327-45.738,123.772c-50.255,22.444-73.578,12.599-97.45,38.445S212.403,524.707,130.631,467.407z"/>
	</g>
</g>
<g id="Floor">
	<g>
		
			<line fill="none" stroke="#263238" stroke-linecap="round" stroke-linejoin="round" stroke-miterlimit="10" x1="465.345" y1="465.623" x2="481.594" y2="465.623"/>
		
			<line fill="none" stroke="#263238" stroke-linecap="round" stroke-linejoin="round" stroke-miterlimit="10" x1="37.394" y1="465.623" x2="456.16" y2="465.623"/>
		
			<line fill="none" stroke="#263238" stroke-linecap="round" stroke-linejoin="round" stroke-miterlimit="10" x1="17.433" y1="465.623" x2="31.697" y2="465.623"/>
	</g>
</g>
<g id="Plant">
	<g>
		<path fill="none" stroke="#263238" stroke-linecap="round" stroke-miterlimit="10" d="M88.367,221.451
			c0,0-11.726-6.515-12.595,8.251c-0.869,14.766-3.04,158.149-3.04,158.149"/>
		<path fill="none" stroke="#263238" stroke-linecap="round" stroke-miterlimit="10" d="M69.682,231.004
			c0,0,9.564,68.687,5.221,155.545"/>
		<g>
			<path fill="#92E3A9" d="M79.078,224.423c0,0-4.485,2.874-7.038-0.416c-2.552-3.289,1.727-9.314-2.044-11.891
				s-10.281,1.355-10.281,1.355s5.014,1.473,4.852,4.21s-2.577,3.771-2.898,2.575c-0.322-1.196-2.712-7.222-6.784-4.716
				c-4.071,2.506-4.693,6.393-4.693,6.393s9.476-1.011,10.05,2.554c0.575,3.565-3.887-0.622-7.796-0.852s-7.475,0.344-7.222,2.712
				c0.252,2.369-0.369,6.256-0.369,6.256s3.313-2.943,7.613-2.689c4.301,0.253,4.139,2.99,0.229,2.76
				c-3.91-0.231-7.268,3.495-7.268,3.495s3.563,6.095,8.094,9.109s6.164,1.933,6.693-0.39c0.529-2.322-0.688-8.279,2.048-8.118
				c2.737,0.162-4.532,10.326-1.037,10.924s6.302-0.413,7.222-2.712c0.92-2.3,0.92-2.3,0.92-2.3s-1.218-5.957-0.688-8.28
				s1.173,0.069,1.793,2.852c0.621,2.783,1.01,9.476,2.207,9.154c1.196-0.322,5.015-5.197,5.912-7.106
				c0.897-1.909-5.035-7.751-4.966-8.924c0.069-1.173,4.646,1.059,5.358,2.278c0.713,1.219,1.403,2.829,1.403,2.829
				s2.852-1.793,2.784-7.29C83.104,222.699,79.078,224.423,79.078,224.423z"/>
			<path opacity="0.3" fill="#263238" d="M79.078,224.423c0,0-4.485,2.874-7.038-0.416c-2.552-3.289,1.727-9.314-2.044-11.891
				s-10.281,1.355-10.281,1.355s5.014,1.473,4.852,4.21s-2.577,3.771-2.898,2.575c-0.322-1.196-2.712-7.222-6.784-4.716
				c-4.071,2.506-4.693,6.393-4.693,6.393s9.476-1.011,10.05,2.554c0.575,3.565-3.887-0.622-7.796-0.852s-7.475,0.344-7.222,2.712
				c0.252,2.369-0.369,6.256-0.369,6.256s3.313-2.943,7.613-2.689c4.301,0.253,4.139,2.99,0.229,2.76
				c-3.91-0.231-7.268,3.495-7.268,3.495s3.563,6.095,8.094,9.109s6.164,1.933,6.693-0.39c0.529-2.322-0.688-8.279,2.048-8.118
				c2.737,0.162-4.532,10.326-1.037,10.924s6.302-0.413,7.222-2.712c0.92-2.3,0.92-2.3,0.92-2.3s-1.218-5.957-0.688-8.28
				s1.173,0.069,1.793,2.852c0.621,2.783,1.01,9.476,2.207,9.154c1.196-0.322,5.015-5.197,5.912-7.106
				c0.897-1.909-5.035-7.751-4.966-8.924c0.069-1.173,4.646,1.059,5.358,2.278c0.713,1.219,1.403,2.829,1.403,2.829
				s2.852-1.793,2.784-7.29C83.104,222.699,79.078,224.423,79.078,224.423z"/>
			<path fill="none" stroke="#263238" stroke-linecap="round" stroke-miterlimit="10" d="M56.339,237.312
				c2.925-3.616,7.236-8.509,10.848-10.844"/>
			<path fill="none" stroke="#263238" stroke-linecap="round" stroke-miterlimit="10" d="M52.949,241.714
				c0,0,0.751-1.044,1.968-2.609"/>
			<path fill="none" stroke="#263238" stroke-linecap="round" stroke-miterlimit="10" d="M69.096,227.365
				c0,0,4.346,6.142,5.15,12.466"/>
			<path fill="none" stroke="#263238" stroke-linecap="round" stroke-miterlimit="10" d="M64.174,230.998
				c0,0,1.219-0.712,0.757,7.107"/>
			<path fill="none" stroke="#263238" stroke-linecap="round" stroke-miterlimit="10" d="M67.349,223.731
				c0,0,2.484-2.208,1.174-6.601"/>
			
				<line fill="none" stroke="#263238" stroke-linecap="round" stroke-miterlimit="10" x1="63.991" y1="227.457" x2="62.22" y2="224.213"/>
			<path fill="none" stroke="#263238" stroke-linecap="round" stroke-miterlimit="10" d="M60.264,230.768
				c0,0-5.634-4.256-9.153-4.463"/>
		</g>
		<g>
			<path fill="#92E3A9" d="M95.065,212.835c0,0-0.179,6.45-5.212,6.763s-8.148-8.077-13.299-6.058
				c-5.15,2.02-5.651,11.217-5.651,11.217s4.892-4.016,7.522-1.988c2.63,2.027,2.02,5.15,0.603,4.657
				c-1.417-0.493-9.08-2.207-9.346,3.578c-0.266,5.784,3.202,9.056,3.202,9.056s5.447-10.176,9.408-8.321
				c3.961,1.854-3.271,3.467-6.167,7.225s-4.751,7.718-2.207,9.08s6.012,4.633,6.012,4.633s-0.689-5.322,2.497-9.455
				c3.186-4.133,5.815-2.106,2.919,1.651c-2.896,3.757-1.455,9.659-1.455,9.659s8.532,0.587,14.637-1.896
				c6.105-2.481,6.137-4.853,4.172-6.966s-8.759-4.954-6.732-7.584c2.027-2.63,7.249,11.576,10.231,8.484
				c2.982-3.092,3.882-6.591,2.207-9.08c-1.675-2.489-1.675-2.489-1.675-2.489s-6.794-2.841-8.759-4.954s0.869-1.127,4.078,0.148
				c3.209,1.276,10.176,5.447,10.669,4.031c0.493-1.417-1.785-8.563-3.085-10.763c-1.299-2.199-11.193-0.242-12.32-1.111
				c-1.127-0.869,4.227-3.929,5.933-3.812s3.789,0.524,3.789,0.524s0.148-4.078-5.401-7.757S95.065,212.835,95.065,212.835z"/>
			<path opacity="0.2" fill="#263238" d="M95.065,212.835c0,0-0.179,6.45-5.212,6.763s-8.148-8.077-13.299-6.058
				c-5.15,2.02-5.651,11.217-5.651,11.217s4.892-4.016,7.522-1.988c2.63,2.027,2.02,5.15,0.603,4.657
				c-1.417-0.493-9.08-2.207-9.346,3.578c-0.266,5.784,3.202,9.056,3.202,9.056s5.447-10.176,9.408-8.321
				c3.961,1.854-3.271,3.467-6.167,7.225s-4.751,7.718-2.207,9.08s6.012,4.633,6.012,4.633s-0.689-5.322,2.497-9.455
				c3.186-4.133,5.815-2.106,2.919,1.651c-2.896,3.757-1.455,9.659-1.455,9.659s8.532,0.587,14.637-1.896
				c6.105-2.481,6.137-4.853,4.172-6.966s-8.759-4.954-6.732-7.584c2.027-2.63,7.249,11.576,10.231,8.484
				c2.982-3.092,3.882-6.591,2.207-9.08c-1.675-2.489-1.675-2.489-1.675-2.489s-6.794-2.841-8.759-4.954s0.869-1.127,4.078,0.148
				c3.209,1.276,10.176,5.447,10.669,4.031c0.493-1.417-1.785-8.563-3.085-10.763c-1.299-2.199-11.193-0.242-12.32-1.111
				c-1.127-0.869,4.227-3.929,5.933-3.812s3.789,0.524,3.789,0.524s0.148-4.078-5.401-7.757S95.065,212.835,95.065,212.835z"/>
			<path fill="none" stroke="#263238" stroke-linecap="round" stroke-miterlimit="10" d="M92.47,244.387
				c-1.626-5.393-3.587-13.044-3.463-18.252"/>
			<path fill="none" stroke="#263238" stroke-linecap="round" stroke-miterlimit="10" d="M94.566,250.782
				c0,0-0.534-1.464-1.271-3.749"/>
			<path fill="none" stroke="#263238" stroke-linecap="round" stroke-miterlimit="10" d="M91.207,224.835
				c0,0,9.111-0.165,15.991,3.341"/>
			<path fill="none" stroke="#263238" stroke-linecap="round" stroke-miterlimit="10" d="M91.489,232.239
				c0,0,0.117-1.706,7.632,4.085"/>
			<path fill="none" stroke="#263238" stroke-linecap="round" stroke-miterlimit="10" d="M86.377,224.107
				c0,0-0.517-3.992-5.808-5.674"/>
			
				<line fill="none" stroke="#263238" stroke-linecap="round" stroke-miterlimit="10" x1="87.818" y1="230.009" x2="83.364" y2="229.571"/>
			<path fill="none" stroke="#263238" stroke-linecap="round" stroke-miterlimit="10" d="M88.593,235.997
				c0,0-8.101,2.74-10.708,6.122"/>
		</g>
		<path fill="none" stroke="#263238" stroke-linecap="round" stroke-miterlimit="10" d="M41.029,255.76
			c0,0,28.045,22.781,25.189,129.92"/>
		<g>
			<path fill="#92E3A9" d="M72.621,251.285c0,0-0.816,7.426-6.653,7.313c-5.837-0.113-8.64-10.09-14.774-8.245
				s-7.58,12.41-7.58,12.41s6.024-4.172,8.868-1.585c2.844,2.588,1.844,6.134,0.256,5.431c-1.588-0.702-10.269-3.403-11.122,3.247
				c-0.853,6.649,2.84,10.752,2.84,10.752s7.247-11.229,11.642-8.714c4.396,2.514-4.103,3.692-7.799,7.755s-6.21,8.457-3.403,10.269
				s6.5,5.914,6.5,5.914s-0.292-6.206,3.773-10.675c4.066-4.469,6.91-1.881,3.213,2.181c-3.696,4.063-2.591,11.009-2.591,11.009
				s9.79,1.482,17.068-0.806c7.279-2.287,7.539-5.021,5.472-7.645c-2.068-2.624-9.64-6.544-7.053-9.388
				c2.587-2.843,7.272,14.043,11.005,10.756c3.733-3.286,5.102-7.238,3.404-10.269c-1.698-3.03-1.698-3.03-1.698-3.03
				s-7.572-3.92-9.64-6.544s1.109-1.219,4.692,0.557c3.583,1.775,11.228,7.246,11.931,5.658c0.702-1.589-1.252-10.05-2.544-12.71
				c-1.292-2.661-12.893-1.336-14.112-2.445c-1.218-1.108,5.248-4.136,7.206-3.839s4.322,0.963,4.322,0.963s0.556-4.692-5.5-9.461
				C74.286,245.375,72.621,251.285,72.621,251.285z"/>
			<path opacity="0.3" fill="#263238" d="M72.621,251.285c0,0-0.816,7.426-6.653,7.313c-5.837-0.113-8.64-10.09-14.774-8.245
				s-7.58,12.41-7.58,12.41s6.024-4.172,8.868-1.585c2.844,2.588,1.844,6.134,0.256,5.431c-1.588-0.702-10.269-3.403-11.122,3.247
				c-0.853,6.649,2.84,10.752,2.84,10.752s7.247-11.229,11.642-8.714c4.396,2.514-4.103,3.692-7.799,7.755s-6.21,8.457-3.403,10.269
				s6.5,5.914,6.5,5.914s-0.292-6.206,3.773-10.675c4.066-4.469,6.91-1.881,3.213,2.181c-3.696,4.063-2.591,11.009-2.591,11.009
				s9.79,1.482,17.068-0.806c7.279-2.287,7.539-5.021,5.472-7.645c-2.068-2.624-9.64-6.544-7.053-9.388
				c2.587-2.843,7.272,14.043,11.005,10.756c3.733-3.286,5.102-7.238,3.404-10.269c-1.698-3.03-1.698-3.03-1.698-3.03
				s-7.572-3.92-9.64-6.544s1.109-1.219,4.692,0.557c3.583,1.775,11.228,7.246,11.931,5.658c0.702-1.589-1.252-10.05-2.544-12.71
				c-1.292-2.661-12.893-1.336-14.112-2.445c-1.218-1.108,5.248-4.136,7.206-3.839s4.322,0.963,4.322,0.963s0.556-4.692-5.5-9.461
				C74.286,245.375,72.621,251.285,72.621,251.285z"/>
			<path fill="none" stroke="#263238" stroke-linecap="round" stroke-miterlimit="10" d="M66.649,287.448
				c-1.368-6.376-2.908-15.39-2.273-21.389"/>
			<path fill="none" stroke="#263238" stroke-linecap="round" stroke-miterlimit="10" d="M68.464,295.026
				c0,0-0.478-1.739-1.112-4.446"/>
			<path fill="none" stroke="#263238" stroke-linecap="round" stroke-miterlimit="10" d="M67.037,264.768
				c0,0,10.529,0.67,18.137,5.365"/>
			<path fill="none" stroke="#263238" stroke-linecap="round" stroke-miterlimit="10" d="M66.663,273.339
				c0,0,0.296-1.958,8.421,5.435"/>
			<path fill="none" stroke="#263238" stroke-linecap="round" stroke-miterlimit="10" d="M61.532,263.473
				c0,0-0.219-4.655-6.167-7.097"/>
			
				<line fill="none" stroke="#263238" stroke-linecap="round" stroke-miterlimit="10" x1="62.638" y1="270.419" x2="57.54" y2="269.492"/>
			<path fill="none" stroke="#263238" stroke-linecap="round" stroke-miterlimit="10" d="M62.967,277.401
				c0,0-9.606,2.396-12.933,6.053"/>
		</g>
		<g>
			<path fill="#92E3A9" d="M72.621,323.628c0,0-0.816,7.426-6.653,7.313c-5.837-0.113-8.64-10.09-14.774-8.245
				c-6.134,1.844-7.58,12.41-7.58,12.41s6.024-4.173,8.868-1.585c2.844,2.587,1.844,6.134,0.256,5.431
				c-1.588-0.702-10.269-3.403-11.122,3.246c-0.853,6.649,2.84,10.752,2.84,10.752s7.247-11.228,11.642-8.713
				c4.396,2.514-4.103,3.692-7.799,7.755c-3.696,4.062-6.21,8.457-3.403,10.269s6.5,5.914,6.5,5.914s-0.292-6.207,3.773-10.675
				c4.066-4.469,6.91-1.882,3.213,2.181s-2.591,11.009-2.591,11.009s9.79,1.481,17.068-0.806c7.279-2.287,7.539-5.021,5.472-7.645
				c-2.068-2.624-9.64-6.544-7.053-9.388c2.587-2.844,7.272,14.043,11.005,10.756c3.733-3.286,5.102-7.239,3.404-10.269
				c-1.698-3.03-1.698-3.03-1.698-3.03s-7.572-3.92-9.64-6.544s1.109-1.219,4.692,0.557c3.583,1.774,11.228,7.246,11.931,5.657
				c0.702-1.588-1.252-10.049-2.544-12.71c-1.292-2.66-12.893-1.336-14.112-2.444c-1.218-1.109,5.248-4.136,7.206-3.839
				c1.958,0.296,4.322,0.962,4.322,0.962s0.556-4.691-5.5-9.46C74.286,317.718,72.621,323.628,72.621,323.628z"/>
			<path opacity="0.3" fill="#263238" d="M72.621,323.628c0,0-0.816,7.426-6.653,7.313c-5.837-0.113-8.64-10.09-14.774-8.245
				c-6.134,1.844-7.58,12.41-7.58,12.41s6.024-4.173,8.868-1.585c2.844,2.587,1.844,6.134,0.256,5.431
				c-1.588-0.702-10.269-3.403-11.122,3.246c-0.853,6.649,2.84,10.752,2.84,10.752s7.247-11.228,11.642-8.713
				c4.396,2.514-4.103,3.692-7.799,7.755c-3.696,4.062-6.21,8.457-3.403,10.269s6.5,5.914,6.5,5.914s-0.292-6.207,3.773-10.675
				c4.066-4.469,6.91-1.882,3.213,2.181s-2.591,11.009-2.591,11.009s9.79,1.481,17.068-0.806c7.279-2.287,7.539-5.021,5.472-7.645
				c-2.068-2.624-9.64-6.544-7.053-9.388c2.587-2.844,7.272,14.043,11.005,10.756c3.733-3.286,5.102-7.239,3.404-10.269
				c-1.698-3.03-1.698-3.03-1.698-3.03s-7.572-3.92-9.64-6.544s1.109-1.219,4.692,0.557c3.583,1.774,11.228,7.246,11.931,5.657
				c0.702-1.588-1.252-10.049-2.544-12.71c-1.292-2.66-12.893-1.336-14.112-2.444c-1.218-1.109,5.248-4.136,7.206-3.839
				c1.958,0.296,4.322,0.962,4.322,0.962s0.556-4.691-5.5-9.46C74.286,317.718,72.621,323.628,72.621,323.628z"/>
			<path fill="none" stroke="#263238" stroke-linecap="round" stroke-miterlimit="10" d="M66.649,359.791
				c-1.368-6.377-2.908-15.391-2.273-21.389"/>
			<path fill="none" stroke="#263238" stroke-linecap="round" stroke-miterlimit="10" d="M68.464,367.369
				c0,0-0.478-1.74-1.112-4.446"/>
			<path fill="none" stroke="#263238" stroke-linecap="round" stroke-miterlimit="10" d="M67.037,337.11
				c0,0,10.529,0.67,18.137,5.365"/>
			<path fill="none" stroke="#263238" stroke-linecap="round" stroke-miterlimit="10" d="M66.663,345.682
				c0,0,0.296-1.958,8.421,5.435"/>
			<path fill="none" stroke="#263238" stroke-linecap="round" stroke-miterlimit="10" d="M61.532,335.814
				c0,0-0.219-4.654-6.167-7.096"/>
			
				<line fill="none" stroke="#263238" stroke-linecap="round" stroke-miterlimit="10" x1="62.638" y1="342.761" x2="57.54" y2="341.835"/>
			<path fill="none" stroke="#263238" stroke-linecap="round" stroke-miterlimit="10" d="M62.967,349.744
				c0,0-9.606,2.396-12.933,6.053"/>
		</g>
		<path fill="none" stroke="#263238" stroke-linecap="round" stroke-miterlimit="10" d="M51.018,307.44c0,0,16.503,60,18.24,78.674
			l-3.474-109.942"/>
		<path fill="none" stroke="#263238" stroke-linecap="round" stroke-miterlimit="10" d="M90.972,298.32
			c-21.715-3.908-21.715,87.794-21.715,87.794"/>
		<path fill="none" stroke="#263238" stroke-linecap="round" stroke-miterlimit="10" d="M71.863,385.68
			c0,0-12.594-139.04,23.886-139.04"/>
		<g>
			<path fill="#92E3A9" d="M82.698,295.687c-2.966-3.337-9.27-3.337-12.977,5.19s-0.371,7.045-0.371,7.045s7.044-2.225,11.494-3.708
				s10.381-5.19,10.752-2.966c0.371,2.225-2.966,4.449-7.044,5.19s-14.831,3.708-13.718,5.933s3.708,8.898,3.708,8.898
				s5.191-4.449,10.011-7.416c4.82-2.966,7.786-1.854,5.191,1.483c-2.596,3.337-10.011,7.045-8.528,11.494
				c1.483,4.449,10.381,10.01,10.381,10.01s1.112-9.269,3.708-12.234c2.595-2.967,2.595,0.37,1.854,5.562
				c-0.741,5.19-0.741,6.673-0.741,6.673l10.381,3.708c0,0,3.708-5.562,5.562-7.415c1.854-1.854,1.854-1.854,1.854-1.854
				s-8.157-7.045-8.527-11.494c-0.371-4.449,5.562,0,7.415,0.741c1.854,0.742,4.82,5.933,4.82,5.933s1.854-8.527,2.225-11.494
				c0.371-2.966,0.371-2.966,0.371-2.966s-7.786-2.966-10.752-2.966c-2.966,0-4.449,2.225-4.449-0.742
				c0-2.966,2.966-4.819,6.303-4.449c3.337,0.371,8.898,2.225,8.898,2.225s2.225-1.854,1.483-7.415s-2.595-5.562-7.044-4.078
				c-4.449,1.482-7.416,4.819-10.752,4.819s-1.483-4.078,0.742-5.19s7.786-3.337,8.898-3.707c1.112-0.371-5.932-5.562-9.64-6.304
				c-3.708-0.741-8.508,1.871-8.157,5.562C96.787,297.54,85.664,299.023,82.698,295.687z"/>
			<path fill="none" stroke="#263238" stroke-linecap="round" stroke-miterlimit="10" d="M106.565,333.861
				c0.11,1.117,0.189,2.235,0.232,3.351"/>
			<path fill="none" stroke="#263238" stroke-linecap="round" stroke-miterlimit="10" d="M99.117,307.245
				c2.604,6.018,5.615,14.315,6.979,22.975"/>
			<path fill="none" stroke="#263238" stroke-linecap="round" stroke-miterlimit="10" d="M97.782,304.269
				c-1.837-3.95-3.219-6.357-3.219-6.357s3.337-1.483,4.82-4.449s3.708-4.449,3.708-4.449"/>
			<path fill="none" stroke="#263238" stroke-linecap="round" stroke-miterlimit="10" d="M81.585,310.517
				c0,0,13.348-5.562,13.348-4.449"/>
			<path fill="none" stroke="#263238" stroke-linecap="round" stroke-miterlimit="10" d="M102.349,303.473
				c0,0,5.932-2.967,11.123-2.967"/>
			<path fill="none" stroke="#263238" stroke-linecap="round" stroke-miterlimit="10" d="M100.124,312.371
				c0,0-3.337,2.595-7.044,7.044c-3.708,4.449-5.191,8.528-5.191,8.528"/>
			<path fill="none" stroke="#263238" stroke-linecap="round" stroke-miterlimit="10" d="M104.202,313.854
				c0,0,7.786-2.225,11.865,1.483"/>
		</g>
		<g>
			<path fill="#92E3A9" d="M118.306,263.756c-4.037-2.388-8.501-2.439-10.689-4.96c-2.188-2.52,2.108-3.793,4.406-2.843
				c2.298,0.951,7.624,3.692,8.633,4.289c1.009,0.597,0.311-8.126-1.56-11.412s-6.99-5.199-9.547-2.514
				c-5.393,5.665-13.805-1.763-13.229-6.19c0.575-4.428-3.557-9.188-12.427-6.396c-8.87,2.791-5.563,4.338-5.563,4.338
				s6.298,3.861,10.334,6.249c4.037,2.387,10.726,4.437,9.289,6.175c-1.437,1.738-5.304,0.677-8.538-1.917
				c-3.234-2.594-12.522-8.769-13.473-6.47c-0.95,2.298-4.289,8.633-4.289,8.633s6.763,1.003,12.162,2.698s6.504,4.664,2.283,4.893
				c-4.222,0.228-11.882-2.941-14.27,1.095c-2.387,4.037-0.753,14.402-0.753,14.402s7.729-5.236,11.67-5.222
				c3.941,0.016,1.421,2.203-2.984,5.046c-4.406,2.844-5.526,3.815-5.526,3.815l4.006,10.271c0,0,6.63-0.847,9.246-0.662
				s2.615,0.185,2.615,0.185s-0.028-10.777,3.089-13.975c3.117-3.196,3.646,4.2,4.301,6.086s-1.32,7.529-1.32,7.529
				s7.655-4.191,10.138-5.855c2.483-1.665,2.483-1.665,2.483-1.665s-2.865-7.823-4.809-10.063c-1.944-2.239-4.597-1.901-2.357-3.846
				c2.24-1.944,5.584-0.92,7.492,1.843c1.907,2.763,4.153,8.178,4.153,8.178s2.858,0.465,6.572-3.741
				C123.558,267.543,122.343,266.144,118.306,263.756z M83.218,275.623c-2.966-1.482,4.079-4.449,4.079-4.449
				C89.892,270.804,86.184,277.106,83.218,275.623z M88.212,261.781c-1.264-0.632,2.529-1.896,2.529-1.896
				C96.221,260.938,89.477,262.414,88.212,261.781z"/>
			<path fill="none" stroke="#263238" stroke-linecap="round" stroke-miterlimit="10" d="M83.139,283.177
				c-0.771,0.815-1.563,1.607-2.377,2.372"/>
			<path fill="none" stroke="#263238" stroke-linecap="round" stroke-miterlimit="10" d="M98.355,260.103
				c-2.837,5.911-7.129,13.625-12.774,20.332"/>
			<path fill="none" stroke="#263238" stroke-linecap="round" stroke-miterlimit="10" d="M99.727,257.144
				c1.779-3.977,2.691-6.599,2.691-6.599s3.307,1.547,6.52,0.723c3.212-0.825,5.79-0.117,5.79-0.117"/>
			<path fill="none" stroke="#263238" stroke-linecap="round" stroke-miterlimit="10" d="M84.391,249.009
				c0,0,12.95,6.433,12.11,7.163"/>
			<path fill="none" stroke="#263238" stroke-linecap="round" stroke-miterlimit="10" d="M103.322,260.07
				c0,0,6.129,2.535,9.532,6.455"/>
			<path fill="none" stroke="#263238" stroke-linecap="round" stroke-miterlimit="10" d="M95.145,264.224
				c0,0-4.147-0.818-9.938-0.701c-5.79,0.117-9.842,1.671-9.842,1.671"/>
			<path fill="none" stroke="#263238" stroke-linecap="round" stroke-miterlimit="10" d="M96.698,268.275
				c0,0,6.784,4.422,6.658,9.932"/>
		</g>
		<g>
			<path fill="#92E3A9" d="M60.693,315.131c-3.249-1.922-6.841-1.964-8.602-3.992c-1.76-2.027,1.696-3.053,3.546-2.287
				c1.849,0.765,6.135,2.971,6.947,3.451s0.25-6.539-1.255-9.184s-5.625-4.184-7.683-2.022c-4.34,4.558-11.109-1.419-10.646-4.981
				c0.463-3.563-2.862-7.394-10-5.147c-7.138,2.245-4.477,3.491-4.477,3.491s5.068,3.106,8.317,5.028
				c3.249,1.921,8.631,3.57,7.475,4.969c-1.156,1.399-4.269,0.545-6.871-1.542c-2.602-2.087-10.077-7.057-10.842-5.207
				s-3.452,6.947-3.452,6.947s5.442,0.808,9.788,2.172s5.234,3.754,1.837,3.937c-3.397,0.184-9.563-2.367-11.484,0.882
				c-1.921,3.248-0.606,11.59-0.606,11.59s6.22-4.214,9.392-4.202c3.172,0.013,1.144,1.773-2.402,4.062
				c-3.545,2.287-4.447,3.069-4.447,3.069l3.224,8.266c0,0,5.336-0.682,7.44-0.532c2.104,0.148,2.104,0.148,2.104,0.148
				s-0.022-8.674,2.486-11.246c2.508-2.573,2.934,3.379,3.461,4.897c0.527,1.518-1.062,6.059-1.062,6.059s6.16-3.372,8.158-4.712
				s1.998-1.34,1.998-1.34s-2.305-6.296-3.87-8.099c-1.565-1.803-3.699-1.53-1.897-3.095c1.803-1.565,4.494-0.74,6.029,1.482
				c1.535,2.224,3.342,6.581,3.342,6.581s2.3,0.374,5.289-3.011C64.919,318.179,63.941,317.052,60.693,315.131z M32.456,324.681
				c-2.387-1.193,3.282-3.58,3.282-3.58C37.827,320.802,34.843,325.874,32.456,324.681z M36.475,313.541
				c-1.017-0.508,2.035-1.525,2.035-1.525C42.919,312.863,37.493,314.051,36.475,313.541z"/>
			<path fill="none" stroke="#263238" stroke-linecap="round" stroke-miterlimit="10" d="M32.392,330.759
				c-0.62,0.656-1.258,1.295-1.914,1.909"/>
			<path fill="none" stroke="#263238" stroke-linecap="round" stroke-miterlimit="10" d="M44.638,312.19
				c-2.284,4.757-5.737,10.965-10.28,16.362"/>
			<path fill="none" stroke="#263238" stroke-linecap="round" stroke-miterlimit="10" d="M45.742,309.809
				c1.431-3.199,2.165-5.31,2.165-5.31s2.662,1.245,5.247,0.581c2.585-0.663,4.66-0.094,4.66-0.094"/>
			<path fill="none" stroke="#263238" stroke-linecap="round" stroke-miterlimit="10" d="M33.4,303.263
				c0,0,10.421,5.178,9.745,5.765"/>
			<path fill="none" stroke="#263238" stroke-linecap="round" stroke-miterlimit="10" d="M48.635,312.164
				c0,0,4.932,2.04,7.671,5.194"/>
			<path fill="none" stroke="#263238" stroke-linecap="round" stroke-miterlimit="10" d="M42.054,315.507
				c0,0-3.337-0.658-7.998-0.564c-4.66,0.094-7.92,1.345-7.92,1.345"/>
			<path fill="none" stroke="#263238" stroke-linecap="round" stroke-miterlimit="10" d="M43.304,318.768
				c0,0,5.459,3.559,5.358,7.992"/>
		</g>
		<g>
			<path fill="#92E3A9" d="M92.121,355.156c-3.249-1.922-6.841-1.964-8.602-3.991c-1.76-2.028,1.696-3.054,3.546-2.288
				c1.85,0.765,6.136,2.971,6.948,3.451s0.25-6.539-1.255-9.184c-1.505-2.644-5.625-4.184-7.683-2.022
				c-4.34,4.559-11.11-1.419-10.647-4.981c0.463-3.563-2.862-7.394-10-5.147s-4.477,3.491-4.477,3.491s5.068,3.107,8.317,5.028
				c3.249,1.922,8.631,3.57,7.475,4.97c-1.156,1.398-4.269,0.544-6.871-1.543c-2.603-2.087-10.078-7.057-10.842-5.207
				c-0.765,1.85-3.452,6.948-3.452,6.948s5.442,0.807,9.788,2.171s5.234,3.754,1.837,3.937c-3.397,0.184-9.563-2.366-11.484,0.882
				c-1.921,3.249-0.606,11.59-0.606,11.59s6.22-4.214,9.391-4.201c3.172,0.012,1.144,1.772-2.401,4.061
				c-3.546,2.287-4.447,3.07-4.447,3.07l3.224,8.265c0,0,5.336-0.681,7.44-0.532s2.104,0.148,2.104,0.148s-0.022-8.674,2.486-11.246
				c2.508-2.572,2.934,3.38,3.461,4.897s-1.063,6.059-1.063,6.059s6.161-3.372,8.159-4.712s1.998-1.34,1.998-1.34
				s-2.305-6.296-3.87-8.099c-1.564-1.803-3.699-1.53-1.896-3.095c1.802-1.564,4.494-0.74,6.029,1.483
				c1.535,2.223,3.343,6.581,3.343,6.581s2.3,0.373,5.289-3.011C96.347,358.204,95.369,357.077,92.121,355.156z M63.883,364.706
				c-2.387-1.193,3.282-3.58,3.282-3.58C69.254,360.827,66.27,365.9,63.883,364.706z M67.903,353.567
				c-1.018-0.509,2.035-1.526,2.035-1.526C74.347,352.889,68.92,354.076,67.903,353.567z"/>
			<path fill="none" stroke="#263238" stroke-linecap="round" stroke-miterlimit="10" d="M63.82,370.784
				c-0.621,0.656-1.258,1.295-1.914,1.909"/>
			<path fill="none" stroke="#263238" stroke-linecap="round" stroke-miterlimit="10" d="M76.065,352.216
				c-2.284,4.758-5.737,10.965-10.28,16.362"/>
			<path fill="none" stroke="#263238" stroke-linecap="round" stroke-miterlimit="10" d="M77.169,349.835
				c1.432-3.2,2.166-5.311,2.166-5.311s2.662,1.245,5.247,0.581c2.585-0.663,4.66-0.094,4.66-0.094"/>
			<path fill="none" stroke="#263238" stroke-linecap="round" stroke-miterlimit="10" d="M64.828,343.289
				c0,0,10.421,5.177,9.746,5.764"/>
			<path fill="none" stroke="#263238" stroke-linecap="round" stroke-miterlimit="10" d="M80.063,352.189c0,0,4.932,2.04,7.67,5.195
				"/>
			<path fill="none" stroke="#263238" stroke-linecap="round" stroke-miterlimit="10" d="M73.481,355.532
				c0,0-3.337-0.658-7.997-0.564c-4.66,0.095-7.921,1.345-7.921,1.345"/>
			<path fill="none" stroke="#263238" stroke-linecap="round" stroke-miterlimit="10" d="M74.731,358.793
				c0,0,5.46,3.559,5.358,7.993"/>
		</g>
		<g>
			<path fill="#92E3A9" d="M47.447,253.905c0,0-4.079,2.966-6.674,0c-2.595-2.966,1.112-8.898-2.595-11.123s-9.64,1.854-9.64,1.854
				s4.82,1.112,4.82,3.708c0,2.595-2.225,3.708-2.595,2.595c-0.371-1.112-2.966-6.674-6.674-4.079
				c-3.708,2.596-4.079,6.304-4.079,6.304s8.898-1.483,9.64,1.854c0.741,3.337-3.708-0.371-7.416-0.371s-7.044,0.742-6.674,2.967
				s0,5.932,0,5.932s2.966-2.966,7.044-2.966c4.079,0,4.079,2.595,0.371,2.595c-3.708,0-6.674,3.708-6.674,3.708
				s3.708,5.562,8.157,8.157c4.449,2.595,5.932,1.482,6.303-0.742c0.371-2.225-1.112-7.785,1.483-7.785
				c2.596,0-3.708,10.01-0.371,10.381c3.336,0.371,5.932-0.741,6.673-2.966c0.742-2.225,0.742-2.225,0.742-2.225
				s-1.483-5.562-1.112-7.786s1.112,0,1.854,2.596c0.741,2.595,1.483,8.897,2.595,8.527c1.112-0.371,4.449-5.19,5.191-7.045
				c0.741-1.854-5.191-7.045-5.191-8.156c0-1.112,4.449,0.741,5.191,1.854c0.741,1.112,1.483,2.595,1.483,2.595
				s2.595-1.854,2.225-7.044S47.447,253.905,47.447,253.905z"/>
			<path fill="none" stroke="#263238" stroke-linecap="round" stroke-miterlimit="10" d="M26.677,267.354
				c2.563-3.581,6.363-8.445,9.647-10.853"/>
			<path fill="none" stroke="#263238" stroke-linecap="round" stroke-miterlimit="10" d="M23.718,271.702
				c0,0,0.651-1.029,1.714-2.575"/>
			<path fill="none" stroke="#263238" stroke-linecap="round" stroke-miterlimit="10" d="M38.178,257.242
				c0,0,4.449,5.562,5.562,11.493"/>
			<path fill="none" stroke="#263238" stroke-linecap="round" stroke-miterlimit="10" d="M33.729,260.949
				c0,0,1.113-0.741,1.113,6.674"/>
			<path fill="none" stroke="#263238" stroke-linecap="round" stroke-miterlimit="10" d="M36.324,253.905
				c0,0,2.224-2.225,0.741-6.303"/>
			
				<line fill="none" stroke="#263238" stroke-linecap="round" stroke-miterlimit="10" x1="33.358" y1="257.613" x2="31.504" y2="254.646"/>
			<path fill="none" stroke="#263238" stroke-linecap="round" stroke-miterlimit="10" d="M30.021,260.949
				c0,0-5.562-3.707-8.898-3.707"/>
		</g>
		<polygon fill="#263238" stroke="#263238" stroke-width="2" stroke-linecap="round" stroke-miterlimit="10" points="
			84.892,465.623 56.229,465.623 59.812,384.735 81.309,384.735 		"/>
	</g>
</g>
<g id="Pictures">
	<g>
		
			<rect x="34.388" y="82.123" fill="none" stroke="#263238" stroke-linecap="round" stroke-linejoin="round" stroke-miterlimit="10" width="66.582" height="88.775"/>
		
			<rect x="37.977" y="86.908" fill="none" stroke="#263238" stroke-linecap="round" stroke-linejoin="round" stroke-miterlimit="10" width="59.403" height="79.205"/>
		
			<rect x="54.191" y="108.527" fill="none" stroke="#263238" stroke-linecap="round" stroke-linejoin="round" stroke-miterlimit="10" width="26.975" height="35.966"/>
	</g>
	<g>
		
			<rect x="126.289" y="90.272" fill="none" stroke="#263238" stroke-linecap="round" stroke-linejoin="round" stroke-miterlimit="10" width="39.315" height="29.487"/>
		
			<rect x="128.408" y="91.862" fill="none" stroke="#263238" stroke-linecap="round" stroke-linejoin="round" stroke-miterlimit="10" width="35.077" height="26.308"/>
		
			<rect x="137.982" y="99.042" fill="none" stroke="#263238" stroke-linecap="round" stroke-linejoin="round" stroke-miterlimit="10" width="15.928" height="11.946"/>
	</g>
	<g>
		
			<rect x="126.289" y="131.916" fill="none" stroke="#263238" stroke-linecap="round" stroke-linejoin="round" stroke-miterlimit="10" width="29.487" height="39.316"/>
		
			<rect x="127.878" y="134.035" fill="none" stroke="#263238" stroke-linecap="round" stroke-linejoin="round" stroke-miterlimit="10" width="26.308" height="35.077"/>
		
			<rect x="135.059" y="143.609" fill="none" stroke="#263238" stroke-linecap="round" stroke-linejoin="round" stroke-miterlimit="10" width="11.946" height="15.928"/>
	</g>
</g>
<g id="Bill_3">
	<g>
		
			<rect x="226.261" y="26.428" fill="#FFFFFF" stroke="#263238" stroke-linecap="round" stroke-linejoin="round" stroke-miterlimit="10" width="224.443" height="138.498"/>
		<g>
			<g>
				
					<rect x="261.047" y="117.501" fill="#92E3A9" stroke="#263238" stroke-linecap="round" stroke-linejoin="round" stroke-miterlimit="10" width="5.52" height="19.145"/>
				
					<rect x="270.552" y="113.473" fill="#92E3A9" stroke="#263238" stroke-linecap="round" stroke-linejoin="round" stroke-miterlimit="10" width="5.519" height="23.173"/>
				
					<rect x="280.057" y="108.991" fill="#92E3A9" stroke="#263238" stroke-linecap="round" stroke-linejoin="round" stroke-miterlimit="10" width="5.519" height="27.655"/>
				
					<rect x="289.563" y="106.118" fill="#92E3A9" stroke="#263238" stroke-linecap="round" stroke-linejoin="round" stroke-miterlimit="10" width="5.519" height="30.528"/>
				
					<rect x="299.067" y="115.224" fill="#92E3A9" stroke="#263238" stroke-linecap="round" stroke-linejoin="round" stroke-miterlimit="10" width="5.519" height="21.422"/>
				
					<rect x="308.572" y="99.638" fill="#92E3A9" stroke="#263238" stroke-linecap="round" stroke-linejoin="round" stroke-miterlimit="10" width="5.52" height="37.008"/>
				
					<rect x="318.077" y="107.168" fill="#92E3A9" stroke="#263238" stroke-linecap="round" stroke-linejoin="round" stroke-miterlimit="10" width="5.52" height="29.478"/>
				
					<rect x="327.583" y="106.118" fill="#92E3A9" stroke="#263238" stroke-linecap="round" stroke-linejoin="round" stroke-miterlimit="10" width="5.519" height="30.528"/>
				
					<rect x="337.088" y="100.689" fill="#92E3A9" stroke="#263238" stroke-linecap="round" stroke-linejoin="round" stroke-miterlimit="10" width="5.519" height="35.957"/>
				
					<rect x="346.593" y="102.09" fill="#92E3A9" stroke="#263238" stroke-linecap="round" stroke-linejoin="round" stroke-miterlimit="10" width="5.52" height="34.556"/>
				
					<rect x="356.098" y="100.339" fill="#92E3A9" stroke="#263238" stroke-linecap="round" stroke-linejoin="round" stroke-miterlimit="10" width="5.52" height="36.307"/>
				
					<rect x="365.603" y="99.113" fill="#92E3A9" stroke="#263238" stroke-linecap="round" stroke-linejoin="round" stroke-miterlimit="10" width="5.52" height="37.533"/>
				
					<rect x="375.108" y="112.948" fill="#92E3A9" stroke="#263238" stroke-linecap="round" stroke-linejoin="round" stroke-miterlimit="10" width="5.519" height="23.698"/>
				
					<rect x="384.613" y="116.625" fill="#92E3A9" stroke="#263238" stroke-linecap="round" stroke-linejoin="round" stroke-miterlimit="10" width="5.519" height="20.021"/>
				
					<rect x="394.118" y="117.326" fill="#92E3A9" stroke="#263238" stroke-linecap="round" stroke-linejoin="round" stroke-miterlimit="10" width="5.52" height="19.32"/>
			</g>
			
				<line fill="none" stroke="#263238" stroke-linecap="round" stroke-linejoin="round" stroke-miterlimit="10" x1="251.406" y1="136.794" x2="243.143" y2="136.794"/>
			
				<line fill="none" stroke="#263238" stroke-linecap="round" stroke-linejoin="round" stroke-miterlimit="10" x1="251.406" y1="127.357" x2="243.143" y2="127.357"/>
			
				<line fill="none" stroke="#263238" stroke-linecap="round" stroke-linejoin="round" stroke-miterlimit="10" x1="251.406" y1="117.921" x2="243.143" y2="117.921"/>
			
				<line fill="none" stroke="#263238" stroke-linecap="round" stroke-linejoin="round" stroke-miterlimit="10" x1="251.406" y1="108.484" x2="243.143" y2="108.484"/>
			
				<line fill="none" stroke="#263238" stroke-linecap="round" stroke-linejoin="round" stroke-miterlimit="10" x1="251.406" y1="99.047" x2="243.143" y2="99.047"/>
		</g>
		<g>
			<g>
				<g>
					<path fill="#92E3A9" stroke="#263238" stroke-linecap="round" stroke-linejoin="round" stroke-miterlimit="10" d="
						M265.318,52.595c0-7.15-6.042-12.888-13.299-12.387c-6.05,0.417-10.982,5.269-11.491,11.312
						c-0.289,3.438,0.825,6.614,2.832,9.019c1.829,2.192,2.829,4.958,2.829,7.813v1.702h13.424v-1.702
						c0-2.852,0.995-5.618,2.823-7.807C264.235,58.393,265.318,55.621,265.318,52.595z"/>
					
						<rect x="246.188" y="70.058" fill="#FFFFFF" stroke="#263238" stroke-width="0.75" stroke-linecap="round" stroke-linejoin="round" stroke-miterlimit="10" width="13.424" height="3.321"/>
					
						<path fill="#FFFFFF" stroke="#263238" stroke-width="0.75" stroke-linecap="round" stroke-linejoin="round" stroke-miterlimit="10" d="
						M257.104,76.707h-8.407c-1.385,0-2.509-1.123-2.509-2.509v-0.812h13.424v0.812C259.612,75.584,258.489,76.707,257.104,76.707z"
						/>
					
						<path fill="#FFFFFF" stroke="#263238" stroke-width="0.75" stroke-linecap="round" stroke-linejoin="round" stroke-miterlimit="10" d="
						M255.41,80.024h-5.019c-1.386,0-2.509-1.124-2.509-2.509v-0.812h10.037v0.812C257.918,78.9,256.795,80.024,255.41,80.024z"/>
				</g>
				<g>
					
						<line fill="none" stroke="#263238" stroke-width="0.75" stroke-linecap="round" stroke-linejoin="round" stroke-miterlimit="10" x1="267.081" y1="52.66" x2="272.769" y2="52.66"/>
					
						<line fill="none" stroke="#263238" stroke-width="0.75" stroke-linecap="round" stroke-linejoin="round" stroke-miterlimit="10" x1="232.499" y1="52.66" x2="238.26" y2="52.66"/>
					
						<line fill="none" stroke="#263238" stroke-width="0.75" stroke-linecap="round" stroke-linejoin="round" stroke-miterlimit="10" x1="252.634" y1="38.229" x2="252.634" y2="32.525"/>
					
						<line fill="none" stroke="#263238" stroke-width="0.75" stroke-linecap="round" stroke-linejoin="round" stroke-miterlimit="10" x1="262.945" y1="42.349" x2="266.871" y2="38.423"/>
					
						<line fill="none" stroke="#263238" stroke-width="0.75" stroke-linecap="round" stroke-linejoin="round" stroke-miterlimit="10" x1="238.396" y1="66.898" x2="242.38" y2="62.914"/>
					
						<line fill="none" stroke="#263238" stroke-width="0.75" stroke-linecap="round" stroke-linejoin="round" stroke-miterlimit="10" x1="242.209" y1="42.236" x2="238.396" y2="38.423"/>
					
						<line fill="none" stroke="#263238" stroke-width="0.75" stroke-linecap="round" stroke-linejoin="round" stroke-miterlimit="10" x1="266.871" y1="66.898" x2="263.074" y2="63.101"/>
				</g>
			</g>
		</g>
		<polyline fill="none" stroke="#263238" stroke-linecap="round" stroke-linejoin="round" stroke-miterlimit="10" points="
			350.703,51.301 350.703,39.581 437.709,39.581 437.709,81.868 410.321,81.868 		"/>
		<polyline fill="none" stroke="#263238" stroke-linecap="round" stroke-linejoin="round" stroke-miterlimit="10" points="
			402.527,81.868 350.703,81.868 350.703,57.536 		"/>
		
			<line fill="none" stroke="#263238" stroke-linecap="round" stroke-linejoin="round" stroke-miterlimit="10" x1="356.05" y1="49.788" x2="379.867" y2="49.788"/>
		
			<line fill="none" stroke="#263238" stroke-linecap="round" stroke-linejoin="round" stroke-miterlimit="10" x1="407.573" y1="49.788" x2="431.391" y2="49.788"/>
		
			<line fill="none" stroke="#263238" stroke-linecap="round" stroke-linejoin="round" stroke-miterlimit="10" x1="356.05" y1="54.649" x2="379.867" y2="54.649"/>
		
			<line fill="none" stroke="#263238" stroke-linecap="round" stroke-linejoin="round" stroke-miterlimit="10" x1="407.573" y1="54.649" x2="431.391" y2="54.649"/>
		
			<line fill="none" stroke="#263238" stroke-linecap="round" stroke-linejoin="round" stroke-miterlimit="10" x1="356.05" y1="59.509" x2="379.867" y2="59.509"/>
		
			<line fill="none" stroke="#263238" stroke-linecap="round" stroke-linejoin="round" stroke-miterlimit="10" x1="365.835" y1="64.37" x2="379.867" y2="64.37"/>
		
			<line fill="none" stroke="#263238" stroke-linecap="round" stroke-linejoin="round" stroke-miterlimit="10" x1="356.05" y1="64.37" x2="362.986" y2="64.37"/>
		
			<line fill="none" stroke="#263238" stroke-linecap="round" stroke-linejoin="round" stroke-miterlimit="10" x1="356.05" y1="69.23" x2="379.867" y2="69.23"/>
		
			<line fill="none" stroke="#263238" stroke-linecap="round" stroke-linejoin="round" stroke-miterlimit="10" x1="407.573" y1="69.23" x2="431.391" y2="69.23"/>
		
			<line fill="none" stroke="#263238" stroke-linecap="round" stroke-linejoin="round" stroke-miterlimit="10" x1="374.023" y1="74.091" x2="379.867" y2="74.091"/>
		
			<line fill="none" stroke="#263238" stroke-linecap="round" stroke-linejoin="round" stroke-miterlimit="10" x1="356.05" y1="74.091" x2="370.463" y2="74.091"/>
		
			<line fill="none" stroke="#263238" stroke-linecap="round" stroke-linejoin="round" stroke-miterlimit="10" x1="426.001" y1="62.912" x2="433.335" y2="62.912"/>
		
			<line fill="none" stroke="#263238" stroke-linecap="round" stroke-linejoin="round" stroke-miterlimit="10" x1="398.338" y1="62.912" x2="421.373" y2="62.912"/>
		
			<line fill="none" stroke="#263238" stroke-linecap="round" stroke-linejoin="round" stroke-miterlimit="10" x1="413.893" y1="99.853" x2="435.279" y2="99.853"/>
		
			<line fill="none" stroke="#263238" stroke-linecap="round" stroke-linejoin="round" stroke-miterlimit="10" x1="413.893" y1="109.088" x2="435.279" y2="109.088"/>
		
			<line fill="none" stroke="#263238" stroke-linecap="round" stroke-linejoin="round" stroke-miterlimit="10" x1="413.893" y1="118.324" x2="435.279" y2="118.324"/>
		
			<line fill="none" stroke="#263238" stroke-linecap="round" stroke-linejoin="round" stroke-miterlimit="10" x1="429.546" y1="127.559" x2="435.279" y2="127.559"/>
		
			<line fill="none" stroke="#263238" stroke-linecap="round" stroke-linejoin="round" stroke-miterlimit="10" x1="413.893" y1="127.559" x2="425.39" y2="127.559"/>
		
			<line fill="none" stroke="#263238" stroke-linecap="round" stroke-linejoin="round" stroke-miterlimit="10" x1="413.893" y1="136.794" x2="435.279" y2="136.794"/>
		<g>
			<path fill="#263238" d="M275.315,49.375v-10.53h4.589v1.482h-2.444v2.795h1.886v1.495h-1.886v3.302h2.47v1.456H275.315z"/>
			<path fill="#263238" d="M281.01,49.375v-10.53h1.495l2.339,5.486v-5.486h1.769v10.53h-1.431l-2.339-5.824v5.824H281.01z"/>
			<path fill="#263238" d="M288.211,49.375v-10.53h4.589v1.482h-2.444v2.795h1.885v1.495h-1.885v3.302h2.47v1.456H288.211z"/>
			<path fill="#263238" d="M293.905,49.375v-10.53h2.729c0.711,0,1.32,0.08,1.827,0.24c0.507,0.161,0.897,0.444,1.17,0.852
				c0.273,0.407,0.41,0.971,0.41,1.69c0,0.434-0.037,0.817-0.111,1.15c-0.074,0.334-0.204,0.624-0.39,0.871
				s-0.448,0.444-0.786,0.592l1.456,5.135h-2.197l-1.209-4.771h-0.753v4.771H293.905z M296.05,43.33h0.624
				c0.347,0,0.62-0.056,0.819-0.169c0.2-0.113,0.341-0.284,0.423-0.514c0.082-0.229,0.123-0.514,0.123-0.852
				c0-0.485-0.088-0.855-0.266-1.111c-0.178-0.255-0.509-0.384-0.995-0.384h-0.728V43.33z"/>
			<path fill="#263238" d="M304.097,49.53c-0.711,0-1.274-0.149-1.69-0.448c-0.416-0.299-0.713-0.724-0.89-1.274
				c-0.178-0.55-0.266-1.189-0.266-1.917v-3.523c0-0.754,0.09-1.404,0.272-1.95s0.5-0.966,0.956-1.261
				c0.455-0.295,1.073-0.442,1.852-0.442c0.754,0,1.35,0.126,1.788,0.377c0.438,0.251,0.752,0.607,0.943,1.066
				c0.19,0.459,0.286,1.005,0.286,1.638v0.611h-2.093v-0.741c0-0.277-0.018-0.522-0.053-0.734c-0.034-0.212-0.115-0.379-0.24-0.5
				c-0.126-0.122-0.327-0.182-0.604-0.182c-0.286,0-0.494,0.074-0.624,0.221s-0.213,0.336-0.248,0.565s-0.052,0.474-0.052,0.734
				v4.667c0,0.295,0.026,0.559,0.078,0.793c0.052,0.234,0.149,0.416,0.293,0.546c0.143,0.13,0.348,0.195,0.617,0.195
				c0.269,0,0.477-0.069,0.625-0.208c0.146-0.139,0.249-0.327,0.305-0.566c0.057-0.238,0.085-0.509,0.085-0.813v-1.118h-1.027v-1.3
				h2.963v5.408h-1.404l-0.13-0.949c-0.138,0.321-0.346,0.585-0.624,0.793C304.938,49.426,304.565,49.53,304.097,49.53z"/>
			<path fill="#263238" d="M310.051,49.375v-4.173l-2.054-6.357h2.015l1.132,3.705l1.053-3.705h1.95l-2.028,6.357v4.173H310.051z"/>
			<path fill="#263238" d="M318.215,49.375v-10.53h2.665c0.46,0,0.884,0.039,1.274,0.117c0.39,0.078,0.734,0.217,1.033,0.416
				c0.299,0.2,0.528,0.475,0.689,0.826c0.16,0.351,0.24,0.808,0.24,1.372c0,0.424-0.061,0.786-0.182,1.085
				c-0.122,0.299-0.295,0.535-0.521,0.708s-0.503,0.291-0.832,0.351c0.407,0.061,0.75,0.199,1.027,0.416
				c0.277,0.216,0.485,0.502,0.624,0.858s0.208,0.784,0.208,1.287c0,0.529-0.067,0.988-0.202,1.378
				c-0.134,0.39-0.331,0.71-0.591,0.962c-0.261,0.251-0.581,0.44-0.962,0.565c-0.382,0.125-0.824,0.188-1.326,0.188H318.215z
				 M320.36,43.096h0.533c0.372,0,0.654-0.054,0.845-0.163s0.322-0.273,0.396-0.494c0.073-0.221,0.11-0.492,0.11-0.813
				c0-0.32-0.055-0.579-0.162-0.773c-0.108-0.195-0.273-0.336-0.494-0.422c-0.222-0.087-0.501-0.13-0.839-0.13h-0.39V43.096z
				 M320.36,47.867h0.598c0.537,0,0.908-0.134,1.111-0.403c0.204-0.269,0.306-0.671,0.306-1.209c0-0.416-0.048-0.748-0.143-0.994
				c-0.096-0.247-0.25-0.429-0.462-0.546c-0.212-0.117-0.496-0.175-0.852-0.175h-0.559V47.867z"/>
			<path fill="#263238" d="M325.703,49.375v-10.53h2.132v10.53H325.703z"/>
			<path fill="#263238" d="M329.447,49.375v-10.53h2.145v9.074h2.471v1.456H329.447z"/>
			<path fill="#263238" d="M334.998,49.375v-10.53h2.145v9.074h2.471v1.456H334.998z"/>
		</g>
	</g>
</g>
<g id="Bill_2">
	<g>
		
			<rect x="226.261" y="165.81" transform="matrix(0.9949 -0.1013 0.1013 0.9949 -22.0635 35.4853)" fill="#FFFFFF" stroke="#263238" stroke-linecap="round" stroke-linejoin="round" stroke-miterlimit="10" width="224.443" height="138.498"/>
		<g>
			<path fill="#92E3A9" stroke="#263238" stroke-linecap="round" stroke-linejoin="round" stroke-miterlimit="10" d="
				M258.577,205.519c0.611,6.004-3.761,11.368-9.765,11.979c-6.005,0.611-11.368-3.761-11.979-9.765
				c-0.611-6.004,8.744-22.015,8.744-22.015S257.965,199.515,258.577,205.519z"/>
			<path fill="none" stroke="#263238" stroke-linecap="round" stroke-linejoin="round" stroke-miterlimit="10" d="M249.653,195.58
				c2.588,3.35,5.449,7.547,5.701,10.019c0.117,1.148-0.004,2.265-0.324,3.303"/>
			<path fill="none" stroke="#263238" stroke-linecap="round" stroke-linejoin="round" stroke-miterlimit="10" d="M252.39,212.866
				c-1.235,1.031-2.782,1.718-4.504,1.893c-1.148,0.117-2.265-0.004-3.302-0.324"/>
		</g>
		<g>
			<path fill="#92E3A9" stroke="#263238" stroke-linecap="round" stroke-linejoin="round" stroke-miterlimit="10" d="
				M265.706,203.234c0.396,3.887-2.435,7.359-6.322,7.755c-3.887,0.396-7.359-2.435-7.755-6.322
				c-0.396-3.887,5.661-14.252,5.661-14.252S265.311,199.347,265.706,203.234z"/>
			<path fill="none" stroke="#263238" stroke-linecap="round" stroke-linejoin="round" stroke-miterlimit="10" d="M259.929,196.8
				c1.676,2.168,3.528,4.886,3.69,6.486c0.076,0.743-0.003,1.466-0.209,2.138"/>
			<path fill="none" stroke="#263238" stroke-linecap="round" stroke-linejoin="round" stroke-miterlimit="10" d="M261.701,207.991
				c-0.8,0.667-1.801,1.112-2.916,1.226c-0.743,0.075-1.466-0.003-2.138-0.21"/>
		</g>
		
			<rect x="351.759" y="189.335" transform="matrix(-0.9949 0.1013 -0.1013 -0.9949 808.2876 375.0479)" fill="none" stroke="#263238" stroke-linecap="round" stroke-linejoin="round" stroke-miterlimit="10" width="85.732" height="37.41"/>
		
			<rect x="350.307" y="189.408" transform="matrix(-0.9949 0.1013 -0.1013 -0.9949 803.9475 346.7448)" fill="#92E3A9" stroke="#263238" stroke-linecap="round" stroke-linejoin="round" stroke-miterlimit="10" width="85.732" height="8.739"/>
		
			<rect x="241.052" y="235.482" transform="matrix(0.9949 -0.1013 0.1013 0.9949 -24.3521 35.9227)" fill="none" stroke="#263238" stroke-linecap="round" stroke-linejoin="round" stroke-miterlimit="10" width="201.207" height="44.684"/>
		
			<rect x="239.278" y="235.572" transform="matrix(0.9949 -0.1013 0.1013 0.9949 -22.596 35.6534)" fill="#92E3A9" stroke="#263238" stroke-linecap="round" stroke-linejoin="round" stroke-miterlimit="10" width="201.208" height="9.643"/>
		
			<line fill="none" stroke="#263238" stroke-linecap="round" stroke-linejoin="round" stroke-miterlimit="10" x1="254.225" y1="227.031" x2="289.905" y2="223.399"/>
		
			<line fill="none" stroke="#263238" stroke-linecap="round" stroke-linejoin="round" stroke-miterlimit="10" x1="238.73" y1="228.608" x2="250.329" y2="227.428"/>
		
			<line fill="none" stroke="#263238" stroke-linecap="round" stroke-linejoin="round" stroke-miterlimit="10" x1="279.453" y1="232.297" x2="290.694" y2="231.153"/>
		
			<line fill="none" stroke="#263238" stroke-linecap="round" stroke-linejoin="round" stroke-miterlimit="10" x1="239.52" y1="236.362" x2="274.494" y2="232.802"/>
		
			<line fill="none" stroke="#263238" stroke-linecap="round" stroke-linejoin="round" stroke-miterlimit="10" x1="248.152" y1="264.73" x2="283.82" y2="261.1"/>
		
			<line fill="none" stroke="#263238" stroke-linecap="round" stroke-linejoin="round" stroke-miterlimit="10" x1="312.25" y1="258.206" x2="347.917" y2="254.576"/>
		
			<line fill="none" stroke="#263238" stroke-linecap="round" stroke-linejoin="round" stroke-miterlimit="10" x1="376.348" y1="251.682" x2="412.016" y2="248.051"/>
		
			<line fill="none" stroke="#263238" stroke-linecap="round" stroke-linejoin="round" stroke-miterlimit="10" x1="395.189" y1="205.893" x2="430.856" y2="202.263"/>
		
			<line fill="none" stroke="#263238" stroke-linecap="round" stroke-linejoin="round" stroke-miterlimit="10" x1="414.473" y1="212.287" x2="431.698" y2="210.533"/>
		
			<line fill="none" stroke="#263238" stroke-linecap="round" stroke-linejoin="round" stroke-miterlimit="10" x1="396.031" y1="214.164" x2="411.285" y2="212.611"/>
		
			<line fill="none" stroke="#263238" stroke-linecap="round" stroke-linejoin="round" stroke-miterlimit="10" x1="249.521" y1="278.171" x2="285.188" y2="274.54"/>
		
			<line fill="none" stroke="#263238" stroke-linecap="round" stroke-linejoin="round" stroke-miterlimit="10" x1="313.618" y1="271.646" x2="349.285" y2="268.016"/>
		
			<line fill="none" stroke="#263238" stroke-linecap="round" stroke-linejoin="round" stroke-miterlimit="10" x1="405.605" y1="262.283" x2="413.383" y2="261.491"/>
		
			<line fill="none" stroke="#263238" stroke-linecap="round" stroke-linejoin="round" stroke-miterlimit="10" x1="377.716" y1="265.122" x2="398.877" y2="262.968"/>
		<g>
			<path fill="#263238" d="M272.28,199.07l-2.425-10.338l1.811-0.185l1.376,6.328l0.268-6.482l1.436-0.146l1.606,6.279l0.074-6.462
				l1.785-0.182l-0.279,10.613l-1.811,0.184l-1.697-6.531l-0.295,6.733L272.28,199.07z"/>
			<path fill="#263238" d="M279.626,198.322l0.964-10.683l2.367-0.241l3.084,10.271l-1.979,0.202l-0.609-2.265l-1.655,0.168
				l-0.167,2.343L279.626,198.322z M281.859,194.449l1.254-0.127l-1.064-4.165L281.859,194.449z"/>
			<path fill="#263238" d="M287.554,197.516l-0.904-8.886l-1.617,0.165l-0.162-1.591l5.354-0.545l0.162,1.59l-1.591,0.162
				l0.905,8.886L287.554,197.516z"/>
			<path fill="#263238" d="M292.236,197.039l-1.066-10.477l4.565-0.464l0.15,1.475l-2.431,0.248l0.283,2.781l1.876-0.191
				l0.151,1.487l-1.876,0.191l0.334,3.285l2.458-0.25l0.147,1.448L292.236,197.039z"/>
			<path fill="#263238" d="M297.9,196.462l-1.066-10.476l2.716-0.277c0.707-0.072,1.321-0.054,1.842,0.054
				c0.521,0.109,0.938,0.351,1.25,0.729c0.313,0.378,0.506,0.924,0.579,1.641c0.044,0.431,0.046,0.816,0.006,1.156
				c-0.04,0.339-0.14,0.641-0.299,0.906c-0.161,0.265-0.401,0.488-0.723,0.668l1.968,4.961l-2.186,0.223l-1.686-4.625l-0.75,0.076
				l0.483,4.747L297.9,196.462z M299.422,190.231l0.621-0.063c0.345-0.035,0.611-0.119,0.797-0.251
				c0.187-0.133,0.31-0.317,0.369-0.554s0.071-0.523,0.036-0.86c-0.049-0.483-0.175-0.842-0.377-1.079
				c-0.203-0.236-0.546-0.33-1.028-0.281l-0.725,0.074L299.422,190.231z"/>
			<path fill="#263238" d="M308.635,195.37l-1.066-10.476l2.651-0.27c0.457-0.046,0.884-0.05,1.279-0.012
				c0.396,0.038,0.753,0.141,1.07,0.309s0.574,0.418,0.77,0.751c0.194,0.333,0.32,0.78,0.378,1.341
				c0.043,0.422,0.02,0.788-0.071,1.098c-0.091,0.31-0.239,0.563-0.445,0.758c-0.207,0.195-0.471,0.339-0.792,0.433
				c0.411,0.019,0.766,0.122,1.063,0.31c0.298,0.188,0.534,0.451,0.708,0.791c0.174,0.339,0.286,0.759,0.337,1.258
				c0.054,0.527,0.033,0.99-0.062,1.393c-0.094,0.401-0.258,0.74-0.49,1.017c-0.233,0.276-0.533,0.496-0.899,0.66
				c-0.368,0.163-0.801,0.271-1.301,0.322L308.635,195.37z M310.133,188.905l0.53-0.054c0.371-0.038,0.646-0.12,0.824-0.247
				s0.294-0.305,0.345-0.532c0.051-0.228,0.061-0.501,0.027-0.819c-0.032-0.319-0.112-0.571-0.239-0.753
				c-0.128-0.184-0.306-0.307-0.535-0.371c-0.229-0.064-0.511-0.079-0.847-0.044l-0.389,0.04L310.133,188.905z M310.616,193.652
				l0.595-0.061c0.534-0.054,0.89-0.226,1.065-0.514c0.175-0.288,0.235-0.7,0.182-1.234c-0.042-0.414-0.124-0.739-0.243-0.975
				c-0.12-0.236-0.292-0.402-0.515-0.497c-0.223-0.094-0.512-0.124-0.865-0.088l-0.556,0.057L310.616,193.652z"/>
			<path fill="#263238" d="M316.084,194.611l-1.066-10.476l2.121-0.216l1.066,10.476L316.084,194.611z"/>
			<path fill="#263238" d="M319.809,194.232l-1.066-10.477l2.135-0.217l0.919,9.027l2.457-0.25l0.147,1.448L319.809,194.232z"/>
			<path fill="#263238" d="M325.331,193.67l-1.066-10.476l2.135-0.217l0.919,9.028l2.457-0.25l0.147,1.448L325.331,193.67z"/>
		</g>
	</g>
</g>
<g id="Bill_1">
	<g>
		
			<rect x="226.261" y="312.206" transform="matrix(0.9948 0.1015 -0.1015 0.9948 40.4717 -32.3902)" fill="#FFFFFF" stroke="#263238" stroke-linecap="round" stroke-linejoin="round" stroke-miterlimit="10" width="224.443" height="138.498"/>
		
			<line fill="none" stroke="#263238" stroke-linecap="round" stroke-linejoin="round" stroke-miterlimit="10" x1="242.121" y1="354.636" x2="293.295" y2="359.857"/>
		
			<line fill="none" stroke="#263238" stroke-linecap="round" stroke-linejoin="round" stroke-miterlimit="10" x1="279.137" y1="366.247" x2="292.504" y2="367.61"/>
		
			<line fill="none" stroke="#263238" stroke-linecap="round" stroke-linejoin="round" stroke-miterlimit="10" x1="241.33" y1="362.389" x2="272.762" y2="365.597"/>
		
			<rect x="357.228" y="336.111" transform="matrix(-0.9948 -0.1015 0.1015 -0.9948 762.1026 748.4161)" fill="none" stroke="#263238" stroke-linecap="round" stroke-linejoin="round" stroke-miterlimit="10" width="85.733" height="37.411"/>
		
			<rect x="358.684" y="336.185" transform="matrix(-0.9948 -0.1015 0.1015 -0.9948 766.4536 720.1146)" fill="#92E3A9" stroke="#263238" stroke-linecap="round" stroke-linejoin="round" stroke-miterlimit="10" width="85.732" height="8.739"/>
		
			<line fill="none" stroke="#263238" stroke-linecap="round" stroke-linejoin="round" stroke-miterlimit="10" x1="401.081" y1="352.828" x2="436.747" y2="356.468"/>
		
			<line fill="none" stroke="#263238" stroke-linecap="round" stroke-linejoin="round" stroke-miterlimit="10" x1="431.074" y1="364.245" x2="435.903" y2="364.738"/>
		
			<line fill="none" stroke="#263238" stroke-linecap="round" stroke-linejoin="round" stroke-miterlimit="10" x1="400.237" y1="361.099" x2="426.824" y2="363.812"/>
		<g>
			
				<circle fill="#92E3A9" stroke="#263238" stroke-linecap="round" stroke-linejoin="round" stroke-miterlimit="10" cx="259.574" cy="328.695" r="17.543"/>
			
				<ellipse transform="matrix(0.9948 0.1015 -0.1015 0.9948 34.7044 -24.6501)" fill="#92E3A9" stroke="#263238" stroke-linecap="round" stroke-linejoin="round" stroke-miterlimit="10" cx="259.574" cy="328.695" rx="11.699" ry="17.543"/>
			
				<ellipse transform="matrix(0.9948 0.1015 -0.1015 0.9948 34.6975 -24.6456)" fill="#92E3A9" stroke="#263238" stroke-linecap="round" stroke-linejoin="round" stroke-miterlimit="10" cx="259.574" cy="328.695" rx="3.82" ry="17.543"/>
			
				<line fill="#92E3A9" stroke="#263238" stroke-linecap="round" stroke-linejoin="round" stroke-miterlimit="10" x1="249.616" y1="314.383" x2="272.404" y2="316.708"/>
			
				<line fill="#92E3A9" stroke="#263238" stroke-linecap="round" stroke-linejoin="round" stroke-miterlimit="10" x1="246.931" y1="340.701" x2="269.719" y2="343.026"/>
			
				<line fill="#92E3A9" stroke="#263238" stroke-linecap="round" stroke-linejoin="round" stroke-miterlimit="10" x1="242.309" y1="326.934" x2="277.026" y2="330.477"/>
		</g>
		
			<line fill="none" stroke="#263238" stroke-linecap="round" stroke-linejoin="round" stroke-miterlimit="10" x1="303.287" y1="406.631" x2="436.98" y2="420.273"/>
		
			<line fill="none" stroke="#263238" stroke-linecap="round" stroke-linejoin="round" stroke-miterlimit="10" x1="236.786" y1="399.845" x2="298.683" y2="406.161"/>
		
			<line fill="none" stroke="#263238" stroke-linecap="round" stroke-linejoin="round" stroke-miterlimit="10" x1="431.967" y1="408.107" x2="438.157" y2="408.739"/>
		
			<line fill="none" stroke="#263238" stroke-linecap="round" stroke-linejoin="round" stroke-miterlimit="10" x1="237.963" y1="388.312" x2="427.362" y2="407.638"/>
		
			<line fill="none" stroke="#263238" stroke-linecap="round" stroke-linejoin="round" stroke-miterlimit="10" x1="302.808" y1="383.274" x2="439.334" y2="397.205"/>
		
			<line fill="none" stroke="#263238" stroke-linecap="round" stroke-linejoin="round" stroke-miterlimit="10" x1="239.14" y1="376.777" x2="298.558" y2="382.841"/>
		<polygon fill="#92E3A9" stroke="#263238" stroke-linecap="round" stroke-linejoin="round" stroke-miterlimit="10" points="
			412.488,425.682 400.602,429.047 389.806,417.54 376.354,419.497 359.16,395.268 338.865,414.007 335.055,409.456 304.81,416.775 
			281.868,398.618 258.311,411.614 241.471,409.063 232.434,418.026 231.541,426.779 434.206,447.46 435.341,436.338 		"/>
		<g>
			<path fill="#263238" d="M280.196,330.672l1.069-10.475l2.121,0.216l-1.069,10.476L280.196,330.672z"/>
			<path fill="#263238" d="M283.92,331.052l1.069-10.475l1.487,0.151l1.771,5.694l0.557-5.457l1.759,0.18l-1.069,10.476
				l-1.423-0.146l-1.736-6.032l-0.591,5.795L283.92,331.052z"/>
			<path fill="#263238" d="M292.068,331.883l0.906-8.884l-1.617-0.165l0.163-1.591l5.354,0.547l-0.163,1.59l-1.591-0.162
				l-0.906,8.885L292.068,331.883z"/>
			<path fill="#263238" d="M296.75,332.361l1.069-10.476l4.565,0.466l-0.15,1.474l-2.431-0.248l-0.284,2.781l1.875,0.191
				l-0.152,1.487l-1.875-0.191l-0.335,3.284l2.458,0.251l-0.148,1.448L296.75,332.361z"/>
			<path fill="#263238" d="M302.414,332.938l1.069-10.475l2.716,0.277c0.707,0.072,1.304,0.214,1.792,0.425
				c0.488,0.21,0.848,0.532,1.078,0.966c0.229,0.433,0.309,1.007,0.235,1.722c-0.044,0.432-0.12,0.81-0.227,1.134
				c-0.107,0.324-0.266,0.6-0.477,0.827c-0.21,0.227-0.491,0.396-0.842,0.509l0.927,5.256l-2.186-0.224l-0.718-4.868l-0.75-0.076
				l-0.484,4.745L302.414,332.938z M305.161,327.143l0.621,0.063c0.345,0.035,0.622,0.008,0.832-0.085
				c0.21-0.091,0.368-0.247,0.473-0.468c0.105-0.22,0.174-0.499,0.209-0.835c0.049-0.482-0.002-0.859-0.152-1.133
				c-0.151-0.271-0.467-0.433-0.95-0.482l-0.725-0.074L305.161,327.143z"/>
			<path fill="#263238" d="M309.915,333.704l1.068-10.475l1.487,0.151l1.771,5.695l0.557-5.457l1.759,0.179l-1.068,10.476
				l-1.423-0.146l-1.736-6.031l-0.592,5.794L309.915,333.704z"/>
			<path fill="#263238" d="M317.079,334.436l1.069-10.475l4.564,0.466l-0.15,1.474l-2.431-0.248l-0.284,2.78l1.876,0.191
				l-0.152,1.487l-1.875-0.191l-0.335,3.285l2.457,0.25l-0.147,1.449L317.079,334.436z"/>
			<path fill="#263238" d="M323.727,335.113l0.906-8.884l-1.616-0.165l0.162-1.591l5.354,0.547l-0.162,1.59l-1.591-0.162
				l-0.906,8.885L323.727,335.113z"/>
			<path fill="#263238" d="M331.642,335.921l1.068-10.475l2.651,0.271c0.457,0.047,0.876,0.128,1.256,0.245s0.708,0.29,0.986,0.519
				c0.276,0.229,0.478,0.526,0.602,0.892c0.123,0.365,0.156,0.828,0.1,1.389c-0.043,0.423-0.141,0.776-0.291,1.063
				c-0.151,0.284-0.348,0.502-0.589,0.651c-0.242,0.149-0.53,0.238-0.863,0.265c0.398,0.102,0.725,0.274,0.979,0.519
				c0.254,0.243,0.433,0.549,0.534,0.916c0.102,0.368,0.127,0.802,0.076,1.302c-0.054,0.525-0.167,0.977-0.341,1.351
				c-0.173,0.374-0.401,0.674-0.686,0.896c-0.284,0.225-0.622,0.38-1.015,0.465c-0.393,0.087-0.838,0.104-1.338,0.053
				L331.642,335.921z M334.413,329.894l0.53,0.054c0.37,0.038,0.656,0.012,0.856-0.076c0.201-0.089,0.349-0.238,0.445-0.451
				c0.096-0.213,0.159-0.478,0.192-0.798c0.032-0.318,0.004-0.58-0.083-0.785c-0.089-0.205-0.237-0.362-0.449-0.471
				c-0.211-0.108-0.484-0.181-0.82-0.215l-0.389-0.04L334.413,329.894z M333.929,334.639l0.595,0.062
				c0.534,0.054,0.917-0.041,1.146-0.289c0.229-0.246,0.372-0.636,0.427-1.172c0.042-0.413,0.028-0.748-0.041-1.003
				c-0.07-0.256-0.205-0.452-0.404-0.59c-0.199-0.139-0.476-0.226-0.829-0.262l-0.556-0.057L333.929,334.639z"/>
			<path fill="#263238" d="M339.091,336.682l1.068-10.476l2.122,0.217l-1.069,10.475L339.091,336.682z"/>
			<path fill="#263238" d="M342.815,337.062l1.069-10.475l2.134,0.218l-0.922,9.026l2.458,0.25l-0.147,1.449L342.815,337.062z"/>
			<path fill="#263238" d="M348.338,337.625l1.069-10.475l2.134,0.218l-0.921,9.026l2.458,0.251l-0.148,1.448L348.338,337.625z"/>
		</g>
	</g>
</g>
<g id="Character">
	<g>
		<g>
			<g>
				<path fill="#FFFFFF" stroke="#263238" stroke-linecap="round" stroke-linejoin="round" stroke-miterlimit="10" d="
					M183.226,178.024c0,0,1.119,4.855,1.008,9.303c-0.11,4.447-1.92,7.552-1.684,8.604c0.235,1.053,4.571,4.441,4.163,5.67
					c-0.408,1.229-5.32,3.694-5.32,3.694s-5.368,10.892-7.298,11.422c-1.93,0.529-9.66-3.204-10.246-3.204
					c-0.585,0.001-6.309,7.266-6.309,7.266l-14.41-9.458l2.977-5.446c0,0,0.93-4.566,1.5-14.515
					c0.571-9.949,6.001-17.506,18.758-17.759C179.123,173.348,183.226,178.024,183.226,178.024z"/>
				<path fill="none" stroke="#263238" stroke-linecap="round" stroke-linejoin="round" stroke-miterlimit="10" d="M177.182,206.238
					c0,0-3.806-1.457-4.513-4.616"/>
				
					<ellipse transform="matrix(0.9492 0.3147 -0.3147 0.9492 69.8536 -46.4976)" fill="#263238" cx="178.918" cy="193.069" rx="1.018" ry="2.313"/>
				<path fill="none" stroke="#263238" stroke-linecap="round" stroke-linejoin="round" stroke-miterlimit="10" d="M176.804,187.981
					c0,0,1.985-3.046,5.326,0.401"/>
			</g>
			<path fill="#263238" stroke="#263238" stroke-linecap="round" stroke-linejoin="round" stroke-miterlimit="10" d="
				M189.497,173.998c0,0-0.404,4.156-2.391,6.031s-15.305,6.77-19.574,9.058c-4.269,2.288-11.126,5.909-7.543,14.506
				c3.582,8.597,6.267,4.028,6.267,4.028s-5.491,6.562-11.46,6.337s-16.39-2.901-20.438-10.093s-6.347-17.897,0.251-27.797
				s16.238-20.154,25.603-18.998s15.864,3.897,20.375,6.758C185.097,166.689,190.137,171.48,189.497,173.998z"/>
		</g>
		<path fill="#263238" stroke="#263238" stroke-linecap="round" stroke-linejoin="round" stroke-miterlimit="10" d="
			M170.857,313.639c0,0,3.774,29.753,1.11,53.511c-2.664,23.758-5.106,28.643-12.212,40.854c-7.105,12.212-9.77,40.41-9.991,45.961
			c-0.222,5.551,1.776,7.55,3.331,8.882c1.554,1.332,6.416,4.178,7.886,4.729c2.988,1.12,9.656,3.009,7.657,5.229
			c-1.998,2.221-10.437,0.033-12.213,0.922c-1.776,0.888-9.992-0.666-9.992-0.666l-6.439-11.99c0,0,5.106-54.621,6.883-62.614
			s-0.888-58.173-0.888-58.173l-1.554-31.085L170.857,313.639z"/>
		<g>
			<path fill="#FFFFFF" stroke="#263238" stroke-linecap="round" stroke-linejoin="round" stroke-miterlimit="10" d="
				M121.762,305.422c0,0-4.638,4.221-4.86,20.207s16.875,39.966,17.763,46.405s2.665,18.207-0.444,25.979
				c-3.108,7.771-3.997,24.646-1.999,33.083c1.999,8.438,2.665,29.975,3.108,31.307c0.444,1.332-1.11,7.771,0.444,9.325
				c1.554,1.555,16.208,2.887,18.873,2.887c2.664,0,8.215-0.222,10.658-1.332s3.997-1.776,2.22-2.887s-15.765-4.44-18.429-7.771
				c-2.664-3.33-2.664-9.991-2.22-11.989c0.444-1.999,2.665-25.313,6.217-33.75c3.552-8.437,8.659-32.417,8.215-45.738
				c-0.444-13.322,0.444-44.407-0.444-49.07c-0.888-4.662-1.332-6.661-1.332-6.661l-36.192-11.768L121.762,305.422z"/>
			<path fill="#263238" stroke="#263238" stroke-linecap="round" stroke-linejoin="round" stroke-miterlimit="10" d="
				M124.385,301.689c0,0-7.745,8.166-7.483,23.939s4.857,25.291,7.483,33.824s5.251,103.056,5.251,103.056s5.908,1.641,9.19,1.641
				c3.282,0,14.268-1.303,14.268-1.303s0.501-23.969,3.126-35.128c2.625-11.158,12.144-24.287,13.785-49.558
				c1.641-25.271-3.797-60.795-3.797-60.795L124.385,301.689z"/>
			<path fill="#FFFFFF" stroke="#263238" stroke-linecap="round" stroke-linejoin="round" stroke-miterlimit="10" d="
				M135.371,464.175c-0.174,2.443-0.766,6.383,0.404,7.553c1.554,1.555,16.208,2.887,18.873,2.887c2.664,0,8.215-0.222,10.658-1.332
				s3.997-1.776,2.22-2.887s-15.765-4.44-18.429-7.771l-1.209,4.544L135.371,464.175z"/>
		</g>
		<g>
			<g>
				<path fill="#FFFFFF" stroke="#263238" stroke-linecap="round" stroke-linejoin="round" stroke-miterlimit="10" d="
					M199.037,256.624c0,0,3.755-10.266,4.381-12.394c0.626-2.128,3.005-0.626,4.257-0.25c1.252,0.375,4.382-0.501,4.257,0.5
					c-0.125,1.001-1.002,2.128-1.628,2.379c-0.625,0.25-4.256,0.125-4.256,0.125s-0.501,2.128-0.125,2.629
					c0.376,0.5,11.518-3.255,11.018-1.878c-0.501,1.377-6.761,8.514-8.639,10.142c-1.878,1.627-4.507,2.504-4.507,2.504
					s-12.645,15.148-14.523,17.777s-4.006,4.131-4.006,4.131l-6.118-13.88C179.147,268.409,198.035,258.753,199.037,256.624z"/>
				<path fill="#92E3A9" stroke="#263238" stroke-linecap="round" stroke-linejoin="round" stroke-miterlimit="10" d="
					M194.851,259.746c-3.779,2.158-15.704,8.663-15.704,8.663l-2.303,20.295c0,0,10.549-7.917,12.427-10.546
					c0.87-1.218,4.051-5.123,7.215-8.965C193.716,266.252,194.205,262.158,194.851,259.746z"/>
				
					<line fill="none" stroke="#263238" stroke-linecap="round" stroke-linejoin="round" stroke-miterlimit="10" x1="190.836" y1="265.472" x2="194.136" y2="263.756"/>
				
					<line fill="none" stroke="#263238" stroke-linecap="round" stroke-linejoin="round" stroke-miterlimit="10" x1="191.76" y1="269.695" x2="194.796" y2="267.715"/>
				<path fill="none" stroke="#263238" stroke-linecap="round" stroke-linejoin="round" stroke-miterlimit="10" d="M190.268,262.723
					c0,0-1.497,4.794,3.135,9.551"/>
			</g>
			<path fill="#FFFFFF" stroke="#263238" stroke-linecap="round" stroke-linejoin="round" stroke-miterlimit="10" d="
				M216.814,242.352c0,0,0.375,2.629,0.25,4.006s-0.501,2.754-1.252,3.005c-0.751,0.25-1.126-3.38-0.876-4.257
				C215.187,244.23,216.814,242.352,216.814,242.352z"/>
			<path fill="#FFFFFF" stroke="#263238" stroke-linecap="round" stroke-linejoin="round" stroke-miterlimit="10" d="
				M214.937,245.106c0,0-2.379,2.253-2.504,3.005c-0.125,0.751,0.501,4.507,1.252,4.382c0.751-0.125,2.629-2.504,2.128-3.13
				S214.937,245.106,214.937,245.106z"/>
			<path fill="#FFFFFF" stroke="#263238" stroke-linecap="round" stroke-linejoin="round" stroke-miterlimit="10" d="
				M212.433,248.111c0,0-1.878,2.128-1.878,3.255s0,3.005,0.501,3.631c0.5,0.626,1.001,0.501,1.627-0.501s1.001-2.003,1.001-2.003
				L212.433,248.111z"/>
			<path fill="#FFFFFF" stroke="#263238" stroke-linecap="round" stroke-linejoin="round" stroke-miterlimit="10" d="
				M211.056,254.997c0,0-1.377-3.38-1.753-3.005c-0.375,0.376-0.876,1.377-0.751,2.128c0.125,0.752,0.5,2.63,1.127,3.13
				C210.304,257.751,210.805,255.873,211.056,254.997z"/>
		</g>
		<g>
			<g>
				<path fill="#92E3A9" stroke="#263238" stroke-linecap="round" stroke-linejoin="round" stroke-miterlimit="10" d="
					M122.688,301.721c0,0-1.851,1.851-0.925,3.701s12.213,8.513,25.722,11.288c13.509,2.775,23.131,1.851,24.797,0.37
					s2.036-6.847,2.036-6.847s-15.359,0.74-30.348-4.627c-14.989-5.366-17.765-6.291-18.69-6.477
					C124.353,298.945,122.688,301.721,122.688,301.721z"/>
				
					<line fill="none" stroke="#263238" stroke-linecap="round" stroke-linejoin="round" stroke-miterlimit="10" x1="125.819" y1="303.639" x2="124.631" y2="305.883"/>
				
					<line fill="none" stroke="#263238" stroke-linecap="round" stroke-linejoin="round" stroke-miterlimit="10" x1="127.403" y1="309.051" x2="128.591" y2="306.543"/>
				
					<line fill="none" stroke="#263238" stroke-linecap="round" stroke-linejoin="round" stroke-miterlimit="10" x1="133.607" y1="307.73" x2="132.683" y2="310.502"/>
				
					<line fill="none" stroke="#263238" stroke-linecap="round" stroke-linejoin="round" stroke-miterlimit="10" x1="138.886" y1="309.71" x2="137.962" y2="312.746"/>
				
					<line fill="none" stroke="#263238" stroke-linecap="round" stroke-linejoin="round" stroke-miterlimit="10" x1="161.984" y1="315.122" x2="161.588" y2="316.838"/>
				
					<line fill="none" stroke="#263238" stroke-linecap="round" stroke-linejoin="round" stroke-miterlimit="10" x1="166.736" y1="315.254" x2="166.208" y2="317.366"/>
			</g>
			<path fill="#92E3A9" stroke="#263238" stroke-linecap="round" stroke-linejoin="round" stroke-miterlimit="10" d="
				M138.046,221.964c0,0-9.623,12.028-9.993,20.541s2.591,43.117,2.591,43.117s-8.882,13.324-7.957,16.1
				s25.722,11.288,34.049,12.398c8.328,1.11,16.655,1.48,18.32-1.48s2.776-15.174,4.256-29.238
				c1.48-14.063-1.11-33.494-4.626-39.786c-3.516-6.292-12.769-12.213-12.769-12.213S140.452,221.409,138.046,221.964z"/>
			<g>
				<path fill="#92E3A9" stroke="#263238" stroke-linecap="round" stroke-linejoin="round" stroke-miterlimit="10" d="M137.306,224
					c0,0,1.48-12.583,2.591-12.769s23.501,6.107,23.872,7.772s-0.925,12.213-1.851,12.398S137.306,224,137.306,224z"/>
				
					<line fill="none" stroke="#263238" stroke-linecap="round" stroke-linejoin="round" stroke-miterlimit="10" x1="141.748" y1="214.007" x2="140.649" y2="222.236"/>
				
					<line fill="none" stroke="#263238" stroke-linecap="round" stroke-linejoin="round" stroke-miterlimit="10" x1="144.964" y1="216.559" x2="143.828" y2="224.507"/>
				
					<line fill="none" stroke="#263238" stroke-linecap="round" stroke-linejoin="round" stroke-miterlimit="10" x1="150.868" y1="214.515" x2="149.505" y2="223.145"/>
				
					<line fill="none" stroke="#263238" stroke-linecap="round" stroke-linejoin="round" stroke-miterlimit="10" x1="153.593" y1="228.822" x2="154.501" y2="222.463"/>
			</g>
		</g>
		<g>
			<path fill="#92E3A9" stroke="#263238" stroke-linecap="round" stroke-linejoin="round" stroke-miterlimit="10" d="
				M136.381,226.405c0,0-6.662,1.851-8.882,8.327c-2.221,6.477,0.925,54.96,3.331,57.551s42.006-28.128,42.006-28.128
				s2.221-0.185,4.812-2.035s5.181-4.626,5.181-4.626s-1.295,3.886,0.925,2.59c2.221-1.295,4.441-4.07,3.701-6.477
				c-0.74-2.405-4.441-5.736-4.441-5.736s-0.925-1.666,2.221-1.295s3.701,3.701,5.367,2.961s1.48-2.036-1.666-4.256
				c-3.146-2.221-8.513-2.96-10.363-0.37c-1.851,2.591-10.733,14.989-10.733,14.989l-22.946,9.067l-1.11-30.533"/>
			
				<line fill="none" stroke="#263238" stroke-linecap="round" stroke-linejoin="round" stroke-miterlimit="10" x1="160.665" y1="265.098" x2="163.305" y2="263.91"/>
			
				<line fill="none" stroke="#263238" stroke-linecap="round" stroke-linejoin="round" stroke-miterlimit="10" x1="161.193" y1="268.662" x2="164.756" y2="267.342"/>
			<path fill="#FFFFFF" stroke="#263238" stroke-linecap="round" stroke-linejoin="round" stroke-miterlimit="10" d="
				M165.775,269.547c4.213-3.182,7.061-5.392,7.061-5.392s2.221-0.185,4.812-2.035s5.181-4.626,5.181-4.626s-1.295,3.886,0.925,2.59
				c2.221-1.295,4.441-4.07,3.701-6.477c-0.74-2.405-4.441-5.736-4.441-5.736s-0.925-1.666,2.221-1.295s3.701,3.701,5.367,2.961
				c1.665-0.74,1.48-2.036-1.666-4.256s-8.513-2.961-10.363-0.37c-1.851,2.591-10.733,14.989-10.733,14.989l-4.718,1.864
				L165.775,269.547z"/>
			
				<line fill="none" stroke="#263238" stroke-linecap="round" stroke-linejoin="round" stroke-miterlimit="10" x1="159.142" y1="263.23" x2="162.473" y2="271.372"/>
		</g>
		<path fill="#FFFFFF" stroke="#263238" stroke-linecap="round" stroke-linejoin="round" stroke-miterlimit="10" d="
			M224.624,243.508l12.878,6.27c0,0-11.184,4.405-16.437,11.014s-7.456,14.064-7.456,14.064l-7.117-8.643L224.624,243.508z"/>
		<path fill="#FFFFFF" stroke="#263238" stroke-linecap="round" stroke-linejoin="round" stroke-miterlimit="10" d="M213.393,237.02
			c0,0-5.074,11.84-7.611,16.632c-2.537,4.793-7.048,12.404-7.048,12.404s4.229,2.537,6.766,5.074
			c2.538,2.537,6.202,6.766,6.202,6.766s4.792-16.633,6.766-21.707c1.974-5.074,12.968-16.069,12.968-16.069L213.393,237.02z"/>
		<path fill="#FFFFFF" stroke="#263238" stroke-linecap="round" stroke-linejoin="round" stroke-miterlimit="10" d="
			M204.744,242.929c0,0,8.638-0.149,8.787,0.745s-0.942,3.094-3.227,3.186c-2.284,0.091-4.256,0.125-4.256,0.125"/>
		<polyline fill="none" stroke="#919191" stroke-linecap="round" stroke-linejoin="round" stroke-miterlimit="10" points="
			162.128,329.259 160.159,338.12 155.564,418.529 		"/>
	</g>
</g>
</svg>
